<svg xmlns="http://www.w3.org/2000/svg" xmlns:xlink="http://www.w3.org/1999/xlink" fill="none" version="1.1" width="13.066665649414062" height="14" viewBox="0 0 13.066665649414062 14"><g><path d="M8.4,0L8.40002,2.73328C8.40002,3.24874,8.40002,4.66663,10.3333,4.66663L13.0667,4.66667L13.0667,12.0667C13.0667,14,11.6488,14,11.1334,14L1.93335,14C1.41788,14,0,13.5,0,12.0667L0,1.93335C-4.27246e-7,1.41788,0,0,1.93335,0L8.4,0ZM9.33333,0L13.0667,3.73333L10.8,3.73328C9.33331,3.73328,9.33331,2.52446,9.33331,2.26672L9.33333,0ZM4.79267,8.92033C4.03871,8.93517,2.78596,9.4873,2.78133,10.024Q2.7767,10.5607,2.8,11.2C2.8,11.4577,3.00893,11.6667,3.26667,11.6667L7.93333,11.6667C8.19107,11.6667,8.4,11.4577,8.4,11.2Q8.41274,10.3868,8.38133,9.856C8.34993,9.32519,6.86933,8.93014,6.398,8.93013C6.762,8.5414,7,7.94267,7,7.46667C7,6.69347,6.3732,6.06667,5.6,6.06667C4.8268,6.06667,4.2,6.69347,4.2,7.46667C4.2,7.93893,4.4338,8.53067,4.79267,8.92033Z" fill="#1890FF" fill-opacity="1"/></g></svg>