<svg xmlns="http://www.w3.org/2000/svg" xmlns:xlink="http://www.w3.org/1999/xlink" fill="none" version="1.1" width="18" height="18.000019073486328" viewBox="0 0 18 18.000019073486328"><g><path d="M3.28295,1.9324C2.32295,1.9324,1.53799,2.71227,1.53799,3.67716L1.53799,14.717C1.53799,15.6771,2.32295,16.4571,3.28295,16.4571L14.3277,16.4571C15.2878,16.4571,16.0678,15.6771,16.0678,14.717L16.0678,7.36968L17.611,5.79947L17.611,15.0949C17.611,16.6999,16.2508,18,14.6457,18L2.90517,18C1.30011,18,0,16.6999,0,15.0949L9.7741e-8,3.47931C9.7741e-8,1.87427,1.30011,0.394208,2.90517,0.394208L12.2005,0.394208L10.5479,1.9324L3.28295,1.9324ZM9.98044,10.7396L6.08037,11.8447L7.19541,7.96949L9.98044,10.7396ZM10.3706,10.3497L7.58043,7.58448L13.7106,1.49436L16.5008,4.25937L10.3706,10.3497ZM17.7609,3.00932L16.9258,3.83943L14.1357,1.06927L14.9707,0.239145C15.2808,-0.0657984,15.7657,-0.080936,16.0508,0.20424L17.7958,1.93431C18.0809,2.21924,18.0658,2.70436,17.7609,3.00932Z" fill="#1890FF" fill-opacity="1"/></g></svg>