<svg xmlns="http://www.w3.org/2000/svg" xmlns:xlink="http://www.w3.org/1999/xlink" fill="none" version="1.1" width="12.859819412231445" height="14" viewBox="0 0 12.859819412231445 14"><g><path d="M8.45117,2.60251Q8.29726,2.60251,8.19232,2.49757Q8.08738,2.39263,8.01742,2.25271Q7.94746,2.11279,7.91248,1.96588Q7.8775,1.81896,7.8775,1.72102L7.8775,0L7.90548,0Q8.03141,0,8.14335,0.027984Q8.25529,0.055968,8.41619,0.160908Q8.5771,0.265848,8.80797,0.45474Q9.03884,0.643632,9.38864,0.951456Q9.76642,1.28726,9.99029,1.51813Q10.2142,1.749,10.3331,1.90991Q10.452,2.07082,10.48,2.18275Q10.508,2.29469,10.508,2.37864L10.508,2.60251L8.45117,2.60251ZM12.8027,9.19275Q12.8447,9.30468,12.8587,9.47259Q12.8726,9.64049,12.7187,9.7944Q12.6488,9.86437,12.5928,9.92733Q12.5368,9.99029,12.4949,10.0323Q12.4389,10.0882,12.3969,10.1162L11.2076,8.94089Q11.2915,8.87093,11.3965,8.77299Q11.5014,8.67504,11.5714,8.61908Q11.7393,8.46516,11.9352,8.48615Q12.1311,8.50714,12.257,8.5771Q12.3969,8.64706,12.5578,8.82196Q12.7187,8.99686,12.8027,9.19275ZM7.86351,10.494Q8.17133,10.494,8.38121,10.3261L5.66676,13.1525L1.80497,13.1525Q1.53912,13.1525,1.2243,12.9986Q0.90948,12.8447,0.636636,12.5928Q0.363792,12.341,0.181896,12.0121Q0,11.6833,0,11.3335L0,1.80497Q0,1.51114,0.132924,1.18932Q0.265848,0.867505,0.496716,0.608653Q0.727584,0.349801,1.02142,0.174901Q1.31525,9.35935e-7,1.63706,0.00000110307L6.996,0.00000110307L6.996,1.749Q6.996,2.01485,7.07996,2.32267Q7.16391,2.6305,7.33881,2.88935Q7.51371,3.1482,7.79355,3.3231Q8.07339,3.498,8.46516,3.498L10.508,3.498L10.508,8.12936L8.59109,10.1162Q8.745,9.89235,8.745,9.6265Q8.745,9.26271,8.48615,9.00386Q8.2273,8.74501,7.86351,8.74501L2.61651,8.74501Q2.25271,8.74501,2.00086,9.00386Q1.749,9.26271,1.749,9.6265Q1.749,9.99029,2.00086,10.2422Q2.25271,10.494,2.61651,10.494L7.86351,10.494ZM2.6165,5.247Q2.25271,5.247,2.00086,5.50585Q1.749,5.76471,1.749,6.1285Q1.749,6.49229,2.00086,6.74415Q2.25271,6.996,2.6165,6.996L7.86351,6.996Q8.2273,6.996,8.48615,6.74415Q8.745,6.49229,8.745,6.1285Q8.745,5.76471,8.48615,5.50585Q8.2273,5.247,7.86351,5.247L2.6165,5.247ZM7.89149,12.257L8.07339,12.0751L8.42319,11.7253Q8.63307,11.5154,8.88492,11.2566Q9.13678,10.9977,9.38863,10.7459Q9.99029,10.1442,10.7459,9.40263L11.9212,10.578L10.564,11.9352L10.0603,12.4389L9.59852,12.9006Q9.40263,13.0965,9.2697,13.2364Q9.13678,13.3764,9.12279,13.3903Q9.05283,13.4463,8.96888,13.5093Q8.88492,13.5722,8.80097,13.6142Q8.71702,13.6562,8.54212,13.7192Q8.36722,13.7821,8.18532,13.8381Q8.00343,13.8941,7.83552,13.936Q7.66762,13.978,7.58367,13.992Q7.41576,14.02,7.3598,13.95Q7.30383,13.8801,7.33181,13.7122Q7.3458,13.6282,7.38778,13.4603Q7.42976,13.2924,7.48572,13.1175Q7.54169,12.9426,7.59066,12.7887Q7.63964,12.6348,7.66762,12.5788Q7.75157,12.3969,7.89149,12.257Z" fill="#1890FF" fill-opacity="1"/></g></svg>