<?xml version="1.0" standalone="no"?><!DOCTYPE svg PUBLIC "-//W3C//DTD SVG 1.1//EN" "http://www.w3.org/Graphics/SVG/1.1/DTD/svg11.dtd"><svg t="1614067895500" class="icon" viewBox="0 0 1024 1024" version="1.1" xmlns="http://www.w3.org/2000/svg" p-id="63201" xmlns:xlink="http://www.w3.org/1999/xlink" width="200" height="200"><defs><style type="text/css"></style></defs><path d="M630.1696 145.53088a40.96 40.96 0 0 1 40.96 40.96v100.1472h194.23232a40.96 40.96 0 0 1 4.79232 81.63328l-4.79232 0.28672h-52.67456v429.42464a135.04512 135.04512 0 0 1-127.34464 134.84032l-7.65952 0.2048H348.40576a135.04512 135.04512 0 0 1-135.04512-135.04512V368.55808H159.78496a40.96 40.96 0 0 1-4.79232-81.63328l4.79232-0.28672h194.23232V186.49088a40.96 40.96 0 0 1 36.16768-40.67328l4.79232-0.28672zM401.03936 368.55808H295.3216v429.42464c0 27.52512 20.8896 50.13504 47.7184 52.8384l5.40672 0.28672h329.27744c29.32736 0 53.12512-23.7568 53.12512-53.12512V368.55808h-106.74176v241.2544a40.96 40.96 0 0 1-81.63328 4.79232l-0.24576-4.75136V368.55808H482.9184v241.2544a40.96 40.96 0 0 1-81.63328 4.79232l-0.28672-4.75136V368.55808z m188.12928-141.1072h-153.27232v59.1872h153.27232V227.45088z" fill="#FF4F93" p-id="63202"></path></svg>