<svg xmlns="http://www.w3.org/2000/svg" xmlns:xlink="http://www.w3.org/1999/xlink" fill="none" version="1.1" width="11.466656684875488" height="12" viewBox="0 0 11.466656684875488 12"><g><path d="M11.4667,7.7028L11.4667,11.3333C11.4667,11.7015,11.1683,12,10.8002,12L0.666845,12C0.298683,12,0,11.7015,0,11.3333L9.18171e-7,7.7028C9.18171e-7,7.33464,0.298506,7.03613,0.666668,7.03613C1.03483,7.03613,1.33333,7.33464,1.33333,7.7028L1.33333,10.6667L10.1333,10.6667L10.1333,7.7028C10.1333,7.33464,10.4318,7.03613,10.8,7.03613C11.1682,7.03613,11.4667,7.33464,11.4667,7.7028ZM5.2572,8.53893C5.38259,8.66698,5.55426,8.73913,5.73349,8.73913C5.91274,8.73913,6.08435,8.66698,6.2098,8.53893L8.86944,5.82351C9.12706,5.56048,9.1227,5.13841,8.8596,4.88074C8.59651,4.62318,8.17436,4.62748,7.91675,4.89057L6.4,6.43903L6.4,0.666667C6.4,0.298505,6.10149,0,5.73333,0C5.36517,0,5.06666,0.298505,5.06666,0.666667L5.06666,6.43893L3.55035,4.89057C3.29273,4.62754,2.87084,4.62325,2.60763,4.88074C2.3446,5.13835,2.34021,5.56042,2.59782,5.82351L5.2572,8.53893Z" fill="#1890FF" fill-opacity="1"/></g></svg>