<?xml version="1.0" standalone="no"?><!DOCTYPE svg PUBLIC "-//W3C//DTD SVG 1.1//EN" "http://www.w3.org/Graphics/SVG/1.1/DTD/svg11.dtd"><svg t="1614067908127" class="icon" viewBox="0 0 1024 1024" version="1.1" xmlns="http://www.w3.org/2000/svg" p-id="63705" xmlns:xlink="http://www.w3.org/1999/xlink" width="200" height="200"><defs><style type="text/css"></style></defs><path d="M459.733333 98.986667a42.666667 42.666667 0 0 1 4.949334 85.034666l-4.949334 0.256H247.978667c-32.853333 0-59.861333 25.088-62.933334 57.173334L184.746667 247.466667V776.96c0 32.853333 25.088 59.861333 57.130666 62.933333l6.101334 0.298667H777.386667c32.853333 0 59.861333-25.088 62.890666-57.173333l0.298667-6.058667v-211.754667a42.666667 42.666667 0 0 1 85.034667-4.992l0.298666 4.992v211.754667a148.565333 148.565333 0 0 1-140.373333 148.352l-8.149333 0.213333H247.978667a148.565333 148.565333 0 0 1-148.352-140.373333l-0.213334-8.192V247.509333a148.565333 148.565333 0 0 1 140.373334-148.309333l8.192-0.256h211.754666z m453.674667 12.458666a42.666667 42.666667 0 0 1 3.541333 56.32l-3.541333 4.053334-423.509333 423.509333a42.666667 42.666667 0 0 1-63.872-56.32l3.541333-4.010667 423.509333-423.552a42.666667 42.666667 0 0 1 60.330667 0z" fill="#5864FF" p-id="63706"></path></svg>