<svg xmlns="http://www.w3.org/2000/svg" xmlns:xlink="http://www.w3.org/1999/xlink" fill="none" version="1.1" width="30" height="30" viewBox="0 0 30 30"><defs><linearGradient x1="0.543885350227356" y1="1" x2="0.5390270352363586" y2="0" id="master_svg0_15_7374"><stop offset="0%" stop-color="#387FF7" stop-opacity="1"/><stop offset="100%" stop-color="#1890FF" stop-opacity="1"/></linearGradient></defs><g style="mix-blend-mode:passthrough"><g style="mix-blend-mode:passthrough"><g><path d="M7.913926059875488,6.714300990104649L8.485646059875489,6.714300990104649C8.485646059875489,8.292110155639648,9.76471605987549,9.571180155639649,11.342536059875489,9.571180155639649L18.65746605987549,9.571290155639648C20.23526605987549,9.571290155639648,21.51426605987549,8.292110155639648,21.51426605987549,6.714300155639648L22.08606605987549,6.714300155639648C23.34796605987549,6.714772105639648,24.37076605987549,7.737540155639648,24.371266059875488,8.999410155639648L24.371266059875488,22.713800155639646C24.371266059875488,23.97600015563965,23.34826605987549,24.999500155639648,22.08606605987549,25.000000155639647L7.913926059875488,24.999900155639647C6.651726059875489,24.99940015563965,5.628766059875488,23.97610015563965,5.628766059875488,22.71390015563965L5.628766059875488,8.999460155639648C5.629239522875488,7.737600155639648,6.652066059875488,6.714774370639648,7.913926059875488,6.714300990104649ZM10.199946059875488,11.85720015563965C9.875756059875489,11.844640155639649,9.606096059875489,12.104060155639647,9.606096059875489,12.428490155639649C9.606096059875489,12.75293015563965,9.875756059875489,13.012340155639649,10.199946059875488,12.999790155639648L19.22836605987549,12.999890155639648C19.55256605987549,13.012450155639648,19.82216605987549,12.752980155639648,19.82216605987549,12.428550155639648C19.82216605987549,12.104110155639649,19.55256605987549,11.844640155639649,19.22836605987549,11.85720015563965L10.199946059875488,11.85720015563965ZM10.199946059875488,15.856670155639648C9.884196059875489,15.856670155639648,9.628226059875487,16.11263015563965,9.628226059875487,16.428390155639647C9.628226059875487,16.74410015563965,9.884196059875489,17.00010015563965,10.199946059875488,17.00010015563965L19.22836605987549,17.00010015563965C19.54406605987549,17.00010015563965,19.799966059875487,16.744200155639646,19.799966059875487,16.42849015563965C19.799966059875487,16.11274015563965,19.54406605987549,15.856610155639649,19.22836605987549,15.856610155639649L10.199946059875488,15.856670155639648ZM10.199946059875488,19.857000155639646C9.875756059875489,19.844400155639647,9.606096059875489,20.103800155639647,9.606096059875489,20.428300155639647C9.606096059875489,20.752700155639648,9.875756059875489,21.01210015563965,10.199946059875488,20.999600155639648L16.48546605987549,20.999600155639648C16.80966605987549,21.01210015563965,17.079266059875486,20.752700155639648,17.079266059875486,20.428300155639647C17.079266059875486,20.103800155639647,16.80966605987549,19.844400155639647,16.48546605987549,19.857000155639646L10.199946059875488,19.857000155639646Z" fill="#000000" fill-opacity="1"/><path d="M7.913926059875488,6.714300990104649L8.485646059875489,6.714300990104649C8.485646059875489,8.292110155639648,9.76471605987549,9.571180155639649,11.342536059875489,9.571180155639649L18.65746605987549,9.571290155639648C20.23526605987549,9.571290155639648,21.51426605987549,8.292110155639648,21.51426605987549,6.714300155639648L22.08606605987549,6.714300155639648C23.34796605987549,6.714772105639648,24.37076605987549,7.737540155639648,24.371266059875488,8.999410155639648L24.371266059875488,22.713800155639646C24.371266059875488,23.97600015563965,23.34826605987549,24.999500155639648,22.08606605987549,25.000000155639647L7.913926059875488,24.999900155639647C6.651726059875489,24.99940015563965,5.628766059875488,23.97610015563965,5.628766059875488,22.71390015563965L5.628766059875488,8.999460155639648C5.629239522875488,7.737600155639648,6.652066059875488,6.714774370639648,7.913926059875488,6.714300990104649ZM10.199946059875488,11.85720015563965C9.875756059875489,11.844640155639649,9.606096059875489,12.104060155639647,9.606096059875489,12.428490155639649C9.606096059875489,12.75293015563965,9.875756059875489,13.012340155639649,10.199946059875488,12.999790155639648L19.22836605987549,12.999890155639648C19.55256605987549,13.012450155639648,19.82216605987549,12.752980155639648,19.82216605987549,12.428550155639648C19.82216605987549,12.104110155639649,19.55256605987549,11.844640155639649,19.22836605987549,11.85720015563965L10.199946059875488,11.85720015563965ZM10.199946059875488,15.856670155639648C9.884196059875489,15.856670155639648,9.628226059875487,16.11263015563965,9.628226059875487,16.428390155639647C9.628226059875487,16.74410015563965,9.884196059875489,17.00010015563965,10.199946059875488,17.00010015563965L19.22836605987549,17.00010015563965C19.54406605987549,17.00010015563965,19.799966059875487,16.744200155639646,19.799966059875487,16.42849015563965C19.799966059875487,16.11274015563965,19.54406605987549,15.856610155639649,19.22836605987549,15.856610155639649L10.199946059875488,15.856670155639648ZM10.199946059875488,19.857000155639646C9.875756059875489,19.844400155639647,9.606096059875489,20.103800155639647,9.606096059875489,20.428300155639647C9.606096059875489,20.752700155639648,9.875756059875489,21.01210015563965,10.199946059875488,20.999600155639648L16.48546605987549,20.999600155639648C16.80966605987549,21.01210015563965,17.079266059875486,20.752700155639648,17.079266059875486,20.428300155639647C17.079266059875486,20.103800155639647,16.80966605987549,19.844400155639647,16.48546605987549,19.857000155639646L10.199946059875488,19.857000155639646Z" fill="url(#master_svg0_15_7374)" fill-opacity="1"/></g><g><path d="M11.342528851470947,4.999999516762683L18.65745885147095,4.999999255181684C19.604558851470948,4.999536779325684,20.372668851470948,5.767191046325683,20.372668851470948,6.714299046325683C20.372668851470948,7.661409046325684,19.604558851470948,8.429059046325683,18.65745885147095,8.428599046325683L11.342528851470947,8.428599046325683C10.396077851470947,8.428139046325683,9.629068851470947,7.660759046325683,9.629068851470947,6.714299046325683C9.629068851470947,5.767845046325684,10.396077851470947,5.000461208325683,11.342528851470947,4.999999516762683Z" fill="#FE9025" fill-opacity="1"/></g></g></g></svg>