<svg class="menu-add" xmlns="http://www.w3.org/2000/svg" xmlns:xlink="http://www.w3.org/1999/xlink" fill="none" version="1.1" width="12" height="12" viewBox="0 0 12 12"><g><rect x="0" y="0" width="12.000006675720215" height="12" rx="6" fill="currentColor" fill-opacity="1"/><g><path d="M8.608640000000001,6.3911999999999995L6.3913899999999995,6.3911999999999995L6.3913899999999995,8.608799999999999C6.3913899999999995,8.82491,6.21612,9,6.00001,9C5.7839100000000006,9,5.608639999999999,8.82491,5.608639999999999,8.608799999999999L5.608639999999999,6.3911999999999995L3.391377,6.3911999999999995C3.175092,6.3911999999999995,3,6.2161100000000005,3,6C3,5.78397,3.175112,5.6088000000000005,3.391377,5.6088000000000005L5.60863,5.6088000000000005L5.60863,3.391196C5.60863,3.175172,5.7838899999999995,3,6,3C6.2161100000000005,3,6.39137,3.175179,6.39137,3.391196L6.39137,5.60881L8.60862,5.60881C8.82491,5.60881,9.00001,5.78397,9.00001,5.99999C9,6.2160899999999994,8.824919999999999,6.39118,8.60862,6.39118L8.608640000000001,6.3911999999999995Z" fill="#FFFFFF" fill-opacity="1"/></g></g></svg>