<svg xmlns="http://www.w3.org/2000/svg" xmlns:xlink="http://www.w3.org/1999/xlink" fill="currentColor" version="1.1" width="11.022701263427734" height="12" viewBox="0 0 11.022701263427734 12"><g><path d="M7.24386,2.23073Q7.11194,2.23073,7.02199,2.14078Q6.93204,2.05083,6.87207,1.9309Q6.81211,1.81097,6.78212,1.68504Q6.75214,1.55911,6.75214,1.47516L6.75214,0L6.77613,0Q6.88407,0,6.98001,0.0239863Q7.07596,0.0479726,7.21388,0.137921Q7.3518,0.22787,7.54969,0.389777Q7.74757,0.551685,8.0474,0.815534Q8.37122,1.10337,8.56311,1.30126Q8.755,1.49914,8.85694,1.63706Q8.95888,1.77499,8.98287,1.87093Q9.00685,1.96688,9.00685,2.03884L9.00685,2.23073L7.24386,2.23073ZM10.9737,7.8795Q11.0097,7.97544,11.0217,8.11936Q11.0337,8.26328,10.9018,8.3952Q10.8418,8.45517,10.7938,8.50914Q10.7459,8.56311,10.7099,8.59909Q10.6619,8.64706,10.6259,8.67105L9.60651,7.66362Q9.67847,7.60366,9.76842,7.5197Q9.85837,7.43575,9.91833,7.38778Q10.0623,7.25585,10.2302,7.27384Q10.3981,7.29183,10.506,7.3518Q10.6259,7.41177,10.7639,7.56168Q10.9018,7.71159,10.9737,7.8795ZM6.74015,8.99486Q7.004,8.99486,7.18389,8.85094L4.85722,11.2736L1.54712,11.2736Q1.31925,11.2736,1.0494,11.1416Q0.779555,11.0097,0.545688,10.7938Q0.311822,10.578,0.155911,10.2961Q0,10.0143,0,9.71445L0,1.54712Q0,1.29526,0.113935,1.01942Q0.22787,0.743576,0.425757,0.521703Q0.623643,0.29983,0.8755,0.149915Q1.12736,8.0223e-7,1.4032,9.45486e-7L5.99657,9.45486e-7L5.99657,1.49914Q5.99657,1.72701,6.06853,1.99086Q6.14049,2.25471,6.29041,2.47659Q6.44032,2.69846,6.68018,2.84837Q6.92005,2.99829,7.25585,2.99829L9.00685,2.99829L9.00685,6.96802L7.36379,8.67105Q7.49572,8.47916,7.49572,8.25129Q7.49572,7.93946,7.27384,7.71759Q7.05197,7.49572,6.74015,7.49572L2.24272,7.49572Q1.9309,7.49572,1.71502,7.71759Q1.49914,7.93946,1.49914,8.25129Q1.49914,8.56311,1.71502,8.77899Q1.9309,8.99486,2.24272,8.99486L6.74015,8.99486ZM2.24272,4.49743Q1.9309,4.49743,1.71502,4.7193Q1.49914,4.94118,1.49914,5.253Q1.49914,5.56482,1.71502,5.7807Q1.9309,5.99657,2.24272,5.99657L6.74015,5.99657Q7.05197,5.99657,7.27384,5.7807Q7.49572,5.56482,7.49572,5.253Q7.49572,4.94118,7.27384,4.7193Q7.05197,4.49743,6.74015,4.49743L2.24272,4.49743ZM6.76413,10.506L6.92005,10.3501L7.21987,10.0503Q7.39977,9.87036,7.61565,9.64849Q7.83152,9.42661,8.0474,9.21074Q8.56311,8.69503,9.21074,8.05939L10.2182,9.06682L9.05482,10.2302L8.62307,10.6619L8.2273,11.0577Q8.05939,11.2256,7.94546,11.3455Q7.83153,11.4654,7.81953,11.4774Q7.75957,11.5254,7.68761,11.5794Q7.61565,11.6334,7.54369,11.6693Q7.47173,11.7053,7.32182,11.7593Q7.1719,11.8132,7.01599,11.8612Q6.86008,11.9092,6.71616,11.9452Q6.57225,11.9812,6.50029,11.9931Q6.35637,12.0171,6.3084,11.9572Q6.26042,11.8972,6.28441,11.7533Q6.2964,11.6813,6.33238,11.5374Q6.36836,11.3935,6.41633,11.2436Q6.46431,11.0937,6.50628,10.9617Q6.54826,10.8298,6.57225,10.7818Q6.6442,10.6259,6.76413,10.506Z" fill="currentColor" fill-opacity="1"/></g></svg>