<svg xmlns="http://www.w3.org/2000/svg" xmlns:xlink="http://www.w3.org/1999/xlink" fill="currentColor" version="1.1" width="16" height="16" viewBox="0 0 16 16"><defs><clipPath id="master_svg0_13286_053159"><rect x="0" y="0" width="16" height="16" rx="0"/></clipPath></defs><g clip-path="url(#master_svg0_13286_053159)"><g><g><path d="M3.423095873413086,4.831958872909546L12.576905873413086,4.831958872909546C12.884985873413086,4.831958872909546,13.134685873413085,4.582218872909546,13.134685873413085,4.274148872909546C13.134685873413085,3.966078872909546,12.884985873413086,3.716338872909546,12.576905873413086,3.716338872909546L3.423095873413086,3.716338872909546C3.115025873413086,3.716338872909546,2.865285873413086,3.966078872909546,2.865285873413086,4.274148872909546C2.865285873413086,4.582218872909546,3.115025873413086,4.831958872909546,3.423095873413086,4.831958872909546Z" fill-rule="evenodd" fill="currentColor" fill-opacity="1"/></g><g><path d="M6.283814362106323,3.11562L9.716494362106323,3.11562C10.024564362106323,3.11562,10.274304362106324,2.8658799999999998,10.274304362106324,2.55781C10.274304362106324,2.24974,10.024564362106323,2,9.716494362106323,2L6.283814362106323,2C5.975744362106323,2,5.726004362106323,2.24974,5.726004362106323,2.55781C5.726004362106323,2.8658799999999998,5.975744362106323,3.11562,6.283814362106323,3.11562Z" fill-rule="evenodd" fill="currentColor" fill-opacity="1"/></g><g><path d="M3.7093061804771423,12.349675397033693L3.7093061804771423,6.276474397033692C3.7093061804771423,5.802521397033692,4.093522180477143,5.418305397033691,4.5674751804771425,5.418305397033691L11.432836180477143,5.418305397033691C11.906786180477143,5.418305397033691,12.290996180477142,5.802521397033692,12.290996180477142,6.276474397033692L12.290996180477142,12.349675397033693Q12.290996180477142,13.053535397033691,11.763566180477142,13.540405397033691Q11.265666180477142,13.999995397033691,10.574666180477141,13.999995397033691L5.425646180477142,13.999995397033691Q4.734636180477143,13.999995397033691,4.236743180477142,13.540405397033691Q3.7093061804771423,13.053535397033691,3.7093061804771423,12.349675397033693ZM6.3821161804771425,12.429665397033691L9.618396180477141,12.429665397033691C9.732206180477142,12.429665397033691,9.841336180477143,12.38445539703369,9.921806180477143,12.303985397033692C10.002276180477143,12.22351539703369,10.047486180477144,12.114385397033692,10.047486180477144,12.000585397033692C10.047486180477144,11.886785397033691,10.002276180477143,11.777645397033691,9.921806180477143,11.697175397033693C9.841336180477143,11.61670539703369,9.732206180477142,11.571495397033692,9.618086180477142,11.571495397033692L6.3820461804771424,11.571495397033692C6.2682361804771425,11.571495397033692,6.159106180477142,11.61670539703369,6.078636180477142,11.697175397033693C5.998166180477142,11.777645397033691,5.952956180477143,11.886775397033691,5.952956180477143,12.000585397033692C5.952956180477143,12.114385397033692,5.998166180477142,12.22351539703369,6.078636180477142,12.303985397033692C6.159106180477142,12.38445539703369,6.2682361804771425,12.429665397033691,6.3821161804771425,12.429665397033691Z" fill-rule="evenodd" fill="currentColor" fill-opacity="1"/></g></g></g></svg>