<svg xmlns="http://www.w3.org/2000/svg" xmlns:xlink="http://www.w3.org/1999/xlink" fill="none" version="1.1" width="248" height="191" viewBox="0 0 248 191"><defs><clipPath id="master_svg0_8428_040184"><rect x="0" y="0" width="248" height="191" rx="0"/></clipPath><linearGradient x1="0.49997153878211975" y1="-0.2990441620349884" x2="0.49997153878211975" y2="0.5508079528808594" id="master_svg1_19_04310"><stop offset="0%" stop-color="#CFDFFA" stop-opacity="1"/><stop offset="0.000006050502321386375%" stop-color="#CFDFFA" stop-opacity="1"/><stop offset="38.22000026702881%" stop-color="#D3E2FA" stop-opacity="0.6177999973297119"/><stop offset="77.85999774932861%" stop-color="#E0E9FB" stop-opacity="0.22139999270439148"/><stop offset="100%" stop-color="#EAF0FC" stop-opacity="0"/></linearGradient><linearGradient x1="0.4999999701976776" y1="-1.7763568394002505e-15" x2="0.4999999701976776" y2="1" id="master_svg2_19_04321"><stop offset="0%" stop-color="#CFDFFA" stop-opacity="1"/><stop offset="100%" stop-color="#EAF0FC" stop-opacity="0"/></linearGradient><linearGradient x1="0.5000000596046448" y1="8.881784197001252e-16" x2="0.5000000596046448" y2="1" id="master_svg3_19_04317"><stop offset="0%" stop-color="#CFDFFA" stop-opacity="1"/><stop offset="0.000012101000379516336%" stop-color="#CFDFFA" stop-opacity="1"/><stop offset="100%" stop-color="#EAF0FC" stop-opacity="0"/></linearGradient><linearGradient x1="0.012635636143386364" y1="2.6799819469451904" x2="0.6512981057167053" y2="0.17873553931713104" id="master_svg4_19_04228"><stop offset="0%" stop-color="#BFD4FA" stop-opacity="0"/><stop offset="60.11999845504761%" stop-color="#5792F0" stop-opacity="1"/><stop offset="100%" stop-color="#5792F0" stop-opacity="0"/></linearGradient><linearGradient x1="0.3185983896255493" y1="0.023923521861433983" x2="0.6814947128295898" y2="0.976107656955719" id="master_svg5_19_04279"><stop offset="0%" stop-color="#ABC2EE" stop-opacity="1"/><stop offset="26.930001378059387%" stop-color="#94B1E7" stop-opacity="1"/><stop offset="74.50000047683716%" stop-color="#7197DC" stop-opacity="1"/><stop offset="100%" stop-color="#638DD8" stop-opacity="1"/></linearGradient><linearGradient x1="0.08982524275779724" y1="0.7832895517349243" x2="0.9100688099861145" y2="0.21691681444644928" id="master_svg6_19_04300"><stop offset="0%" stop-color="#ABC2EE" stop-opacity="1"/><stop offset="26.930001378059387%" stop-color="#94B1E7" stop-opacity="1"/><stop offset="74.50000047683716%" stop-color="#7197DC" stop-opacity="1"/><stop offset="100%" stop-color="#638DD8" stop-opacity="1"/></linearGradient><linearGradient x1="-0.0157375056296587" y1="0.004102872684597969" x2="1.0156457424163818" y2="0.9959028959274292" id="master_svg7_19_04296"><stop offset="0%" stop-color="#ABC2EE" stop-opacity="1"/><stop offset="26.930001378059387%" stop-color="#94B1E7" stop-opacity="1"/><stop offset="74.50000047683716%" stop-color="#7197DC" stop-opacity="1"/><stop offset="100%" stop-color="#638DD8" stop-opacity="1"/></linearGradient><linearGradient x1="0.5994979739189148" y1="0.9470672011375427" x2="0.40053606033325195" y2="0.053144730627536774" id="master_svg8_19_04283"><stop offset="0%" stop-color="#BFD4FA" stop-opacity="1"/><stop offset="100%" stop-color="#87B6FA" stop-opacity="1"/></linearGradient><linearGradient x1="0.40821048617362976" y1="0.895677387714386" x2="0.5901066064834595" y2="0.09709847718477249" id="master_svg9_19_04305"><stop offset="0%" stop-color="#BFD4FA" stop-opacity="1"/><stop offset="100%" stop-color="#87B6FA" stop-opacity="1"/></linearGradient><linearGradient x1="0.5371823906898499" y1="0.9131951332092285" x2="0.4628504514694214" y2="0.07836265116930008" id="master_svga_19_04291"><stop offset="0%" stop-color="#BFD4FA" stop-opacity="1"/><stop offset="100%" stop-color="#87B6FA" stop-opacity="1"/></linearGradient><linearGradient x1="0.0011863370891660452" y1="0.49907374382019043" x2="1.0004866123199463" y2="0.49907374382019043" id="master_svgb_19_04270"><stop offset="0%" stop-color="#B5D1FC" stop-opacity="1"/><stop offset="100%" stop-color="#CDE0FC" stop-opacity="1"/></linearGradient><linearGradient x1="-0.0004920830833725631" y1="0.49919652938842773" x2="1.0006848573684692" y2="0.49919652938842773" id="master_svgc_19_04220"><stop offset="0%" stop-color="#B5D1FC" stop-opacity="1"/><stop offset="100%" stop-color="#CDE0FC" stop-opacity="1"/></linearGradient><linearGradient x1="0.16854166984558105" y1="0.38962191343307495" x2="1.1316732168197632" y2="0.9320822954177856" id="master_svgd_19_04224"><stop offset="0%" stop-color="#B5D1FC" stop-opacity="1"/><stop offset="11.289999634027481%" stop-color="#B9D4FC" stop-opacity="1"/><stop offset="59.50999855995178%" stop-color="#C8DDFC" stop-opacity="1"/><stop offset="100%" stop-color="#CDE0FC" stop-opacity="1"/></linearGradient><linearGradient x1="0.00019675200746860355" y1="0.5001558065414429" x2="1.000162124633789" y2="0.5001558065414429" id="master_svge_19_04237"><stop offset="0%" stop-color="#B5D1FC" stop-opacity="1"/><stop offset="100%" stop-color="#CDE0FC" stop-opacity="1"/></linearGradient><linearGradient x1="0" y1="0" x2="0" y2="0" id="master_svgf_19_04233"><stop offset="0%" stop-color="#B5D1FC" stop-opacity="1"/><stop offset="100%" stop-color="#DAE8FC" stop-opacity="1"/></linearGradient></defs><g clip-path="url(#master_svg0_8428_040184)"><g style="opacity:0.30000001192092896;mix-blend-mode:luminosity"><g><path d="M223.98506038196385,161.00004926757813L24.015077024563848,161.00004926757813Q24.36747138196385,159.86494926757814,24.81690638196385,158.73894926757814Q25.26634038196385,157.61304926757813,25.81194038196385,156.49834926757813Q26.35754038196385,155.3836492675781,26.99824038196385,154.28244926757813Q27.63895038196385,153.18124926757812,28.37350038196385,152.09564926757812Q29.10806038196385,151.01014926757813,29.935040381963848,149.94224926757812Q30.76202038196385,148.8743492675781,31.679810381963847,147.8263492675781Q32.59761038196385,146.77824926757813,33.60442038196385,145.75204926757812Q34.611260381963845,144.72584926757813,35.70516038196385,143.72354926757814Q36.79896038196385,142.7211492675781,37.97786038196385,141.74464926757813Q39.156660381963846,140.76804926757814,40.41806038196385,139.81914926757813Q41.67956038196385,138.87034926757812,43.02116038196385,137.95104926757813Q44.36276038196385,137.03174926757814,45.78196038196385,136.14374926757813Q47.201160381963845,135.25584926757813,48.695160381963845,134.4009492675781Q50.189160381963845,133.54604926757813,51.755060381963844,132.72584926757813Q53.32096038196385,131.90574926757813,54.95566038196385,131.12194926757812Q56.59036038196385,130.33814926757813,58.29076038196385,129.59214926757812Q59.99116038196385,128.8461492675781,61.75386038196385,128.13954926757813Q63.51656038196385,127.43294926757812,65.33826038196385,126.76695926757813Q67.15986038196385,126.10100926757812,69.03686038196385,125.47704926757812Q70.91386038196384,124.85308926757813,72.84256038196385,124.27232926757813Q74.77126038196386,123.69156926757813,76.74796038196385,123.15514926757812Q78.72456038196384,122.61872926757812,80.74536038196385,122.12768926757812Q82.76606038196385,121.63663926757812,84.82696038196386,121.19193926757812Q86.88786038196385,120.74722926757812,88.98496038196384,120.34972926757813Q91.08206038196384,119.95221926757813,93.21116038196385,119.60269926757813Q95.34026038196384,119.25316926757813,97.49726038196386,118.95229926757813Q99.65436038196385,118.65142926757812,101.83506038196384,118.39980926757812Q104.01576038196384,118.14817926757813,106.21606038196384,117.94629126757812Q108.41626038196385,117.74440126757813,110.63166038196385,117.59263826757812Q112.84696038196385,117.44087526757812,115.07326038196385,117.33953526757813Q117.29946038196385,117.23819526757812,119.53226038196385,117.18747616757813Q121.76506038196385,117.13675689696812,123.99996038196385,117.13675689696812Q126.23506038196385,117.13675689696812,128.46806038196385,117.18747616757813Q130.70006038196385,117.23819526757812,132.92706038196386,117.33953526757813Q135.15306038196385,117.44087526757812,137.36806038196386,117.59263826757812Q139.58406038196387,117.74440126757813,141.78406038196385,117.94629126757812Q143.98406038196384,118.14817926757813,146.16506038196385,118.39980926757812Q148.34606038196387,118.65142926757812,150.50306038196385,118.95229926757813Q152.66006038196386,119.25316926757813,154.78906038196385,119.60269926757813Q156.91806038196384,119.95221926757813,159.01506038196385,120.34972926757813Q161.11206038196386,120.74722926757812,163.17306038196384,121.19193926757812Q165.23406038196384,121.63663926757812,167.25506038196386,122.12768926757812Q169.27506038196384,122.61872926757812,171.25206038196384,123.15514926757812Q173.22906038196385,123.69156926757813,175.15706038196384,124.27232926757813Q177.08606038196385,124.85308926757813,178.96306038196386,125.47704926757812Q180.84006038196384,126.10100926757812,182.66206038196384,126.76695926757813Q184.48306038196384,127.43294926757812,186.24606038196384,128.13954926757813Q188.00906038196385,128.8461492675781,189.70906038196384,129.59214926757812Q191.41006038196386,130.33814926757813,193.04406038196385,131.12194926757812Q194.67906038196384,131.90574926757813,196.24506038196384,132.72584926757813Q197.81106038196384,133.54604926757813,199.30506038196384,134.4009492675781Q200.79906038196384,135.25584926757813,202.21806038196385,136.14374926757813Q203.63706038196386,137.03174926757814,204.97906038196385,137.95104926757813Q206.32006038196386,138.87034926757812,207.58206038196386,139.81914926757813Q208.84306038196385,140.76804926757814,210.02206038196385,141.74464926757813Q211.20106038196386,142.7211492675781,212.29506038196385,143.72354926757814Q213.38906038196384,144.72584926757813,214.39506038196384,145.75204926757812Q215.40206038196385,146.77824926757813,216.32006038196386,147.8263492675781Q217.23806038196386,148.8743492675781,218.06506038196386,149.94224926757812Q218.89206038196386,151.01014926757813,219.62606038196384,152.09564926757812Q220.36106038196385,153.18124926757812,221.00206038196384,154.28244926757813Q221.64206038196386,155.3836492675781,222.18806038196385,156.49834926757813Q222.73406038196384,157.61304926757813,223.18306038196386,158.73894926757814Q223.63206038196384,159.86494926757814,223.98506038196385,161.00004926757813Z" fill-rule="evenodd" fill="url(#master_svg1_19_04310)" fill-opacity="1"/></g><g style="opacity:0.8999999761581421;"><g style="opacity:0.8999999761581421;"><path d="M150.80707563476562,9.67054C150.68708563476562,9.12539,150.63908563476562,8.60394,150.63908563476562,8.03508C150.63908563476562,3.60275,154.28687563476564,0,158.77467563476563,0C161.79857563476563,0,164.4384756347656,1.61176,165.83037563476563,4.02939C166.69437563476563,3.65015,167.6302756347656,3.43683,168.63827563476562,3.43683C171.61417563476562,3.43683,174.15797563476562,5.28562,175.18997563476563,7.86917C175.64597563476562,7.79806,176.1019756347656,7.77435,176.58187563476562,7.77435C181.93367563476562,7.77435,186.2774756347656,12.0645,186.2774756347656,17.3501C186.2774756347656,22.6357,181.93367563476562,26.9258,176.58187563476562,26.9258C174.39797563476563,26.9258,172.3820756347656,26.2147,170.77417563476564,25.0296C170.77417563476564,25.0296,151.79102563476562,25.0296,151.79102563476562,25.0296C151.5030456347656,25.0533,151.23905563476563,25.077,150.95106563476563,25.077C150.66307563476562,25.077,150.37509563476561,25.0533,150.11110563476564,25.0296C146.17528563476563,24.6267,143.12741743476562,21.3321,143.15141638376562,17.3738C143.15141638376562,13.1785,146.55926563476564,9.74165,150.80707563476562,9.67054Z" fill="url(#master_svg2_19_04321)" fill-opacity="1"/></g><g style="opacity:0.8999999761581421;"><path d="M68.58669002278889,36.14604296875C69.35469002278889,36.14604296875,70.07469002278889,36.24084296875,70.79459002278888,36.383042968750004C72.01859002278889,29.39085296875,78.18629002278888,24.08154296875,85.62599002278888,24.08154296875C91.00169002278889,24.08154296875,95.72949002278888,26.87841296875,98.39339002278888,31.07372296875C98.89739002278888,31.00261296875,99.42529002278889,30.95521296875,99.95329002278888,30.95521296875C104.34509002278888,30.95521296875,108.1369900227889,33.46765296875,109.93689002278887,37.14154296875C110.29689002278889,37.11784296875,110.68079002278888,37.09414296875,111.04079002278888,37.09414296875C117.20849002278888,37.09414296875,122.22429002278888,42.047842968750004,122.22429002278888,48.13934296875C122.22429002278888,54.23084296875,117.20849002278888,59.18464296875,111.04079002278888,59.18464296875C108.56889002278888,59.18464296875,106.26499002278888,58.37874296875,104.41709002278888,57.02774296875C104.41709002278888,57.02774296875,69.88269002278888,57.02774296875,69.88269002278888,57.02774296875C69.45069002278888,57.07514296875,68.99469002278889,57.09884296875,68.56269002278889,57.09884296875C68.13069002278888,57.09884296875,67.69875002278889,57.07514296875,67.26677002278888,57.02774296875C67.26677002278888,57.02774296875,67.21878002278888,57.02774296875,67.21878002278888,57.02774296875C61.98701002278888,56.36404296875,57.955190022788884,51.95544296875,57.955190022788884,46.64614296875C57.955190022788884,40.83904296875,62.73097002278888,36.14604296875,68.58669002278889,36.14604296875Z" fill="url(#master_svg3_19_04317)" fill-opacity="1"/></g></g><g style="opacity:0.3199999928474426;"><path d="M174.51780315551758,137.87622904052733C174.51780315551758,137.87622904052733,191.48500315551757,130.38632904052736,191.48500315551757,130.38632904052736C191.48500315551757,130.38632904052736,163.0703031555176,119.83882904052734,163.0703031555176,119.83882904052734C163.0703031555176,119.83882904052734,131.46370315551758,137.09412904052735,131.46370315551758,137.09412904052735C131.46370315551758,137.09412904052735,174.51780315551758,137.87622904052733,174.51780315551758,137.87622904052733Z" fill="url(#master_svg4_19_04228)" fill-opacity="1"/></g><g><g><path d="M73.29008626937866,127.25761666463276C73.29008626937866,127.25761666463276,139.38308626937868,118.08491666463277,139.38308626937868,118.08491666463277C139.38308626937868,118.08491666463277,139.50308626937866,58.78171666463277,139.50308626937866,58.78171666463277C139.50308626937866,58.78171666463277,73.43408126937867,67.95450666463277,73.43408126937867,67.95450666463277C73.43408126937867,67.95450666463277,73.29008626937866,127.25761666463276,73.29008626937866,127.25761666463276Z" fill="#63A6F9" fill-opacity="1"/></g><g><path d="M73.29008626937866,127.73165637817382C73.29008626937866,127.73165637817382,139.38308626937868,118.55895637817383,139.38308626937868,118.55895637817383C139.38308626937868,118.55895637817383,139.50308626937866,59.25575637817383,139.50308626937866,59.25575637817383C139.50308626937866,59.25575637817383,73.43408126937867,68.42854637817383,73.43408126937867,68.42854637817383C73.43408126937867,68.42854637817383,73.29008626937866,127.73165637817382,73.29008626937866,127.73165637817382Z" fill="url(#master_svg5_19_04279)" fill-opacity="1"/></g><g><path d="M73.43408126937867,68.45235061645508C73.43408126937867,68.45235061645508,73.29008626937866,127.75555061645508,73.29008626937866,127.75555061645508C73.29008626937866,127.75555061645508,108.71248626937867,146.78845061645507,108.71248626937867,146.78845061645507C108.71248626937867,146.78845061645507,108.85648626937866,87.48525061645508,108.85648626937866,87.48525061645508C108.85648626937866,87.48525061645508,73.43408126937867,68.45235061645508,73.43408126937867,68.45235061645508Z" fill="url(#master_svg6_19_04300)" fill-opacity="1"/></g><g><path d="M139.50312267407227,58.78171666463277C139.50312267407227,58.78171666463277,139.35913467407227,118.08491666463277,139.35913467407227,118.08491666463277C139.35913467407227,118.08491666463277,174.78153467407228,137.11781666463276,174.78153467407228,137.11781666463276C174.78153467407228,137.11781666463276,174.92553467407225,77.81471666463277,174.92553467407225,77.81471666463277C174.92553467407225,77.81471666463277,139.50312267407227,58.78171666463277,139.50312267407227,58.78171666463277Z" fill="#63A6F9" fill-opacity="1"/></g><g><path d="M139.50312267407227,59.25575637817383C139.50312267407227,59.25575637817383,139.35913467407227,118.55895637817383,139.35913467407227,118.55895637817383C139.35913467407227,118.55895637817383,174.78153467407228,137.59185637817382,174.78153467407228,137.59185637817382C174.78153467407228,137.59185637817382,174.92553467407225,78.28875637817383,174.92553467407225,78.28875637817383C174.92553467407225,78.28875637817383,139.50312267407227,59.25575637817383,139.50312267407227,59.25575637817383Z" fill="url(#master_svg7_19_04296)" fill-opacity="1"/></g><g><path d="M108.71260452270508,146.78829700317382C108.71260452270508,146.78829700317382,174.7816045227051,137.61559700317383,174.7816045227051,137.61559700317383C174.7816045227051,137.61559700317383,174.92560452270507,78.31239700317383,174.92560452270507,78.31239700317383C174.92560452270507,78.31239700317383,108.85659952270508,87.48518700317383,108.85659952270508,87.48518700317383C108.85659952270508,87.48518700317383,108.71260452270508,146.78829700317382,108.71260452270508,146.78829700317382Z" fill="url(#master_svg8_19_04283)" fill-opacity="1"/></g><g><path d="M102.73690987577439,111.16392210083008C102.73690987577439,111.16392210083008,65.99450987577438,91.56212210083008,65.99450987577438,91.56212210083008C65.99450987577438,91.56212210083008,73.57816987577438,69.30562210083008,73.57816987577438,69.30562210083008C73.57816987577438,69.30562210083008,109.00060987577439,88.31482210083007,109.00060987577439,88.31482210083007C109.00060987577439,88.31482210083007,102.73690987577439,111.16392210083008,102.73690987577439,111.16392210083008Z" fill="#5EA1EA" fill-opacity="1"/></g><g><path d="M102.44890562540448,110.33435061645508C102.44890562540448,110.33435061645508,65.73050562540448,90.70885061645508,65.73050562540448,90.70885061645508C65.73050562540448,90.70885061645508,73.29016562540447,68.45235061645508,73.29016562540447,68.45235061645508C73.29016562540447,68.45235061645508,108.71260562540448,87.48525061645508,108.71260562540448,87.48525061645508C108.71260562540448,87.48525061645508,102.44890562540448,110.33435061645508,102.44890562540448,110.33435061645508Z" fill="url(#master_svg9_19_04305)" fill-opacity="1"/></g><g><path d="M182.41327299804686,102.79688471374511C182.41327299804686,102.79688471374511,114.08832299804688,112.27778471374512,114.08832299804688,112.27778471374512C114.08832299804688,112.27778471374512,108.56857299804688,88.05407471374512,108.56857299804688,88.05407471374512C108.56857299804688,88.05407471374512,174.6375729980469,78.88128471374512,174.6375729980469,78.88128471374512C174.6375729980469,78.88128471374512,182.41327299804686,102.79688471374511,182.41327299804686,102.79688471374511Z" fill="#5EA1EA" fill-opacity="1"/></g><g><path d="M182.67733986206053,102.25169700317383C182.67733986206053,102.25169700317383,114.35238986206055,111.70889700317383,114.35238986206055,111.70889700317383C114.35238986206055,111.70889700317383,108.85663986206055,87.48518700317383,108.85663986206055,87.48518700317383C108.85663986206055,87.48518700317383,174.92563986206056,78.31239700317383,174.92563986206056,78.31239700317383C174.92563986206056,78.31239700317383,182.67733986206053,102.25169700317383,182.67733986206053,102.25169700317383Z" fill="url(#master_svga_19_04291)" fill-opacity="1"/></g></g><g><g><g><path d="M102.83298429077102,80.30337503961182C102.83298429077102,80.30337503961182,101.29705429077103,80.80111703961181,101.29705429077103,80.80111703961181C101.29705429077103,80.80111703961181,102.83298429077102,80.27966403961182,102.83298429077102,80.27966403961182C102.83298429077102,80.27966403961182,102.83298429077102,80.30337503961182,102.83298429077102,80.30337503961182Z" fill="#B3D7FF" fill-opacity="1"/></g><g><path d="M108.9046905969236,78.35986503497314C108.9046905969236,78.35986503497314,105.8808309969236,79.30795303497314,105.8808309969236,79.30795303497314C105.8808309969236,79.30795303497314,105.8568305969236,79.26055303497314,105.8568305969236,79.26055303497314C105.8568305969236,79.26055303497314,108.8567005969236,78.24135303497314,108.8567005969236,78.24135303497314C108.8567005969236,78.24135303497314,108.9046905969236,78.35986503497314,108.9046905969236,78.35986503497314Z" fill="#B3D7FF" fill-opacity="1"/></g><g><path d="M115.00052673278786,76.5109707654419C115.00052673278786,76.5109707654419,111.95266053278786,77.4353517654419,111.95266053278786,77.4353517654419C111.95266053278786,77.4353517654419,111.88066673278786,77.2694467654419,111.88066673278786,77.2694467654419C111.88066673278786,77.2694467654419,114.92852673278786,76.3450517654419,114.92852673278786,76.3450517654419C114.92852673278786,76.3450517654419,115.00052673278786,76.5109707654419,115.00052673278786,76.5109707654419Z" fill="#B3D7FF" fill-opacity="1"/></g><g><path d="M121.14409795532204,74.87539340997314C121.14409795532204,74.87539340997314,118.07224175532204,75.68127240997315,118.07224175532204,75.68127240997315C118.07224175532204,75.68127240997315,118.00024795532204,75.44425440997314,118.00024795532204,75.44425440997314C118.00024795532204,75.44425440997314,121.07210795532204,74.59096240997314,121.07210795532204,74.59096240997314C121.07210795532204,74.59096240997314,121.14409795532204,74.87539340997314,121.14409795532204,74.87539340997314Z" fill="#B3D7FF" fill-opacity="1"/></g><g><path d="M127.33596752319313,73.42967502325439C127.33596752319313,73.42967502325439,124.24011132319313,74.1170330232544,124.24011132319313,74.1170330232544C124.24011132319313,74.1170330232544,124.16811752319313,73.8089060232544,124.16811752319313,73.8089060232544C124.16811752319313,73.8089060232544,127.28797752319313,73.1215410232544,127.28797752319313,73.1215410232544C127.28797752319313,73.1215410232544,127.33596752319313,73.42967502325439,127.33596752319313,73.42967502325439Z" fill="#B3D7FF" fill-opacity="1"/></g><g><path d="M130.47983071406227,72.86070659747314C130.47983071406227,72.86070659747314,130.40783691406227,72.52887559747315,130.40783691406227,72.52887559747315C130.40783691406227,72.52887559747315,133.57568691406226,72.05482959747314,133.57568691406226,72.05482959747314C133.57568691406226,72.05482959747314,133.62368691406226,72.41036359747315,133.62368691406226,72.41036359747315C133.62368691406226,72.41036359747315,130.47983071406227,72.86070659747314,130.47983071406227,72.86070659747314Z" fill="#B3D7FF" fill-opacity="1"/></g><g><path d="M129.59176063537575,71.81801436309814C129.80775063537575,70.75141436309815,130.09573763537574,69.73221136309814,130.43172263537576,68.73671436309814C130.43172263537576,68.73671436309814,130.91170063537575,68.92633736309814,130.91170063537575,68.92633736309814C130.59971063537574,69.92183436309814,130.28773263537576,70.91732436309815,130.11973963537574,71.93652436309814C130.11973963537574,71.93652436309814,129.59176063537575,71.81801436309814,129.59176063537575,71.81801436309814Z" fill="#B3D7FF" fill-opacity="1"/></g><g><path d="M130.3837385076902,77.9331142654419C130.3837385076902,77.9331142654419,129.8797715076902,78.1464242654419,129.8797715076902,78.1464242654419C129.4237925076902,77.1272242654419,129.2797985076902,76.0369242654419,129.2797985076902,74.9703252654419C129.2797985076902,74.9703252654419,129.8317705076902,74.9466142654419,129.8317705076902,74.9466142654419C129.8557695076902,75.96581426544189,129.9757615076902,77.0087242654419,130.3837385076902,77.9331142654419Z" fill="#B3D7FF" fill-opacity="1"/></g><g><path d="M135.5435170684812,80.4929513357544C135.03954706848123,80.5640583357544,134.4875670684812,80.5877663357544,133.93558706848123,80.5877663357544C133.38361706848121,80.5877663357544,132.85564206848122,80.5403613357544,132.30366706848122,80.3507433357544C132.30366706848122,80.3507433357544,132.44766906848122,79.8529863357544,132.44766906848122,79.8529863357544C133.40762706848122,80.1611163357544,134.46357706848121,80.11371133575439,135.4715270684812,79.97149833575439C135.4715270684812,79.97149833575439,135.5435170684812,80.4929513357544,135.5435170684812,80.4929513357544Z" fill="#B3D7FF" fill-opacity="1"/></g><g><path d="M141.75929766235328,78.69170303497314C140.77534766235328,79.07093903497315,139.7913876623533,79.45017303497315,138.7594356623533,79.78200303497314C138.7594356623533,79.78200303497314,138.5674476623533,79.30795303497314,138.5674476623533,79.30795303497314C139.57539766235328,79.02352903497315,140.55935766235328,78.62059003497315,141.56731766235328,78.24135303497314C141.56731766235328,78.24135303497314,141.75929766235328,78.69170303497314,141.75929766235328,78.69170303497314Z" fill="#B3D7FF" fill-opacity="1"/></g><g><path d="M147.54293251953104,76.06060359283447C147.54293251953104,76.06060359283447,144.66306451953102,77.41163859283448,144.66306451953102,77.41163859283448C144.66306451953102,77.41163859283448,144.44708251953102,76.98499859283447,144.44708251953102,76.98499859283447C144.44708251953102,76.98499859283447,147.32695251953103,75.61026859283447,147.32695251953103,75.61026859283447C147.32695251953103,75.61026859283447,147.54293251953104,76.06060359283447,147.54293251953104,76.06060359283447Z" fill="#B3D7FF" fill-opacity="1"/></g><g><path d="M153.1347653247068,72.97924897247314C153.1347653247068,72.97924897247314,150.3748843247068,74.59100397247315,150.3748843247068,74.59100397247315C150.3748843247068,74.59100397247315,150.1348953247068,74.18807397247315,150.1348953247068,74.18807397247315C150.1348953247068,74.18807397247315,152.8707753247068,72.57631397247314,152.8707753247068,72.57631397247314C152.8707753247068,72.57631397247314,153.1347653247068,72.97924897247314,153.1347653247068,72.97924897247314Z" fill="#B3D7FF" fill-opacity="1"/></g><g><path d="M158.43857819091775,69.44772039898682C158.43857819091775,69.44772039898682,155.82269019091774,71.24909239898682,155.82269019091774,71.24909239898682C155.82269019091774,71.24909239898682,155.55870819091774,70.89356239898682,155.55870819091774,70.89356239898682C155.55870819091774,70.89356239898682,158.17457819091774,69.06848239898682,158.17457819091774,69.06848239898682C158.17457819091774,69.06848239898682,158.43857819091775,69.44772039898682,158.43857819091775,69.44772039898682Z" fill="#B3D7FF" fill-opacity="1"/></g><g><path d="M163.3582672680662,65.4419971248169C163.3582672680662,65.4419971248169,160.93436926806618,67.5041001248169,160.93436926806618,67.5041001248169C160.93436926806618,67.5041001248169,160.67038726806618,67.1485701248169,160.67038726806618,67.1485701248169C160.67038726806618,67.1485701248169,163.11827726806618,65.1338701248169,163.11827726806618,65.1338701248169C163.11827726806618,65.1338701248169,163.3582672680662,65.4419971248169,163.3582672680662,65.4419971248169Z" fill="#63A6F9" fill-opacity="1"/></g><g><path d="M167.9900018469236,61.080670956848145C167.9900018469236,61.080670956848145,165.7101008469236,63.308687956848146,165.7101008469236,63.308687956848146C165.7101008469236,63.308687956848146,165.4701118469236,63.024257956848146,165.4701118469236,63.024257956848146C165.4701118469236,63.024257956848146,167.7500118469236,60.843647956848145,167.7500118469236,60.843647956848145C167.7500118469236,60.843647956848145,167.9900018469236,61.080670956848145,167.9900018469236,61.080670956848145Z" fill="#63A6F9" fill-opacity="1"/></g><g><path d="M172.28588140502907,56.43511980413818C172.28588140502907,56.43511980413818,170.17396040502908,58.78165080413818,170.17396040502908,58.78165080413818C170.17396040502908,58.78165080413818,169.93397140502907,58.568330804138185,169.93397140502907,58.568330804138185C169.93397140502907,58.568330804138185,172.06988140502907,56.221800804138184,172.06988140502907,56.221800804138184C172.06988140502907,56.221800804138184,172.28588140502907,56.43511980413818,172.28588140502907,56.43511980413818Z" fill="#63A6F9" fill-opacity="1"/></g><g><path d="M176.2697410241697,51.50517242559815C176.2697410241697,51.50517242559815,174.34982702416968,53.993913425598144,174.34982702416968,53.993913425598144C174.34982702416968,53.993913425598144,174.1338310241697,53.827993425598144,174.1338310241697,53.827993425598144C174.1338310241697,53.827993425598144,176.0777510241697,51.339253425598145,176.0777510241697,51.339253425598145C176.0777510241697,51.339253425598145,176.2697410241697,51.50517242559815,176.2697410241697,51.50517242559815Z" fill="#63A6F9" fill-opacity="1"/></g><g><path d="M179.94157921997046,46.33784765997314C179.94157921997046,46.33784765997314,178.14165721997048,48.94510365997314,178.14165721997048,48.94510365997314C178.14165721997048,48.94510365997314,177.99766921997048,48.82659365997314,177.99766921997048,48.82659365997314C177.99766921997048,48.82659365997314,179.84558921997046,46.266743659973145,179.84558921997046,46.266743659973145C179.84558921997046,46.266743659973145,179.94157921997046,46.33784765997314,179.94157921997046,46.33784765997314Z" fill="#63A6F9" fill-opacity="1"/></g><g><path d="M183.34942747680643,41.00504696934814C183.34942747680643,41.00504696934814,181.66950127680641,43.707103269348146,181.66950127680641,43.707103269348146C181.66950127680641,43.707103269348146,181.5975074768064,43.636003269348144,181.5975074768064,43.636003269348144C181.5975074768064,43.636003269348144,183.27742747680642,40.981343269348145,183.27742747680642,40.981343269348145C183.27742747680642,40.981343269348145,183.34942747680643,41.00504696934814,183.34942747680643,41.00504696934814Z" fill="#63A6F9" fill-opacity="1"/></g><g><path d="M184.9332605255369,38.27916698679545C184.9332605255369,38.27916698679545,184.90926742553688,38.27916698679545,184.90926742553688,38.27916698679545C184.90926742553688,38.27916698679545,185.72523642553688,36.880736986795455,185.72523642553688,36.880736986795455C185.72523642553688,36.880736986795455,184.9332605255369,38.27916698679545,184.9332605255369,38.27916698679545Z" fill="#63A6F9" fill-opacity="1"/></g></g><g><g><path d="M189.85299732055665,40.5072314280186C189.75709732055665,40.6731314280186,189.58909732055665,40.7442314280186,189.42109732055664,40.7679314280186C189.25309732055663,40.791631428018604,189.08509732055663,40.7205314280186,188.96509732055665,40.6020314280186C188.96509732055665,40.6020314280186,186.87718732055663,38.5399314280186,186.87718732055663,38.5399314280186C186.87718732055663,38.5399314280186,184.21329732055665,40.6257314280186,184.21329732055665,40.6257314280186C184.18929732055665,40.6257314280186,184.04531732055665,40.791631428018604,183.70932732055664,40.7205314280186C183.32534732055663,40.6494314280186,183.27734732055663,40.293931428018595,183.27734732055663,40.270231428018604C183.27734732055663,40.270231428018604,182.07740732055663,33.7994314280186,182.07740732055663,33.7994314280186C182.07740732055663,33.7994314280186,177.90158532055665,29.698981428018598,177.90158532055665,29.698981428018598C177.75759152055664,29.5567614280186,177.70959962055665,29.3434414280186,177.75759742055664,29.1301114280186C177.82959422055663,28.9405014280186,177.97358532055665,28.7745814280186,178.18957532055663,28.7271814280186C178.18957532055663,28.7271814280186,200.34059732055664,23.275652328018598,200.34059732055664,23.275652328018598C200.36459732055664,23.275652328018598,200.72459732055665,23.1334384280186,200.96459732055663,23.5126754280186C201.18059732055664,23.8445074280186,200.98859732055664,24.1289334280186,200.91659732055663,24.2000404280186C200.91659732055663,24.2000404280186,189.85299732055665,40.5072314280186,189.85299732055665,40.5072314280186ZM184.95727732055664,34.4157314280186C185.00527732055664,34.3683314280186,185.10126732055664,34.2735314280186,185.10126732055664,34.2735314280186C185.10126732055664,34.2735314280186,192.87689732055665,28.6560714280186,192.87689732055665,28.6560714280186C192.87689732055665,28.6560714280186,183.32534732055663,33.8231314280186,183.32534732055663,33.8231314280186C183.32534732055663,33.8231314280186,184.02130732055664,37.5918314280186,184.02130732055664,37.5918314280186C184.02130732055664,37.5918314280186,184.88527732055664,34.581631428018596,184.88527732055664,34.581631428018596C184.88527732055664,34.581631428018596,184.90927732055664,34.4631314280186,184.95727732055664,34.4157314280186ZM186.39720732055665,37.4496314280186C186.39720732055665,37.4496314280186,185.55724732055666,36.4304314280186,185.55724732055666,36.4304314280186C185.55724732055666,36.4304314280186,184.93326732055664,38.5873314280186,184.93326732055664,38.5873314280186C184.93326732055664,38.5873314280186,186.39720732055665,37.4496314280186,186.39720732055665,37.4496314280186Z" fill="url(#master_svgb_19_04270)" fill-opacity="1"/></g><g><path d="M184.95723929016114,34.4157060726414C185.00523929016114,34.3683060726414,185.10122929016114,34.2734960726414,185.10122929016114,34.2734960726414C185.10122929016114,34.2734960726414,192.87688929016113,28.656046072641402,192.87688929016113,28.656046072641402C192.87688929016113,28.656046072641402,183.32531929016113,33.8231560726414,183.32531929016113,33.8231560726414C183.32531929016113,33.8231560726414,184.02127929016115,37.5918160726414,184.02127929016115,37.5918160726414C184.02127929016115,37.5918160726414,184.88524929016114,34.5816160726414,184.88524929016114,34.5816160726414C184.88524929016114,34.5816160726414,184.90924929016114,34.463116072641405,184.95723929016114,34.4157060726414Z" fill="#5E95E5" fill-opacity="1"/></g></g></g><g><g><path d="M69.61838862426758,136.19342220947266C72.52225862426758,135.79049220947266,79.79395862426757,134.79499220947267,80.03395862426757,132.21144220947266C80.22595862426758,130.24415220947265,75.97805862426758,128.15834220947266,75.71415862426758,128.03983220947265C73.24225862426758,126.85471420947266,70.96232862426757,126.97322820947265,70.36235862426759,127.02063280947266C66.40253862426758,127.32876320947265,63.354668624267575,129.91231220947265,61.914733624267576,132.51957220947264C61.33875962426758,133.58617220947266,60.81078162426758,134.55796220947266,61.17076562426758,135.38754220947266C62.05872862426758,137.23630220947265,66.95450862426758,136.57266220947267,69.61838862426758,136.19342220947266Z" fill="url(#master_svgc_19_04220)" fill-opacity="1"/></g><g><path d="M77.10600748077393,137.4259180219269C84.32964748077393,136.9281680219269,84.73764748077393,136.2882080219269,84.88164748077392,135.9563680219269C85.45764748077393,134.55793802192687,83.60974748077393,132.25881802192688,81.73784748077392,131.21591302192687C80.03387748077392,130.2678210219269,78.37795748077393,130.38633502192687,77.65798748077393,130.4337396219269C74.63412748077393,130.6707630219269,72.33022748077393,132.63805802192687,71.22627248077393,134.62904802192688C70.79429248077392,135.43492802192688,70.38631348077392,136.16968802192687,70.67430048077392,136.80964802192688C71.03428448077392,137.56812802192687,72.30622748077393,137.7577480219269,77.10600748077393,137.4259180219269Z" fill="url(#master_svgd_19_04224)" fill-opacity="1"/></g></g><g><g><path d="M188.125123157959,129.0590248046875C189.46909315795898,130.0782248046875,190.40499315795898,131.4766548046875,191.74899315795898,133.0410148046875C193.47689315795898,135.0794048046875,194.12489315795898,138.2318248046875,193.35689315795898,140.4835248046875C192.228893157959,143.7070248046875,183.85331315795898,145.6032248046875,180.445473157959,142.0716248046875C176.48564315795898,137.9711248046875,183.46933315795897,127.9924248046875,186.10921315795898,127.8739129086875C186.49319315795898,127.8502106046875,187.04517315795897,128.2531498046875,188.125123157959,129.0590248046875Z" fill="url(#master_svge_19_04237)" fill-opacity="1"/></g><g><path d="M185.84061484832765,150.1066888671875L185.84061484832765,134.8660888671875L187.09771484832763,134.8660888671875L187.09771484832763,150.1066888671875L185.84061484832765,150.1066888671875Z" fill-rule="evenodd" fill="url(#master_svgf_19_04233)" fill-opacity="1"/></g></g></g><g><path d="M101.03646,174.64267L101.03646,176.88746C101.03646,178.19996,100.91146,180.0229,99.88542,181.3875C100.14062,181.5073,100.60417,181.8302,100.8125,182.0281C101.66146,180.9135,101.96875,179.3458,102.0625,177.976L104.224,177.976L104.224,181.9968L105.3438,181.9968L105.3438,177.976L107.2135,177.976L107.2135,177.00204L102.1094,177.00204L102.1094,176.90308L102.1094,175.46038C103.7448,175.33538,105.5365,175.07496,106.7812,174.69475L106.1094,173.73642C104.9115,174.1635,102.8125,174.49163,101.03646,174.64267ZM95.93229,185.5229L104.0781,185.5229L104.0781,186.976L95.93229,186.976L95.93229,185.5229ZM95.93229,184.6427L95.93229,183.3093L104.0781,183.3093L104.0781,184.6427L95.93229,184.6427ZM94.79688,182.3666L94.79688,188.502L95.93229,188.502L95.93229,187.9395L104.0781,187.9395L104.0781,188.4708L105.2604,188.4708L105.2604,182.3666L94.79688,182.3666ZM92.875,179.8718L92.973958,180.9395L96.65625,180.5385L96.65625,181.976L97.77604,181.976L97.77604,180.4083L100.22396,180.1375L100.20833,179.2312L97.77604,179.4656L97.77604,178.2885L100.30208,178.2885L100.30208,177.30933L97.77604,177.30933L97.77604,176.26767L96.65625,176.26767L96.65625,177.30933L94.58854,177.30933C95.02083,176.79892,95.46875,176.21558,95.88542,175.59058L100.27083,175.59058L100.27083,174.64267L96.49479,174.64267L96.94271,173.80413L95.73958,173.44475C95.58333,173.85621,95.39062,174.25204,95.19792,174.64267L92.84375,174.64267L92.84375,175.59058L94.63542,175.59058C94.30208,176.12183,94,176.5385,93.85417,176.71558C93.56771,177.101,93.29167,177.36142,93.03646,177.40829C93.18229,177.726,93.35938,178.27288,93.42188,178.50725C93.56771,178.38225,94.04688,178.2885,94.71875,178.2885L96.65625,178.2885L96.65625,179.5802L92.875,179.8718ZM109.8229,174.64267L109.8229,175.83017L115.1354,175.83017C115.0885,176.99683,115.0365,178.24683,114.8438,179.476L108.8281,179.476L108.8281,180.6427L114.6198,180.6427C113.9635,183.4604,112.4115,186.0958,108.6198,187.5541C108.9271,187.7937,109.276,188.226,109.4375,188.5229C113.5677,186.8823,115.16669999999999,183.851,115.8385,180.6427L116.1719,180.6427L116.1719,186.2729C116.1719,187.7468,116.6198,188.1635,118.2865,188.1635C118.6198,188.1635,120.9115,188.1635,121.276,188.1635C122.8125,188.1635,123.1979,187.4916,123.3594,184.8823C123.0052,184.8041,122.47919999999999,184.5906,122.1927,184.3614C122.1094,186.601,121.9844,186.976,121.1979,186.976C120.7031,186.976,118.7812,186.976,118.39580000000001,186.976C117.58330000000001,186.976,117.4219,186.8666,117.4219,186.2729L117.4219,180.6427L123.2135,180.6427L123.2135,179.476L116.0469,179.476C116.224,178.24683,116.3021,177.01246,116.33330000000001,175.83017L122.3021,175.83017L122.3021,174.64267L109.8229,174.64267ZM131.0885,173.81454C130.7969,174.476,130.2865,175.476,129.8854,176.06975L130.6719,176.476C131.0885,175.9135,131.6302,175.06975,132.0938,174.2885L131.0885,173.81454ZM125.4062,174.2885C125.8229,175.00204,126.2552,175.93433,126.39580000000001,176.52808L127.3073,176.101C127.16669999999999,175.49163,126.7344,174.57496,126.28649999999999,173.9135L125.4062,174.2885ZM130.5573,182.976C130.1875,183.8198,129.6771,184.5333,129.0677,185.1531C128.4635,184.8458,127.83850000000001,184.5333,127.2448,184.2781C127.4688,183.8875,127.72399999999999,183.45,127.9479,182.976L130.5573,182.976ZM125.7552,184.7156C126.54169999999999,185.0229,127.4219,185.4291,128.224,185.851C127.1979,186.5958,125.96350000000001,187.1166,124.65100000000001,187.4239C124.8594,187.6531,125.1198,188.075,125.22919999999999,188.3666C126.7031,187.9604,128.0625,187.325,129.2135,186.3875C129.7396,186.7104,130.224,187.0177,130.5885,187.2937L131.3594,186.502C130.9896,186.2416,130.526,185.95,130,185.6583C130.8438,184.7312,131.5156,183.5958,131.9167,182.1948L131.2604,181.9239L131.0677,181.9708L128.4479,181.9708L128.7969,181.1323L127.72399999999999,180.9395C127.6146,181.2625,127.4531,181.6166,127.29169999999999,181.9708L125.1198,181.9708L125.1198,182.976L126.7969,182.976C126.46350000000001,183.627,126.0938,184.226,125.7552,184.7156ZM128.1094,173.47079L128.1094,176.64267L124.7969,176.64267L124.7969,177.63746L127.7396,177.63746C126.97399999999999,178.68433,125.7396,179.6843,124.6198,180.1687C124.8594,180.3927,125.1354,180.8093,125.27600000000001,181.0854C126.2552,180.5541,127.3073,179.6531,128.1094,178.69996L128.1094,180.6635L129.2292,180.6635L129.2292,178.476C130,179.0385,130.974,179.7937,131.375,180.1687L132.0469,179.2989C131.6615,179.0229,130.2552,178.12183,129.4688,177.63746L132.4948,177.63746L132.4948,176.64267L129.2292,176.64267L129.2292,173.47079L128.1094,173.47079ZM134.0625,173.62704C133.6615,176.61142,132.9427,179.3145,131.6927,181.002C131.9479,181.1635,132.4167,181.5541,132.6042,181.7468C133.0208,181.1479,133.375,180.4395,133.6927,179.6531C134.0469,181.2312,134.5104,182.6895,135.1042,183.9656C134.2083,185.5073,132.9583,186.6948,131.2135,187.5541C131.4375,187.7989,131.776,188.2833,131.8854,188.5437C133.5156,187.6531,134.75,186.5333,135.6927,185.1062C136.4948,186.4812,137.4844,187.5854,138.7344,188.351C138.9271,188.0437,139.2812,187.6218,139.5521,187.3927C138.2083,186.6635,137.151,185.476,136.3333,183.9864C137.1823,182.325,137.7292,180.2573,138.0781,177.76767L139.1667,177.76767L139.1667,176.64267L134.6042,176.64267C134.8281,175.726,135.0208,174.76246,135.1667,173.77808L134.0625,173.62704ZM136.9427,177.76767C136.6875,179.6791,136.3021,181.3406,135.724,182.7208C135.1198,181.2573,134.6719,179.5593,134.3646,177.76767L136.9427,177.76767ZM147.7396,183.3093L147.7396,188.575L148.7969,188.575L148.7969,187.9708L153.7292,187.9708L153.7292,188.5125L154.8281,188.5125L154.8281,183.3093L151.7448,183.3093L151.7448,181.3093L155.3281,181.3093L155.3281,180.2729L151.7448,180.2729L151.7448,178.36663L154.7656,178.36663L154.7656,174.27288L146.3177,174.27288L146.3177,179.1114C146.3177,181.7468,146.1719,185.325,144.5104,187.9239C144.7812,188.0437,145.276,188.3666,145.5,188.5437C146.8281,186.6114,147.276,183.7104,147.4219,181.3093L150.6042,181.3093L150.6042,183.3093L147.7396,183.3093ZM147.4844,175.30933L153.6146,175.30933L153.6146,177.30933L147.4844,177.30933L147.4844,175.30933ZM147.4844,178.36663L150.6042,178.36663L150.6042,180.2729L147.4688,180.2729L147.4844,179.1114L147.4844,178.36663ZM148.7969,186.976L148.7969,184.3354L153.7292,184.3354L153.7292,186.976L148.7969,186.976ZM142.6719,173.52288L142.6719,176.85621L140.6719,176.85621L140.6719,177.976L142.6719,177.976L142.6719,181.5229C141.8385,181.7781,141.0677,182.0073,140.4635,182.1687L140.7812,183.3614L142.6719,182.7468L142.6719,187.0125C142.6719,187.2468,142.5885,187.3093,142.3958,187.3093C142.2031,187.3302,141.5833,187.3302,140.8958,187.3093C141.0365,187.6323,141.1979,188.127,141.2292,188.4135C142.2396,188.4291,142.8594,188.3823,143.2448,188.1895C143.6458,188.0177,143.7917,187.6791,143.7917,187.0125L143.7917,182.377L145.6302,181.7625L145.4531,180.6583L143.7917,181.1843L143.7917,177.976L145.599,177.976L145.599,176.85621L143.7917,176.85621L143.7917,173.52288L142.6719,173.52288Z" fill="#999999" fill-opacity="1"/></g></g></svg>