<svg xmlns="http://www.w3.org/2000/svg" xmlns:xlink="http://www.w3.org/1999/xlink" fill="none" version="1.1" width="20" height="20" viewBox="0 0 20 20"><g><g><g><path d="M9.970685063934326,10.45443C9.847635063934327,10.455449999999999,9.729375063934327,10.40676,9.642725063934325,10.31939L5.141265063934326,5.779347C4.989986663934326,5.597943,5.002043663934326,5.331104,5.169065063934326,5.164083C5.336087063934326,4.99706092,5.602926063934326,4.985004,5.784330063934326,5.136282L9.970685063934326,9.34193L14.189195063934326,5.129852C14.368585063934326,4.9567161,14.652865063934327,4.9567161,14.832255063934326,5.129852C15.008815063934327,5.307851,15.008815063934327,5.594918,14.832255063934326,5.772917L10.305075063934325,10.31939C10.216865063934327,10.408380000000001,10.095955063934326,10.45721,9.970685063934326,10.45443Z" fill="#1890FF" fill-opacity="1"/><path d="M10.482635063934326,10.49538Q10.268805063934327,10.71111,9.965135063934326,10.70437L9.970685063934326,10.45443L9.972755063934326,10.704419999999999Q9.674945063934327,10.70689,9.465215063934327,10.495429999999999L4.956158563934326,5.947726L4.949266163934326,5.939461Q4.773683063934326,5.728912,4.786057063934326,5.455037Q4.798432063934326,5.181162,4.992288863934326,4.9873059Q5.186145063934326,4.79345,5.460020063934326,4.781075Q5.733895063934326,4.7687,5.944444063934326,4.9442837L5.953340063934326,4.9517026L10.147865063934326,9.16556L9.970685063934326,9.34193L9.794045063934327,9.16502L14.012545063934326,4.9529403Q14.222775063934327,4.75,14.510725063934327,4.75Q14.798675063934326,4.75,15.005865063934326,4.9499647Q15.214635063934326,5.160394,15.214635063934326,5.451384Q15.214635063934326,5.742375,15.009745063934327,5.948973L10.482225063934326,10.49579L10.482635063934326,10.49538ZM10.127925063934327,10.142990000000001L14.654765063934326,5.596861Q14.799055063934325,5.451384,14.658645063934326,5.309739Q14.510725063934327,5.166978,14.365835063934327,5.306763L9.970145063934325,9.69575L5.607147063934326,5.312652L5.784330063934326,5.136282L5.624216063934326,5.328281Q5.479284063934326,5.207418,5.3458420639343265,5.340859Q5.212400063934326,5.474301,5.333264063934326,5.619234L5.141265063934326,5.779347L5.318794063934326,5.603327L9.820225063934327,10.14334Q9.881535063934326,10.20516,9.968605063934326,10.20444L9.972415063934326,10.20441L9.976225063934326,10.20449Q10.065005063934326,10.20646,10.127525063934327,10.14339L10.127925063934327,10.142990000000001Z" fill="#1890FF" fill-opacity="1"/></g><g><path d="M9.970676480865478,14.999887363128662C9.847626480865479,15.000907363128661,9.72936648086548,14.952217363128662,9.642716480865477,14.864847363128662L5.141256480865478,10.324805363128663C4.989978180865479,10.143401363128662,5.002034880865478,9.876562363128663,5.169056480865478,9.709540363128662C5.336078480865479,9.542518353128662,5.602918480865479,9.530461263128663,5.784321480865478,9.681740363128663L9.970676480865478,13.887387363128662L14.182746480865479,9.675309363128662C14.362146480865478,9.502173363128662,14.646426480865479,9.502173363128662,14.825816480865479,9.675309363128662C15.002376480865479,9.853308363128662,15.002376480865479,10.140375363128662,14.825816480865479,10.318374363128662L10.305066480865477,14.864847363128662C10.216856480865479,14.953837363128663,10.095946480865479,15.002667363128662,9.970676480865478,14.999887363128662Z" fill="#1890FF" fill-opacity="1"/><path d="M10.482626480865479,15.040837363128663Q10.268796480865479,15.256567363128662,9.965126480865479,15.249827363128663L9.970676480865478,14.999887363128662L9.972756480865478,15.249877363128661Q9.67493648086548,15.252357363128663,9.46520648086548,15.040887363128661L4.956150580865478,10.493184363128663L4.949258380865478,10.484919363128663Q4.773674480865479,10.274370363128662,4.786048480865478,10.000495363128662Q4.798423480865479,9.726620363128662,4.992280180865478,9.532763463128662Q5.186136480865478,9.338907363128662,5.460011480865479,9.326532363128662Q5.733886480865478,9.314157363128663,5.944436480865479,9.489741563128662L5.953332480865479,9.497160463128662L10.147856480865478,13.711017363128661L9.970676480865478,13.887387363128662L9.793896480865477,13.710607363128663L14.005976480865478,9.498532763128662Q14.216336480865479,9.295457363128662,14.504286480865478,9.295457363128662Q14.792236480865478,9.295457363128662,14.999426480865479,9.495423263128663Q15.208226480865479,9.705850363128661,15.208226480865479,9.996842363128662Q15.208226480865479,10.287833363128662,15.00330648086548,10.494431363128662L10.482346480865479,15.041117363128663L10.482626480865479,15.040837363128663ZM10.127786480865478,14.688567363128662L14.648326480865478,10.142318363128663Q14.792616480865478,9.996842363128662,14.652206480865479,9.855195363128662Q14.504286480865478,9.712434363128661,14.359526480865478,9.852086363128661L9.97026648086548,14.241347363128662L5.607139480865478,9.858110363128661L5.784321480865478,9.681740363128663L5.624207480865478,9.873738363128663Q5.479275480865478,9.752874363128662,5.345833480865479,9.886317363128661Q5.212391480865478,10.019758363128663,5.333255480865478,10.164691363128663L5.141256480865478,10.324805363128663L5.318786480865478,10.148784363128662L9.82021648086548,14.688797363128662Q9.881526480865478,14.750617363128661,9.968596480865479,14.749897363128662L9.972406480865478,14.749867363128661L9.976216480865478,14.749947363128662Q10.064996480865478,14.751917363128662,10.127516480865479,14.688847363128662L10.127786480865478,14.688567363128662Z" fill="#1890FF" fill-opacity="1"/></g></g></g></svg>