<svg xmlns="http://www.w3.org/2000/svg" xmlns:xlink="http://www.w3.org/1999/xlink" fill="none" version="1.1" width="20" height="20" viewBox="0 0 20 20"><g style="mix-blend-mode:passthrough" transform="matrix(1,0,0,-1,0,40)"><g style="mix-blend-mode:passthrough"><g><path d="M9.970685063934326,30.454430000000002C9.847635063934327,30.45545,9.729375063934327,30.40676,9.642725063934325,30.31939L5.141265063934326,25.779347C4.989986663934326,25.597943,5.002043663934326,25.331104,5.169065063934326,25.164083C5.336087063934326,24.99706092,5.602926063934326,24.985004,5.784330063934326,25.136282L9.970685063934326,29.341929999999998L14.189195063934326,25.129852C14.368585063934326,24.9567161,14.652865063934327,24.9567161,14.832255063934326,25.129852C15.008815063934327,25.307851,15.008815063934327,25.594918,14.832255063934326,25.772917L10.305075063934325,30.31939C10.216865063934327,30.40838,10.095955063934326,30.45721,9.970685063934326,30.454430000000002Z" fill="#1890FF" fill-opacity="1"/><path d="M10.482635063934326,30.49538Q10.268805063934327,30.711109999999998,9.965135063934326,30.70437L9.970685063934326,30.454430000000002L9.972755063934326,30.70442Q9.674945063934327,30.70689,9.465215063934327,30.49543L4.956158563934326,25.947726L4.949266163934326,25.939461Q4.773683063934326,25.728912,4.786057063934326,25.455037Q4.798432063934326,25.181162,4.992288863934326,24.9873059Q5.186145063934326,24.79345,5.460020063934326,24.781075Q5.733895063934326,24.7687,5.944444063934326,24.9442837L5.953340063934326,24.9517026L10.147865063934326,29.16556L9.970685063934326,29.341929999999998L9.794045063934327,29.16502L14.012545063934326,24.9529403Q14.222775063934327,24.75,14.510725063934327,24.75Q14.798675063934326,24.75,15.005865063934326,24.9499647Q15.214635063934326,25.160394,15.214635063934326,25.451384Q15.214635063934326,25.742375,15.009745063934327,25.948973L10.482225063934326,30.49579L10.482635063934326,30.49538ZM10.127925063934327,30.14299L14.654765063934326,25.596861Q14.799055063934325,25.451384,14.658645063934326,25.309739Q14.510725063934327,25.166978,14.365835063934327,25.306763L9.970145063934325,29.69575L5.607147063934326,25.312652L5.784330063934326,25.136282L5.624216063934326,25.328281Q5.479284063934326,25.207418,5.3458420639343265,25.340859000000002Q5.212400063934326,25.474301,5.333264063934326,25.619234L5.141265063934326,25.779347L5.318794063934326,25.603327L9.820225063934327,30.143340000000002Q9.881535063934326,30.20516,9.968605063934326,30.204439999999998L9.972415063934326,30.20441L9.976225063934326,30.20449Q10.065005063934326,30.20646,10.127525063934327,30.14339L10.127925063934327,30.14299Z" fill="#1890FF" fill-opacity="1"/></g><g><path d="M9.970676480865478,34.999887363128664C9.847626480865479,35.00090736312866,9.72936648086548,34.95221736312866,9.642716480865477,34.86484736312866L5.141256480865478,30.32480536312866C4.989978180865479,30.14340136312866,5.002034880865478,29.876562363128663,5.169056480865478,29.709540363128664C5.336078480865479,29.542518353128663,5.602918480865479,29.53046126312866,5.784321480865478,29.68174036312866L9.970676480865478,33.88738736312866L14.182746480865479,29.67530936312866C14.362146480865478,29.502173363128662,14.646426480865479,29.502173363128662,14.825816480865479,29.67530936312866C15.002376480865479,29.85330836312866,15.002376480865479,30.140375363128662,14.825816480865479,30.31837436312866L10.305066480865477,34.86484736312866C10.216856480865479,34.95383736312866,10.095946480865479,35.002667363128666,9.970676480865478,34.999887363128664Z" fill="#1890FF" fill-opacity="1"/><path d="M10.482626480865479,35.04083736312866Q10.268796480865479,35.25656736312866,9.965126480865479,35.24982736312866L9.970676480865478,34.999887363128664L9.972756480865478,35.24987736312866Q9.67493648086548,35.25235736312866,9.46520648086548,35.04088736312866L4.956150580865478,30.493184363128663L4.949258380865478,30.48491936312866Q4.773674480865479,30.27437036312866,4.786048480865478,30.00049536312866Q4.798423480865479,29.726620363128664,4.992280180865478,29.532763463128664Q5.186136480865478,29.338907363128662,5.460011480865479,29.326532363128663Q5.733886480865478,29.31415736312866,5.944436480865479,29.48974156312866L5.953332480865479,29.49716046312866L10.147856480865478,33.71101736312866L9.970676480865478,33.88738736312866L9.793896480865477,33.71060736312866L14.005976480865478,29.49853276312866Q14.216336480865479,29.295457363128662,14.504286480865478,29.295457363128662Q14.792236480865478,29.295457363128662,14.999426480865479,29.49542326312866Q15.208226480865479,29.70585036312866,15.208226480865479,29.99684236312866Q15.208226480865479,30.287833363128662,15.00330648086548,30.494431363128662L10.482346480865479,35.04111736312866L10.482626480865479,35.04083736312866ZM10.127786480865478,34.68856736312866L14.648326480865478,30.142318363128663Q14.792616480865478,29.99684236312866,14.652206480865479,29.85519536312866Q14.504286480865478,29.71243436312866,14.359526480865478,29.852086363128663L9.97026648086548,34.24134736312866L5.607139480865478,29.858110363128663L5.784321480865478,29.68174036312866L5.624207480865478,29.873738363128663Q5.479275480865478,29.75287436312866,5.345833480865479,29.88631736312866Q5.212391480865478,30.019758363128663,5.333255480865478,30.16469136312866L5.141256480865478,30.32480536312866L5.318786480865478,30.148784363128662L9.82021648086548,34.688797363128664Q9.881526480865478,34.75061736312866,9.968596480865479,34.74989736312866L9.972406480865478,34.749867363128665L9.976216480865478,34.74994736312866Q10.064996480865478,34.75191736312866,10.127516480865479,34.68884736312866L10.127786480865478,34.68856736312866Z" fill="#1890FF" fill-opacity="1"/></g></g></g></svg>