<svg xmlns="http://www.w3.org/2000/svg" xmlns:xlink="http://www.w3.org/1999/xlink" fill="none" version="1.1" width="20" height="20" viewBox="0 0 20 20"><g><g><g><path d="M17.5,14.701019076538087L17.5,6.583609076538086Q17.5,6.205089076538085,17.3534,5.858509076538086Q17.212,5.524179076538086,16.9545,5.266699076538086Q16.697,5.009219076538086,16.3627,4.867819076538086Q16.0161,4.721219076538086,15.6376,4.721219076538086L10.73941,4.721219076538086L9.45501,3.436819113285186L5.3623899999999995,3.436819076538086Q4.98387,3.436818892803086,4.6372800000000005,3.583412076538086Q4.302961,3.724818076538086,4.0454799999999995,3.982299076538086Q3.787999,4.239779076538086,3.646593,4.5740990765380865Q3.5,4.9206890765380855,3.5,5.2992090765380855L3.5,14.701019076538087Q3.5,15.079519076538086,3.646593,15.426119076538086Q3.788,15.760419076538087,4.045479,16.017919076538085Q4.30296,16.275419076538086,4.6372800000000005,16.416819076538086Q4.98387,16.563419076538086,5.36238,16.563419076538086L15.6376,16.563419076538086Q16.0161,16.563419076538086,16.3627,16.416819076538086Q16.697,16.275419076538086,16.9545,16.017919076538085Q17.212,15.760419076538087,17.3534,15.426119076538086Q17.5,15.079519076538086,17.5,14.701019076538087Z" fill-rule="evenodd" fill="#1890FF" fill-opacity="1"/></g><g><path d="M8.355047720108033,7.559866147316086C9.242047720108033,7.559432825538086,9.961337720108032,8.278367951538087,9.961337720108032,9.165365951538085C9.961337720108032,10.052375951538085,9.242047720108033,10.771305951538086,8.355047720108033,10.770875951538086C7.468657720108032,10.770445951538086,6.750327720108032,10.051755951538086,6.750327720108032,9.165365951538085C6.750327720108032,8.278979951538085,7.468657720108032,7.560298293538086,8.355047720108033,7.559866147316086ZM11.244957720108033,13.981885951538086L5.465137720108032,13.981885951538086L5.465137720108032,13.339685951538087C5.465138308061032,12.275645951538085,6.327708720108032,11.413075951538087,7.391747720108032,11.413075951538087L9.318347720108033,11.413075951538087C10.382387720108031,11.413075951538087,11.244957720108033,12.275645951538085,11.244957720108033,13.339685951538087L11.244957720108033,13.981885951538086ZM13.736697720108031,11.413075951538087L12.452297720108032,11.413075951538087C12.097617720108033,11.413075951538087,11.810087720108033,11.125555951538086,11.810087720108033,10.770875951538086C11.810087720108033,10.416195951538086,12.097617720108033,10.128675951538085,12.452297720108032,10.128675951538085L13.736697720108031,10.128675951538085C14.091377720108031,10.128675951538085,14.378897720108032,10.416195951538086,14.378897720108032,10.770875951538086C14.378897720108032,11.125555951538086,14.091377720108031,11.413075951538087,13.736697720108031,11.413075951538087ZM15.021097720108033,9.486475951538086L12.452297720108032,9.486475951538086C12.097617720108033,9.486475951538086,11.810087720108033,9.198945951538086,11.810087720108033,8.844265951538086C11.810087720108033,8.489591951538086,12.097617720108033,8.202067951538085,12.452297720108032,8.202067951538085L15.021097720108033,8.202067951538085C15.375777720108033,8.202067951538085,15.663337720108032,8.489591951538086,15.663337720108032,8.844265951538086C15.663337720108032,9.198945951538086,15.375777720108033,9.486475951538086,15.021097720108033,9.486475951538086Z" fill="#FFFFFF" fill-opacity="1"/></g></g></g></svg>