<svg xmlns="http://www.w3.org/2000/svg" xmlns:xlink="http://www.w3.org/1999/xlink" fill="none" version="1.1" width="12.525390625" height="14" viewBox="0 0 12.525390625 14"><g><path d="M3.23474,0L9.32308,0L12.5258,3.20272L12.5258,10.6863C12.5258,11.3693,11.9721,11.923,11.2891,11.923L3.23474,11.923C2.55173,11.923,1.99805,11.3693,1.99805,10.6863L1.99805,1.23669C1.99805,0.553686,2.55173,0,3.23474,0ZM1.28426,11.1461C1.28522,11.9601,1.94482,12.6197,2.75878,12.6206L10.5278,12.6206L10.5278,12.7633C10.5278,13.4463,9.97406,14,9.29106,14L1.23669,14C0.553687,14,0,13.4463,0,12.7633L0,3.31372C0,2.63071,0.553687,2.07703,1.23669,2.07703L1.28426,2.07703L1.28426,11.1461ZM4.47143,4.97849L10.0524,4.97849C10.3151,4.97849,10.5281,4.76553,10.5281,4.50283C10.5281,4.24014,10.3151,4.02718,10.0524,4.02718L4.47143,4.02718C4.20874,4.02718,3.99578,4.24014,3.99578,4.50283C3.99578,4.76553,4.20874,4.97849,4.47143,4.97849ZM4.47143,6.92866L10.0524,6.92866C10.3151,6.92866,10.5281,6.7157,10.5281,6.453C10.5281,6.19031,10.3151,5.97735,10.0524,5.97735L4.47143,5.97735C4.20874,5.97735,3.99578,6.19031,3.99578,6.453C3.99578,6.7157,4.20874,6.92866,4.47143,6.92866ZM4.47143,8.87883L10.0524,8.87883C10.3151,8.87883,10.5281,8.66587,10.5281,8.40318C10.5281,8.14048,10.3151,7.92752,10.0524,7.92752L4.47143,7.92752C4.20874,7.92752,3.99578,8.14048,3.99578,8.40318C3.99578,8.66587,4.20874,8.87883,4.47143,8.87883Z" fill-rule="evenodd" fill="#FFFFFF" fill-opacity="1"/></g></svg>