<svg xmlns="http://www.w3.org/2000/svg" xmlns:xlink="http://www.w3.org/1999/xlink" fill="none" version="1.1" width="12.525311470031738" height="14.000021934509277" viewBox="0 0 12.525311470031738 14.000021934509277"><g><path d="M3.23425,0L9.32259,0L12.5253,3.20272L12.5253,10.6863C12.5253,11.3693,11.9716,11.923,11.2886,11.923L3.23425,11.923C2.55125,11.923,1.99756,11.3693,1.99756,10.6863L1.99756,1.23669C1.99756,0.553686,2.55125,0,3.23425,0ZM1.28426,11.1461C1.28522,11.9601,1.94482,12.6197,2.75878,12.6206L10.5278,12.6206L10.5278,12.7633C10.5278,13.4463,9.97406,14,9.29106,14L1.23669,14C0.553687,14,0,13.4463,0,12.7633L0,3.31372C0,2.63071,0.553687,2.07703,1.23669,2.07703L1.28426,2.07703L1.28426,11.1461ZM4.47095,4.97849L10.0519,4.97849C10.3146,4.97849,10.5276,4.76553,10.5276,4.50283C10.5276,4.24014,10.3146,4.02718,10.0519,4.02718L4.47095,4.02718C4.20825,4.02718,3.99529,4.24014,3.99529,4.50283C3.99529,4.76553,4.20825,4.97849,4.47095,4.97849ZM4.47095,6.92866L10.0519,6.92866C10.3146,6.92866,10.5276,6.7157,10.5276,6.453C10.5276,6.19031,10.3146,5.97735,10.0519,5.97735L4.47095,5.97735C4.20825,5.97735,3.99529,6.19031,3.99529,6.453C3.99529,6.7157,4.20825,6.92866,4.47095,6.92866ZM4.47095,8.87883L10.0519,8.87883C10.3146,8.87883,10.5276,8.66587,10.5276,8.40318C10.5276,8.14048,10.3146,7.92752,10.0519,7.92752L4.47095,7.92752C4.20825,7.92752,3.99529,8.14048,3.99529,8.40318C3.99529,8.66587,4.20825,8.87883,4.47095,8.87883Z" fill-rule="evenodd" fill="#1890FF" fill-opacity="1"/></g></svg>