<svg xmlns="http://www.w3.org/2000/svg" xmlns:xlink="http://www.w3.org/1999/xlink" fill="none" version="1.1" width="20" height="20" viewBox="0 0 20 20"><g><g><path d="M13.6492,6.036433379821777C13.6492,5.312016379821777,13.06194,4.724753379821777,12.33752,4.724753379821777L5.31168,4.724753379821777C4.587263,4.724753379821777,4,5.312016379821777,4,6.036433379821777L4,13.963483379821778C4,14.687903379821778,4.587263,15.275153379821777,5.31168,15.275153379821777L11.93114,15.275253379821777C10.86231,14.771553379821777,10.12301,13.688043379821778,10.12301,12.432563379821778C10.12301,10.696593379821778,11.53652,9.289313379821778,13.28018,9.289313379821778C13.40395,9.289313379821778,13.52717,9.296403379821777,13.64922,9.310563379821778L13.6492,6.036433379821777ZM5.85876,7.471683379821777L10.97965,7.471683379821777C11.17591,7.471683379821777,11.33501,7.630773379821777,11.33501,7.827013379821777C11.33501,8.020453379821777,11.18042,8.177783379821777,10.98804,8.182243379821777L10.97965,8.182333379821777L5.85876,8.182333379821777L5.85289,8.182283379821778C5.65935,8.179153379821777,5.50342,8.021283379821778,5.50342,7.827013379821777C5.50342,7.633573379821778,5.6579999999999995,7.476233379821777,5.8503799999999995,7.471783379821778L5.85876,7.471683379821777ZM16,12.446243379821777C16,10.944233379821778,14.7823,9.726633379821777,13.28018,9.726633379821777C11.77807,9.726623379821778,10.56036,10.944233379821778,10.56036,12.446233379821777C10.56036,13.948223379821778,11.77807,15.165853379821778,13.28018,15.165853379821778C14.7823,15.165853379821778,16,13.948223379821778,16,12.446243379821777ZM5.85876,10.245233379821777L9.15203,10.245233379821777C9.3483,10.245233379821777,9.507390000000001,10.404313379821778,9.507390000000001,10.600543379821778C9.507390000000001,10.793983379821778,9.35281,10.951323379821776,9.16043,10.955783379821778L9.15204,10.955873379821778L5.85876,10.955873379821778L5.85289,10.955833379821778C5.65935,10.952693379821778,5.50342,10.794833379821778,5.50342,10.600543379821778C5.50342,10.407113379821777,5.6579999999999995,10.249783379821778,5.8503799999999995,10.245323379821777L5.85876,10.245233379821777ZM14.7298,11.954563379821778Q14.7755,11.908853379821778,14.8003,11.849123379821776Q14.825,11.789403379821778,14.825,11.724753379821777Q14.825,11.692743379821778,14.8188,11.661343379821776Q14.8125,11.629953379821778,14.8003,11.600383379821778Q14.788,11.570803379821777,14.7702,11.544193379821778Q14.7524,11.517573379821776,14.7298,11.494943379821777Q14.7072,11.472313379821777,14.6806,11.454523379821778Q14.6539,11.436743379821777,14.6244,11.424493379821778Q14.5948,11.412243379821778,14.5634,11.405993379821776Q14.532,11.399753379821778,14.5,11.399753379821778Q14.4354,11.399753379821778,14.3756,11.424493379821778Q14.3159,11.449233379821777,14.2702,11.494943379821777L13,12.765133379821778L12.22981,11.994943379821777Q12.1841,11.949233379821777,12.12437,11.924493379821778Q12.06465,11.899753379821778,12,11.899753379821778Q11.96799,11.899753379821778,11.936589999999999,11.905993379821776Q11.9052,11.912243379821778,11.875630000000001,11.924493379821778Q11.84605,11.936743379821777,11.81944,11.954523379821778Q11.792819999999999,11.972313379821777,11.77019,11.994943379821777Q11.74755,12.017573379821776,11.72977,12.044193379821778Q11.71199,12.070803379821777,11.69974,12.100383379821778Q11.68749,12.129953379821778,11.681239999999999,12.161343379821776Q11.675,12.192743379821778,11.675,12.224753379821777Q11.675,12.289403379821778,11.69974,12.349123379821776Q11.72448,12.408853379821778,11.77019,12.454563379821778L13,13.684373379821777L14.7298,11.954563379821778Z" fill-rule="evenodd" fill="#C4C8CB" fill-opacity="1"/></g></g></svg>