<svg xmlns="http://www.w3.org/2000/svg" xmlns:xlink="http://www.w3.org/1999/xlink" fill="none" version="1.1" width="20" height="20" viewBox="0 0 20 20"><defs><clipPath id="master_svg0_3719_062508"><rect x="0" y="0" width="20" height="20" rx="0"/></clipPath></defs><g clip-path="url(#master_svg0_3719_062508)"><g><path d="M10,17C13.863,17,17,13.863,17,10C17,6.1284,13.863,3,10,3C6.13704,3,3,6.13704,3,10C3,13.863,6.13704,17,10,17ZM4.04568,10.01728C4.04568,6.84568,6.83704,4.05432,10.01728,4.05432C13.2321,4.05432,15.9889,6.86296,15.9889,10.01728C15.9889,13.3185,13.3185,15.9889,10.01728,15.9889C6.71605,15.9889,4.04568,13.3185,4.04568,10.01728ZM10.09525,6.25806C10.74339,6.25806,11.33105,6.50867,11.72858,6.9148499999999995C12.10883,7.26053,12.32487,7.81361,12.32487,8.43583C12.32487,8.89386,12.22981,9.28275,11.93599,9.663C11.83228,9.78398,11.57302,10.025960000000001,11.12364,10.423490000000001C10.89895,10.613610000000001,10.752040000000001,10.777809999999999,10.63105,10.95065C10.50142,11.17534,10.46685,11.40003,10.44957,11.68522L10.44957,11.91855L9.576730000000001,11.91855L9.576730000000001,11.68522C9.576730000000001,11.30497,9.645859999999999,11.04571,9.76685,10.79509C9.90512,10.492619999999999,10.24216,10.12102,10.7866,9.61979C10.96809,9.42102,11.07179,9.3346,11.13228,9.256820000000001C11.33105,8.99756,11.43475,8.738299999999999,11.43475,8.45312C11.43475,8.046949999999999,11.31376,7.73583,11.08907,7.51114C10.85574,7.26917,10.518699999999999,7.15682,10.09525,7.15682C9.585370000000001,7.15682,9.24833,7.32966,9.00636,7.6667C8.78167,7.95188,8.64339,8.349409999999999,8.64339,8.84201L7.74463,8.83337C7.74463,8.12472,7.94339,7.51114,8.33228,7.0704C8.76438,6.56053,9.36932,6.25806,10.09525,6.25806ZM9.56809,12.80867C9.69772,12.6704,9.85327,12.61855,10.0434,12.61855C10.224879999999999,12.61855,10.38907,12.6704,10.52735,12.80867C10.64833,12.92966,10.717469999999999,13.0852,10.717469999999999,13.2753C10.717469999999999,13.4741,10.64833,13.6297,10.518699999999999,13.7506C10.38907,13.8716,10.23352,13.9408,10.0434,13.9408C9.85327,13.9408,9.69772,13.8716,9.56809,13.7506C9.42981,13.621,9.37796,13.4655,9.37796,13.2753C9.37796,13.0852,9.43846,12.92966,9.56809,12.80867Z" fill-rule="evenodd" fill="#4f555b" fill-opacity="1"/></g></g></svg>