<svg xmlns="http://www.w3.org/2000/svg" xmlns:xlink="http://www.w3.org/1999/xlink" fill="none" version="1.1" width="14.028373718261719" height="14.028358459472656" viewBox="0 0 14.028373718261719 14.028358459472656"><g><path d="M13.1133,7.92883L7.92927,7.92883L7.92927,13.1137C7.92927,13.619,7.51948,14.0284,7.0142,14.0284C6.50894,14.0284,6.09916,13.619,6.09916,13.1137L6.09916,7.92883L0.915062,7.92883C0.409375,7.92883,0,7.51945,0,7.01417C0,6.50909,0.409422,6.09953,0.915062,6.09953L6.09912,6.09953L6.09912,0.914641C6.09912,0.409563,6.50891,0,7.01417,0C7.51945,0,7.92923,0.409578,7.92923,0.914641L7.92923,6.09955L13.1133,6.09955C13.619,6.09955,14.0284,6.50909,14.0284,7.01416C14.0284,7.51942,13.619,7.92878,13.1133,7.92878L13.1133,7.92883Z" fill="#FFFFFF" fill-opacity="1"/></g></svg>