<svg xmlns="http://www.w3.org/2000/svg" xmlns:xlink="http://www.w3.org/1999/xlink" fill="none" version="1.1" width="30" height="30" viewBox="0 0 30 30"><g><rect x="0" y="0" width="30" height="29.999998092651367" rx="3" fill="#FFFFFF" fill-opacity="1"/><rect x="0.5" y="0.5" width="29" height="28.999998092651367" rx="2.5" fill-opacity="0" stroke-opacity="1" stroke="#D8D8D8" fill="none" stroke-width="1"/><g><path d="M13.597010000000001,7.999999135287884Q13.98507,7.999999135287884,14.26119,8.276119046325684Q14.53731,8.552238046325684,14.53731,8.940297046325684L14.53731,13.597009046325685Q14.53731,13.985069046325684,14.26119,14.261189046325683Q13.98507,14.537309046325683,13.597010000000001,14.537309046325683L8.940298,14.537309046325683Q8.552239,14.537309046325683,8.276119,14.261189046325683Q8.0000000711697,13.985069046325684,8,13.597009046325685L8,8.940297046325684Q8,8.552238046325684,8.276119,8.276118046325683Q8.552239,7.999999064118084,8.940298,7.999999046325684L13.597010000000001,7.999999135287884ZM21.0746,7.999999135287884Q21.462699999999998,7.999999135287884,21.731299999999997,8.276119046325684Q22,8.552238046325684,22,8.940297046325684L22,13.597009046325685Q22,13.985069046325684,21.731299999999997,14.261189046325683Q21.462699999999998,14.537309046325683,21.0746,14.537309046325683L16.402990000000003,14.537309046325683Q16.01493,14.537309046325683,15.73881,14.261189046325683Q15.46269,13.985069046325684,15.46269,13.597009046325685L15.46269,8.940297046325684Q15.46269,8.552238046325684,15.73881,8.276118046325683Q16.01493,7.999999064118084,16.402990000000003,7.999999046325684L21.0746,7.999999135287884ZM13.597010000000001,15.462689046325684Q13.98507,15.462689046325684,14.26119,15.738809046325684Q14.53731,16.014919046325684,14.53731,16.402979046325683L14.53731,21.074599046325684Q14.53731,21.46269904632568,14.26119,21.73129904632568Q13.98507,21.999999046325684,13.597010000000001,21.999999046325684L8.940298,21.999999046325684Q8.552239,21.999999046325684,8.276119,21.73129904632568Q8.0000000711697,21.46269904632568,8,21.074599046325684L8,16.402979046325683Q8,16.014929046325683,8.276119,15.738809046325684Q8.552239,15.462679046325682,8.940298,15.462689046325684L13.597010000000001,15.462689046325684ZM21.0746,15.462689046325684Q21.462699999999998,15.462689046325684,21.731299999999997,15.738809046325684Q22,16.014919046325684,22,16.402979046325683L22,21.074599046325684Q22,21.46269904632568,21.731299999999997,21.73129904632568Q21.462699999999998,21.999999046325684,21.0746,21.999999046325684L16.402990000000003,21.999999046325684Q16.01493,21.999999046325684,15.73881,21.73129904632568Q15.46269,21.46269904632568,15.46269,21.074599046325684L15.46269,16.402979046325683Q15.46269,16.014929046325683,15.73881,15.738809046325684Q16.01493,15.462679046325682,16.402990000000003,15.462689046325684L21.0746,15.462689046325684Z" fill="#4F555B" fill-opacity="1"/></g></g></svg>