<svg xmlns="http://www.w3.org/2000/svg" xmlns:xlink="http://www.w3.org/1999/xlink" fill="none" version="1.1" width="36" height="26" viewBox="0 0 36 26"><g><rect x="0" y="0" width="36" height="26" rx="13" fill="#EAF3FF" fill-opacity="1"/><g><path d="M23.942700000000002,12.160724526367186C23.8764,11.878024526367188,23.6617,11.653674526367187,23.3823,11.574924526367187L23.1891,11.530594526367189C22.2015,11.230634526367187,21.61861,10.213264526367187,21.859189999999998,9.209594526367187L21.91619,9.025944526367187C21.98717,8.744744526367187,21.90127,8.447124526367187,21.69137,8.246994526367187C21.46971,8.080727526367188,21.23578,7.931477526367187,20.991590000000002,7.8005255263671875C20.7545,7.655432526367187,20.506819999999998,7.528414526367188,20.25064,7.420552426367188C19.97324,7.337001626367187,19.67235,7.411010226367187,19.46536,7.613705526367188L19.3292,7.759361526367187C18.58021,8.470254526367187,17.40572,8.470254526367187,16.65672,7.759361526367187L16.5269,7.616871526367188C16.31991,7.414176726367187,16.01902,7.340168126367187,15.741620000000001,7.423718826367187C15.483319999999999,7.530159526367187,15.2335,7.656126526367188,14.99434,7.8005255263671875C14.749929999999999,7.933489526367188,14.516,8.084860526367187,14.29456,8.253327526367187C14.082329999999999,8.452054526367188,13.99498,8.750484526367188,14.06657,9.032274526367187L14.12357,9.215924526367187C14.36176,10.218684526367188,13.77737,11.233384526367187,12.790497,11.530594526367189L12.60051,11.574924526367187C12.322245,11.654654526367189,12.108979,11.878824526367188,12.0432159,12.160724526367186C12.00816016,12.437904526367188,11.99439862,12.717374526367188,12.00205218,12.996664526367187C11.99509234,13.270674526367188,12.00885272,13.544824526367186,12.0432158,13.816774526367187C12.104474,14.104394526367187,12.318401,14.335344526367187,12.60051,14.418394526367187L12.784164,14.459554526367189C13.77856,14.755634526367189,14.36714,15.778354526367188,14.12357,16.78689452636719L14.06657,16.97054452636719C13.99498,17.25234452636719,14.082329999999999,17.55076452636719,14.29456,17.749464526367188C14.51577,17.91826452636719,14.74973,18.069664526367188,14.99434,18.202264526367188C15.23266,18.342564526367187,15.48143,18.464364526367188,15.73846,18.566464526367188C16.0153,18.65006452636719,16.31575,18.577364526367187,16.52374,18.376464526367187L16.65356,18.249764526367187C17.404040000000002,17.536464526367187,18.58189,17.536464526367187,19.33237,18.249764526367187L19.4622,18.38916452636719C19.670180000000002,18.590064526367186,19.97063,18.662764526367187,20.24747,18.579064526367187C20.504469999999998,18.470864526367187,20.75318,18.343864526367188,20.991590000000002,18.199164526367188C21.23609,18.066364526367188,21.470039999999997,17.914964526367186,21.69137,17.746364526367188C21.903,17.547264526367186,21.99025,17.24916452636719,21.919359999999998,16.967384526367187L21.862360000000002,16.77739452636719C21.61879,15.768854526367187,22.2074,14.746134526367188,23.2018,14.450054526367188L23.3854,14.408894526367188C23.667,14.329674526367189,23.882199999999997,14.102234526367187,23.9459,13.816774526367187C23.9846,13.544094526367187,24.002499999999998,13.268884526367188,23.9997,12.993494526367186C24.0018,12.714864526367187,23.9827,12.436474526367189,23.942700000000002,12.160724526367186ZM17.98347,14.798364526367187C16.91589,14.801864526367186,16.04794,13.938644526367188,16.04561,12.871074526367188C16.04327,11.803494526367189,16.90744,10.936484526367188,17.97502,10.935314526367188C19.0426,10.934154526367188,19.90866,11.799264526367187,19.90866,12.866834526367189C19.91041,13.931844526367186,19.048470000000002,14.796624526367188,17.98347,14.798364526367187Z" fill="#1890FF" fill-opacity="1"/></g></g></svg>