<svg xmlns="http://www.w3.org/2000/svg" xmlns:xlink="http://www.w3.org/1999/xlink" fill="none" version="1.1" width="80.00000762939453" height="70" viewBox="0 0 80.00000762939453 70"><defs><clipPath id="master_svg0_3719_055119"><rect x="0" y="0" width="80.00000762939453" height="70" rx="0"/></clipPath><linearGradient x1="0.5" y1="0" x2="0.5" y2="1" id="master_svg1_917_061034"><stop offset="0%" stop-color="#FAFAFA" stop-opacity="1"/><stop offset="100%" stop-color="#F1F1F1" stop-opacity="1"/></linearGradient><linearGradient x1="0" y1="0.49999815225601196" x2="1.0000001192092896" y2="0.49999815225601196" id="master_svg2_917_055291"><stop offset="0%" stop-color="#EEEEEE" stop-opacity="1"/><stop offset="100%" stop-color="#DFDFDF" stop-opacity="1"/></linearGradient><linearGradient x1="0.058307599276304245" y1="0.7712534070014954" x2="0.9579688310623169" y2="0.3400181233882904" id="master_svg3_917_055903"><stop offset="0%" stop-color="#EDEDED" stop-opacity="1"/><stop offset="100%" stop-color="#F7F7F7" stop-opacity="1"/></linearGradient><linearGradient x1="0.5" y1="0.8725867867469788" x2="0.7361106276512146" y2="0.34882402420043945" id="master_svg4_917_059677"><stop offset="0%" stop-color="#E2E2E2" stop-opacity="1"/><stop offset="99.99977946281433%" stop-color="#F4F4F4" stop-opacity="1"/></linearGradient><linearGradient x1="-0.03307022154331207" y1="0.5808005928993225" x2="0.7531126141548157" y2="0.19283854961395264" id="master_svg5_917_399183"><stop offset="0%" stop-color="#EDEDED" stop-opacity="1"/><stop offset="100%" stop-color="#FFFFFF" stop-opacity="1"/></linearGradient><linearGradient x1="0.22075122594833374" y1="0.32131898403167725" x2="0.8338721990585327" y2="0.5631539225578308" id="master_svg6_917_057220"><stop offset="0%" stop-color="#E4E4E4" stop-opacity="1"/><stop offset="99.99994039535522%" stop-color="#F7F7F7" stop-opacity="1"/></linearGradient><linearGradient x1="0.5" y1="0" x2="0.5" y2="1" id="master_svg7_917_053967"><stop offset="0%" stop-color="#F1F4FF" stop-opacity="1"/><stop offset="100%" stop-color="#F1F4FF" stop-opacity="1"/></linearGradient><linearGradient x1="1.0052718657505011e-8" y1="0.5000001192092896" x2="0.9782270789146423" y2="0.5000001192092896" id="master_svg8_917_053969"><stop offset="0%" stop-color="#EDEDED" stop-opacity="1"/><stop offset="100%" stop-color="#FAFAFA" stop-opacity="1"/></linearGradient><linearGradient x1="0.8272196650505066" y1="0.09546295553445816" x2="0.5" y2="0.8730519413948059" id="master_svg9_917_053960"><stop offset="0.024577401927672327%" stop-color="#D0D7F6" stop-opacity="1"/><stop offset="100%" stop-color="#EBEFFF" stop-opacity="1"/></linearGradient><linearGradient x1="0" y1="0.49999815225601196" x2="1.0000001192092896" y2="0.49999815225601196" id="master_svga_917_053962"><stop offset="0%" stop-color="#EDEDED" stop-opacity="1"/><stop offset="100%" stop-color="#D2D4D6" stop-opacity="1"/></linearGradient></defs><g style="mix-blend-mode:passthrough" clip-path="url(#master_svg0_3719_055119)"><g style="mix-blend-mode:passthrough"><ellipse cx="40.717652320861816" cy="38.46075248718262" rx="31.515993118286133" ry="31.561338424682617" fill="url(#master_svg1_917_061034)" fill-opacity="1"/></g><g style="mix-blend-mode:passthrough"><ellipse cx="73.7429461479187" cy="15.680512189865112" rx="2.760524272918701" ry="2.7644965648651123" fill="#F0F0F0" fill-opacity="1"/></g><g style="mix-blend-mode:passthrough"><ellipse cx="3.910743236541748" cy="60.11607766151428" rx="3.910743236541748" ry="3.9163706302642822" fill="#F0F0F0" fill-opacity="1"/></g><g style="mix-blend-mode:passthrough"><ellipse cx="6.300436973571777" cy="10.281774520874023" rx="2.3004369735717773" ry="2.3037471771240234" fill="#F0F0F0" fill-opacity="1"/></g><g style="mix-blend-mode:passthrough"><ellipse cx="78.15965509414673" cy="9.955790877342224" rx="1.8403496742248535" ry="1.8429979085922241" fill="#F0F0F0" fill-opacity="1"/></g><g style="mix-blend-mode:passthrough"><ellipse cx="74.07423639297485" cy="65.41477525234222" rx="1.8403496742248535" ry="1.8429979085922241" fill="#F0F0F0" fill-opacity="1"/></g><g style="mix-blend-mode:passthrough"><g style="mix-blend-mode:passthrough"><g style="mix-blend-mode:passthrough"><path d="M66.54094012680054,23.0014953125Q37.32704012680054,20.6376953125,37.32704012680054,20.6376953125C37.32704012680054,20.6376953125,13.561540126800537,25.138025312499998,13.561540126800537,25.138025312499998C13.561540126800537,25.138025312499998,40.855140126800535,28.3060253125,40.855140126800535,28.3060253125Q40.855140126800535,28.3060253125,66.54094012680054,23.0014953125Z" fill="url(#master_svg2_917_055291)" fill-opacity="1"/></g><g style="mix-blend-mode:passthrough"><path d="M13.561540126800537,25.138025312499998L37.27044012680054,27.8694553125L37.32704012680054,20.6376953125L13.561540126800537,25.138025312499998Z" fill="#D8D8D8" fill-opacity="1"/></g><g style="mix-blend-mode:passthrough"><path d="M40.866625896453854,63.001221451568604C40.866625896453854,63.001221451568604,13.513125896453857,56.833421451568604,13.513125896453857,56.833421451568604C13.513125896453857,56.833421451568604,13.531260896453857,26.188921451568604,13.531260896453857,26.188921451568604C13.531260896453857,26.188921451568604,40.866625896453854,28.306041451568603,40.866625896453854,28.306041451568603C40.866625896453854,28.306041451568603,40.866625896453854,63.001221451568604,40.866625896453854,63.001221451568604Z" fill="url(#master_svg3_917_055903)" fill-opacity="1"/></g><g style="mix-blend-mode:passthrough"><path d="M40.85498046875,63.00334765625C40.85498046875,63.00334765625,66.56288046875,55.19044765625,66.56288046875,55.19044765625C66.56288046875,55.19044765625,66.54548046875,22.94384765625,66.54548046875,22.94384765625C66.54548046875,22.94384765625,40.85498046875,28.30007765625,40.85498046875,28.30007765625C40.85498046875,28.30007765625,40.85498046875,63.00334765625,40.85498046875,63.00334765625Z" fill="url(#master_svg4_917_059677)" fill-opacity="1"/></g><g style="mix-blend-mode:passthrough"><path d="M40.8669,28.306725114898683C40.8669,28.306725114898683,13.531369999999999,25.04239511489868,13.531369999999999,25.04239511489868C13.531369999999999,25.04239511489868,8.121426,34.28768511489868,8.121426,34.28768511489868C7.732262,35.43689511489868,8.309858,36.69589511489868,9.40631,37.099395114898684C9.40631,37.099395114898684,33.5623,42.22599511489868,33.5623,42.22599511489868C34.6588,42.62949511489868,35.863299999999995,42.02909511489868,36.2525,40.88309511489868C36.2525,40.88309511489868,40.8669,28.306725114898683,40.8669,28.306725114898683Z" fill="url(#master_svg5_917_399183)" fill-opacity="1"/></g><g style="mix-blend-mode:passthrough"><path d="M40.866615295410156,28.29765386291504C40.866615295410156,28.29765386291504,66.26471529541016,23.00144386291504,66.26471529541016,23.00144386291504C66.26471529541016,23.00144386291504,74.16941529541015,33.271443862915035,74.16941529541015,33.271443862915035C74.54281529541015,34.37454386291504,73.98731529541016,35.04304386291504,72.93171529541016,35.43334386291504C72.93171529541016,35.43334386291504,51.405715295410154,42.22964386291504,51.405715295410154,42.22964386291504C50.34701529541016,42.61994386291504,49.18960529541016,42.04264386291504,48.81614529541016,40.93954386291504C48.81614529541016,40.93954386291504,40.866615295410156,28.29765386291504,40.866615295410156,28.29765386291504Z" fill="url(#master_svg6_917_057220)" fill-opacity="1"/></g></g><g style="mix-blend-mode:passthrough"><path d="M46.97247405090332,10.7265144375Q46.697674050903316,10.6961444375,46.412574050903316,10.6787184375Q46.36297405090332,10.6756834375,46.31827405090332,10.6538854375Q46.27357405090332,10.6320874375,46.24057405090332,10.5948444375Q46.20767405090332,10.5576004375,46.191474050903324,10.5105824375Q46.17527405090332,10.4635639375,46.17827405090332,10.4139285075Q46.18137405090332,10.3642931375,46.20317405090332,10.3195972375Q46.22497405090332,10.2749014375,46.26217405090332,10.2419494375Q46.29947405090332,10.2089974375,46.34647405090332,10.1928064375Q46.39347405090332,10.1766154375,46.44307405090332,10.1796494375Q46.74037405090332,10.1978234375,47.02737405090332,10.2295404375L46.97247405090332,10.7265144375ZM45.25237405090332,10.6608304375Q44.68497405090332,10.6766874375,44.10214405090332,10.7386724375Q44.05269405090332,10.7439314375,44.00499405090332,10.7298664375Q43.95729405090332,10.7158024375,43.91861405090332,10.6845554375Q43.87992405090332,10.6533074375,43.856144050903325,10.6096354375Q43.83236405090332,10.5659624375,43.82710405090332,10.5165134375Q43.82184405090332,10.4670641375,43.83591405090332,10.4193665375Q43.84997405090332,10.3716688375,43.88122405090332,10.3329843375Q43.91247405090332,10.2942994375,43.95614405090332,10.2705174375Q43.99981405090332,10.2467354375,44.04926405090332,10.2414764375Q44.65147405090332,10.1774274375,45.23847405090332,10.1610254375Q45.28817405090332,10.1596364375,45.33457405090332,10.1773754375Q45.38107405090332,10.1951154375,45.41717405090332,10.2292824375Q45.45327405090332,10.2634494375,45.47367405090332,10.3088425375Q45.49397405090332,10.3542358375,45.49537405090332,10.4039444775Q45.49667405090332,10.4536531375,45.47897405090332,10.5001095375Q45.46127405090332,10.5465664375,45.42707405090332,10.5826974375Q45.392874050903316,10.6188294375,45.34747405090332,10.6391354375Q45.30207405090332,10.6594414375,45.25237405090332,10.6608304375ZM42.95088405090332,10.9043474375Q42.37963405090332,11.0079304375,41.81914405090332,11.1518374375Q41.77097405090332,11.1642034375,41.72174405090332,11.1571964375Q41.67251405090332,11.1501894375,41.62970405090332,11.1248754375Q41.58690405090332,11.0995614375,41.55704405090332,11.0597944375Q41.52719405090332,11.0200274375,41.51482405090332,10.9718614375Q41.50245405090332,10.9236954375,41.50946405090332,10.8744634375Q41.51647405090332,10.8252324375,41.54178405090332,10.7824294375Q41.56709405090332,10.7396264375,41.60686405090332,10.7097684375Q41.64663405090332,10.6799114375,41.69480405090332,10.6675444375Q42.27272405090332,10.5191634375,42.86167405090332,10.4123703275Q42.910604050903316,10.4034979675,42.959204050903324,10.4140257475Q43.00780405090332,10.4245535375,43.04868405090332,10.4528787375Q43.08955405090332,10.4812038375,43.11647405090332,10.5230144375Q43.14339405090332,10.5648244375,43.15227405090332,10.6137544375Q43.16114405090332,10.6626844375,43.15061405090332,10.7112854375Q43.14008405090332,10.7598864375,43.11176405090332,10.8007594375Q43.08343405090332,10.8416314375,43.04162405090332,10.8685534375Q42.99981405090332,10.8954754375,42.95088405090332,10.9043474375ZM40.707414050903324,11.4814834375Q40.14895405090332,11.6702534375,39.62808405090332,11.8949634375Q39.58242405090332,11.9146634375,39.53270405090332,11.915383437500001Q39.48298405090332,11.9161134375,39.43676405090332,11.8977534375Q39.39055405090332,11.8793934375,39.35487405090332,11.8447534375Q39.31920405090332,11.8101034375,39.29950405090332,11.7644434375Q39.27980405090332,11.7187834375,39.27908405090332,11.6690634375Q39.27835405090332,11.6193334375,39.29671405090332,11.5731234375Q39.31507405090332,11.5269034375,39.34972405090332,11.4912334375Q39.38436405090332,11.4555634375,39.43002405090332,11.4358634375Q39.96957405090332,11.2031004375,40.54729405090332,11.0078134375Q40.59440405090332,10.9918894375,40.64402405090332,10.9952054375Q40.69364405090332,10.9985204375,40.73821405090332,11.0205724375Q40.78278405090332,11.0426234375,40.81552405090332,11.0800534375Q40.84826405090332,11.1174824375,40.86419405090332,11.1645924375Q40.88011405090332,11.2117014375,40.87679405090332,11.2613194375Q40.87348405090332,11.3109364375,40.85143405090332,11.3555084375Q40.82938405090332,11.4000794375,40.79195405090332,11.4328234375Q40.75452405090332,11.4655634375,40.707414050903324,11.4814834375ZM38.59768405090332,12.3958534375Q38.07671405090332,12.6806634375,37.62684405090332,12.9974734375Q37.58618405090332,13.0261034375,37.53766405090332,13.037003437500001Q37.48914405090332,13.0478934375,37.44014405090332,13.0393934375Q37.39114405090332,13.0308834375,37.349134050903324,13.0042834375Q37.30712405090332,12.9776734375,37.27849405090332,12.9370134375Q37.24986405090332,12.8963634375,37.23896405090332,12.8478434375Q37.22807405090332,12.7993134375,37.23657405090332,12.7503234375Q37.24508405090332,12.701323437500001,37.27168405090332,12.6593134375Q37.29829405090332,12.6173034375,37.33895405090332,12.588673437499999Q37.81200405090332,12.2555334375,38.35784405090332,11.9571334375Q38.40147405090332,11.9332834375,38.45091405090332,11.9279434375Q38.50035405090332,11.9225934375,38.548074050903324,11.9365834375Q38.59579405090332,11.9505734375,38.63453405090332,11.9817534375Q38.67326405090332,12.0129334375,38.69712405090332,12.056573437499999Q38.72097405090332,12.1002034375,38.72631405090332,12.1496434375Q38.73165405090332,12.1990834375,38.71767405090332,12.2468034375Q38.70368405090332,12.2945234375,38.67250405090332,12.3332634375Q38.64131405090332,12.3720034375,38.59768405090332,12.3958534375ZM36.74184405090332,13.7180734375Q36.311504050903324,14.1272234375,36.00349405090332,14.5635434375Q35.97481405090332,14.6041734375,35.93276405090332,14.6307334375Q35.89072405090332,14.6572834375,35.84172405090332,14.6657334375Q35.79271405090332,14.6741834375,35.74420405090332,14.6632334375Q35.69570405090332,14.6522834375,35.65507405090332,14.6236034375Q35.61444405090332,14.5949234375,35.58789405090332,14.5528834375Q35.56133405090332,14.5108434375,35.55288405090332,14.461833437500001Q35.54443405090332,14.4128334375,35.55538405090332,14.3643234375Q35.56633405090332,14.315813437500001,35.59501405090332,14.2751934375Q35.93136405090332,13.798733437500001,36.39732405090332,13.3557134375Q36.43335405090332,13.3214534375,36.47976405090332,13.3035834375Q36.52617405090332,13.2857234375,36.57588405090332,13.2869734375Q36.62559405090332,13.2882334375,36.67104405090332,13.3084134375Q36.71649405090332,13.3285934375,36.75076405090332,13.3646334375Q36.78502405090332,13.4006734375,36.80288405090332,13.4470834375Q36.82075405090332,13.4934934375,36.81950405090332,13.5432034375Q36.81824405090332,13.5929134375,36.79806405090332,13.6383634375Q36.77787405090332,13.6838134375,36.74184405090332,13.7180734375ZM35.48396405090332,15.5378534375Q35.29042305090332,16.0630934375,35.26839905090332,16.6068534375Q35.26638605090332,16.656543437499998,35.24551205090332,16.7016734375Q35.22463805090332,16.746813437500002,35.18808105090332,16.7805234375Q35.15152405090332,16.8142334375,35.10484805090332,16.8313834375Q35.05817305090332,16.8485434375,35.00848605090332,16.8465334375Q34.95879805090332,16.844513437499998,34.913663050903324,16.8236434375Q34.86852805090332,16.8027734375,34.83481705090332,16.7662134375Q34.80110605090332,16.729653437499998,34.78395105090332,16.6829834375Q34.766796050903324,16.6363034375,34.76880805090332,16.5866134375Q34.79402105090332,15.9641334375,35.01480605090332,15.3649734375Q35.03200005090332,15.3183034375,35.06574105090332,15.2817834375Q35.09948305090332,15.2452534375,35.14463505090332,15.2244134375Q35.18978805090332,15.203573437500001,35.23947705090332,15.201603437500001Q35.28916605090332,15.199633437500001,35.33582705090332,15.2168334375Q35.38248805090332,15.2340234375,35.41901405090332,15.267763437500001Q35.45554405090332,15.3015034375,35.47638405090332,15.3466634375Q35.49722405090332,15.3918134375,35.49919405090332,15.4415034375Q35.50116405090332,15.4911934375,35.48396405090332,15.5378534375ZM35.41634405090332,17.6798034375Q35.58390405090332,18.1816534375,35.93276405090332,18.6342734375Q35.96312405090332,18.6736634375,35.97609405090332,18.7216634375Q35.98907405090332,18.7696734375,35.98268405090332,18.818983437500002Q35.97630405090332,18.8683034375,35.95153405090332,18.911423437499998Q35.92676405090332,18.9545434375,35.88737405090332,18.9849034375Q35.84799405090332,19.0152634375,35.79998405090332,19.0282334375Q35.75197405090332,19.041203437500002,35.70266405090332,19.034823437500002Q35.65334405090332,19.028443437500002,35.61022405090332,19.003673437499998Q35.56710405090332,18.9788934375,35.53674405090332,18.9395134375Q35.13636305090332,18.420053437500002,34.94208005090332,17.8381534375Q34.92633205090332,17.7909834375,34.92983305090332,17.741373437500002Q34.93333405090332,17.6917734375,34.95555105090332,17.6472834375Q34.97776905090332,17.6027934375,35.01532005090332,17.570193437500002Q35.05287105090332,17.5375934375,35.10004005090332,17.5218434375Q35.14720805090332,17.5060934375,35.19681305090332,17.5096034375Q35.24641805090332,17.5131034375,35.29090705090332,17.5353134375Q35.33539605090332,17.5575334375,35.36799605090332,17.5950834375Q35.40059405090332,17.6326334375,35.41634405090332,17.6798034375ZM36.71994405090332,19.4121334375Q37.15165405090332,19.7456434375,37.67605405090332,20.0042834375Q37.72064405090332,20.0262834375,37.75343405090332,20.0636734375Q37.78622405090332,20.101063437500002,37.80220405090332,20.1481534375Q37.81818405090332,20.1952434375,37.81492405090332,20.2448634375Q37.81167405090332,20.2944834375,37.78967405090332,20.3390834375Q37.76768405090332,20.3836834375,37.73029405090332,20.416473437500002Q37.69290405090332,20.4492734375,37.64581405090332,20.465273437500002Q37.59872405090332,20.4811734375,37.549104050903324,20.477973437499998Q37.49947405090332,20.4746734375,37.45488405090332,20.4526734375Q36.88558405090332,20.1719234375,36.41426405090332,19.807813437500002Q36.37491405090332,19.7774034375,36.35019405090332,19.734263437499997Q36.32546405090332,19.6911134375,36.31914405090332,19.6417934375Q36.31281405090332,19.5924634375,36.32583405090332,19.544473437500002Q36.33886405090332,19.4964834375,36.36926405090332,19.457133437499998Q36.39967405090332,19.4177734375,36.44281405090332,19.3930534375Q36.48596405090332,19.3683334375,36.53528405090332,19.3620034375Q36.58461405090332,19.355673437500002,36.63260405090332,19.368703437500002Q36.68059405090332,19.3817334375,36.71994405090332,19.4121334375ZM38.72992405090332,20.411973437500002Q39.29857405090332,20.5759734375,39.83785405090332,20.6200734375Q39.88741405090332,20.624173437499998,39.93165405090332,20.6468734375Q39.97589405090332,20.6695734375,40.00806405090332,20.7074734375Q40.04024405090332,20.7453734375,40.05546405090332,20.7927734375Q40.07067405090332,20.8400734375,40.06662405090332,20.8896734375Q40.06256405090332,20.9391734375,40.03984405090332,20.983473437500002Q40.01713405090332,21.0276734375,39.97921405090332,21.059873437500002Q39.94130405090332,21.092073437499998,39.89396405090332,21.107273437499998Q39.84661405090332,21.1224734375,39.79705405090332,21.1184734375Q39.20803405090332,21.0701734375,38.59141405090332,20.892373437499998Q38.54363405090332,20.878673437499998,38.50475405090332,20.8476734375Q38.46588405090332,20.8165734375,38.441834050903324,20.773073437500003Q38.41779405090332,20.7295734375,38.41223405090332,20.680173437500002Q38.40667405090332,20.6307734375,38.42045405090332,20.5829734375Q38.43422405090332,20.5351734375,38.46524405090332,20.4962734375Q38.49625405090332,20.4573734375,38.53978405090332,20.433373437500002Q38.58330405090332,20.4093734375,38.63272405090332,20.4037734375Q38.68214405090332,20.3982134375,38.72992405090332,20.411973437500002ZM40.92755405090332,20.555673437499998Q41.51587405090332,20.410773437499998,41.70506405090332,20.0470734375Q41.72801405090332,20.0029534375,41.76609405090332,19.9709834375Q41.80418405090332,19.9390034375,41.85160405090332,19.9240334375Q41.89902405090332,19.909063437500002,41.94856405090332,19.913383437500002Q41.99810405090332,19.917703437500002,42.04222405090332,19.9406434375Q42.08633405090332,19.963593437500002,42.11831405090332,20.0016734375Q42.15029405090332,20.0397634375,42.16526405090332,20.087183437500002Q42.18023405090332,20.134603437499997,42.17591405090332,20.184143437499998Q42.17159405090332,20.233683437499998,42.14865405090332,20.277803437499998Q41.85507405090332,20.8421734375,41.04711405090332,21.0411734375Q40.99883405090332,21.0530734375,40.94967405090332,21.0455734375Q40.90050405090332,21.0380734375,40.85795405090332,21.012373437500003Q40.81540405090332,20.986673437500002,40.78594405090332,20.9465734375Q40.75647405090332,20.9064734375,40.74458405090332,20.8582734375Q40.73269405090332,20.8099734375,40.74018405090332,20.7607734375Q40.74767405090332,20.7115734375,40.77341405090332,20.6690734375Q40.79914405090332,20.6264734375,40.83920405090332,20.5970734375Q40.87926405090332,20.567573437500002,40.92755405090332,20.555673437499998ZM41.66939405090332,19.1096534375Q41.47079405090332,18.6442034375,40.99068405090332,18.4552934375Q40.94440405090332,18.4370834375,40.90862405090332,18.4025534375Q40.87284405090332,18.3680134375,40.85299405090332,18.3224234375Q40.83314405090332,18.2768234375,40.83226405090332,18.2271034375Q40.83137405090332,18.177383437499998,40.84958405090332,18.131113437499998Q40.86779405090332,18.084833437500002,40.90232405090332,18.0490534375Q40.93685405090332,18.0132634375,40.98245405090332,17.9934234375Q41.02804405090332,17.9735734375,41.07776405090332,17.9726934375Q41.12748405090332,17.9718034375,41.17376405090332,17.9900134375Q41.84856405090332,18.255543437500002,42.12928405090332,18.9134334375Q42.14879405090332,18.959163437500003,42.14932405090332,19.0088934375Q42.14985405090332,19.0586134375,42.13130405090332,19.1047634375Q42.11276405090332,19.1509034375,42.07797405090332,19.1864334375Q42.04318405090332,19.2219734375,41.99745405090332,19.2414834375Q41.95171405090332,19.2610034375,41.90198405090332,19.2615334375Q41.85226405090332,19.2620534375,41.80612405090332,19.2435134375Q41.759974050903324,19.224973437499997,41.72444405090332,19.1901834375Q41.68891405090332,19.155393437500003,41.66939405090332,19.1096534375ZM39.94972405090332,18.3463434375Q39.43967405090332,18.3966134375,38.868274050903324,18.6016434375Q38.82147405090332,18.618433437500002,38.77180405090332,18.6160334375Q38.72212405090332,18.613643437500002,38.67715405090332,18.592423437500003Q38.63218405090332,18.5712034375,38.598754050903324,18.5343834375Q38.56532405090332,18.4975634375,38.54853405090332,18.4507634375Q38.53173405090332,18.4039534375,38.53413405090332,18.3542834375Q38.53653405090332,18.3046134375,38.55775405090332,18.2596434375Q38.57897405090332,18.2146634375,38.61579405090332,18.1812434375Q38.65260405090332,18.147813437499998,38.69941405090332,18.131013437500002Q39.32904405090332,17.9051034375,39.90067405090332,17.8487534375Q39.95016405090332,17.8438734375,39.99775405090332,17.8583034375Q40.04533405090332,17.8727334375,40.08378405090332,17.9042834375Q40.12222405090332,17.935823437499998,40.14566405090332,17.9796734375Q40.16911405090332,18.0235334375,40.17399405090332,18.073023437499998Q40.17887405090332,18.1225034375,40.16444405090332,18.1700934375Q40.15000405090332,18.2176834375,40.11846405090332,18.2561234375Q40.08692405090332,18.2945734375,40.04306405090332,18.3180134375Q39.99921405090332,18.3414634375,39.94972405090332,18.3463434375ZM37.84327405090332,19.0780934375Q37.34786405090332,19.3615334375,36.90482405090332,19.719413437500002Q36.86613405090332,19.750663437500002,36.818444050903324,19.7647334375Q36.77074405090332,19.7787934375,36.72129405090332,19.7735334375Q36.67184405090332,19.7682734375,36.62817405090332,19.744493437499997Q36.58450405090332,19.720713437500002,36.55325405090332,19.6820334375Q36.52200405090332,19.6433534375,36.50793405090332,19.595653437499998Q36.49387405090332,19.5479534375,36.49912405090332,19.4985034375Q36.50438405090332,19.449053437499998,36.52816405090332,19.4053834375Q36.55194405090332,19.3617134375,36.59063405090332,19.3304634375Q37.06481405090332,18.9474234375,37.59497405090332,18.6441034375Q37.63814405090332,18.6194034375,37.68746405090332,18.613113437499997Q37.73679405090332,18.6068134375,37.78477405090332,18.6198734375Q37.83276405090332,18.6329334375,37.87209405090332,18.6633634375Q37.91142405090332,18.693783437500002,37.93612405090332,18.7369534375Q37.96081405090332,18.7801134375,37.96711405090332,18.8294434375Q37.97341405090332,18.878763437499998,37.96035405090332,18.9267534375Q37.947294050903324,18.9747334375,37.91686405090332,19.0140634375Q37.88644405090332,19.0533934375,37.84327405090332,19.0780934375ZM36.08546405090332,20.505173437499998Q35.69956405090332,20.9482734375,35.44285405090332,21.418173437500002Q35.41901405090332,21.4617734375,35.38029205090332,21.492973437499998Q35.34156505090332,21.5241734375,35.29384905090332,21.5381734375Q35.24613305090332,21.552173437500002,35.19669105090332,21.5468734375Q35.14724805090332,21.5415734375,35.10360805090332,21.5177734375Q35.05996705090332,21.4938734375,35.02877105090332,21.4551734375Q34.99757605090332,21.416473437500002,34.98357505090332,21.3686734375Q34.96957305090332,21.3209734375,34.97489805090332,21.271573437500003Q34.98022305090332,21.2220734375,35.004064050903324,21.1784734375Q35.28682105090332,20.6608734375,35.70840405090332,20.1767634375Q35.74105405090332,20.1392634375,35.78558405090332,20.117113437500002Q35.83010405090332,20.0949634375,35.87971405090332,20.0915434375Q35.92932405090332,20.0881134375,35.97646405090332,20.1039334375Q36.02361405090332,20.119753437500002,36.06111405090332,20.1524134375Q36.09861405090332,20.1850734375,36.12076405090332,20.2295934375Q36.14291405090332,20.274123437500002,36.14633405090332,20.3237334375Q36.14976405090332,20.3733434375,36.133944050903324,20.4204734375Q36.11812405090332,20.4676734375,36.08546405090332,20.505173437499998ZM34.998928050903324,22.4844734375Q34.80500905090332,23.0580734375,34.71659805090332,23.568873437500002Q34.70811605090332,23.617873437500002,34.68152905090332,23.6598734375Q34.65494105090332,23.701873437499998,34.61429605090332,23.7305734375Q34.57365105090332,23.7591734375,34.52513505090332,23.7701734375Q34.47662015090332,23.781073437499998,34.42762075090332,23.7725734375Q34.37862135090332,23.764073437500002,34.33659755090332,23.7374734375Q34.29457375090332,23.7108734375,34.26592305090332,23.6702734375Q34.23727305090332,23.6295734375,34.22635805090332,23.581073437500002Q34.21544205090332,23.532573437499998,34.22392405090332,23.4835734375Q34.31894165090332,22.934673437500003,34.52526205090332,22.3243734375Q34.54118705090332,22.2772734375,34.57392805090332,22.2397734375Q34.60666905090332,22.2023734375,34.65124205090332,22.180373437500002Q34.69581405090332,22.1582734375,34.74543105090332,22.1549734375Q34.79504905090332,22.1516734375,34.84215805090332,22.1675734375Q34.88926705090332,22.1834734375,34.92669505090332,22.2162734375Q34.96412405090332,22.2489734375,34.98617405090332,22.2935734375Q35.00822405090332,22.3381734375,35.01153905090332,22.3877734375Q35.01485305090332,22.4373734375,34.998928050903324,22.4844734375ZM34.64630805090332,24.6784734375Q34.67342905090332,25.1764734375,34.83089605090332,25.7868734375Q34.84331705090332,25.8349734375,34.83636605090332,25.8842734375Q34.82941505090332,25.9334734375,34.80415005090332,25.976273437499998Q34.77888505090332,26.0191734375,34.73915205090332,26.0490734375Q34.69941905090332,26.0789734375,34.65126805090332,26.0913734375Q34.60311605090332,26.1037734375,34.55387605090332,26.0968734375Q34.50463605090332,26.0898734375,34.461804550903324,26.064673437499998Q34.41897275090332,26.0393734375,34.38906987790332,25.9996734375Q34.359167050903324,25.9598734375,34.34674545090332,25.911773437500003Q34.17687005090332,25.2532734375,34.14704705090332,24.7055734375Q34.14434305090332,24.655973437500002,34.16084705090332,24.6090734375Q34.17735005090332,24.5621734375,34.21054905090332,24.5251734375Q34.24374805090332,24.4880734375,34.28858805090332,24.4665734375Q34.33342815090332,24.4450734375,34.38308260090332,24.442373437500002Q34.43273715090332,24.439673437499998,34.47964675090332,24.4561734375Q34.526556050903324,24.4726734375,34.56358005090332,24.5058734375Q34.600603050903324,24.5390734375,34.62210305090332,24.5839734375Q34.64360305090332,24.6287734375,34.64630805090332,24.6784734375ZM35.13634205090332,26.8997734375Q35.21696605090332,27.2242734375,35.26234205090332,27.5095734375Q35.26234205090332,27.5095734375,35.24354805090332,27.5124734375Q35.22475405090332,27.5154734375,35.19002805090332,27.5210734375Q35.15530105090332,27.5265734375,35.10992905090332,27.5337734375Q35.06455605090332,27.5409734375,35.01544605090332,27.5487734375Q34.96633505090332,27.5565734375,34.92096305090332,27.5638734375Q34.87559005090332,27.5710734375,34.84086405090332,27.5765734375Q34.80613705090332,27.5820734375,34.78734305090332,27.5850734375Q34.76854905090332,27.5880734375,34.76854905090332,27.5880734375Q34.72654705090332,27.3239734375,34.651100050903324,27.0203734375Q34.63910705090332,26.9721734375,34.64649605090332,26.9229734375Q34.65388405090332,26.8737734375,34.67952905090332,26.8311734375Q34.705174050903324,26.7885734375,34.74517105090332,26.7590734375Q34.78516805090332,26.7294734375,34.83342805090332,26.7174734375Q34.88168905090332,26.7054734375,34.93086505090332,26.7128734375Q34.98004105090332,26.7202734375,35.02264605090332,26.7458734375Q35.06525205090332,26.7715734375,35.09480005090332,26.8115734375Q35.12434905090332,26.8515734375,35.13634205090332,26.8997734375Z" fill="#E1E1E1" fill-opacity="1"/></g><g style="mix-blend-mode:passthrough" transform="matrix(0.9984213709831238,0.05578336492180824,-0.05655449256300926,0.9984213709831238,0.12161425884733035,-2.341357384371804)"><g style="mix-blend-mode:passthrough"><path d="M46.114702224731445,7.76378015625L48.57215222473145,15.38856015625L51.24329222473145,8.767940156249999L60.16490222473145,3.76416015625L58.45540222473144,3.76416015625L46.114702224731445,7.76378015625Z" fill="url(#master_svg7_917_053967)" fill-opacity="1"/><path d="M46.114702224731445,7.76378015625L48.57215222473145,15.38856015625L51.24329222473145,8.767940156249999L60.16490222473145,3.76416015625L58.45540222473144,3.76416015625L46.114702224731445,7.76378015625Z" fill="url(#master_svg8_917_053969)" fill-opacity="1"/></g><g style="mix-blend-mode:passthrough"><path d="M48.57421875,15.38819875L53.17995875,11.64548875L50.20504875,8.85546875L48.57421875,9.23974675L48.57421875,15.38819875Z" fill="#CECECE" fill-opacity="1"/></g><g style="mix-blend-mode:passthrough"><path d="M42,5.38999734375L46.1464,8.023507343750001L59.2084,3.64572734375L48.60221,9.23764734375L55.4891,12.79462734375L65.3836,0.97802734375L42,5.38999734375Z" fill="url(#master_svg9_917_053960)" fill-opacity="1"/><path d="M42,5.38999734375L46.1464,8.023507343750001L59.2084,3.64572734375L48.60221,9.23764734375L55.4891,12.79462734375L65.3836,0.97802734375L42,5.38999734375Z" fill="url(#master_svga_917_053962)" fill-opacity="1"/></g></g></g></g></svg>