<svg xmlns="http://www.w3.org/2000/svg" xmlns:xlink="http://www.w3.org/1999/xlink" fill="none" version="1.1" width="12.40594482421875" height="10.704345703125" viewBox="0 0 12.40594482421875 10.704345703125"><g><path d="M1.30311220703125,5.846321796874999Q1.1119522070312504,5.837711796875,0.9742622070312503,5.700021796875Q0.8932422070312498,5.619001796875001,0.8569122070312503,5.519471796875L0.1348922070312497,4.784661796875Q0.0004022070312501569,4.652611796875,0.0000022070312502009415,4.463751796875Q-0.000397792968749755,4.273621796875,0.13534220703125044,4.140489796875Q0.27109220703125025,4.007358796875,0.4611822070312499,4.011459796875Q0.6499122070312504,4.015531796875,0.7792922070312498,4.152446796875L0.9262322070312496,4.302101796875Q1.16808220703125,3.052717796875,2.00165220703125,2.012081796875Q3.17189220703125,0.5511117968749999,4.99774220703125,0.13855179687499986Q6.8235922070312505,-0.2740082031250002,8.50830220703125,0.5418717968750002Q10.19301220703125,1.357751796875,11.00145220703125,3.046045796875Q11.09162220703125,3.232695096875,11.02282220703125,3.429145796875Q10.95401220703125,3.625594796875,10.76631220703125,3.715569796875Q10.578612207031249,3.805544796875,10.38237220703125,3.736141796875Q10.18613220703125,3.666739796875,10.09673220703125,3.478765796875Q9.55783220703125,2.354831796875,8.48998220703125,1.682391796875Q7.42228220703125,1.010051796875,6.17598520703125,1.010051796875Q4.38280520703125,1.010051796875,3.10842220703125,2.281691796875Q2.12977220703125,3.258225436875,1.90045220703125,4.542271796875L2.24158220703125,4.361281796875Q2.40495220703125,4.272031796875,2.58558220703125,4.326221796875Q2.76621220703125,4.380421796875,2.85461220703125,4.546991796875Q2.94302220703125,4.713571796875,2.88666220703125,4.893541796875Q2.83030220703125,5.073501796875,2.66267220703125,5.159901796875L1.71926220703125,5.660631796875Q1.7024322070312499,5.681041796875,1.68305220703125,5.700381796875Q1.53624220703125,5.846891796875,1.3288322070312502,5.846891796875Q1.31585220703125,5.846891796875,1.30311220703125,5.846321796874999ZM5.74269620703125,7.198811796875L8.24296220703125,5.548631796875L8.24309220703125,5.548941796875C8.45274220703125,5.410591796875,8.45274220703125,5.1029817968749995,8.24309220703125,4.9646317968750004L5.74282120703125,3.314455096875C5.63532120703125,3.243529596875,5.49755820703125,3.237363996875,5.38415220703125,3.298402496875C5.27074650703125,3.359440796875,5.20001910147125,3.477822796875,5.20001220703125,3.6066117968749998L5.20001220703125,6.906651796875C5.20004967683125,7.035401796875,5.27076000703125,7.153741796875,5.38412320703125,7.214761796875C5.49748620703125,7.275791796875,5.63520120703125,7.269671796875,5.74269620703125,7.198811796875ZM0.27614220703125003,4.643061796875C0.1749222070312504,4.544621796875,0.17457220703125031,4.382151796875,0.2753822070312504,4.283281796875C0.2824822070312498,4.276321796875,0.28988220703125034,4.269871796875,0.2975422070312499,4.263921796875C0.28988220703125034,4.269871796875,0.28249220703125033,4.276321796875,0.27539220703125,4.283271796875C0.17458220703124994,4.3821417968750005,0.17493220703125,4.5446117968749995,0.27616220703125016,4.643051796875L0.8293222070312503,5.206011796875L0.8293222070312503,5.206031796875L0.27614220703125003,4.643061796875ZM9.95753220703125,9.138661796874999Q8.39164220703125,10.706181796875,6.17576620703125,10.704351796874999Q5.00817320703125,10.704521796875,3.97725220703125,10.234761796875Q3.63361220703125,10.078171796875,3.30516220703125,9.869381796875Q1.99123220703125,9.034111796874999,1.3307522070312499,7.624201796875Q1.24257220703125,7.436321796875,1.3131322070312499,7.240941796875Q1.3836922070312498,7.045561796875,1.5717322070312498,6.957301796875Q1.75979220703125,6.869031796874999,1.95517220703125,6.939591796875Q2.15055220703125,7.010151796875,2.23881220703125,7.198201796875Q2.77370220703125,8.338591796875,3.84570220703125,9.020191796875Q4.91760120703125,9.701721796874999,6.17598320703125,9.701721796874999Q7.827812207031251,9.701721796874999,9.06254220703125,8.598731796875Q10.02773220703125,7.736511796875,10.35475220703125,6.548191796875L10.29001220703125,6.601251796875Q10.127032207031249,6.731841796875,9.922112207031251,6.710391796875Q9.71719220703125,6.688941796875,9.58655220703125,6.529611796875Q9.45592220703125,6.370281796875,9.475042207031251,6.165131796875Q9.49417220703125,5.959981796875001,9.65200220703125,5.8275517968749995L10.69991220703125,4.968211796875Q10.94532220703125,4.7670217968749995,11.232172207031251,4.902641796875Q11.46104220703125,5.010841796875,11.507472207031249,5.234861796875L12.29300220703125,6.161951796875Q12.47933220703125,6.381831796875,12.35827220703125,6.6434017968750005Q12.23722220703125,6.904981796875,11.94892220703125,6.905241796875Q11.76575220703125,6.905351796874999,11.63924220703125,6.783081796875Q11.62117220703125,6.765621796875,11.60425220703125,6.745661796875L11.40573220703125,6.511351796875Q11.15093220703125,7.741931796875,10.32449220703125,8.736641796875Q10.15328220703125,8.942711796874999,9.95753220703125,9.138661796874999Z" fill-rule="evenodd" fill="#4F555B" fill-opacity="1"/></g></svg>