<svg xmlns="http://www.w3.org/2000/svg" xmlns:xlink="http://www.w3.org/1999/xlink" fill="none" version="1.1" width="121" height="96" viewBox="0 0 121 96"><defs><linearGradient x1="0.5" y1="0" x2="0.5" y2="1" id="master_svg0_917_061034"><stop offset="0%" stop-color="#FAFAFA" stop-opacity="1"/><stop offset="100%" stop-color="#F1F1F1" stop-opacity="1"/></linearGradient><filter id="master_svg1_15648_121585" filterUnits="objectBoundingBox" color-interpolation-filters="sRGB" x="-16.0264892578125" y="-9.615893363952637" width="98.56291198730469" height="80.85297775268555"><feFlood flood-opacity="0" result="BackgroundImageFix"/><feColorMatrix in="SourceAlpha" type="matrix" values="0 0 0 0 0 0 0 0 0 0 0 0 0 0 0 0 0 0 127 0"/><feOffset dy="6.410595893859863" dx="0"/><feGaussianBlur stdDeviation="4.006622314453125"/><feColorMatrix type="matrix" values="0 0 0 0 0 0 0 0 0 0 0 0 0 0 0 0 0 0 0.10000000149011612 0"/><feBlend mode="normal" in2="BackgroundImageFix" result="effect1_dropShadow"/><feBlend mode="normal" in="SourceGraphic" in2="effect1_dropShadow" result="shape"/></filter><linearGradient x1="0.0695677176117897" y1="0.9253247976303101" x2="0.9247243404388428" y2="0.09143729507923126" id="master_svg2_15648_121372"><stop offset="0%" stop-color="#EDEDED" stop-opacity="1"/><stop offset="100%" stop-color="#FAFAFA" stop-opacity="1"/></linearGradient><linearGradient x1="-0.21377693116664886" y1="0.6463832259178162" x2="1.0668883323669434" y2="0.44189387559890747" id="master_svg3_15648_060206"><stop offset="0%" stop-color="#FFFFFF" stop-opacity="0"/><stop offset="100%" stop-color="#8C979F" stop-opacity="1"/></linearGradient><linearGradient x1="0.3024010956287384" y1="-0.6187843084335327" x2="0.7375879287719727" y2="1.8416274785995483" id="master_svg4_15648_060127"><stop offset="0%" stop-color="#FFFFFF" stop-opacity="0"/><stop offset="100%" stop-color="#8C979F" stop-opacity="1"/></linearGradient><linearGradient x1="0.9847544431686401" y1="0.8221097588539124" x2="0.5325443148612976" y2="0.3007126450538635" id="master_svg5_15648_060184"><stop offset="0%" stop-color="#FFFFFF" stop-opacity="0"/><stop offset="100%" stop-color="#8C979F" stop-opacity="1"/></linearGradient><linearGradient x1="-0.23809276521205902" y1="0.49929624795913696" x2="1.2980140447616577" y2="0.49929624795913696" id="master_svg6_15648_060177"><stop offset="0%" stop-color="#FFFFFF" stop-opacity="0"/><stop offset="100%" stop-color="#8C979F" stop-opacity="1"/></linearGradient><linearGradient x1="0.07317032665014267" y1="0.12153921276330948" x2="0.9435439705848694" y2="0.8893235325813293" id="master_svg7_15648_060187"><stop offset="0%" stop-color="#FFFFFF" stop-opacity="0"/><stop offset="100%" stop-color="#8C979F" stop-opacity="1"/></linearGradient><linearGradient x1="1.0894193649291992" y1="0.8315295577049255" x2="0.38341885805130005" y2="-0.007965861819684505" id="master_svg8_15648_060209"><stop offset="0%" stop-color="#FFFFFF" stop-opacity="0"/><stop offset="100%" stop-color="#8C979F" stop-opacity="1"/></linearGradient><linearGradient x1="0.6638565063476562" y1="0.37050628662109375" x2="0.09841440618038177" y2="0.5892828106880188" id="master_svg9_15648_121649"><stop offset="0%" stop-color="#FFFFFF" stop-opacity="0"/><stop offset="100%" stop-color="#8C979F" stop-opacity="1"/></linearGradient><linearGradient x1="0.8611321449279785" y1="0.9187294840812683" x2="0.15794840455055237" y2="-0.034011565148830414" id="master_svga_15648_060109"><stop offset="0%" stop-color="#1E2A5D" stop-opacity="1"/><stop offset="25%" stop-color="#729ED4" stop-opacity="1"/><stop offset="49.00999963283539%" stop-color="#FFFFFF" stop-opacity="1"/><stop offset="77.9699981212616%" stop-color="#6896CF" stop-opacity="1"/><stop offset="100%" stop-color="#1E2A5D" stop-opacity="1"/></linearGradient><linearGradient x1="0.2425660341978073" y1="0.5575916767120361" x2="0.7717753648757935" y2="0.31396809220314026" id="master_svgb_15648_060115"><stop offset="0%" stop-color="#1950A1" stop-opacity="0.699999988079071"/><stop offset="42.329999804496765%" stop-color="#729ED4" stop-opacity="0.5"/><stop offset="100%" stop-color="#AACDEC" stop-opacity="0"/></linearGradient><linearGradient x1="0.13451382517814636" y1="0.6345652937889099" x2="1.0581876039505005" y2="0.28829044103622437" id="master_svgc_15648_060112"><stop offset="0%" stop-color="#1950A1" stop-opacity="1"/><stop offset="54.46000099182129%" stop-color="#AACDEC" stop-opacity="1"/><stop offset="100%" stop-color="#1950A1" stop-opacity="1"/></linearGradient><linearGradient x1="0.18014077842235565" y1="0.6546836495399475" x2="0.8295261263847351" y2="0.3371484875679016" id="master_svgd_15648_060124"><stop offset="51.980000734329224%" stop-color="#DABB1A" stop-opacity="1"/><stop offset="100%" stop-color="#7C6D2A" stop-opacity="1"/></linearGradient><linearGradient x1="0.20382782816886902" y1="0.6549587845802307" x2="0.8789811134338379" y2="0.2946555018424988" id="master_svge_15648_060120"><stop offset="51.980000734329224%" stop-color="#DABB1A" stop-opacity="1"/><stop offset="100%" stop-color="#7C6D2A" stop-opacity="1"/></linearGradient><linearGradient x1="0.17835432291030884" y1="0.3368203938007355" x2="0.8240677714347839" y2="0.6109066605567932" id="master_svgf_15648_060130"><stop offset="0%" stop-color="#FFFFFF" stop-opacity="0"/><stop offset="100%" stop-color="#8C979F" stop-opacity="1"/></linearGradient><linearGradient x1="0.1271403431892395" y1="0.24571716785430908" x2="0.9578211903572083" y2="1.0459301471710205" id="master_svgg_15648_060164"><stop offset="0%" stop-color="#FFFFFF" stop-opacity="0"/><stop offset="100%" stop-color="#8C979F" stop-opacity="1"/></linearGradient><linearGradient x1="0.4998982846736908" y1="1.0023193359375" x2="0.4998982846736908" y2="-0.0535929836332798" id="master_svgh_15648_060141"><stop offset="0%" stop-color="#1950A1" stop-opacity="1"/><stop offset="73.01999926567078%" stop-color="#5E8DCA" stop-opacity="1"/><stop offset="100%" stop-color="#729ED4" stop-opacity="1"/></linearGradient><linearGradient x1="0.25121840834617615" y1="0.09997749328613281" x2="0.7268608212471008" y2="1.0915049314498901" id="master_svgi_15648_060133"><stop offset="0%" stop-color="#FFFFFF" stop-opacity="0"/><stop offset="100%" stop-color="#8C979F" stop-opacity="1"/></linearGradient><linearGradient x1="0.8580688834190369" y1="1.1877834796905518" x2="0.34326815605163574" y2="-0.06549445539712906" id="master_svgj_15648_060180"><stop offset="0%" stop-color="#FFFFFF" stop-opacity="0"/><stop offset="100%" stop-color="#8C979F" stop-opacity="1"/></linearGradient><radialGradient cx="0" cy="0" r="1" gradientUnits="userSpaceOnUse" id="master_svgk_15648_060194" gradientTransform="translate(74.19058693576471 78.64072131215966) rotate(0) scale(4.791296305675701 4.771922312865826)"><stop offset="68.80999803543091%" stop-color="#FFFFFF" stop-opacity="1"/><stop offset="100%" stop-color="#FFFFFF" stop-opacity="0"/></radialGradient><linearGradient x1="0.800883948802948" y1="0.10431768000125885" x2="0.15343093872070312" y2="0.9554668664932251" id="master_svgl_15648_060199"><stop offset="0%" stop-color="#BFE4F3" stop-opacity="1"/><stop offset="46.29000127315521%" stop-color="#5282C3" stop-opacity="1"/><stop offset="100%" stop-color="#1950A1" stop-opacity="1"/></linearGradient><linearGradient x1="0.05816256254911423" y1="0.9000455737113953" x2="0.8715813755989075" y2="0.024878013879060745" id="master_svgm_15648_060152"><stop offset="0%" stop-color="#1E2A5D" stop-opacity="1"/><stop offset="25%" stop-color="#729ED4" stop-opacity="1"/><stop offset="49.00999963283539%" stop-color="#FFFFFF" stop-opacity="1"/><stop offset="77.9699981212616%" stop-color="#6896CF" stop-opacity="1"/><stop offset="100%" stop-color="#1E2A5D" stop-opacity="1"/></linearGradient><linearGradient x1="0.6728293299674988" y1="0.6247875094413757" x2="0.26567381620407104" y2="0.2875937521457672" id="master_svgn_15648_060146"><stop offset="0%" stop-color="#1950A1" stop-opacity="0.699999988079071"/><stop offset="42.329999804496765%" stop-color="#729ED4" stop-opacity="0.5"/><stop offset="100%" stop-color="#AACDEC" stop-opacity="0"/></linearGradient><linearGradient x1="0.762667715549469" y1="0.7068229913711548" x2="0.11138878762722015" y2="0.19466464221477509" id="master_svgo_15648_060149"><stop offset="0%" stop-color="#1950A1" stop-opacity="1"/><stop offset="54.46000099182129%" stop-color="#AACDEC" stop-opacity="1"/><stop offset="100%" stop-color="#1950A1" stop-opacity="1"/></linearGradient><linearGradient x1="0.7105792760848999" y1="0.7227261662483215" x2="0.2820059061050415" y2="0.28038907051086426" id="master_svgp_15648_060160"><stop offset="51.980000734329224%" stop-color="#DABB1A" stop-opacity="1"/><stop offset="100%" stop-color="#7C6D2A" stop-opacity="1"/></linearGradient><linearGradient x1="0.7004525661468506" y1="0.7231221199035645" x2="0.24655406177043915" y2="0.21986734867095947" id="master_svgq_15648_060156"><stop offset="51.980000734329224%" stop-color="#DABB1A" stop-opacity="1"/><stop offset="100%" stop-color="#7C6D2A" stop-opacity="1"/></linearGradient><linearGradient x1="0.47007447481155396" y1="0.1851244419813156" x2="0.5813438296318054" y2="0.8051993250846863" id="master_svgr_15648_121646"><stop offset="0%" stop-color="#EDEDED" stop-opacity="1"/><stop offset="100%" stop-color="#CECFD0" stop-opacity="1"/></linearGradient><linearGradient x1="0.0695677176117897" y1="0.9253247976303101" x2="0.9247243404388428" y2="0.09143729507923126" id="master_svgs_15648_121627"><stop offset="0%" stop-color="#EDEDED" stop-opacity="1"/><stop offset="100%" stop-color="#FAFAFA" stop-opacity="1"/></linearGradient></defs><g><g><ellipse cx="61.70198440551758" cy="48" rx="48.0794677734375" ry="48" fill="url(#master_svg0_917_061034)" fill-opacity="1"/></g><g><ellipse cx="112.1854248046875" cy="14.40000057220459" rx="4.006622314453125" ry="4" fill="#F0F0F0" fill-opacity="1"/></g><g><ellipse cx="6.0099334716796875" cy="81.60000467300415" rx="6.0099334716796875" ry="6.400000095367432" fill="#F0F0F0" fill-opacity="1"/></g><g><ellipse cx="10.016556024551392" cy="4.400000154972076" rx="3.6059601306915283" ry="3.6000001430511475" fill="#F0F0F0" fill-opacity="1"/></g><g><ellipse cx="118.59602069854736" cy="5.599999904632568" rx="2.4039735794067383" ry="2.3999998569488525" fill="#F0F0F0" fill-opacity="1"/></g><g><ellipse cx="112.18542957305908" cy="88.80000162124634" rx="2.4039735794067383" ry="2.4000000953674316" fill="#F0F0F0" fill-opacity="1"/></g><g><g filter="url(#master_svg1_15648_121585)"><rect x="20.033111572265625" y="8.800000190734863" width="66.50993347167969" height="48.79999923706055" rx="4.006622314453125" fill="url(#master_svg2_15648_121372)" fill-opacity="1"/></g><g><ellipse cx="27.645694255828857" cy="16.40000009536743" rx="2.0033111572265625" ry="2" fill="#FFFFFF" fill-opacity="1"/></g><g><ellipse cx="34.857614517211914" cy="16.40000009536743" rx="2.0033111572265625" ry="2" fill="#FFFFFF" fill-opacity="1"/></g><g><ellipse cx="42.06953430175781" cy="16.40000009536743" rx="2.0033111572265625" ry="2" fill="#FFFFFF" fill-opacity="1"/></g><g><rect x="27.24503183364868" y="26.40000057220459" width="28.046356201171875" height="15.199999809265137" rx="1.6026489734649658" fill="#FFFFFF" fill-opacity="1"/></g><g><rect x="58.49668884277344" y="28.000000953674316" width="21.635761260986328" height="4" rx="1.6026489734649658" fill="#FFFFFF" fill-opacity="1"/></g><g><rect x="58.49668884277344" y="35.19999980926514" width="21.635761260986328" height="4" rx="1.6026489734649658" fill="#FFFFFF" fill-opacity="1"/></g><g><rect x="27.24503183364868" y="49.59999942779541" width="52.88741683959961" height="4" rx="1.6026489734649658" fill="#FFFFFF" fill-opacity="1"/></g></g><g><g><g><path d="M83.23762119384766,81.7182388305664Q82.93079119384765,88.3994588305664,81.22410119384766,90.2478688305664C79.51740119384766,92.0962388305664,74.95342319384766,93.1360388305664,75.66294859384766,85.9926788305664" fill="#FFFFFF" fill-opacity="1"/></g><g><path d="M83.23762119384766,81.7182388305664Q82.93079119384765,88.3994588305664,81.22410119384766,90.2478688305664C79.51740119384766,92.0962388305664,74.95342319384766,93.1360388305664,75.66294859384766,85.9926788305664" fill="url(#master_svg3_15648_060206)" fill-opacity="1"/></g><g><ellipse cx="78.55858087539673" cy="91.01803410053253" rx="3.4901013374328613" ry="0.9819661378860474" fill="#FFFFFF" fill-opacity="1"/></g><g><ellipse cx="78.55858087539673" cy="91.01803410053253" rx="3.4901013374328613" ry="0.9819661378860474" fill="url(#master_svg4_15648_060127)" fill-opacity="1"/></g><g><path d="M75.66294860839844,86.01193335205078Q80.20774860839843,87.91810335205078,81.55009860839844,89.82427335205078Q82.96914860839844,87.99511335205078,83.23761860839844,81.73749087105078C83.23761860839844,81.71824135205078,79.21057860839844,84.04800335205078,75.66294860839844,86.01193335205078Z" fill="url(#master_svg5_15648_060184)" fill-opacity="1"/></g><g><path d="M79.06879725158691,87.50833012817382Q77.67127725158691,87.86140012817383,75.60366521158691,87.89915012817383L75.60716929158691,88.09109012817383Q77.72786725158691,88.05237012817383,79.15783725158691,87.68372012817383L79.19901725158691,87.67311012817383L79.73267725158692,86.65885012817382Q80.92458725158691,86.49361312817383,82.85165725158691,85.71585722817383L82.77981725158692,85.53784302817382Q80.83522725158691,86.32266612817382,79.65847725158692,86.47511912817383L79.60906725158691,86.48152012817383L79.06879725158691,87.50833012817382Z" fill-rule="evenodd" fill="#7D8E97" fill-opacity="1"/></g><g><path d="M79.06879725158691,87.35429265258789Q77.67127725158691,87.70736265258789,75.60366521158691,87.74511265258789L75.60716929158691,87.9370526525879Q77.72786725158691,87.8983326525879,79.15783725158691,87.5296826525879L79.19901725158691,87.5190726525879L79.73267725158692,86.50481265258789Q80.92458725158691,86.3395756525879,82.85165725158691,85.5618197525879L82.77981725158692,85.38380555258789Q80.83522725158691,86.16862865258788,79.65847725158692,86.32108165258789L79.60906725158691,86.32748265258789L79.06879725158691,87.35429265258789Z" fill-rule="evenodd" fill="#FFFFFF" fill-opacity="1"/></g><g><path d="M64.50229549407959,81.67972564697266Q64.80911749407959,88.36094564697265,66.51581549407959,90.20935564697265C68.22251549407959,92.05772564697266,72.78649549407959,93.09752564697266,72.07696549407959,85.95416564697265" fill="#FFFFFF" fill-opacity="1"/></g><g><path d="M64.50229549407959,81.67972564697266Q64.80911749407959,88.36094564697265,66.51581549407959,90.20935564697265C68.22251549407959,92.05772564697266,72.78649549407959,93.09752564697266,72.07696549407959,85.95416564697265" fill="url(#master_svg6_15648_060177)" fill-opacity="1"/></g><g><ellipse cx="69.18133211135864" cy="90.97952473163605" rx="3.4901013374328613" ry="0.9819661378860474" fill="#FFFFFF" fill-opacity="1"/></g><g><ellipse cx="69.18133211135864" cy="90.97952473163605" rx="3.4901013374328613" ry="0.9819661378860474" fill="url(#master_svg7_15648_060187)" fill-opacity="1"/></g><g><path d="M67.03357696533203,84.72189983925782Q71.23320696533203,87.18643523925782,71.71261696533203,89.9975552392578Q72.38378696533204,88.95783523925782,72.07696696533203,85.95416523925782Q69.04709696533203,84.47159123925782,67.03357696533203,84.72189983925782Z" fill="url(#master_svg8_15648_060209)" fill-opacity="1"/></g><g><path d="M68.58208430877686,87.62595798217774Q70.01205430877685,87.99459798217774,72.13274430877685,88.03332798217774L72.13624430877685,87.84138798217774Q70.06863430877685,87.80363798217773,68.67111430877685,87.45056798217773L68.13084430877686,86.42375798217773L68.08143430877685,86.41735698217774Q66.90468430877685,86.26490498217774,64.96009700877686,85.48008088217773L64.88825160877686,85.65809508217774Q66.81533430877685,86.43585398217773,68.00723430877686,86.60108798217773L68.54090430877686,87.61534798217774L68.58208430877686,87.62595798217774Z" fill-rule="evenodd" fill="#7D8E97" fill-opacity="1"/></g><g><path d="M68.58208430877686,87.47192432128907Q70.01205430877685,87.84056432128907,72.13274430877685,87.87929432128907L72.13624430877685,87.68735432128906Q70.06863430877685,87.64960432128906,68.67111430877685,87.29653432128906L68.13084430877686,86.26972432128906L68.08143430877685,86.26332332128906Q66.90468430877685,86.11087132128907,64.96009700877686,85.32604722128906L64.88825160877686,85.50406142128907Q66.81533430877685,86.28182032128906,68.00723430877686,86.44705432128906L68.54090430877686,87.46131432128907L68.58208430877686,87.47192432128907Z" fill-rule="evenodd" fill="#FFFFFF" fill-opacity="1"/></g><g><path d="M79.42152214050293,68.31729125976562Q88.26183214050293,72.34142125976562,92.44232214050292,74.07431125976562C92.76832214050293,74.20908125976563,93.55452214050293,75.05627125976562,92.72992214050294,75.73017125976563Q92.19302214050293,76.15376125976563,90.83142214050292,75.59539125976562Q90.67802214050293,76.98170125976563,89.60422214050293,77.50156125976562C88.18513214050293,78.17546125976563,84.40738214050293,78.02142125976562,82.06786214050292,75.63390125976562" fill="#FFFFFF" fill-opacity="1"/></g><g><path d="M79.42152214050293,68.31729125976562Q88.26183214050293,72.34142125976562,92.44232214050292,74.07431125976562C92.76832214050293,74.20908125976563,93.55452214050293,75.05627125976562,92.72992214050294,75.73017125976563Q92.19302214050293,76.15376125976563,90.83142214050292,75.59539125976562Q90.67802214050293,76.98170125976563,89.60422214050293,77.50156125976562C88.18513214050293,78.17546125976563,84.40738214050293,78.02142125976562,82.06786214050292,75.63390125976562" fill="url(#master_svg9_15648_121649)" fill-opacity="1"/></g><g><g><path d="M87.64818884159506,50.314580178833005Q85.78807784159505,47.33017017883301,86.03737154159505,45.32773017883301L89.91099884159506,45.385492778833004L93.15180884159506,50.98848017883301L91.29169884159505,54.396470178833006Q89.73840884159506,53.66481017883301,87.64818884159506,50.314580178833005Z" fill="url(#master_svga_15648_060109)" fill-opacity="1"/></g><g><path d="M87.64818896728515,50.314580178833005Q85.67301896728516,47.06061017883301,86.03737156728516,45.32773017883301L89.91099896728515,45.385492778833004L93.15180896728515,50.98848017883301L91.29169896728516,54.396470178833006Q89.73840896728515,53.76109017883301,87.64818896728515,50.314580178833005Z" fill="url(#master_svgb_15648_060115)" fill-opacity="1"/></g><g><path d="M89.87264513442993,45.404747395442726C89.41241313442993,45.674306895442726,89.75758553442994,47.15688489544272,90.65887813442993,48.69722489544272C91.56016513442994,50.23756489544272,92.65322513442993,51.27729489544272,93.11345513442993,51.00772489544272C93.57368513442994,50.738174895442725,93.22851513442993,49.25559489544273,92.32722513442994,47.715254895442726C91.44510513442994,46.155662895442724,90.35205413442993,45.135187895442726,89.87264513442993,45.404747395442726Z" fill="url(#master_svgc_15648_060112)" fill-opacity="1"/></g><g><g><path d="M90.23699768591308,45.943865854003896C89.94935268591308,46.117154554003896,90.29452768591308,47.2531525540039,91.02323068591309,48.4854225540039C91.75193368591309,49.7176925540039,92.55734368591308,50.584132554003894,92.82581368591309,50.410852554003895C93.11345368591309,50.237562554003894,92.76828368591309,49.10156255400389,92.03957368591308,47.86929255400389C91.31087368591308,46.6370205540039,90.52464368591309,45.789832554003894,90.23699768591308,45.943865854003896Z" fill="url(#master_svgd_15648_060124)" fill-opacity="1"/></g><g><path d="M90.23699816855448,45.94386591000824C90.52464416855449,45.77057711000824,91.33005516855448,46.63701811000824,92.03957516855448,47.86928811000824C92.59569516855449,48.83199811000824,92.92169516855448,49.71769811000824,92.92169516855448,50.160548110008236C92.78745516855449,49.69843811000824,92.51898516855448,49.06305811000824,92.13545516855449,48.40840811000824C91.42593516855449,47.17613811000824,90.60134816855448,46.30969711000824,90.33288016855448,46.48298611000824C90.27535016855448,46.52149411000824,90.23699816855448,46.59851111000824,90.23699816855448,46.73329111000824C90.12193866855449,46.30969711000824,90.10276116855448,46.02088311000824,90.23699816855448,45.94386591000824Z" fill="#EDC820" fill-opacity="1"/></g><g><path d="M90.33288004081192,46.482984378769686C90.62052614081192,46.309695578769684,91.42593814081192,47.176136578769686,92.13545814081192,48.408406578769686C92.51898814081191,49.06305657876968,92.78745814081192,49.69843657876969,92.92168814081192,50.16054657876968C92.92168814081192,50.27606657876969,92.88333814081192,50.37233657876968,92.82580814081192,50.410846578769686C92.53816814081192,50.58413657876969,91.73275814081192,49.71769657876968,91.02323114081192,48.48542657876968C90.63970314081192,47.83077657876969,90.37123514081192,47.19539157876969,90.23699814081192,46.733289578769686C90.23699814081192,46.598510578769684,90.25617274081192,46.521492978769686,90.33288004081192,46.482984378769686Z" fill="url(#master_svge_15648_060120)" fill-opacity="1"/></g><g><path d="M90.33288004081192,46.482984378769686C90.62052614081192,46.309695578769684,91.42593814081192,47.176136578769686,92.13545814081192,48.408406578769686C92.51898814081191,49.06305657876968,92.78745814081192,49.69843657876969,92.92168814081192,50.16054657876968C92.92168814081192,50.27606657876969,92.88333814081192,50.37233657876968,92.82580814081192,50.410846578769686C92.53816814081192,50.58413657876969,91.73275814081192,49.71769657876968,91.02323114081192,48.48542657876968C90.63970314081192,47.83077657876969,90.37123514081192,47.19539157876969,90.23699814081192,46.733289578769686C90.23699814081192,46.598510578769684,90.25617274081192,46.521492978769686,90.33288004081192,46.482984378769686Z" fill="#EDC820" fill-opacity="1"/></g></g></g><g><path d="M67.9924013470459,69.31850814819336Q61.6641913470459,72.05260814819336,59.5356123470459,76.84691814819335C57.4070313470459,81.64120814819336,60.1300813470459,83.39330814819336,62.0477213470459,81.25610814819336Q64.0995913470459,82.73870814819335,63.6777113470459,80.13940814819335Q64.7324113470459,77.65558814819336,65.6145213470459,77.79036814819335" fill="#FFFFFF" fill-opacity="1"/></g><g><path d="M67.9924013470459,69.31850814819336Q61.6641913470459,72.05260814819336,59.5356123470459,76.84691814819335C57.4070313470459,81.64120814819336,60.1300813470459,83.39330814819336,62.0477213470459,81.25610814819336Q64.0995913470459,82.73870814819335,63.6777113470459,80.13940814819335Q64.7324113470459,77.65558814819336,65.6145213470459,77.79036814819335" fill="url(#master_svgf_15648_060130)" fill-opacity="1"/></g><g><path d="M54.22375477661133,58.36289928817749C57.46455977661133,43.440819288177494,68.98953977661132,41.55389928817749,74.80003977661133,41.55389928817749C89.14393977661132,41.55389928817749,95.75983977661133,56.995799288177494,93.43943977661132,65.42919928817749C91.67523977661133,71.8407992881775,84.11973977661133,70.53149928817749,80.30363977661133,69.41479928817749Q91.42593977661133,86.06969928817749,73.78363977661132,86.06969928817749Q56.14138977661133,86.06969928817749,67.83893977661133,69.1259992881775C60.93548977661133,71.08989928817749,51.308939776611325,71.7637992881775,54.22375477661133,58.36289928817749Z" fill="#FFFFFF" fill-opacity="1"/></g><g><path d="M80.30364788284302,69.41479928817749Q91.34924788284302,73.18859928817749,93.43944788284301,65.42919928817749C95.77894788284303,56.78399928817749,89.14394788284301,41.55389928817749,74.80004788284302,41.55389928817749C68.98954788284301,41.55389928817749,57.46456788284302,43.440819288177494,54.223761882843014,58.34359928817749C51.308947882843015,71.7444992881775,60.935497882843016,71.08989928817749,67.83894788284302,69.1066992881775Q70.31274788284301,68.70239928817749,74.07134788284301,68.70239928817749Q77.77234788284302,68.72159928817749,80.30364788284302,69.41479928817749Z" fill="url(#master_svgg_15648_060164)" fill-opacity="1"/></g><g><path d="M76.16153067199707,43.38304849853515L75.96977067199707,41.95823849853516L73.17001767199707,40.957018498535156L73.78366067199707,39.281898498535156L73.05495967199707,39.281898498535156L72.36461067199707,41.32284849853516L74.55072067199707,42.24704849853516L74.10966067199708,43.363798498535154Q74.51236067199707,43.76813849853516,75.16436067199707,43.76813849853516Q75.87389067199707,43.76813849853516,76.16153067199707,43.38304849853515Z" fill="#1950A1" fill-opacity="1"/></g><g><ellipse cx="73.4576632976532" cy="37.24095010757446" rx="2.032696485519409" ry="2.0409493446350098" fill="#EDC820" fill-opacity="1"/></g><g transform="matrix(-1,1.2246468525851679e-16,-1.2246468525851679e-16,-1,121.372389793396,120.84610366821289)"><line x1="60.686194896698" y1="60.32706901431084" x2="67.53216314315796" y2="60.32706901431084" fill-opacity="0" stroke-opacity="1" stroke="#7D8E97" fill="none" stroke-width="0.19196563959121704"/></g><g><path d="M76.19992603988648,66.60362626953125C84.52242603988648,66.60362626953125,91.90532603988648,70.43522626953126,91.90532603988648,62.40622626953125C91.90532603988648,52.49030626953125,84.08142603988648,47.34942626953125,76.31492603988647,47.34942626953125L76.00812603988648,47.34942626953125C68.24168603988647,47.34942626953125,60.417726039886475,52.471056269531246,60.417726039886475,62.40622626953125C60.417726039886475,70.45452626953124,67.80063603988647,66.60362626953125,76.12322603988648,66.60362626953125L76.19992603988648,66.60362626953125Z" fill="url(#master_svgh_15648_060141)" fill-opacity="1"/></g><g><g><ellipse cx="84.54161274433136" cy="57.900747537612915" rx="1.5916396379470825" ry="3.5427799224853516" fill="#C0E5F7" fill-opacity="1"/></g><g><path d="M73.11249320343018,58.05477697570801L73.78366320343018,57.38088697570801C73.89872320343018,57.26535697570801,73.89872320343018,57.09206697570801,73.78366320343018,56.976546975708004L70.60038320343017,53.78034047570801C70.48532320343017,53.66481527570801,70.31273720343017,53.66481527570801,70.19767920343017,53.78034047570801L69.52650630343018,54.45423897570801C69.41144830343018,54.56976397570801,69.41144830343018,54.74305697570801,69.52650630343018,54.858576975708004L72.70978320343018,58.05477697570801C72.82484320343018,58.17030697570801,73.01661320343018,58.17030697570801,73.11249320343018,58.05477697570801Z" fill="#C0E5F7" fill-opacity="1"/></g><g><path d="M73.80284075574279,57.01505335635376L73.13167075574279,56.34115485635376C73.01661075574279,56.22562965635376,72.84402075574279,56.22562965635376,72.72896075574279,56.34115485635376L69.5456838557428,59.537361356353756C69.43062585574279,59.65288135635376,69.43062585574279,59.82617135635376,69.5456838557428,59.94170135635376L70.21685675574278,60.61559135635376C70.33191475574279,60.73112135635376,70.50450075574278,60.73112135635376,70.61956075574278,60.61559135635376L73.80284075574279,57.419391356353756C73.89872075574279,57.30387135635376,73.89872075574279,57.11132435635376,73.80284075574279,57.01505335635376Z" fill="#C0E5F7" fill-opacity="1"/></g><g><path d="M74.37813138961792,61.71308612823486C74.37813138961792,63.21491612823486,75.58624138961792,64.42793612823486,77.08200138961791,64.42793612823486C78.57775138961792,64.42793612823486,79.78587138961792,63.21491612823486,79.78587138961792,61.71308612823486L74.37813138961792,61.71308612823486Z" fill="#C0E5F7" fill-opacity="1"/></g></g><g><path d="M67.87733499603272,69.12596859130859Q56.198924996032716,86.0696685913086,73.82198499603271,86.0696685913086Q91.44508499603272,86.0696685913086,80.34198499603272,69.41477859130859L76.67928499603272,66.3918685913086L71.48249499603271,66.3918685913086L67.87733499603272,69.12596859130859Z" fill="url(#master_svgi_15648_060133)" fill-opacity="1"/></g><g><path d="M73.95625216674804,78.7726332409668Q66.29247216674804,78.7726332409668,64.30136376674805,77.61119454096679L64.20464056674804,77.7770119409668Q66.24057216674805,78.96459324096679,73.95625216674804,78.96459324096679Q81.67170216674805,78.96459324096679,83.72670216674805,77.7772103409668L83.63070216674805,77.61099614096679Q81.62020216674804,78.7726332409668,73.95625216674804,78.7726332409668Z" fill-rule="evenodd" fill="#7D8E97" fill-opacity="1"/></g><g><path d="M73.95625216674804,78.65710894897461Q66.29247216674804,78.65710894897461,64.30136376674805,77.4956702489746L64.20464056674804,77.66148764897461Q66.24057216674805,78.8490689489746,73.95625216674804,78.8490689489746Q81.67170216674805,78.8490689489746,83.72670216674805,77.66168604897462L83.63070216674805,77.4954718489746Q81.62020216674804,78.65710894897461,73.95625216674804,78.65710894897461Z" fill-rule="evenodd" fill="#FFFFFF" fill-opacity="1"/></g><g><path d="M67.87733745574951,69.12596915429687Q79.05713745574951,70.28122815429687,83.46773745574951,76.57735815429687Q82.50893745574952,72.51470815429687,80.32283745574951,69.41478215429687Q78.29013745574952,68.81790015429688,73.89872745574951,68.70237635429687Q70.56202745574952,68.62536055429688,67.87733745574951,69.12596915429687Z" fill="url(#master_svgj_15648_060180)" fill-opacity="1"/></g><g><g style="opacity:0.20999999344348907;"><ellipse cx="74.16719198226929" cy="78.75308895111084" rx="4.794095516204834" ry="4.813559532165527" fill="url(#master_svgk_15648_060194)" fill-opacity="1"/></g><g><ellipse cx="74.1671906709671" cy="78.86861419677734" rx="3.279161214828491" ry="3.2924745082855225" fill="#0F7CC0" fill-opacity="1"/></g><g><g><path d="M74.16718712799073,82.35363439373016C72.24955712799073,82.35363439373016,70.69626712799072,80.79403439373016,70.69626712799072,78.86861439373017C70.69626712799072,76.94318439373016,72.24955712799073,75.38359439373016,74.16718712799073,75.38359439373016C76.08482712799072,75.38359439373016,77.63811712799072,76.94318439373016,77.63811712799072,78.86861439373017C77.63811712799072,80.79403439373016,76.08482712799072,82.35363439373016,74.16718712799073,82.35363439373016ZM74.16718712799073,75.78793739373016C72.47966712799072,75.78793739373016,71.09897112799072,77.17424439373016,71.09897112799072,78.86861439373017C71.09897112799072,80.56298439373016,72.47966712799072,81.94929439373016,74.16718712799073,81.94929439373016C75.85471712799072,81.94929439373016,77.23541712799073,80.56298439373016,77.23541712799073,78.86861439373017C77.23541712799073,77.17424439373016,75.85471712799072,75.78793739373016,74.16718712799073,75.78793739373016Z" fill="url(#master_svgl_15648_060199)" fill-opacity="1"/></g></g><g><g><path d="M74.16719464530945,81.94929648410798C72.46049464530945,81.94929648410798,71.07979464530945,80.56298648410797,71.07979464530945,78.84935648410797C71.07979464530945,77.13572648410798,72.46049464530945,75.74942648410797,74.16719464530945,75.74942648410797C75.87389464530945,75.74942648410797,77.25458464530945,77.13572648410798,77.25458464530945,78.84935648410797C77.25458464530945,80.56298648410797,75.85471464530944,81.94929648410798,74.16719464530945,81.94929648410798ZM74.16719464530945,76.13451448410797C72.67143464530945,76.13451448410797,71.44414664530944,77.36678648410798,71.44414664530944,78.86861648410797C71.44414664530944,80.37044648410797,72.67143464530945,81.60271648410797,74.16719464530945,81.60271648410797C75.66295464530945,81.60271648410797,76.89023464530945,80.37044648410797,76.89023464530945,78.86861648410797C76.89023464530945,77.36678648410798,75.66294464530945,76.13451448410797,74.16719464530945,76.13451448410797Z" fill="#125597" fill-opacity="1"/></g></g><g><g><g><path d="M73.13166686742353,77.21274979574156C73.22754886742354,77.17424189574156,73.26590086742354,77.21274979574156,73.26590086742354,77.28976559574156L73.18919486742354,77.42454479574155L74.16719386742353,77.42454479574155C74.26307386742353,77.48230779574156,74.26307386742353,77.52081579574156,74.16719386742353,77.57857879574156L73.63025286742354,77.57857879574156L73.63025286742354,78.00217179574156L74.20554386742353,78.00217179574156C74.28225386742353,78.05993479574155,74.28225386742353,78.09844279574156,74.20554386742353,78.15620579574156L73.68778386742353,78.15620579574156C73.89872386742354,78.36800279574156,74.09048386742353,78.57980279574156,74.26307386742353,78.77234279574157C74.26307386742353,78.86861279574156,74.22472386742353,78.88786279574155,74.12884386742354,78.84935279574155C73.93707386742354,78.65681279574156,73.74531386742353,78.46427279574156,73.57272486742353,78.29098279574156C73.41931286742353,78.59905279574156,73.15084486742353,78.83010279574155,72.74813986742353,78.98414279574156C72.65225747742353,78.98414279574156,72.61390526742353,78.94563279574156,72.67143356742353,78.84936279574156C73.13166686742353,78.63756279574156,73.38095886742353,78.40651279574156,73.43848886742353,78.15620579574156L72.72896326742354,78.15620579574156C72.65225747742353,78.09844279574156,72.65225747742353,78.05993479574155,72.72896326742354,78.00217179574156L73.45766586742353,78.00217179574156L73.45766586742353,77.57857879574156L73.09331486742353,77.57857879574156C72.99743286742354,77.73261379574156,72.90155086742354,77.84813679574155,72.82484486742354,77.88664779574155C72.72896326742354,77.90590379574155,72.69061106742353,77.86739279574155,72.69061106742353,77.79037679574155C72.82484486742354,77.71336079574156,72.95907886742353,77.52081879574156,73.13166686742353,77.21274979574156ZM73.32343086742354,78.98414279574156L75.10683386742353,78.98414279574156C75.29859386742353,78.98414279574156,75.39448386742353,79.08041279574155,75.37530386742354,79.25369279574156L75.37530386742354,80.04312279574155C75.39448386742353,80.23566279574156,75.29859386742353,80.33193279574155,75.10683386742353,80.31268279574155L73.32343086742354,80.31268279574155C73.15084286742353,80.33193279574155,73.05496086742353,80.23566279574156,73.05496086742353,80.04312279574155L73.05496086742353,79.25369279574156C73.07413686742353,79.09966279574155,73.15084286742353,79.00339279574156,73.32343086742354,78.98414279574156ZM75.04930386742353,79.13817279574155L73.36178286742353,79.13817279574155C73.26590086742354,79.13817279574155,73.20837186742354,79.19593279574156,73.20837186742354,79.29220279574156L73.20837186742354,79.56176279574156L75.20271386742354,79.56176279574156L75.20271386742354,79.29220279574156C75.22189386742353,79.19593279574156,75.18354386742354,79.13817279574155,75.04930386742353,79.13817279574155ZM75.22189386742353,79.73505279574155L73.22754886742354,79.73505279574155L73.22754886742354,80.00461279574156C73.22754886742354,80.12014279574156,73.28507886742354,80.17790279574156,73.38096086742354,80.15865279574156L75.06848386742354,80.15865279574156C75.18354386742354,80.17790279574156,75.24107386742354,80.12014279574156,75.22189386742353,80.00461279574156L75.22189386742353,79.73505279574155ZM74.62742386742353,77.36678379574155L75.35612386742353,77.36678379574155C75.54789386742354,77.36678379574155,75.64377386742353,77.46305579574155,75.62459386742353,77.63634279574156L75.62459386742353,78.46427279574156C75.64377386742353,78.67607279574156,75.54789386742354,78.77234279574157,75.35612386742353,78.75309279574155L74.62742386742353,78.75309279574155C74.45483386742353,78.77234279574157,74.35895386742354,78.67607279574156,74.35895386742354,78.48353279574155L74.35895386742354,77.63634579574156C74.39730386742353,77.46305579574155,74.47401386742354,77.36678379574155,74.62742386742353,77.36678379574155ZM75.31777386742354,77.54007079574156L74.68495386742353,77.54007079574156C74.58907386742354,77.54007079574156,74.53154386742354,77.59783479574156,74.53154386742354,77.69410579574156L74.53154386742354,78.42576279574156C74.53154386742354,78.54129279574155,74.58907386742354,78.59905279574156,74.68495386742353,78.57980279574156L75.31777386742354,78.57980279574156C75.43283386742354,78.59905279574156,75.49036386742354,78.54129279574155,75.47118386742353,78.42576279574156L75.47118386742353,77.69410579574156C75.49036386742354,77.57858179574156,75.43283386742354,77.54007079574156,75.31777386742354,77.54007079574156Z" fill="#C0E5F7" fill-opacity="1"/></g><g><path d="M73.2659013331604,80.38969806114197C73.1891953331604,80.38969806114197,73.1124893331604,80.37044806114197,73.0741373331604,80.31267806114197C73.0166073331604,80.25491806114196,72.9782553331604,80.15864806114197,72.9782553331604,80.04312806114197L72.9782553331604,79.25369806114196C72.9974313331604,79.04189806114196,73.1124893331604,78.92637806114197,73.3042533331604,78.90712806114196L74.0521363331604,78.90712806114196L73.5727263331604,78.42576806114197C73.4001353331604,78.71457806114196,73.1316653331604,78.92637806114197,72.7673153331604,79.06115806114197L72.7481393331604,79.06115806114197C72.6714333331604,79.06115806114197,72.6139053331604,79.04189806114196,72.5755516331604,78.98413806114196C72.5563755731604,78.92637806114197,72.5563755731604,78.86861806114197,72.5947277331604,78.81085806114197L72.6139038331604,78.79159806114197L72.6330799331604,78.77234806114197C72.9974313331604,78.59905806114197,73.2275473331604,78.42576806114197,73.3234293331604,78.23322806114197L72.6906083331604,78.23322806114197L72.6714323331604,78.21396806114197C72.6139023331604,78.17545806114197,72.5947263331604,78.11769806114197,72.5947263331604,78.07919006114197C72.5947263331604,78.02142706114196,72.6139023331604,77.98291906114197,72.6714323331604,77.94441106114196C72.6330799331604,77.90590306114197,72.6139023331604,77.86739606114197,72.6139023331604,77.79037706114197L72.6139023331604,77.75186906114197L72.6522545331604,77.73261406114197C72.7481363331604,77.65559806114197,72.8823703331604,77.46305506114197,73.0549583331604,77.17424196114197L73.0741343331604,77.15498646114197L73.0933103331604,77.13573106114197C73.1700163331604,77.11647568114196,73.2275443331604,77.11647568114196,73.2658983331604,77.13573106114197C73.3042503331604,77.17423896114197,73.3234283331604,77.21274686114197,73.3234283331604,77.28976606114196L73.3234283331604,77.30902106114196L73.3042513331604,77.34752906114197L74.1671863331604,77.34752906114197L74.18636633316041,77.36678406114197C74.2630663331604,77.40529206114196,74.2822463331604,77.46305506114197,74.2822463331604,77.52081906114196C74.2822463331604,77.57858206114197,74.24389633316041,77.63634506114197,74.18636633316041,77.67485306114197L74.1671863331604,77.69410906114197L73.7069563331604,77.69410906114197L73.7069563331604,77.96366706114196L74.2247163331604,77.96366706114196L74.24389633316041,77.98292206114196C74.2630663331604,77.98292206114196,74.2630663331604,78.00217706114196,74.2822463331604,78.00217706114196L74.2822463331604,77.67485606114197C74.3014263331604,77.44380606114197,74.4164763331604,77.32827906114197,74.6274163331604,77.32827906114197L75.3561263331604,77.32827906114197C75.4711863331604,77.32827906114197,75.5670663331604,77.36678706114196,75.6245963331604,77.42455006114197C75.6821263331604,77.48231406114196,75.7012963331604,77.57858506114196,75.7012963331604,77.67485606114197L75.7012963331604,78.48353806114197C75.7204763331604,78.61830806114197,75.6821263331604,78.71458806114197,75.6245963331604,78.77234806114197C75.5670663331604,78.83010806114197,75.4711863331604,78.84935806114197,75.3561263331604,78.84935806114197L74.6274163331604,78.84935806114197C74.5315363331604,78.86861806114197,74.4356563331604,78.83010806114197,74.3781263331604,78.77234806114197C74.3205963331604,78.71458806114197,74.2822463331604,78.61830806114197,74.2822463331604,78.50278806114197L74.2822463331604,78.23322806114197Q74.2630663331604,78.25248806114197,74.24389633316041,78.25248806114197L74.2247163331604,78.27173806114197L73.8603663331604,78.27173806114197C74.0137763331604,78.42577806114197,74.1671863331604,78.59905806114197,74.3014263331604,78.75309806114197L74.3205963331604,78.77234806114197L74.3205963331604,78.81085806114197C74.3205963331604,78.86862806114196,74.3014263331604,78.90712806114196,74.2822463331604,78.94563806114196L75.0876563331604,78.94563806114196C75.2027163331604,78.94563806114196,75.2985963331604,78.98414806114197,75.3561263331604,79.04190806114197C75.4136563331604,79.09967806114197,75.4328263331604,79.19594806114196,75.4328263331604,79.29221806114197L75.4328263331604,80.08163806114197C75.4520063331604,80.19716806114197,75.4136563331604,80.29343806114197,75.3561263331604,80.35119806114197C75.2985963331604,80.40895806114197,75.2027163331604,80.42821806114196,75.0876563331604,80.42821806114196L73.3042503331604,80.42821806114196C73.3042543331604,80.38969806114197,73.2850773331604,80.38969806114197,73.2659013331604,80.38969806114197ZM73.1316673331604,80.04311806114197C73.1316673331604,80.10088806114197,73.1316673331604,80.17789806114197,73.1700193331604,80.21640806114196C73.1891953331604,80.23566806114196,73.2275493331604,80.25491806114196,73.2850773331604,80.23566806114196C73.2467253331604,80.23566806114196,73.2275473331604,80.21640806114196,73.2083713331604,80.19715806114196C73.1700193331604,80.15864806114197,73.1508433331604,80.10088806114197,73.1316673331604,80.04311806114197ZM75.1451863331604,80.23566806114196C75.1835363331604,80.23566806114196,75.2410663331604,80.23566806114196,75.2602463331604,80.19715806114196C75.2794163331604,80.17789806114197,75.2985963331604,80.12013806114197,75.2985963331604,80.08162806114197C75.2985963331604,80.12013806114197,75.2794163331604,80.15864806114197,75.2410663331604,80.17789806114197C75.2218963331604,80.21640806114196,75.1835363331604,80.21640806114196,75.1451863331604,80.23566806114196ZM73.2850773331604,79.81206806114197L73.2850773331604,80.00461806114197C73.2850773331604,80.04311806114197,73.2850773331604,80.08162806114197,73.3042533331604,80.08162806114197Q73.3234293331604,80.08162806114197,73.3426053331604,80.08162806114197L75.0493063331604,80.08162806114197Q75.1068363331604,80.08162806114197,75.1260063331604,80.08162806114197Q75.1451863331604,80.06237806114197,75.1260063331604,80.02386806114197L75.1260063331604,79.83132806114197L73.2850773331604,79.83132806114197L73.2850773331604,79.81206806114197ZM73.2850773331604,79.48474806114197L75.1260063331604,79.48474806114197L75.1260063331604,79.29220806114196Q75.1260063331604,79.25369806114196,75.1260063331604,79.23444806114196Q75.0876563331604,79.21518806114197,75.0493063331604,79.21518806114197L73.3617813331604,79.21518806114197C73.3042513331604,79.21518806114197,73.2850753331604,79.23444806114196,73.2850753331604,79.29220806114196L73.2850773331604,79.48474806114197ZM73.3234303331604,79.06115806114197C73.2083723331604,79.08041806114197,73.1508433331604,79.13817806114197,73.1316673331604,79.25369806114196C73.1508433331604,79.15742806114197,73.2083723331604,79.08040806114197,73.3234303331604,79.06115806114197ZM75.1068363331604,79.06115806114197C75.1643663331604,79.06115806114197,75.2218963331604,79.09966806114197,75.2602463331604,79.13817806114197C75.2794163331604,79.15742806114197,75.2985963331604,79.19593806114197,75.2985963331604,79.21518806114197C75.2985963331604,79.15742806114197,75.2985963331604,79.11891806114197,75.2794163331604,79.09965806114197C75.2218963331604,79.08040806114197,75.1643663331604,79.06115806114197,75.1068363331604,79.06115806114197ZM73.3042543331604,78.56054806114197C73.1891963331604,78.67606806114196,73.0357853331604,78.77234806114197,72.8248453331604,78.88786806114197C73.0166093331604,78.79159806114197,73.1700193331604,78.69532806114196,73.3042543331604,78.56054806114197ZM74.4548363331604,78.48352806114197C74.4548363331604,78.54129806114197,74.4548363331604,78.61830806114197,74.4931863331604,78.65681806114196C74.5123663331604,78.67606806114196,74.5507163331604,78.69532806114196,74.6082463331604,78.67606806114196C74.5698963331604,78.67606806114196,74.5507163331604,78.65681806114196,74.5315463331604,78.63756806114196C74.4740163331604,78.59905806114197,74.4548363331604,78.54129806114197,74.4548363331604,78.48352806114197ZM75.4136563331604,78.67606806114196C75.4711863331604,78.67606806114196,75.5095363331604,78.65681806114196,75.5287163331604,78.63756806114196C75.5478863331604,78.61830806114197,75.5670663331604,78.56054806114197,75.5670663331604,78.52203806114197C75.5670663331604,78.56054806114197,75.5478863331604,78.59905806114197,75.5095363331604,78.61830806114197C75.4711863331604,78.65681806114196,75.4520063331604,78.65681806114196,75.4136563331604,78.67606806114196ZM73.5535463331604,78.15620806114197L73.9946063331604,78.59905806114197C73.8795463331604,78.48352806114197,73.7453063331604,78.34874806114196,73.6302563331604,78.21396806114197L73.5343703331604,78.11770106114197L73.5151943331604,78.17546806114197C73.5151943331604,78.21396806114197,73.49601833316041,78.25247806114197,73.4768423331604,78.29098806114197C73.4768423331604,78.27173806114197,73.49601833316041,78.27173806114197,73.49601833316041,78.25248806114197L73.5535463331604,78.15620806114197ZM74.6849563331604,77.61709006114197C74.6274263331604,77.61709006114197,74.6082463331604,77.63634506114197,74.6082463331604,77.69410606114197L74.6082463331604,78.42576806114197C74.6082463331604,78.46427806114197,74.6082463331604,78.50277806114197,74.6274263331604,78.50277806114197Q74.6465963331604,78.50277806114197,74.6657763331604,78.50277806114197L75.3177763331604,78.50277806114197Q75.3753063331604,78.50277806114197,75.3944763331604,78.50277806114197Q75.4136563331604,78.48352806114197,75.3944763331604,78.44501806114197L75.3944763331604,77.69410606114197Q75.3944763331604,77.65559806114197,75.3944763331604,77.63634206114197Q75.3561263331604,77.61708706114197,75.3177763331604,77.61708706114197L74.6849563331604,77.61709006114197ZM72.9399033331604,77.92515606114196L73.4001363331604,77.92515606114196L73.4001363331604,77.65559806114197L73.1508433331604,77.65559806114197C73.0741373331604,77.79037706114197,72.9974313331604,77.86739606114197,72.9399033331604,77.92515606114196ZM73.0549613331604,77.50156306114197C72.9590793331604,77.65559806114197,72.8823733331604,77.75186906114197,72.8056673331604,77.82888506114197Q72.8056673331604,77.82888506114197,72.8248433331604,77.82888506114197C72.8631963331604,77.79037706114197,72.9399013331604,77.71335806114197,73.0549593331604,77.54007106114197L73.0549613331604,77.50156306114197ZM74.6274263331604,77.46305506114197C74.5507163331604,77.46305506114197,74.4548363331604,77.48231106114197,74.4356563331604,77.65559806114197C74.4548363331604,77.54007106114197,74.5315463331604,77.46305506114197,74.6274263331604,77.46305506114197ZM75.3561263331604,77.46305506114197C75.4136563331604,77.46305506114197,75.4711863331604,77.50156306114197,75.5095363331604,77.54007106114197C75.5287163331604,77.55932706114197,75.5478863331604,77.59783406114197,75.5478863331604,77.61708706114197C75.5478863331604,77.55932406114196,75.5478863331604,77.52081606114197,75.5287163331604,77.50156006114197C75.4903563331604,77.46305506114197,75.4328363331604,77.46305506114197,75.3561263331604,77.46305506114197Z" fill="#C0E5F7" fill-opacity="1"/></g></g></g></g><g><g><path d="M60.83961187468052,49.40962767154336Q63.23665187468052,46.84881767154336,63.37089187468052,44.82711967154336L59.55479187468052,44.13396767154336L55.29763187468052,49.02454767154336L56.467391874680516,52.72135767154336Q58.135731874680516,52.31701767154336,60.83961187468052,49.40962767154336Z" fill="url(#master_svgm_15648_060152)" fill-opacity="1"/></g><g><path d="M60.83960187468052,49.40962767154336Q63.40924187468052,46.59850767154336,63.37089187468052,44.82711967154336L59.55479187468052,44.13396767154336L55.29763187468052,49.02454767154336L56.467391874680516,52.72135767154336Q58.11656187468052,52.39403767154336,60.83960187468052,49.40962767154336Z" fill="url(#master_svgn_15648_060146)" fill-opacity="1"/></g><g><path d="M59.57396309906006,44.1724755680664C59.97667309906006,44.519051768066404,59.343853099060055,45.905359768066404,58.17409309906006,47.25314976806641C57.004333099060055,48.60094976806641,55.71951209906006,49.39036976806641,55.31680809906006,49.04379976806641C54.91410409906006,48.697219768066404,55.54692509906006,47.310919768066405,56.716683099060056,45.963119768066406C57.88644309906006,44.6153237680664,59.171263099060056,43.8066457680664,59.57396309906006,44.1724755680664Z" fill="url(#master_svgo_15648_060149)" fill-opacity="1"/></g><g><g><path d="M59.13290968868718,44.63451640277196C59.38219968868717,44.84631270277196,58.826089688687176,45.90529470277196,57.886439688687176,46.96427470277196C56.94679968868718,48.02326470277196,55.98798168868718,48.735664702771956,55.738688688687176,48.523874702771955C55.489395688687175,48.31207470277196,56.04551068868717,47.25309470277196,56.98514968868717,46.19410470277196C57.92479968868717,45.135126702771956,58.883619688687176,44.42271970277196,59.13290968868718,44.63451640277196Z" fill="url(#master_svgp_15648_060160)" fill-opacity="1"/></g><g><path d="M59.132909725878385,44.63457749281921C58.88361972587839,44.422781092819214,57.92479972587839,45.11593309281921,56.98514972587839,46.194172092819215C56.256451725878385,47.02210209281921,55.757865325878385,47.85003209281921,55.68115972587839,48.27363209281921C55.89209972587839,47.83078209281921,56.29480372587839,47.272412092819216,56.793389725878384,46.69478209281921C57.73302972587839,45.616542092819216,58.691849725878384,44.923391092819216,58.94114972587839,45.135187092819216C58.998669725878386,45.19295009281922,59.017849725878385,45.269967092819215,58.97949972587839,45.404747092819214C59.171259725878386,45.01966209281921,59.247969725878384,44.73084909281921,59.132909725878385,44.63457749281921Z" fill="#EDC820" fill-opacity="1"/></g><g><path d="M58.94114676428795,45.13518736754455C58.691846764287945,44.923390967544556,57.733036764287945,45.616542967544554,56.79338676428795,46.69478196754456C56.29480376428795,47.272411967544556,55.91127576428795,47.83078196754455,55.68115972428795,48.27362196754456C55.66198326428795,48.38915196754456,55.68115972428795,48.48542196754455,55.71951246428795,48.543181967544555C55.96880576428795,48.75498196754455,56.92762676428795,48.061831967544556,57.86726676428795,46.983591967544555C58.36585676428795,46.405961967544556,58.74937676428795,45.847593967544555,58.97949676428795,45.40474596754456C58.99867676428795,45.289221967544556,58.99867676428795,45.19295066754456,58.94114676428795,45.13518736754455Z" fill="url(#master_svgq_15648_060156)" fill-opacity="1"/></g><g><path d="M58.94114676428795,45.13518736754455C58.691846764287945,44.923390967544556,57.733036764287945,45.616542967544554,56.79338676428795,46.69478196754456C56.29480376428795,47.272411967544556,55.91127576428795,47.83078196754455,55.68115972428795,48.27362196754456C55.66198326428795,48.38915196754456,55.68115972428795,48.48542196754455,55.71951246428795,48.543181967544555C55.96880576428795,48.75498196754455,56.92762676428795,48.061831967544556,57.86726676428795,46.983591967544555C58.36585676428795,46.405961967544556,58.74937676428795,45.847593967544555,58.97949676428795,45.40474596754456C58.99867676428795,45.289221967544556,58.99867676428795,45.19295066754456,58.94114676428795,45.13518736754455Z" fill="#EDC820" fill-opacity="1"/></g></g></g><g><g><path d="M118.72205364379883,51.62197871411133L96.09390364379882,62.33407571411133C94.69402764379883,63.14277571411133,94.19545364379883,64.18257571411132,94.19545364379883,65.37627571411133L94.19545364379883,83.55227571411132C94.19545364379883,84.43797571411133,95.15430364379883,84.97707571411132,95.90218364379882,84.53427571411133L118.53025364379883,73.82207571411132C119.56575364379883,73.22527571411132,120.19865364379882,72.12777571411132,120.19865364379882,70.91467571411133L120.19865364379882,52.738725714111325C120.19865364379882,51.872283714111326,119.66165364379883,51.08286071411133,118.72205364379883,51.62197871411133Z" fill="url(#master_svgr_15648_121646)" fill-opacity="1"/></g><g><g><path d="M118.5878587398529,56.72618999572754L104.7041587398529,63.97451999572754C103.8412267398529,64.47512999572754,103.5343587398529,65.11052999572755,103.5343587398529,65.84218999572754L103.5343587398529,77.79042999572754C103.5343587398529,78.32952999572754,104.10962173985291,78.67612999572754,104.5890287398529,78.40652999572754L118.4727587398529,71.95822999572754C119.10555873985291,71.59232999572754,119.48915873985291,70.91852999572754,119.48915873985291,70.18682999572754L119.48915873985291,57.43859199572754C119.48915873985291,56.88021699572754,119.1439587398529,56.39886699572754,118.5878587398529,56.72618999572754Z" fill="#3AA8DB" fill-opacity="1"/><path d="M118.5878587398529,56.72618999572754L104.7041587398529,63.97451999572754C103.8412267398529,64.47512999572754,103.5343587398529,65.11052999572755,103.5343587398529,65.84218999572754L103.5343587398529,77.79042999572754C103.5343587398529,78.32952999572754,104.10962173985291,78.67612999572754,104.5890287398529,78.40652999572754L118.4727587398529,71.95822999572754C119.10555873985291,71.59232999572754,119.48915873985291,70.91852999572754,119.48915873985291,70.18682999572754L119.48915873985291,57.43859199572754C119.48915873985291,56.88021699572754,119.1439587398529,56.39886699572754,118.5878587398529,56.72618999572754Z" fill="url(#master_svgs_15648_121627)" fill-opacity="1"/></g><g><g><g><path d="M105.12600214999618,71.99295844329833L108.52021774999619,70.89546844329834L110.95561774999618,68.02658844329834L112.91161774999618,68.93153844329834L114.71419774999619,62.48136644329834L118.24259774999618,62.48136644329834L118.24259774999618,62.26956844329834L114.56077774999619,62.26956844329834L112.77737774999619,68.62346844329834L110.87891774999619,67.75702844329834L108.40516774999618,70.72217844329833L105.04929774999619,71.78116844329834L105.12600214999618,71.99295844329833Z" fill="#FFFFFF" fill-opacity="1"/></g><g transform="matrix(0.4123997390270233,-0.911003053188324,0.9097397923469543,0.4151788055896759,-4.424201286346744,137.39565662869708)"><ellipse cx="105.05985206365585" cy="72.7592440545559" rx="0.6542107462882996" ry="0.46056708693504333" fill="#FFFFFF" fill-opacity="1"/></g><g transform="matrix(0.4123997390270233,-0.911003053188324,0.9097397923469543,0.4151788055896759,-1.4549685020046041,139.81803374479125)"><ellipse cx="108.42060488462448" cy="71.66612538695335" rx="0.6542107462882996" ry="0.46056708693504333" fill="#FFFFFF" fill-opacity="1"/></g><g><path d="M111.33914821250916,68.08435036810303C111.18573921250916,68.41167136810303,110.87891621250915,68.60421136810302,110.64879721250915,68.48869136810303C110.41867836250916,68.39242136810303,110.36115151250915,68.02658936810303,110.49538861250916,67.69926536810303C110.64879721250915,67.37194336810303,110.95562021250916,67.17940136810303,111.18573921250916,67.29492506810303C111.41585221250915,67.41045136810303,111.47338821250915,67.75702536810303,111.33914821250916,68.08435036810303Z" fill="#FFFFFF" fill-opacity="1"/></g><g transform="matrix(0.4123997390270233,-0.9110029339790344,0.9097398519515991,0.41517871618270874,2.9312742710588395,140.50176770567577)"><ellipse cx="110.88894963264465" cy="68.42784956097603" rx="0.4040713310241699" ry="0.28785446286201477" fill="#D9DADB" fill-opacity="1"/></g><g><path d="M113.25678651435852,68.97004344137574C113.10337751435853,69.29736444137573,112.79655451435852,69.48990444137573,112.56643551435852,69.37438444137574C112.33631666435852,69.27811444137573,112.27878991435853,68.91228244137574,112.41302691435853,68.58495844137573C112.56643551435852,68.25763644137574,112.87325851435853,68.06509444137573,113.10337751435853,68.18061814137573C113.35266651435852,68.27689244137574,113.41019651435852,68.64272144137573,113.25678651435852,68.97004344137574Z" fill="#FFFFFF" fill-opacity="1"/></g><g transform="matrix(0.4123997688293457,-0.9110029935836792,0.9097398519515991,0.4151788353919983,8.163141824374776,139.66783402663015)"><ellipse cx="114.52561259269714" cy="65.11518085002899" rx="2.0780811309814453" ry="1.4584623575210571" fill="#FFFFFF" fill-opacity="1"/></g><g transform="matrix(0.4123997390270233,-0.9110029935836792,0.9097399115562439,0.4151787757873535,8.481820456142941,139.83103642116387)"><ellipse cx="114.54182863235474" cy="64.75744783878326" rx="1.8087003231048584" ry="1.2665594816207886" fill="#D9DADB" fill-opacity="1"/></g><g transform="matrix(0.4123997390270233,-0.9110029339790344,0.9097397923469543,0.4151787757873535,10.116300247166066,140.64134546378773)"><ellipse cx="114.60051009058952" cy="62.93401908874512" rx="0.42331287264823914" ry="0.30704474449157715" fill="#FFFFFF" fill-opacity="1"/></g><g><path d="M113.71701919346619,61.82672322884369C113.62113719346618,62.03852122884369,113.41019619346619,62.15404422884369,113.27596419346618,62.09628122884369C113.12255594346618,62.019265228843686,113.08420089346619,61.80746822884369,113.18008279346618,61.57641722884369C113.27596419346618,61.36461972884369,113.48690619346618,61.24909602884369,113.62113719346618,61.306859328843686C113.77455219346619,61.38387512884369,113.81290119346619,61.61492522884369,113.71701919346619,61.82672322884369Z" fill="#FFFFFF" fill-opacity="1"/></g><g transform="matrix(0.4123997092247009,-0.911003053188324,0.9097398519515991,0.4151788055896759,9.048585913000224,141.96535556436723)"><ellipse cx="115.21072524785995" cy="64.50399699807167" rx="0.5387617945671082" ry="0.38380590081214905" fill="#FFFFFF" fill-opacity="1"/></g><g><path d="M118.66452663047791,62.55838217409515C118.51111763047791,62.885703174095156,118.2042946304779,63.07824317409516,117.9741756304779,62.96272317409515C117.7440567804779,62.847203174095156,117.6865299304779,62.50062117409515,117.82076703047791,62.173297174095154C117.9741756304779,61.84597517409515,118.28099863047791,61.653433174095156,118.51111763047791,61.76895687409515C118.7412306304779,61.88448317409515,118.8179366304779,62.231060174095155,118.66452663047791,62.55838217409515Z" fill="#FFFFFF" fill-opacity="1"/></g></g></g><g><path d="M118.78359228935241,54.02009574872589C118.78359228935241,53.65426524872589,118.55349228935242,53.48095414872589,118.28499228935242,53.634988648725894L112.31699228935241,56.762859748725894C112.04859228935241,56.91689974872589,111.81839228935242,57.340469748725894,111.81839228935242,57.72555974872589C111.81839228935242,58.09138974872589,112.04859228935241,58.26469974872589,112.31699228935241,58.110659748725894L118.28499228935242,54.98278974872589C118.57259228935241,54.80949974872589,118.78359228935241,54.38592674872589,118.78359228935241,54.02009574872589ZM110.59119228935242,57.74484974872589C110.85969228935241,57.59081974872589,111.08979228935242,57.76412974872589,111.08979228935242,58.129959748725895C111.08979228935242,58.51503974872589,110.87889228935242,58.938609748725895,110.59119228935242,59.11188974872589L96.60754228935242,66.08002974872589C96.33907228935242,66.23412974872589,96.10896228935242,66.06072974872589,96.10896228935242,65.69492974872588C96.10896228935242,65.30982974872589,96.33907228935242,64.8863297487259,96.60754228935242,64.73222974872589L110.59119228935242,57.74484974872589ZM102.15367228935241,65.57262974872589L96.01721828935241,68.33462974872589C95.57616028935242,68.5849297487259,95.30769228935242,69.04702974872589,95.30769228935242,69.5669297487259L95.30769228935242,74.9599297487259C95.30769228935242,75.3258297487259,95.71043828935241,75.55682974872589,96.03643628935242,75.3836297487259L102.17285228935242,72.62152974872589C102.61390228935241,72.3712297487259,102.88232228935242,71.90912974872589,102.88232228935242,71.3892297487259L102.88232228935242,65.9962297487259C102.86314228935242,65.6303297487259,102.47967228935242,65.39932974872589,102.15367228935241,65.57262974872589ZM102.28788228935241,74.14072974872589C102.55635228935242,73.98672974872589,102.78646228935241,74.16002974872589,102.78646228935241,74.5258297487259C102.78646228935241,74.89162974872589,102.55635228935242,75.3152297487259,102.28788228935241,75.4885297487259L95.80627928935242,78.4431297487259C95.53780828935241,78.59712974872589,95.30769228935242,78.4238297487259,95.30769228935242,78.05802974872589C95.30769228935242,77.67292974872589,95.53781128935242,77.2493297487259,95.80627928935242,77.09532974872589L102.28788228935241,74.14072974872589ZM102.78646228935241,77.32832974872589C102.78646228935241,76.9625297487259,102.55635228935242,76.78922974872589,102.28788228935241,76.94322974872588L95.80627028935241,79.9170297487259C95.53780228935241,80.07102974872589,95.30769228935242,80.49472974872589,95.30769228935242,80.8798297487259C95.30769228935242,81.24562974872589,95.53779928935242,81.41892974872589,95.80627028935241,81.26482974872589L102.28788228935241,78.31022974872589C102.55635228935242,78.11772974872589,102.78646228935241,77.69412974872589,102.78646228935241,77.32832974872589Z" fill-rule="evenodd" fill="#FFFFFF" fill-opacity="1"/></g><g><path d="M105.33690625059509,69.3358711138916L105.33690625059509,65.3695011138916L104.70408225059509,65.7353301138916L104.70408225059509,69.7017011138916L105.33690625059509,69.3358711138916ZM106.4107622505951,68.4694011138916L106.4107622505951,65.8508241138916L105.75877225059509,66.21665411389161L105.75877225059509,68.8544911138916L106.4107622505951,68.4694011138916ZM107.4844922505951,67.8532711138916L107.4844922505951,66.13964311389161L106.8325022505951,66.5054711138916L106.8325022505951,68.2383511138916L107.4844922505951,67.8532711138916ZM108.53953225059509,67.2371311138916L108.53953225059509,66.13964311389161L107.9067222505951,66.5054711138916L107.9067222505951,67.6222211138916L108.53953225059509,67.2371311138916ZM109.61340225059509,66.6210011138916L109.61340225059509,66.13964311389161L108.96140225059509,66.5247311138916L108.96140225059509,66.9868311138916L109.61340225059509,66.6210011138916Z" fill="#FFFFFF" fill-opacity="1"/></g></g></g></g></g></g></svg>