<svg xmlns="http://www.w3.org/2000/svg" xmlns:xlink="http://www.w3.org/1999/xlink" fill="none" version="1.1" width="14.00000286102295" height="14" viewBox="0 0 14.00000286102295 14"><g><path d="M7,0C3.13399,0,0,3.13399,0,7C0,10.866,3.13399,14,7,14C10.866,14,14,10.866,14,7C14,3.13399,10.866,0,7,0ZM9.93145,7.46475L5.95418,10.0897C5.78318,10.2025,5.56411,10.2122,5.38378,10.1151C5.20345,10.018,5.09097,9.82981,5.09091,9.625L5.09091,4.3755C5.09092,4.17063,5.20343,3.98231,5.38383,3.88522C5.56423,3.78812,5.78337,3.79793,5.95438,3.91075L9.93165,6.53575C10.2652,6.75584,10.2652,7.24516,9.93165,7.46524L9.93145,7.46475Z" fill="#FFFFFF" fill-opacity="1"/></g></svg>