<svg xmlns="http://www.w3.org/2000/svg" xmlns:xlink="http://www.w3.org/1999/xlink" fill="none" version="1.1" width="18" height="18" viewBox="0 0 18 18"><g><g><g><g><g><path d="M14.16887389678955,11.538537037353516C14.16887389678955,12.965887037353516,11.854663896789551,14.122987037353516,9.00000389678955,14.122987037353516C6.145333896789551,14.122987037353516,3.831173896789551,12.965887037353516,3.831173896789551,11.538537037353516C3.831173896789551,10.111195037353516,5.0239838967895505,9.323307062587816,9.00000389678955,9.323307062594715C12.57841389678955,9.323307062600916,14.16887389678955,10.111195037353516,14.16887389678955,11.538537037353516Z" fill="#22CE76" fill-opacity="1"/></g></g></g><g><path d="M8.970261522827148,8.842167974853517Q9.148011522827149,8.842167974853517,9.324911522827149,8.825987974853515Q9.501801522827149,8.809817974853516,9.676141522827148,8.777607974853517Q9.85047152282715,8.745407974853515,10.020571522827149,8.697497974853516Q10.190661522827149,8.649587974853516,10.35488152282715,8.586417974853514Q10.519101522827148,8.523257974853514,10.675861522827148,8.445447974853515Q10.832621522827148,8.367647974853515,10.980421522827148,8.275947974853516Q11.128211522827149,8.184247974853516,11.265611522827149,8.079537974853515Q11.403011522827148,7.974827974853516,11.528701522827149,7.858117974853515Q11.654391522827147,7.741407974853516,11.767151522827149,7.613817974853516Q11.879921522827148,7.486227974853516,11.978671522827149,7.348987974853515Q12.077421522827148,7.211747974853516,12.161211522827148,7.066177974853516Q12.245001522827149,6.920617974853515,12.31302152282715,6.768127974853515Q12.381051522827148,6.615637974853516,12.432641522827147,6.457687974853515Q12.484241522827148,6.299737974853516,12.51892152282715,6.137857974853516Q12.553601522827147,5.975967974853516,12.571021522827149,5.811707974853515Q12.588441522827148,5.647447974853516,12.588441522827148,5.482397974853516Q12.588441522827148,5.3173379748535154,12.571021522827149,5.153077974853516Q12.553601522827147,4.988817974853515,12.51892152282715,4.826936974853515Q12.484241522827148,4.665053974853516,12.432641522827147,4.507105974853515Q12.381051522827148,4.349157974853515,12.31302152282715,4.196666974853516Q12.245001522827149,4.044175974853515,12.161211522827148,3.8986105748535156Q12.077421522827148,3.7530449748535157,11.978671522827149,3.6158069748535158Q11.879921522827148,3.4785679748535157,11.767151522827149,3.3509789748535157Q11.654391522827147,3.2233899748535157,11.528701522827149,3.1066779748535156Q11.403011522827148,2.9899669748535156,11.265611522827149,2.8852569748535157Q11.128211522827149,2.7805479748535156,10.980421522827148,2.6888479748535157Q10.832621522827148,2.597147974853516,10.675861522827148,2.5193379748535154Q10.519101522827148,2.4415379748535155,10.35488152282715,2.3783679748535156Q10.190661522827149,2.3152079748535157,10.020571522827149,2.2672979748535154Q9.85047152282715,2.219377974853516,9.676141522827148,2.1871779748535154Q9.501801522827149,2.154977974853516,9.324911522827149,2.1387979748535155Q9.148011522827149,2.1226279748535157,8.970261522827148,2.1226279748535157Q8.792511522827148,2.1226279748535157,8.615621522827148,2.1387979748535155Q8.438731522827148,2.154977974853516,8.264393522827149,2.1871779748535154Q8.090059522827149,2.219377974853516,7.919963522827149,2.2672979748535154Q7.749867522827149,2.3152079748535157,7.585648522827149,2.3783679748535156Q7.4214295228271485,2.4415379748535155,7.264667922827148,2.5193379748535154Q7.1079065228271485,2.597147974853516,6.9601135228271485,2.6888479748535157Q6.812319522827148,2.7805479748535156,6.6749175228271485,2.8852569748535157Q6.5375145228271485,2.9899669748535156,6.411827522827148,3.1066779748535156Q6.286141522827148,3.2233899748535157,6.173371522827148,3.3509789748535157Q6.060611522827148,3.4785679748535157,5.9618615228271485,3.6158069748535158Q5.863111522827149,3.7530449748535157,5.779321522827148,3.8986104748535158Q5.695521522827148,4.044175974853515,5.627501522827148,4.196666974853516Q5.559481522827149,4.349157974853515,5.507881522827148,4.507105974853515Q5.456291522827149,4.665053974853516,5.421611522827148,4.826936974853515Q5.386931522827148,4.988817974853515,5.369511522827148,5.153077974853516Q5.352091522827148,5.3173379748535154,5.352091522827148,5.482397974853516Q5.352091522827148,5.647447974853516,5.369511522827148,5.811707974853515Q5.386931522827148,5.975967974853516,5.421611522827148,6.137857974853516Q5.456291522827149,6.299737974853516,5.507881522827148,6.457687974853515Q5.559481522827149,6.615637974853516,5.627501522827148,6.768127974853515Q5.695521522827148,6.920617974853515,5.779321522827148,7.066177974853516Q5.863111522827149,7.211747974853516,5.9618615228271485,7.348987974853515Q6.060611522827148,7.486227974853516,6.173371522827148,7.613817974853516Q6.286141522827148,7.741407974853516,6.411826522827148,7.858117974853515Q6.5375145228271485,7.974827974853516,6.6749175228271485,8.079537974853515Q6.812319522827148,8.184247974853516,6.9601135228271485,8.275947974853516Q7.1079065228271485,8.367647974853515,7.264667922827148,8.445447974853515Q7.4214295228271485,8.523257974853514,7.585648522827149,8.586417974853514Q7.749867522827149,8.649587974853516,7.919963522827149,8.697497974853516Q8.090059522827149,8.745407974853515,8.264393522827149,8.777607974853517Q8.438731522827148,8.809817974853516,8.615621522827148,8.825987974853515Q8.792511522827148,8.842167974853517,8.970261522827148,8.842167974853517ZM8.959781522827148,6.314817974853516C8.970171522827147,6.3033079748535155,8.979751522827149,6.291367974853516,8.988551522827148,6.279057974853515L10.557541522827147,4.541053974853516C10.704681522827148,4.378057974853515,10.691841522827149,4.126638974853516,10.528841522827149,3.9794929748535157C10.365841522827148,3.832347074853516,10.114421522827149,3.845196374853516,9.967281522827149,4.008191974853515L8.630961522827148,5.488447974853516L7.970989522827148,4.906147974853516C7.807993522827148,4.759001974853516,7.556573522827149,4.771850974853516,7.409427522827149,4.934847974853516C7.262282022827148,5.097847974853516,7.2751311228271485,5.349257974853516,7.438126522827148,5.496407974853516L8.398221522827148,6.3435179748535155C8.561221522827148,6.490657974853516,8.812641522827148,6.477807974853516,8.959781522827148,6.314817974853516Z" fill-rule="evenodd" fill="#22CE76" fill-opacity="1"/></g></g></g></svg>