<svg xmlns="http://www.w3.org/2000/svg" xmlns:xlink="http://www.w3.org/1999/xlink" fill="none" version="1.1" width="11.789475440979004" height="14" viewBox="0 0 11.789475440979004 14"><g><path d="M9.45958,8.0419C10.8633,8.57979,11.7895,9.57305,11.7895,11.0755L11.7895,12.6398C11.7895,13.3914,11.1801,14,10.4293,14L1.36021,14C0.608987,14,0,13.391,0,12.6398L0,11.0747C0,9.57158,0.926211,8.57905,2.3299,8.04116C2.56887,7.94942,2.83952,8.00882,3.01811,8.19221C3.10284,8.27916,3.17579,8.34916,3.23768,8.40221C3.97675,9.03813,4.91975,9.38725,5.89474,9.3859C6.90073,9.38741,7.87156,9.01593,8.61958,8.34326C8.66379,8.30347,8.71537,8.25337,8.77432,8.19295C8.95197,8.01007,9.22151,7.95066,9.45958,8.0419ZM5.89474,0C7.7728,3.373e-7,9.29526,1.52247,9.29526,3.40053L9.29526,4.96632C9.29526,6.84438,7.7728,8.36684,5.89474,8.36684C4.01668,8.36684,2.49421,6.84438,2.49421,4.96632L2.49421,3.40053C2.49421,1.52247,4.01668,0,5.89474,0Z" fill="#1890FF" fill-opacity="1"/></g></svg>