<svg xmlns="http://www.w3.org/2000/svg" xmlns:xlink="http://www.w3.org/1999/xlink" fill="none" version="1.1" width="150" height="126" viewBox="0 0 150 126"><defs><linearGradient x1="0.5" y1="0" x2="0.5" y2="1" id="master_svg0_917_061034"><stop offset="0%" stop-color="#FAFAFA" stop-opacity="1"/><stop offset="100%" stop-color="#F1F1F1" stop-opacity="1"/></linearGradient><filter id="master_svg1_15648_121370" filterUnits="objectBoundingBox" color-interpolation-filters="sRGB" x="-20" y="-12" width="116" height="136"><feFlood flood-opacity="0" result="BackgroundImageFix"/><feColorMatrix in="SourceAlpha" type="matrix" values="0 0 0 0 0 0 0 0 0 0 0 0 0 0 0 0 0 0 127 0"/><feOffset dy="8" dx="0"/><feGaussianBlur stdDeviation="5"/><feColorMatrix type="matrix" values="0 0 0 0 0 0 0 0 0 0 0 0 0 0 0 0 0 0 0.10000000149011612 0"/><feBlend mode="normal" in2="BackgroundImageFix" result="effect1_dropShadow"/><feBlend mode="normal" in="SourceGraphic" in2="effect1_dropShadow" result="shape"/></filter><linearGradient x1="0.0695677176117897" y1="0.9253247976303101" x2="0.9247243404388428" y2="0.09143729507923126" id="master_svg2_15648_121372"><stop offset="0%" stop-color="#EDEDED" stop-opacity="1"/><stop offset="100%" stop-color="#FAFAFA" stop-opacity="1"/></linearGradient><linearGradient x1="0.5" y1="0.5" x2="0.084564208984375" y2="0.9306132197380066" id="master_svg3_15648_053870"><stop offset="0%" stop-color="#EDEDED" stop-opacity="1"/><stop offset="100%" stop-color="#CECFD0" stop-opacity="1"/></linearGradient><linearGradient x1="0.13923048973083496" y1="0.9199782013893127" x2="0.8418539762496948" y2="-0.03220772370696068" id="master_svg4_15648_121334"><stop offset="0%" stop-color="#1E2A5D" stop-opacity="1"/><stop offset="25%" stop-color="#729ED4" stop-opacity="1"/><stop offset="49.00999963283539%" stop-color="#FFFFFF" stop-opacity="1"/><stop offset="77.9699981212616%" stop-color="#6896CF" stop-opacity="1"/><stop offset="100%" stop-color="#1E2A5D" stop-opacity="1"/></linearGradient><linearGradient x1="0.7574418783187866" y1="0.559050440788269" x2="0.22855788469314575" y2="0.3155685365200043" id="master_svg5_15648_121331"><stop offset="0%" stop-color="#1950A1" stop-opacity="0.699999988079071"/><stop offset="42.329999804496765%" stop-color="#729ED4" stop-opacity="0.5"/><stop offset="100%" stop-color="#AACDEC" stop-opacity="0"/></linearGradient><linearGradient x1="0.8655130863189697" y1="0.6380032300949097" x2="-0.05339758098125458" y2="0.2915796935558319" id="master_svg6_15648_121319"><stop offset="0%" stop-color="#1950A1" stop-opacity="1"/><stop offset="54.46000099182129%" stop-color="#AACDEC" stop-opacity="1"/><stop offset="100%" stop-color="#1950A1" stop-opacity="1"/></linearGradient><linearGradient x1="0.8226364850997925" y1="0.6574106812477112" x2="0.17144766449928284" y2="0.34027355909347534" id="master_svg7_15648_121328"><stop offset="51.980000734329224%" stop-color="#DABB1A" stop-opacity="1"/><stop offset="100%" stop-color="#7C6D2A" stop-opacity="1"/></linearGradient><linearGradient x1="0.7938997745513916" y1="0.655363142490387" x2="0.12498879432678223" y2="0.29579678177833557" id="master_svg8_15648_121323"><stop offset="51.980000734329224%" stop-color="#DABB1A" stop-opacity="1"/><stop offset="100%" stop-color="#7C6D2A" stop-opacity="1"/></linearGradient><linearGradient x1="0.858215868473053" y1="0.9170494079589844" x2="0.15559139847755432" y2="-0.03513791784644127" id="master_svg9_15648_121300"><stop offset="0%" stop-color="#1E2A5D" stop-opacity="1"/><stop offset="25%" stop-color="#729ED4" stop-opacity="1"/><stop offset="49.00999963283539%" stop-color="#FFFFFF" stop-opacity="1"/><stop offset="77.9699981212616%" stop-color="#6896CF" stop-opacity="1"/><stop offset="100%" stop-color="#1E2A5D" stop-opacity="1"/></linearGradient><linearGradient x1="0.24001510441303253" y1="0.5561228394508362" x2="0.7688973546028137" y2="0.3126417398452759" id="master_svga_15648_121297"><stop offset="0%" stop-color="#1950A1" stop-opacity="0.699999988079071"/><stop offset="42.329999804496765%" stop-color="#729ED4" stop-opacity="0.5"/><stop offset="100%" stop-color="#AACDEC" stop-opacity="0"/></linearGradient><linearGradient x1="0.12553520500659943" y1="0.6333348751068115" x2="1.0444424152374268" y2="0.2869126796722412" id="master_svgb_15648_121312"><stop offset="0%" stop-color="#1950A1" stop-opacity="1"/><stop offset="54.46000099182129%" stop-color="#AACDEC" stop-opacity="1"/><stop offset="100%" stop-color="#1950A1" stop-opacity="1"/></linearGradient><linearGradient x1="0.17083030939102173" y1="0.6519641876220703" x2="0.822014570236206" y2="0.3346116840839386" id="master_svgc_15648_121304"><stop offset="51.980000734329224%" stop-color="#DABB1A" stop-opacity="1"/><stop offset="100%" stop-color="#7C6D2A" stop-opacity="1"/></linearGradient><linearGradient x1="0.19938994944095612" y1="0.6486906409263611" x2="0.8683009147644043" y2="0.2891242504119873" id="master_svgd_15648_121308"><stop offset="51.980000734329224%" stop-color="#DABB1A" stop-opacity="1"/><stop offset="100%" stop-color="#7C6D2A" stop-opacity="1"/></linearGradient><linearGradient x1="1.2381881475448608" y1="0.4995974004268646" x2="-0.2980622351169586" y2="0.4995974004268646" id="master_svge_15648_121277"><stop offset="0%" stop-color="#FFFFFF" stop-opacity="0"/><stop offset="100%" stop-color="#8C979F" stop-opacity="1"/></linearGradient><linearGradient x1="0.9264664053916931" y1="0.12155303359031677" x2="0.05507352948188782" y2="0.8983030319213867" id="master_svgf_15648_121292"><stop offset="0%" stop-color="#FFFFFF" stop-opacity="0"/><stop offset="100%" stop-color="#8C979F" stop-opacity="1"/></linearGradient><linearGradient x1="-0.08779756724834442" y1="0.83114093542099" x2="0.6175583004951477" y2="-0.007732192520052195" id="master_svgg_15648_121338"><stop offset="0%" stop-color="#FFFFFF" stop-opacity="0"/><stop offset="100%" stop-color="#8C979F" stop-opacity="1"/></linearGradient><linearGradient x1="1.2132744789123535" y1="0.6452183723449707" x2="-0.06750957667827606" y2="0.44074755907058716" id="master_svgh_15648_121252"><stop offset="0%" stop-color="#FFFFFF" stop-opacity="0"/><stop offset="100%" stop-color="#8C979F" stop-opacity="1"/></linearGradient><linearGradient x1="0.6980945467948914" y1="-0.634803056716919" x2="0.26239916682243347" y2="1.8543106317520142" id="master_svgi_15648_121341"><stop offset="0%" stop-color="#FFFFFF" stop-opacity="0"/><stop offset="100%" stop-color="#8C979F" stop-opacity="1"/></linearGradient><linearGradient x1="0.014626692049205303" y1="0.8229436278343201" x2="0.4669613242149353" y2="0.30166181921958923" id="master_svgj_15648_121280"><stop offset="0%" stop-color="#FFFFFF" stop-opacity="0"/><stop offset="100%" stop-color="#8C979F" stop-opacity="1"/></linearGradient><linearGradient x1="0.8726569414138794" y1="0.24561551213264465" x2="0.04210199415683746" y2="1.0455373525619507" id="master_svgk_15648_121289"><stop offset="0%" stop-color="#FFFFFF" stop-opacity="0"/><stop offset="100%" stop-color="#8C979F" stop-opacity="1"/></linearGradient><linearGradient x1="0.7494804859161377" y1="0.09976514428853989" x2="0.2736431956291199" y2="1.092047095298767" id="master_svgl_15648_121286"><stop offset="0%" stop-color="#FFFFFF" stop-opacity="0"/><stop offset="100%" stop-color="#8C979F" stop-opacity="1"/></linearGradient><linearGradient x1="0.1432882696390152" y1="1.1882436275482178" x2="0.657793402671814" y2="-0.06575197726488113" id="master_svgm_15648_121255"><stop offset="0%" stop-color="#FFFFFF" stop-opacity="0"/><stop offset="100%" stop-color="#8C979F" stop-opacity="1"/></linearGradient><linearGradient x1="0.49976298213005066" y1="1.002839207649231" x2="0.49976298213005066" y2="-0.05299847573041916" id="master_svgn_15648_121237"><stop offset="0%" stop-color="#1950A1" stop-opacity="1"/><stop offset="73.01999926567078%" stop-color="#5E8DCA" stop-opacity="1"/><stop offset="100%" stop-color="#729ED4" stop-opacity="1"/></linearGradient><radialGradient cx="0" cy="0" r="1" gradientUnits="userSpaceOnUse" id="master_svgo_15648_121268" gradientTransform="translate(116.19858681074584 100.85775412308732) rotate(0) scale(6.252712207242439 6.355276885240721)"><stop offset="68.80999803543091%" stop-color="#FFFFFF" stop-opacity="1"/><stop offset="100%" stop-color="#FFFFFF" stop-opacity="0"/></radialGradient><linearGradient x1="0.8011286854743958" y1="0.10222996026277542" x2="0.15375949442386627" y2="0.9532658457756042" id="master_svgp_15648_121265"><stop offset="0%" stop-color="#BFE4F3" stop-opacity="1"/><stop offset="46.29000127315521%" stop-color="#5282C3" stop-opacity="1"/><stop offset="100%" stop-color="#1950A1" stop-opacity="1"/></linearGradient><linearGradient x1="0.8508850336074829" y1="0.19939574599266052" x2="0.150665283203125" y2="0.8667938113212585" id="master_svgq_15648_121357"><stop offset="0%" stop-color="#EDEDED" stop-opacity="1"/><stop offset="100%" stop-color="#CECFD0" stop-opacity="1"/></linearGradient><linearGradient x1="1.1865030527114868" y1="0.5" x2="-0.49500158429145813" y2="0.6627047061920166" id="master_svgr_15648_121365"><stop offset="0%" stop-color="#FFFFFF" stop-opacity="0"/><stop offset="100.00004768371582%" stop-color="#8C979F" stop-opacity="1"/></linearGradient><linearGradient x1="0.7083618640899658" y1="0.3193874955177307" x2="-0.24358104169368744" y2="1" id="master_svgs_15648_121352"><stop offset="0%" stop-color="#FFFFFF" stop-opacity="0"/><stop offset="100.00011920928955%" stop-color="#8C979F" stop-opacity="1"/></linearGradient></defs><g><g><ellipse cx="77" cy="65" rx="60" ry="60" fill="url(#master_svg0_917_061034)" fill-opacity="1"/></g><g><ellipse cx="140" cy="23" rx="5" ry="5" fill="#F0F0F0" fill-opacity="1"/></g><g><ellipse cx="7.5" cy="107" rx="7.5" ry="8" fill="#F0F0F0" fill-opacity="1"/></g><g><ellipse cx="12.5" cy="10.5" rx="4.5" ry="4.5" fill="#F0F0F0" fill-opacity="1"/></g><g><ellipse cx="147" cy="12" rx="3" ry="3" fill="#F0F0F0" fill-opacity="1"/></g><g><ellipse cx="140" cy="116" rx="3" ry="3" fill="#F0F0F0" fill-opacity="1"/></g><g><g filter="url(#master_svg1_15648_121370)"><path d="M32,96.8711C32,100.256,34.74402,103,38.12894,103L101.8711,103C105.256,103,108,100.256,108,96.8711L108,31.2526L83.68,7L38.12894,7C34.74402,7,32,9.744019999999999,32,13.12894L32,96.8711Z" fill="url(#master_svg2_15648_121372)" fill-opacity="1"/></g><g><path d="M85,7L85,23.8281C85,28.3413,88.65869,32,93.17192,32L108,32L85,7Z" fill="url(#master_svg3_15648_053870)" fill-opacity="1"/></g><g><rect x="44" y="22" width="24" height="3" rx="1.5" fill="#FFFFFF" fill-opacity="1"/></g><g><rect x="44" y="37" width="36" height="3" rx="1.5" fill="#FFFFFF" fill-opacity="1"/></g><g><rect x="44" y="68" width="29" height="3" rx="1.5" fill="#FFFFFF" fill-opacity="1"/></g><g><rect x="44" y="84" width="25" height="3" rx="1.5" fill="#FFFFFF" fill-opacity="1"/></g><g><rect x="44" y="53" width="53" height="3" rx="1.5" fill="#FFFFFF" fill-opacity="1"/></g></g><g><g><g><path d="M96.41988228769303,66.5832614642334Q98.86659228769302,62.7655614642334,98.52252228769302,60.2078914642334L93.47619228769302,60.2831173642334L89.23268228769302,67.4483614642334L91.66027228769302,71.8114914642334Q93.68645228769303,70.8710914642334,96.41988228769303,66.5832614642334Z" fill="url(#master_svg4_15648_121334)" fill-opacity="1"/></g><g><path d="M96.41988228769303,66.5832614642334Q99.00039228769302,62.4270514642334,98.52252228769302,60.2078914642334L93.47619228769302,60.2831173642334L89.23268228769302,67.4483614642334L91.66027228769302,71.8114914642334Q93.68645228769303,70.9839914642334,96.41988228769303,66.5832614642334Z" fill="url(#master_svg5_15648_121331)" fill-opacity="1"/></g><g><path d="M93.51429,60.30189703230825C94.12597,60.64041313230825,93.66721,62.539856132308245,92.48209,64.51453613230825C91.29696,66.48920613230824,89.882458,67.80565613230824,89.270782,67.46714613230824C88.659105,67.12862613230824,89.117863,65.22917613230824,90.30299,63.254506132308244C91.48811,61.27983613230825,92.90261,59.96338113230824,93.51429,60.30189703230825Z" fill="url(#master_svg6_15648_121319)" fill-opacity="1"/></g><g><g><path d="M93.03649626361609,60.99770588722992C93.39967626361609,61.20457588722992,92.94091626361609,62.65266788722992,92.02340626361608,64.23240788722993C91.10588626361609,65.81214788722991,90.03545626361608,66.94052788722992,89.65315826361609,66.71485788722993C89.28997526361609,66.50798788722992,89.74873226361609,65.05988788722992,90.66624626361609,63.48014788722992C91.58376626361608,61.90041288722992,92.67331626361609,60.79083588722992,93.03649626361609,60.99770588722992Z" fill="url(#master_svg7_15648_121328)" fill-opacity="1"/></g><g><path d="M93.03636919330597,60.99770588722992C92.67318919330597,60.79083588722992,91.60274919330597,61.90041488722992,90.66611919330597,63.48014788722992C89.93975619330597,64.70256788722992,89.50011319330596,65.84975788722991,89.51922802830597,66.39514788722992C89.69126219330597,65.79333788722992,90.05444519330597,64.98466788722992,90.55142919330596,64.15717788722992C91.48805919330597,62.57744788722992,92.53937919330598,61.46786488722992,92.92167919330596,61.67473688722992C92.99813919330597,61.73115588722992,93.03636919330597,61.82518888722992,93.05548919330597,61.99444788722992C93.20839919330597,61.48667388722992,93.20839919330597,61.11054588722992,93.03636919330597,60.99770588722992Z" fill="#EDC820" fill-opacity="1"/></g><g><path d="M92.92168954486847,61.69355363694C92.55850954486847,61.48668363694,91.48806954486847,62.59626163694,90.55143954486847,64.17599563694C90.05445654486847,65.02228563694,89.69127354486847,65.81215563694,89.51923954486847,66.41396563694C89.51923954486847,66.56441563694,89.55746934486847,66.67725563694,89.65304354486847,66.73367563694C90.01622654486847,66.94054563694,91.08665954486847,65.83096563694001,92.02328954486848,64.25122563694C92.52027954486847,63.40493563694,92.88345954486847,62.615067636940005,93.05549954486847,62.01326163694C93.05549954486847,61.84400363694,93.01726954486847,61.73116583694,92.92168954486847,61.69355363694Z" fill="url(#master_svg8_15648_121323)" fill-opacity="1"/></g><g><path d="M92.92168954486847,61.69355363694C92.55850954486847,61.48668363694,91.48806954486847,62.59626163694,90.55143954486847,64.17599563694C90.05445654486847,65.02228563694,89.69127354486847,65.81215563694,89.51923954486847,66.41396563694C89.51923954486847,66.56441563694,89.55746934486847,66.67725563694,89.65304354486847,66.73367563694C90.01622654486847,66.94054563694,91.08665954486847,65.83096563694001,92.02328954486848,64.25122563694C92.52027954486847,63.40493563694,92.88345954486847,62.615067636940005,93.05549954486847,62.01326163694C93.05549954486847,61.84400363694,93.01726954486847,61.73116583694,92.92168954486847,61.69355363694Z" fill="#EDC820" fill-opacity="1"/></g></g></g><g><g><path d="M136.5610398026085,66.5832614642334Q134.1143318026085,62.7655614642334,134.45840030260848,60.2078914642334L139.5047398026085,60.2831173642334L143.74824980260848,67.4483614642334L141.3206498026085,71.8114914642334Q139.2944698026085,70.8710914642334,136.5610398026085,66.5832614642334Z" fill="url(#master_svg9_15648_121300)" fill-opacity="1"/></g><g><path d="M136.56102658325196,66.5832614642334Q133.98051158325194,62.4270514642334,134.45838418325195,60.2078914642334L139.50471658325196,60.2831173642334L143.74822658325195,67.4483614642334L141.32063658325194,71.8114914642334Q139.29445658325196,70.9839914642334,136.56102658325196,66.5832614642334Z" fill="url(#master_svga_15648_121297)" fill-opacity="1"/></g><g><path d="M139.4857205942688,60.30189703230825C138.8740415942688,60.64041313230825,139.3328035942688,62.539856132308245,140.5179195942688,64.51453613230825C141.7030395942688,66.48920613230824,143.1175495942688,67.80565613230824,143.7292295942688,67.46714613230824C144.3408995942688,67.12862613230824,143.8821395942688,65.22917613230824,142.6970195942688,63.254506132308244C141.5118995942688,61.279826132308244,140.0782835942688,59.96338113230824,139.4857205942688,60.30189703230825Z" fill="url(#master_svgb_15648_121312)" fill-opacity="1"/></g><g><g><path d="M139.9443845347056,60.99770588722992C139.58120253470557,61.20457588722992,140.0399585347056,62.65266788722992,140.95747453470557,64.23240788722993C141.89410453470558,65.81214788722991,142.94542453470558,66.92172788722992,143.3277145347056,66.71485788722993C143.69090453470557,66.50798788722992,143.23214453470558,65.05988788722992,142.3146345347056,63.48014788722992C141.37800453470558,61.90041388722992,140.3075665347056,60.79083588722992,139.9443845347056,60.99770588722992Z" fill="url(#master_svgc_15648_121304)" fill-opacity="1"/></g><g><path d="M139.94434567977905,60.99770588722992C140.30752767977904,60.79083588722992,141.37796567977907,61.90041488722992,142.31459567977905,63.48014788722992C143.04095567977905,64.70256788722992,143.48060567977905,65.84975788722991,143.46148567977906,66.39514788722992C143.28945567977905,65.79333788722992,142.92627567977905,64.98466788722992,142.42928567977904,64.15717788722992C141.49265567977906,62.57744788722992,140.44133367977906,61.46786488722992,140.05903667977904,61.67473688722992C139.98257767977904,61.73115588722992,139.94434567977905,61.82518888722992,139.92522967977905,61.99444788722992C139.77231267977905,61.48667388722992,139.77231267977905,61.11054588722992,139.94434567977905,60.99770588722992Z" fill="#EDC820" fill-opacity="1"/></g><g><path d="M140.05903772659968,61.69355363694C140.4222197265997,61.48668363694,141.4926507265997,62.59626163694,142.4292807265997,64.17599563694C142.92627072659968,65.02228563694,143.28945072659968,65.81215563694,143.4614907265997,66.41396563694C143.4614907265997,66.56441563694,143.4232507265997,66.67725563694,143.32768072659968,66.73367563694C142.96450072659968,66.94054563694,141.8940607265997,65.83096563694001,140.95743072659968,64.25122563694C140.4604457265997,63.40493563694,140.0972637265997,62.615067636940005,139.9252307265997,62.01326163694C139.94434682659968,61.84400363694,139.9825789265997,61.73116583694,140.05903772659968,61.69355363694Z" fill="url(#master_svgd_15648_121308)" fill-opacity="1"/></g><g><path d="M140.05903772659968,61.69355363694C140.4222197265997,61.48668363694,141.4926507265997,62.59626163694,142.4292807265997,64.17599563694C142.92627072659968,65.02228563694,143.28945072659968,65.81215563694,143.4614907265997,66.41396563694C143.4614907265997,66.56441563694,143.4232507265997,66.67725563694,143.32768072659968,66.73367563694C142.96450072659968,66.94054563694,141.8940607265997,65.83096563694001,140.95743072659968,64.25122563694C140.4604457265997,63.40493563694,140.0972637265997,62.615067636940005,139.9252307265997,62.01326163694C139.94434682659968,61.84400363694,139.9825789265997,61.73116583694,140.05903772659968,61.69355363694Z" fill="#EDC820" fill-opacity="1"/></g></g></g><g><path d="M128.43727629455566,104.87309646606445Q128.03586629455566,113.41120646606446,125.81853629455567,115.78079646606446C123.60121629455567,118.15039646606445,117.61824629455566,119.46689646606445,118.55487589455566,110.34576646606445" fill="#FFFFFF" fill-opacity="1"/></g><g><path d="M128.43727629455566,104.87309646606445Q128.03586629455566,113.41120646606446,125.81853629455567,115.78079646606446C123.60121629455567,118.15039646606445,117.61824629455566,119.46689646606445,118.55487589455566,110.34576646606445" fill="url(#master_svge_15648_121277)" fill-opacity="1"/></g><g><ellipse cx="122.33961963653564" cy="116.75877845287323" rx="4.549345970153809" ry="1.2412232160568237" fill="#FFFFFF" fill-opacity="1"/></g><g><ellipse cx="122.33961963653564" cy="116.75877845287323" rx="4.549345970153809" ry="1.2412232160568237" fill="url(#master_svgf_15648_121292)" fill-opacity="1"/></g><g><path d="M125.13038180114746,108.7660256163086Q119.66352180114747,111.9066992163086,119.01361480114745,115.51752921630859Q118.15344480114746,114.1822692163086,118.53574280114746,110.3457592163086C118.55485880114746,110.3457592163086,122.49252180114746,108.4463142163086,125.13038180114746,108.7660256163086Z" fill="url(#master_svgg_15648_121338)" fill-opacity="1"/></g><g><path d="M104.23778820037842,104.87309646606445Q104.63920120037842,113.41120646606446,106.85652820037842,115.78079646606446C109.07385820037842,118.15039646606445,115.05678820037842,119.46689646606445,114.12018820037842,110.34576646606445" fill="#FFFFFF" fill-opacity="1"/></g><g><path d="M104.23778820037842,104.87309646606445Q104.63920120037842,113.41120646606446,106.85652820037842,115.78079646606446C109.07385820037842,118.15039646606445,115.05678820037842,119.46689646606445,114.12018820037842,110.34576646606445" fill="url(#master_svgh_15648_121252)" fill-opacity="1"/></g><g><ellipse cx="110.33550930023193" cy="116.75877845287323" rx="4.549345970153809" ry="1.2412232160568237" fill="#FFFFFF" fill-opacity="1"/></g><g><ellipse cx="110.33550930023193" cy="116.75877845287323" rx="4.549345970153809" ry="1.2412232160568237" fill="url(#master_svgi_15648_121341)" fill-opacity="1"/></g><g><path d="M114.12018820037842,110.34576646606445Q108.17545820037842,112.79059646606446,106.43599820037842,115.21659646606446Q104.60097120037842,112.88462646606445,104.23778820037842,104.87309646606445Q109.47526820037842,107.84450646606446,114.12018820037842,110.34576646606445Z" fill="url(#master_svgj_15648_121280)" fill-opacity="1"/></g><g><path d="M124.28937530517578,88.66196823120117Q132.5470153051758,92.15995823120117,135.3377753051758,98.29084823120117C138.1285753051758,104.42176823120117,134.57317530517577,106.65966823120117,132.0691353051758,103.93276823120117Q129.39305530517578,105.83226823120117,129.9282753051758,102.48466823120117Q128.55199530517578,99.30636823120118,127.40510530517578,99.47566823120117" fill="#FFFFFF" fill-opacity="1"/></g><g><path d="M142.18091568698884,74.89566602172852C137.93731568698882,55.84479602172851,122.89391568698883,53.418766021728516,115.32441568698883,53.418766021728516C96.61094568698883,53.418766021728516,87.97101568698884,73.16546602172852,91.01028168698883,83.94156602172852C93.30406568698884,92.12236602172851,103.16731568698883,90.46736602172851,108.15631568698883,89.03816602172851Q93.64813568698884,110.32696602172851,116.66251568698883,110.32696602172851Q139.67681568698885,110.32696602172851,124.42311568698884,88.66196602172852C133.40711568698885,91.20086602172852,145.96561568698883,92.04716602172851,142.18091568698884,74.89566602172852Z" fill="#FFFFFF" fill-opacity="1"/></g><g><path d="M108.13721946182251,89.05696602172851Q93.72460946182251,93.89016602172852,90.99118346182252,83.96036602172852C87.95190946182251,72.90216602172852,96.6109594618225,53.418766021728516,115.32441946182252,53.418766021728516C122.89391946182252,53.418766021728516,137.9565194618225,55.82598602172852,142.1809194618225,74.89566602172852C145.98471946182252,92.04716602172851,133.4262194618225,91.20086602172852,124.40401946182251,88.66196602172852Q121.17361946182251,88.15426602172852,116.28021946182251,88.15426602172852Q111.44411946182251,88.15426602172852,108.13721946182251,89.05696602172851Z" fill="url(#master_svgk_15648_121289)" fill-opacity="1"/></g><g><path d="M124.34673984069823,88.68074334472657Q139.58123984069823,110.34575334472656,116.58603984069825,110.34575334472656Q93.59082984069825,110.34575334472656,108.09903984069824,89.05686334472657L112.87773984069824,85.20155334472656L119.64443984069824,85.20155334472656L124.34673984069823,88.68074334472657Z" fill="url(#master_svgl_15648_121286)" fill-opacity="1"/></g><g><path d="M113.96734046936035,53.456386634521486L114.21583146936035,51.63216663452148L117.86678046936035,50.35332663452149L117.06395046936035,48.228206634521484L118.01970046936034,48.228206634521484L118.91810046936035,50.84229663452148L116.05086046936034,52.04590663452149L116.64343046936035,53.456386634521486" fill="#1950A1" fill-opacity="1"/></g><g><ellipse cx="117.50354981422424" cy="45.61409139633179" rx="2.6569712162017822" ry="2.614091396331787" fill="#EDC820" fill-opacity="1"/></g><g><path d="M116.43310390777587,101.24531086669921Q126.49400390777588,101.24531086669921,129.13490390777588,99.72806086669922L129.03940390777586,99.56184086669921Q126.44280390777588,101.05361086669922,116.43310390777587,101.05361086669922Q106.42323390777588,101.05361086669922,103.80739220777588,99.56169146669922L103.71241750777588,99.72821026669922Q106.37233390777588,101.24532086669922,116.43310390777587,101.24531086669921Z" fill-rule="evenodd" fill="#7D8E97" fill-opacity="1"/></g><g><path d="M116.43310390777587,101.0948439477539Q126.49400390777588,101.0948439477539,129.13490390777588,99.57759394775391L129.03940390777586,99.4113739477539Q126.44280390777588,100.9031439477539,116.43310390777587,100.9031439477539Q106.42323390777588,100.9031439477539,103.80739220777588,99.4112245477539L103.71241750777588,99.57774334775391Q106.37233390777588,101.0948539477539,116.43310390777587,101.0948439477539Z" fill-rule="evenodd" fill="#FFFFFF" fill-opacity="1"/></g><g><path d="M124.34675985565185,88.68075480761719Q109.76205985565186,90.1664628076172,103.98935985565186,98.21565280761719Q105.23182985565185,93.00623280761718,108.07994985565186,89.05688580761719Q110.73691985565185,88.28582180761718,116.45225985565186,88.15417790761718Q120.86785985565186,88.04133830761718,124.34675985565185,88.68075480761719Z" fill="url(#master_svgm_15648_121255)" fill-opacity="1"/></g><g><path d="M109.54724829223633,112.46975100585938Q111.41230829223633,112.94269100585937,114.19531829223632,112.98045100585938L114.19791829223632,112.78877100585937Q111.46802829223633,112.75173100585937,109.63521829223633,112.29421100585938L108.92450829223633,110.97131100585938L108.87525829223632,110.96526100585938Q107.35826829223633,110.77869400585938,104.80829549223633,109.76767900585938L104.73764109223633,109.94588300585937Q107.26948829223633,110.94971100585937,108.80250829223633,111.14927100585938L109.50634829223632,112.45938100585937L109.54724829223633,112.46975100585938Z" fill-rule="evenodd" fill="#7D8E97" fill-opacity="1"/></g><g><path d="M109.54724829223633,112.26287234375Q111.41230829223633,112.73581234375,114.19531829223632,112.77357234375L114.19791829223632,112.58189234375Q111.46802829223633,112.54485234375,109.63521829223633,112.08733234375L108.92450829223633,110.76443234375L108.87525829223632,110.75838234375Q107.35826829223633,110.57181534375,104.80829549223633,109.56080034375L104.73764109223633,109.73900434375Q107.26948829223633,110.74283234375,108.80250829223633,110.94239234375L109.50634829223632,112.25250234375L109.54724829223633,112.26287234375Z" fill-rule="evenodd" fill="#FFFFFF" fill-opacity="1"/></g><g><path d="M123.02067192138672,112.29421100585938Q121.18785192138672,112.75173100585937,118.45798121138672,112.78877100585937L118.46058263138671,112.98045100585938Q121.24356192138671,112.94268100585937,123.10864192138672,112.46975100585938L123.14955192138672,112.45938100585937L123.85339192138672,111.14927100585938Q125.38640192138672,110.94971100585937,127.91825192138671,109.94588290585938L127.84760192138671,109.76767910585937Q125.29764192138671,110.77869400585938,123.78064192138672,110.96526100585938L123.73138192138671,110.97131100585938L123.02067192138672,112.29421100585938Z" fill-rule="evenodd" fill="#7D8E97" fill-opacity="1"/></g><g><path d="M123.02067192138672,112.08733234375Q121.18785192138672,112.54485234375,118.45798121138672,112.58189234375L118.46058263138671,112.77357234375Q121.24356192138671,112.73580234375,123.10864192138672,112.26287234375L123.14955192138672,112.25250234375L123.85339192138672,110.94239234375Q125.38640192138672,110.74283234375,127.91825192138671,109.73900424375L127.84760192138671,109.56080044375Q125.29764192138671,110.57181534375,123.78064192138672,110.75838234375L123.73138192138671,110.76443234375L123.02067192138672,112.08733234375Z" fill-rule="evenodd" fill="#FFFFFF" fill-opacity="1"/></g><g><path d="M102.47902300415039,61.21249049957275L102.47902300415039,63.19810049957275L102.67072300415039,63.19810049957275L102.67072300415039,61.121530499572756L99.94028920415039,58.89241189957276L99.81905680415039,59.04090909957275L102.47902300415039,61.21249049957275Z" fill-rule="evenodd" fill="#7D8E97" fill-opacity="1"/></g><g><path d="M102.650940703125,61.08126074645996L102.650940703125,63.06642074645996L102.842640703125,63.06642074645996L102.842640703125,60.98939074645996L100.092516803125,58.77907034645996L99.972424603125,58.92849114645996L102.650940703125,61.08126074645996Z" fill-rule="evenodd" fill="#FFFFFF" fill-opacity="1"/></g><g><path d="M130.1000159311035,61.121530499572756L130.1000159311035,63.19810049957275L130.29171533110352,63.19810049957275L130.29171533110352,61.21249049957275L132.95168563110352,59.04090909957275L132.83045563110352,58.89241189957276L130.1000159311035,61.121530499572756Z" fill-rule="evenodd" fill="#7D8E97" fill-opacity="1"/></g><g><path d="M129.94709234711914,60.98959074645996L129.94709234711914,63.06642074645996L130.13879174711914,63.06642074645996L130.13879174711914,61.08105074645996L132.79845204711913,58.92828334645996L132.67784204711913,58.77927814645996L129.94709234711914,60.98959074645996Z" fill-rule="evenodd" fill="#FFFFFF" fill-opacity="1"/></g><g><line x1="90.39854562282562" y1="77.41392733901739" x2="97.4328283071518" y2="77.41392733901739" fill-opacity="0" stroke-opacity="1" stroke="#7D8E97" fill="none" stroke-width="0.19169946014881134"/></g><g><line x1="90.39854562282562" y1="77.22587802261114" x2="97.4328283071518" y2="77.22587802261114" fill-opacity="0" stroke-opacity="1" stroke="#FFFFFF" fill="none" stroke-width="0.19169946014881134"/></g><g><line x1="135.41424942016602" y1="77.41392733901739" x2="142.46764755249023" y2="77.41392733901739" fill-opacity="0" stroke-opacity="1" stroke="#7D8E97" fill="none" stroke-width="0.19169946014881134"/></g><g><line x1="135.41424942016602" y1="77.22587802261114" x2="142.46764755249023" y2="77.22587802261114" fill-opacity="0" stroke-opacity="1" stroke="#FFFFFF" fill="none" stroke-width="0.19169946014881134"/></g><g><path d="M116.37571612930299,83.9791578125C105.00241612930299,83.9791578125,94.90971612930298,89.1321578125,94.90971612930298,78.3372578125C94.90971612930298,65.0410978125,105.61401612930298,58.1767578125,116.24191612930298,58.1767578125L116.64331612930297,58.1767578125C127.27121612930299,58.1767578125,137.97561612930298,65.0410978125,137.97561612930298,78.3372578125C137.97561612930298,89.1132578125,127.88291612930297,83.9791578125,116.50951612930298,83.9791578125L116.37571612930299,83.9791578125Z" fill="url(#master_svgn_15648_121237)" fill-opacity="1"/></g><g><g><ellipse cx="107.16238236427307" cy="72.26280665397644" rx="2.0644094944000244" ry="4.5135393142700195" fill="#C0E5F7" fill-opacity="1"/></g><g><path d="M122.14854988861084,72.56370350952149L121.09723078861084,71.52934350952148C121.00165628861085,71.43531350952148,121.00165628861085,71.26606350952149,121.09723078861084,71.17202350952148L125.41719988861084,66.92177760952148C125.51276988861083,66.82774550952148,125.68480988861084,66.82774550952148,125.78037988861084,66.92177760952148L126.83169988861084,67.95613350952148C126.92727988861084,68.05016350952148,126.92727988861084,68.21942350952149,126.83169988861084,68.31345350952148L122.51172988861084,72.56370350952149C122.39704988861084,72.65773350952148,122.24412988861084,72.65773350952148,122.14854988861084,72.56370350952149Z" fill="#C0E5F7" fill-opacity="1"/></g><g><path d="M121.09723078861084,71.20961299026489L122.14854988861084,70.17525709026489C122.24412988861084,70.08122499026489,122.41615988861084,70.08122499026489,122.51172988861084,70.17525709026489L126.83169988861084,74.42550299026489C126.92727988861084,74.5195429902649,126.92727988861084,74.68879299026489,126.83169988861084,74.7828329902649L125.78037988861084,75.8171829902649C125.68480988861084,75.91121299026489,125.51276988861083,75.91121299026489,125.41719988861084,75.8171829902649L121.09723078861084,71.56693299026489C121.00165628861085,71.4729029902649,121.00165628861085,71.30364299026489,121.09723078861084,71.20961299026489Z" fill="#C0E5F7" fill-opacity="1"/></g><g><path d="M120.42815798309326,77.15243339538574C120.42815798309326,79.07068339538574,118.84162798309326,80.61281339538574,116.91101798309326,80.61281339538574C114.98041798309326,80.61281339538574,113.39387798309326,79.05188339538574,113.39387798309326,77.15243339538574L120.42815798309326,77.15243339538574Z" fill="#C0E5F7" fill-opacity="1"/></g></g><g><g style="opacity:0.20999999344348907;"><ellipse cx="116.16549873352051" cy="100.99900913238525" rx="6.250572204589844" ry="6.149697303771973" fill="url(#master_svgo_15648_121268)" fill-opacity="1"/></g><g><ellipse cx="116.16547954082489" cy="101.14944553375244" rx="4.262622833251953" ry="4.1938300132751465" fill="#0F7CC0" fill-opacity="1"/></g><g><g><path d="M116.16556806800843,105.62533580993653C113.66151806800842,105.62533580993653,111.63533806800842,103.63185580993652,111.63533806800842,101.16821580993653C111.63533806800842,98.70457580993653,113.66151806800842,96.71109580993652,116.16556806800843,96.71109580993652C118.66961806800842,96.71109580993652,120.69579806800843,98.70457580993653,120.69579806800843,101.16821580993653C120.69579806800843,103.63185580993652,118.66961806800842,105.62533580993653,116.16556806800843,105.62533580993653ZM116.16556806800843,97.21887080993652C113.94823806800842,97.21887080993652,112.15144006800843,98.98667580993653,112.15144006800843,101.16821580993653C112.15144006800843,103.34976580993653,113.94823806800842,105.11756580993652,116.16556806800843,105.11756580993652C118.38289806800842,105.11756580993652,120.17969806800842,103.34976580993653,120.17969806800842,101.16821580993653C120.17969806800842,98.98667580993653,118.36377806800843,97.21887080993652,116.16556806800843,97.21887080993652Z" fill="url(#master_svgp_15648_121265)" fill-opacity="1"/></g></g><g><g><path d="M116.16559875381469,105.09876133483887C113.9482687538147,105.09876133483887,112.1514687538147,103.33096133483886,112.1514687538147,101.14942133483886C112.1514687538147,98.96787133483886,113.9482687538147,97.20007133483887,116.16559875381469,97.20007133483887C118.3829287538147,97.20007133483887,120.1797287538147,98.96787133483886,120.1797287538147,101.14942133483886C120.1797287538147,103.33096133483886,118.38291875381469,105.09876133483887,116.16559875381469,105.09876133483887ZM116.16559875381469,97.65142433483886C114.21587875381469,97.65142433483886,112.6102267538147,99.21235133483887,112.6102267538147,101.14942133483886C112.6102267538147,103.06767133483886,114.19675875381469,104.64741133483886,116.16559875381469,104.64741133483886C118.1344287538147,104.64741133483886,119.7209687538147,103.08648133483887,119.7209687538147,101.14942133483886C119.7209687538147,99.21235133483887,118.11531875381469,97.65142433483886,116.16559875381469,97.65142433483886Z" fill="#125597" fill-opacity="1"/></g></g><g><g><g><path d="M114.82749285469437,99.04308778924046C114.94218285469437,99.00547258924045,114.99952585469437,99.02428017924045,114.99952585469437,99.13711968924045L114.90395085469437,99.30637668924045L116.18464885469437,99.30637668924045C116.29933885469437,99.38160068924046,116.29933885469437,99.43802368924045,116.18464885469437,99.51324768924046L115.49650885469437,99.51324768924046L115.49650885469437,100.05862968924046L116.26110885469437,100.05862968924046C116.35667885469437,100.13385968924045,116.35667885469437,100.19027968924046,116.26110885469437,100.26549968924046L115.57296885469437,100.26549968924046C115.84057885469437,100.52878968924045,116.10818885469436,100.79207968924045,116.33756885469437,101.03656968924045C116.33756885469437,101.14940968924046,116.28021885469437,101.18701968924046,116.16552885469437,101.13059968924046C115.91703885469437,100.88611968924046,115.66854885469436,100.64162968924046,115.43916885469437,100.41595968924045C115.22890085469437,100.82969968924046,114.88483485469436,101.11179968924046,114.36873085469436,101.29985968924045C114.23492678069437,101.29985968924045,114.19669755469437,101.24344968924045,114.27315595469436,101.13060968924046C114.86571885469436,100.86731968924046,115.20978485469436,100.56640968924046,115.26712885469436,100.24669968924046L114.33050125469437,100.24669968924046C114.23492678069437,100.17147968924046,114.23492678069437,100.11505968924045,114.33050125469437,100.03982968924045L115.28624885469436,100.03982968924045L115.28624885469436,99.49444668924046L114.80837385469437,99.49444668924046C114.67456985469437,99.70131768924045,114.55987985469437,99.83295968924045,114.46430485469436,99.90818968924046C114.34961485469437,99.92699668924045,114.29227205469437,99.88938168924045,114.29227205469437,99.77654268924046C114.40696285469437,99.66369668924045,114.59811185469437,99.41921568924046,114.82749285469437,99.04308778924046ZM115.05687085469437,101.29985968924045L117.38888885469437,101.29985968924045C117.63737885469436,101.29985968924045,117.75206885469437,101.41269968924045,117.73295885469436,101.63836968924045L117.73295885469436,102.65391968924045C117.75206885469437,102.89839968924045,117.63737885469436,103.01123968924045,117.38888885469437,102.99242968924045L115.05687085469437,102.99242968924045C114.82749285469437,103.01123968924045,114.71280185469436,102.89839968924045,114.71280185469436,102.65391968924045L114.71280185469436,101.63836968924045C114.73191785469437,101.43149968924045,114.84660585469436,101.31865968924046,115.05687085469437,101.29985968924045ZM117.33153885469437,101.50672968924046L115.13332885469437,101.50672968924046C114.99952585469437,101.50672968924046,114.92306485469436,101.58194968924046,114.92306485469436,101.71359968924045L114.92306485469436,102.05210968924045L117.54180885469437,102.05210968924045L117.54180885469437,101.71359968924045C117.56091885469436,101.58194968924046,117.48445885469437,101.50672968924046,117.33153885469437,101.50672968924046ZM117.54180885469437,102.24017968924045L114.92306685469437,102.24017968924045L114.92306685469437,102.57868968924046C114.92306685469437,102.72913968924045,114.99952585469437,102.80436968924046,115.13333185469436,102.78555968924046L117.33154885469436,102.78555968924046C117.48446885469437,102.80436968924046,117.56092885469437,102.74794968924046,117.54180885469437,102.57868968924046L117.54180885469437,102.24017968924045ZM116.77720885469436,99.24995968924046L117.73295885469436,99.24995968924046C117.98144885469436,99.24995968924046,118.09613885469437,99.36279868924045,118.07702885469436,99.58847268924046L118.07702885469436,100.64162968924046C118.09613885469437,100.90491968924046,117.98144885469436,101.03656968924045,117.73295885469436,101.01775968924045L116.77720885469436,101.01775968924045C116.54782885469437,101.03656968924045,116.43313885469436,100.92372968924046,116.43313885469436,100.67924968924045L116.43313885469436,99.58847868924046C116.45225885469436,99.36279868924045,116.56694885469436,99.24995968924046,116.77720885469436,99.24995968924046ZM117.67560885469436,99.43802368924045L116.85366885469436,99.43802368924045C116.71986885469437,99.43802368924045,116.64340885469437,99.51324768924046,116.64340885469437,99.64489568924046L116.64340885469437,100.58521968924046C116.64340885469437,100.73566968924045,116.71985885469437,100.81089968924046,116.85366885469436,100.79208968924046L117.67560885469436,100.79208968924046C117.82852885469437,100.81089968924046,117.90498885469437,100.75446968924045,117.88587885469437,100.58521968924046L117.88587885469437,99.64489568924046C117.90498885469437,99.51324768924046,117.82852885469437,99.43802368924045,117.67560885469436,99.43802368924045Z" fill="#C0E5F7" fill-opacity="1"/></g><g><path d="M114.999462805542,103.10529334259033C114.903887805542,103.10529334259033,114.80831380554199,103.06767334259033,114.73185480554199,103.01125334259034C114.655396805542,102.93603334259033,114.598051805542,102.82319334259033,114.598051805542,102.65393334259034L114.598051805542,101.63839334259033C114.63628080554199,101.37510334259034,114.789199805542,101.22464334259033,115.03769480554199,101.20584334259033L115.05681080554199,101.20584334259033L116.031668805542,101.20584334259033L115.419998805542,100.60404334259033C115.19061880554199,100.96136334259033,114.84654880554199,101.24345334259033,114.368675805542,101.41271334259034L114.330446805542,101.41271334259034C114.21575580554199,101.41271334259034,114.139297905542,101.37509334259033,114.101068605542,101.31868334259033C114.062839405542,101.26226334259033,114.08195257554199,101.18703334259033,114.12018470554199,101.09300334259034L114.13930080554199,101.07419334259033L114.177530005542,101.05538334259033C114.655402805542,100.82970334259034,114.96124180554199,100.60403334259033,115.07592980554199,100.37835334259033L114.253988805542,100.37835334259033L114.234872805542,100.35954334259033C114.15841390554199,100.30313334259033,114.12018180554199,100.24670334259034,114.12018180554199,100.17148334259034C114.12018180554199,100.09625334259033,114.15841100554199,100.03983334259033,114.234872805542,99.98341334259034C114.177527105542,99.94580334259034,114.15841390554199,99.87057834259033,114.15841390554199,99.79535334259033L114.15841390554199,99.73893634259034L114.196642805542,99.70132134259033C114.330446805542,99.58848234259034,114.50248280554199,99.36280834259033,114.731860805542,98.98668024259034L114.750976805542,98.94906514259033L114.789205805542,98.93025754259033C114.884780805542,98.89264243259034,114.961238805542,98.89264243259034,115.01858480554199,98.93025754259033C115.07592980554199,98.96787264259034,115.09503880554199,99.02428934259034,115.09503880554199,99.11832134259033L115.09503880554199,99.15593634259034L115.075926805542,99.19355234259034L116.18458880554199,99.19355234259034L116.20370880554199,99.21235934259033C116.29927880554199,99.26877634259033,116.33750880554199,99.32519934259034,116.33750880554199,99.40042334259033C116.33750880554199,99.47564834259033,116.29927880554199,99.53207034259033,116.20370880554199,99.58848734259033L116.18458880554199,99.60729534259033L115.572908805542,99.60729534259033L115.572908805542,99.94581334259033L116.26104880554199,99.94581334259033L116.28015880554199,99.96461334259033C116.29927880554199,99.98342334259033,116.29927880554199,99.98342334259033,116.31838880554199,100.00223334259033L116.31838880554199,99.56968634259033C116.33750880554199,99.28758934259034,116.509538805542,99.13714034259033,116.75803880554199,99.13714034259033L117.71377880554199,99.13714034259033C117.86669880554199,99.13714034259033,118.000498805542,99.17475534259033,118.07695880554199,99.26878834259033C118.15341880554199,99.34401234259033,118.17253880554199,99.45685234259034,118.17253880554199,99.58849934259034L118.17253880554199,100.62285334259033C118.19164880554199,100.79211334259033,118.15341880554199,100.92375334259033,118.057848805542,100.99898334259034C117.981388805542,101.07420334259034,117.86669880554199,101.11182334259033,117.71377880554199,101.09301334259033L116.758028805542,101.09301334259033C116.62422880554199,101.11182334259033,116.509538805542,101.07420334259034,116.433078805542,100.99898334259034C116.356618805542,100.92375334259033,116.29927880554199,100.81091334259033,116.29927880554199,100.64166334259033L116.29927880554199,100.28434334259033C116.28015880554199,100.30314334259033,116.28015880554199,100.30314334259033,116.26104880554199,100.32195334259033L116.24192880554199,100.34076334259034L115.76405880554199,100.34076334259034C115.974318805542,100.54763334259033,116.16546880554199,100.75450334259033,116.33750880554199,100.94257334259034L116.356618805542,100.98018334259034L116.356618805542,101.01780334259033C116.356618805542,101.09302334259033,116.33750880554199,101.14944334259033,116.29927880554199,101.18705334259033L117.35059880554199,101.18705334259033C117.50351880554199,101.18705334259033,117.637318805542,101.22467334259034,117.71377880554199,101.31870334259033C117.79023880554199,101.39392334259033,117.80934880554199,101.50676334259033,117.80934880554199,101.63841334259033L117.80934880554199,102.63515334259033C117.82846880554199,102.78560334259033,117.79023880554199,102.89844334259033,117.71377880554199,102.97366334259033C117.637318805542,103.04889334259033,117.522628805542,103.08650334259033,117.35059880554199,103.06769334259033L115.01857880554199,103.06769334259033C115.037691805542,103.10529334259033,115.01857880554199,103.10529334259033,114.999462805542,103.10529334259033ZM114.827429805542,102.65393334259034C114.827429805542,102.72916334259033,114.846545805542,102.82319334259033,114.884774805542,102.86080334259033C114.923003805542,102.87961334259033,114.961232805542,102.89842334259033,115.01857880554199,102.89842334259033C114.980348805542,102.89842334259033,114.94211980554199,102.87961334259033,114.903887805542,102.84200334259033C114.865658805542,102.80438334259033,114.827429805542,102.72916334259033,114.827429805542,102.65393334259034ZM117.44616880554199,102.89841334259033C117.50351880554199,102.89841334259033,117.560858805542,102.89841334259033,117.599088805542,102.86080334259033C117.637318805542,102.82318334259033,117.637318805542,102.76677334259033,117.637318805542,102.71035334259034C117.637318805542,102.76677334259033,117.599088805542,102.80438334259033,117.579978805542,102.84200334259033C117.541748805542,102.86080334259033,117.50351880554199,102.87961334259033,117.44616880554199,102.89841334259033ZM115.01857880554199,102.35303334259034L115.01857880554199,102.59751334259033Q115.01857880554199,102.65393334259034,115.03769480554199,102.69154334259034Q115.05681080554199,102.71035334259034,115.09503880554199,102.69154334259034L117.312368805542,102.69154334259034Q117.38882880554199,102.69154334259034,117.40794880554199,102.69154334259034Q117.42705880554199,102.67273334259033,117.40794880554199,102.61632334259033L117.40794880554199,102.37184334259034L115.01857880554199,102.37184334259034L115.01857880554199,102.35303334259034ZM115.01857880554199,101.93929334259033L117.42705880554199,101.93929334259033L117.42705880554199,101.69480334259033Q117.42705880554199,101.63839334259033,117.42705880554199,101.61958334259033C117.42705880554199,101.60077334259033,117.38882880554199,101.60077334259033,117.33147880554199,101.60077334259033L115.13326880554199,101.60077334259033C115.05681080554199,101.60077334259033,115.03769480554199,101.61958334259033,115.03769480554199,101.69480334259033L115.03769480554199,101.93929334259033L115.01857880554199,101.93929334259033ZM115.056807805542,101.41271334259034C114.903887805542,101.43152334259034,114.827429805542,101.50674334259033,114.80831380554199,101.65719334259033L114.80831380554199,101.67600334259033C114.827429805542,101.50674334259033,114.923003805542,101.43152334259034,115.056807805542,101.41271334259034ZM117.38882880554199,101.41271334259034C117.48439880554199,101.41271334259034,117.541748805542,101.45032334259034,117.579978805542,101.50674334259033C117.599088805542,101.54436334259033,117.618198805542,101.58197334259033,117.637318805542,101.61958334259033C117.637318805542,101.54436334259033,117.618198805542,101.50674334259033,117.599088805542,101.46913334259033C117.560858805542,101.41271334259034,117.465278805542,101.41271334259034,117.38882880554199,101.41271334259034ZM115.037691805542,100.75448334259033C114.88477180554199,100.90493334259033,114.67450980554199,101.03658334259033,114.406899805542,101.16823334259033C114.67450980554199,101.05539334259034,114.88477180554199,100.92374334259033,115.037691805542,100.75448334259033ZM116.528658805542,100.66045334259033C116.528658805542,100.73568334259033,116.54776880554199,100.82971334259034,116.58599880554199,100.86732334259034C116.62422880554199,100.88613334259033,116.66245880554199,100.90494334259033,116.719798805542,100.90494334259033C116.68157880554199,100.90494334259033,116.64334880554199,100.88613334259033,116.60510880554199,100.84852334259033C116.58599880554199,100.81090334259034,116.54776880554199,100.73568334259033,116.528658805542,100.66045334259033ZM117.79023880554199,100.90493334259033C117.86669880554199,100.90493334259033,117.904928805542,100.88613334259033,117.943158805542,100.86732334259034C117.981388805542,100.82970334259034,117.981388805542,100.77329334259034,118.000498805542,100.71687334259033C118.000498805542,100.77329334259034,117.962278805542,100.81090334259034,117.943158805542,100.84852334259033C117.885808805542,100.86732334259034,117.84757880554199,100.88613334259033,117.79023880554199,100.90493334259033ZM115.38175880554199,100.24671334259033L115.95520880554199,100.81090334259034C115.80228880554199,100.64164334259033,115.649368805542,100.49119334259034,115.47733880554199,100.32193334259033L115.362648805542,100.20909334259034L115.343528805542,100.26551334259034C115.32440880554199,100.32193334259033,115.32440880554199,100.35954334259033,115.286178805542,100.41596334259033C115.286178805542,100.39715334259033,115.305298805542,100.37834334259033,115.305298805542,100.35954334259033L115.38175880554199,100.24671334259033ZM116.853608805542,99.55087834259034C116.777148805542,99.55087834259034,116.758028805542,99.56968634259033,116.758028805542,99.64491034259034L116.758028805542,100.58523334259033Q116.758028805542,100.64164334259033,116.777148805542,100.67926334259033Q116.796268805542,100.69807334259033,116.834498805542,100.67926334259033L117.675548805542,100.67926334259033Q117.75200880554199,100.67926334259033,117.77111880554199,100.67926334259033Q117.79023880554199,100.66045334259033,117.77111880554199,100.60404334259033L117.77111880554199,99.64491034259034Q117.77111880554199,99.58849334259033,117.77111880554199,99.56968634259033C117.77111880554199,99.55087834259034,117.73288880554199,99.55087834259034,117.675548805542,99.55087834259034L116.853608805542,99.55087834259034ZM114.559818805542,99.94581334259033L115.15237880554199,99.94581334259033L115.15237880554199,99.60729534259033L114.827429805542,99.60729534259033C114.73185480554199,99.75774434259033,114.63628080554199,99.87058434259033,114.559818805542,99.94581334259033ZM114.71273880554199,99.41923134259034C114.57893480554199,99.60729534259033,114.48336080554199,99.73894234259033,114.387785805542,99.83297434259033Q114.387785805542,99.83297434259033,114.40690280554199,99.83297434259033C114.46424780554199,99.77655734259034,114.55982180554199,99.68252534259034,114.712741805542,99.47565334259033L114.750970805542,99.43803834259033L114.71273880554199,99.43803834259033L114.71273880554199,99.41923134259034ZM116.777148805542,99.34400634259033C116.66245880554199,99.34400634259033,116.56687880554199,99.38162134259034,116.528658805542,99.58848734259033L116.528658805542,99.60729534259033C116.54776880554199,99.45684634259034,116.64334880554199,99.36281434259033,116.777148805542,99.34400634259033ZM117.73288880554199,99.34400634259033C117.82846880554199,99.34400634259033,117.885808805542,99.38162134259034,117.924038805542,99.43803834259033C117.943158805542,99.47565334259033,117.962268805542,99.51326334259034,117.981388805542,99.55087834259034C117.981388805542,99.47565334259033,117.962268805542,99.43803834259033,117.943158805542,99.40042934259033C117.904928805542,99.36281434259033,117.80934880554199,99.34400634259033,117.73288880554199,99.34400634259033Z" fill="#C0E5F7" fill-opacity="1"/></g></g></g></g></g><g><g><ellipse cx="115" cy="96" rx="16" ry="16" fill="url(#master_svgq_15648_121357)" fill-opacity="1"/></g><g><path d="M116.2085409918213,90.12093106964112Q116.2085409918213,90.06609106964112,116.20316099182129,90.01151106964112Q116.19778099182129,89.95694106964112,116.1870909918213,89.90315506964112Q116.1763909918213,89.84936906964111,116.16047099182128,89.79689106964112Q116.14455099182129,89.74441406964111,116.1235609918213,89.69374906964111Q116.10258099182128,89.64308406964112,116.07672099182129,89.59472006964111Q116.05087099182128,89.5463560696411,116.0204109918213,89.50075906964112Q115.98994099182129,89.45516206964112,115.95515099182128,89.41277006964111Q115.92036099182128,89.37037906964112,115.8815809918213,89.33160206964111Q115.8428109918213,89.29282406964111,115.80042099182128,89.25803506964111Q115.75802099182128,89.22324506964111,115.7124309918213,89.19277806964111Q115.66683099182129,89.16231106964112,115.61847099182128,89.13646006964112Q115.57010099182129,89.11060906964111,115.51944099182128,89.08962276964111Q115.46877099182129,89.06863666964111,115.41629099182128,89.05271766964111Q115.36382099182129,89.03679866964112,115.3100309918213,89.02610006964112Q115.25625099182129,89.01540146964112,115.20167099182129,89.01002625964111Q115.14710099182129,89.00465106964111,115.09226099182129,89.00465106964111Q115.03742099182129,89.00465106964111,114.98284099182129,89.01002625964111Q114.9282709918213,89.01540146964112,114.87448099182129,89.02610006964112Q114.8206909918213,89.03679866964112,114.7682209918213,89.05271766964111Q114.71574099182129,89.06863666964111,114.6650709918213,89.08962276964111Q114.61441099182129,89.11060906964111,114.56605099182129,89.13646006964112Q114.5176809918213,89.16231106964112,114.47208099182129,89.19277806964111Q114.42649099182128,89.22324506964111,114.38410099182128,89.25803506964111Q114.34171099182129,89.29282406964111,114.30293099182128,89.33160206964111Q114.26415099182128,89.37037906964112,114.2293609918213,89.41277006964111Q114.1945709918213,89.45516206964112,114.16410099182129,89.50075906964112Q114.1336409918213,89.5463560696411,114.10779099182129,89.59472006964111Q114.0819309918213,89.64308406964112,114.06095099182129,89.69374906964111Q114.03996099182129,89.74441406964111,114.0240409918213,89.79689206964112Q114.00812099182129,89.84936906964111,113.99743099182129,89.90315506964112Q113.98673099182129,89.95694106964112,113.98135099182129,90.01151106964112Q113.97598099182129,90.06609106964112,113.97598099182129,90.12093106964112L113.97598099182129,94.95814106964112L109.13878099182129,94.95814106964112Q109.0839409918213,94.95814106964112,109.02936099182129,94.96352106964112Q108.97478999182128,94.96889106964112,108.92100499182129,94.97959106964112Q108.86721899182129,94.99029106964112,108.8147409918213,95.00621106964111Q108.76226299182129,95.02213106964112,108.7115979918213,95.04311106964111Q108.6609339918213,95.06410106964111,108.61256999182129,95.08995106964112Q108.56420599182128,95.11580106964111,108.5186089918213,95.14627106964112Q108.47301099182128,95.17674106964111,108.43061999182129,95.21152106964111Q108.3882289918213,95.24631106964111,108.34945199182128,95.28509106964111Q108.31067399182129,95.32387106964111,108.27588499182129,95.36626106964111Q108.24109499182129,95.40865106964111,108.21062799182128,95.45425106964112Q108.1801609918213,95.49985106964111,108.1543099918213,95.54821106964111Q108.12845899182129,95.59657106964112,108.10747269182129,95.64724106964111Q108.08648659182128,95.69790106964112,108.07056759182129,95.75038106964111Q108.05464859182129,95.80286106964111,108.0439499918213,95.85664106964111Q108.0332513918213,95.9104310696411,108.02787618182128,95.96501106964111Q108.02250099182129,96.0195810696411,108.02250099182129,96.07442106964112Q108.02250099182129,96.12926106964112,108.02787618182128,96.18383106964112Q108.0332513918213,96.23841106964112,108.0439499918213,96.29219106964112Q108.05464859182129,96.34598106964111,108.07056759182129,96.39846106964112Q108.08648659182128,96.45094106964112,108.10747269182129,96.50160106964111Q108.12845899182129,96.55227106964111,108.1543099918213,96.60063106964111Q108.1801609918213,96.64899106964111,108.21062799182128,96.69459106964112Q108.24109499182129,96.74019106964111,108.27588499182129,96.78258106964111Q108.31067399182129,96.82497106964111,108.34945199182128,96.86375106964111Q108.3882289918213,96.90253106964111,108.43061999182129,96.93732106964111Q108.47301099182128,96.97210106964111,108.5186089918213,97.0025710696411Q108.56420599182128,97.03304106964111,108.61256999182129,97.0588910696411Q108.6609339918213,97.08474106964111,108.7115979918213,97.10573106964111Q108.76226299182129,97.12671106964112,108.8147409918213,97.14263106964111Q108.86721899182129,97.1585510696411,108.92100499182129,97.16925106964112Q108.97478999182128,97.1799510696411,109.02936099182129,97.1853210696411Q109.0839409918213,97.19070106964111,109.13878099182129,97.19070106964111L113.97598099182129,97.19070106964111L113.97598099182129,102.02795106964112Q113.97598099182129,102.08275106964112,113.98135099182129,102.13735106964111Q113.98673099182129,102.19185106964112,113.99743099182129,102.24565106964111Q114.00812099182129,102.29945106964111,114.0240409918213,102.35195106964112Q114.03996099182129,102.40445106964111,114.06095099182129,102.45505106964112Q114.0819309918213,102.50575106964111,114.10779099182129,102.55415106964111Q114.1336409918213,102.60245106964112,114.16410099182129,102.64805106964111Q114.1945709918213,102.6936510696411,114.2293609918213,102.73605106964112Q114.26415099182128,102.77845106964111,114.30293099182128,102.81725106964112Q114.34170099182128,102.85605106964111,114.38410099182128,102.89085106964112Q114.42649099182128,102.92555106964112,114.47208099182129,102.95605106964112Q114.5176809918213,102.98655106964111,114.5660409918213,103.01235106964111Q114.61441099182129,103.03825106964112,114.6650709918213,103.0592510696411Q114.71574099182129,103.08015106964112,114.7682209918213,103.09615106964111Q114.8206909918213,103.11205106964111,114.87448099182129,103.12275106964111Q114.9282709918213,103.13345106964111,114.98284099182129,103.1388510696411Q115.03742099182129,103.14415106964111,115.09226099182129,103.14415106964111Q115.14710099182129,103.14415106964111,115.20167099182129,103.1388510696411Q115.25625099182129,103.13345106964111,115.3100309918213,103.12275106964111Q115.36382099182129,103.11205106964111,115.41629099182128,103.09615106964111Q115.46877099182129,103.08015106964112,115.51944099182128,103.0592510696411Q115.57010099182129,103.03825106964112,115.61847099182128,103.01235106964111Q115.66683099182129,102.98655106964111,115.7124309918213,102.95605106964112Q115.75802099182128,102.92555106964112,115.80042099182128,102.89085106964112Q115.8428109918213,102.85605106964111,115.8815809918213,102.81725106964112Q115.92036099182128,102.77845106964111,115.95515099182128,102.73605106964112Q115.98994099182129,102.6936510696411,116.0204109918213,102.64805106964111Q116.05087099182128,102.60245106964112,116.07672099182129,102.55415106964111Q116.10258099182128,102.50575106964111,116.1235609918213,102.45505106964112Q116.14455099182129,102.40445106964111,116.16047099182128,102.35195106964112Q116.1763909918213,102.29945106964111,116.1870909918213,102.24565106964111Q116.19778099182129,102.19185106964112,116.20316099182129,102.13735106964111Q116.2085409918213,102.08275106964112,116.2085409918213,102.02795106964112L116.2085409918213,97.19070106964111L121.0458009918213,97.19070106964111Q121.1006009918213,97.19070106964111,121.15520099182129,97.1853210696411Q121.2097009918213,97.1799510696411,121.26350099182129,97.16925106964112Q121.31730099182128,97.1585510696411,121.3698009918213,97.14263106964111Q121.42230099182129,97.12671106964112,121.47290099182129,97.10573106964111Q121.52360099182128,97.08474106964111,121.57200099182128,97.0588910696411Q121.6203009918213,97.03304106964111,121.66590099182129,97.0025710696411Q121.71150099182128,96.97210106964111,121.7539009918213,96.93732106964111Q121.79630099182128,96.90253106964111,121.83510099182129,96.86375106964111Q121.87390099182129,96.82497106964111,121.90870099182129,96.78258106964111Q121.94340099182129,96.74019106964111,121.9739009918213,96.69459106964112Q122.00440099182129,96.64899106964111,122.03020099182129,96.60063106964111Q122.0561009918213,96.55227106964111,122.07710099182128,96.50160106964111Q122.0980009918213,96.45094106964112,122.11400099182129,96.39846106964112Q122.12990099182129,96.34598106964111,122.14060099182129,96.29219106964112Q122.15130099182129,96.23841106964112,122.15670099182128,96.18383106964112Q122.16200099182129,96.12926106964112,122.16200099182129,96.07442106964112Q122.16200099182129,96.0195810696411,122.15670099182128,95.96501106964111Q122.15130099182129,95.9104310696411,122.14060099182129,95.85664106964111Q122.12990099182129,95.80286106964111,122.11400099182129,95.75038106964111Q122.0980009918213,95.69790106964112,122.07710099182128,95.64724106964111Q122.0561009918213,95.59657106964112,122.03020099182129,95.54821106964111Q122.00440099182129,95.49985106964111,121.9739009918213,95.45425106964112Q121.94340099182129,95.40865106964111,121.90870099182129,95.36626106964111Q121.87390099182129,95.32387106964111,121.83510099182129,95.28509106964111Q121.79630099182128,95.24631106964111,121.7539009918213,95.21152106964111Q121.71150099182128,95.17674106964111,121.66590099182129,95.14627106964112Q121.6203009918213,95.11580106964111,121.57200099182128,95.08995106964112Q121.52360099182128,95.06410106964111,121.47290099182129,95.04311106964111Q121.42230099182129,95.02213106964112,121.3698009918213,95.00621106964111Q121.31730099182128,94.99029106964112,121.26350099182129,94.97959106964112Q121.2097009918213,94.96889106964112,121.15520099182129,94.96352106964112Q121.1006009918213,94.95814106964112,121.0458009918213,94.95814106964112L116.2085409918213,94.95814106964112L116.2085409918213,90.12093106964112Z" fill-rule="evenodd" fill="#FFFFFF" fill-opacity="1"/></g></g><g transform="matrix(0.9706838726997375,-0.240359827876091,0.240359827876091,0.9706838726997375,-20.311306927662372,25.895125668335822)"><ellipse cx="98.522531747818" cy="99.7974579334259" rx="2.522531747817993" ry="3.5848114490509033" fill="#FFFFFF" fill-opacity="1"/><ellipse cx="98.522531747818" cy="99.7974579334259" rx="2.522531747817993" ry="3.5848114490509033" fill="url(#master_svgr_15648_121365)" fill-opacity="1"/></g><g transform="matrix(-0.9968677759170532,-0.07908666878938675,-0.07908666878938675,0.9968677759170532,274.4080421938529,10.868026442991322)"><ellipse cx="136.123850107193" cy="100.01556658744812" rx="2.522531747817993" ry="3.61657977104187" fill="#FFFFFF" fill-opacity="1"/><ellipse cx="136.123850107193" cy="100.01556658744812" rx="2.522531747817993" ry="3.61657977104187" fill="url(#master_svgs_15648_121352)" fill-opacity="1"/></g></g></svg>