<svg xmlns="http://www.w3.org/2000/svg" xmlns:xlink="http://www.w3.org/1999/xlink" fill="none" version="1.1" width="20" height="20" viewBox="0 0 20 20"><g><g><path d="M16.256511718749998,8.421L16.256511718749998,3.748C16.25741171875,3.551071,16.18251171875,3.361336,16.047511718750002,3.218C15.91631171875,3.0789788,15.73361171875,3.000128334,15.54251171875,3L10.54651171875,3C10.35651171875,3,10.17651171875,3.078,10.04151171875,3.218C9.90647171875,3.361337,9.831651718749999,3.551071,9.83251171875,3.748L9.83251171875,8.422C9.83251171875,8.835,10.152511718749999,9.171,10.54651171875,9.171L15.54251171875,9.171C15.73251171875,9.171,15.91351171875,9.093,16.047511718750002,8.951C16.18271171875,8.80807,16.25781171875,8.61872,16.25751171875,8.422L16.256511718749998,8.421ZM9.10251171875,10.828L4.10651171875,10.828C3.71351171875,10.828,3.39351171875,11.164,3.39351171875,11.577L3.39351171875,16.25C3.39351171875,16.664,3.71351171875,17,4.1075117187500005,17L9.10251171875,17C9.498511718749999,17,9.81651171875,16.664,9.81651171875,16.250999999999998L9.81651171875,11.578C9.81651171875,11.165,9.49651171875,10.829,9.10351171875,10.829L9.10251171875,10.828ZM4.94951171875,9.472000000000001L6.89851171875,7.084L5.58251171875,7.084C5.5915117187500005,5.739,6.74451171875,4.314,7.98051171875,4.314C8.28703171875,4.31019,8.533511718749999,4.0605899999999995,8.533511718749999,3.754L8.533511718749999,3.54C8.533511718749999,3.247289,8.296221718750001,3.0100001,8.00351171875,3.0100001C5.94951171875,3.0100001,4.28551171875,4.8260000000000005,4.28551171875,7.066L4.28551171875,7.084L2.99951171875,7.084L4.94951171875,9.472000000000001ZM17.000511718749998,12.924L15.05051171875,10.538L13.10251171875,12.924L14.43851171875,12.924C14.42851171875,14.27,13.23351171875,15.642,11.99851171875,15.642C11.70541171875,15.6414,11.46751171875,15.8789,11.46751171875,16.172L11.46751171875,16.469C11.46751171875,16.762,11.70451171875,16.999000000000002,11.99751171875,16.999000000000002C14.05151171875,16.999000000000002,15.71551171875,15.183,15.71551171875,12.943L15.71551171875,12.924L17.000511718749998,12.924Z" fill="#1890FF" fill-opacity="1"/></g></g></svg>