<svg xmlns="http://www.w3.org/2000/svg" xmlns:xlink="http://www.w3.org/1999/xlink" fill="none" version="1.1" width="30" height="30" viewBox="0 0 30 30"><g><rect x="0" y="0" width="30" height="29.999998092651367" rx="3" fill="#FFFFFF" fill-opacity="1"/><rect x="0.5" y="0.5" width="29" height="28.999998092651367" rx="2.5" fill-opacity="0" stroke-opacity="1" stroke="#D8D8D8" fill="none" stroke-width="1"/><g><g><path d="M11.139269046325683,8.499998142548767Q11.356929046325684,8.499998142548767,11.511799046325685,8.654869092651367Q11.666669046325683,8.809739092651368,11.666669046325683,9.027395092651368L11.666669046325683,11.639268092651367Q11.666669046325683,11.856928092651367,11.511799046325685,12.011798092651368Q11.356929046325684,12.166668092651367,11.139269046325683,12.166668092651367L8.527396046325684,12.166668092651367Q8.309740046325684,12.166668092651367,8.154870046325684,12.011798092651368Q7.999999086243584,11.856928092651367,7.999999046325684,11.639268092651367L7.999999046325684,9.027395092651368Q7.999999046325684,8.809739092651368,8.154870046325684,8.654869092651367Q8.309740046325684,8.499998102630837,8.527396046325684,8.499998092651367L11.139269046325683,8.499998142548767Z" fill="#565859" fill-opacity="1"/></g><g><path d="M11.139269046325683,13.166665127106873Q11.356929046325684,13.166665127106873,11.511799046325685,13.321536077209473Q11.666669046325683,13.476406077209473,11.666669046325683,13.694062077209473L11.666669046325683,16.305935077209472Q11.666669046325683,16.52359507720947,11.511799046325685,16.678465077209474Q11.356929046325684,16.833335077209473,11.139269046325683,16.833335077209473L8.527396046325684,16.833335077209473Q8.309740046325684,16.833335077209473,8.154870046325684,16.678465077209474Q7.999999086243584,16.52359507720947,7.999999046325684,16.305935077209472L7.999999046325684,13.694062077209473Q7.999999046325684,13.476406077209473,8.154870046325684,13.321536077209473Q8.309740046325684,13.166665087188942,8.527396046325684,13.166665077209473L11.139269046325683,13.166665127106873Z" fill="#565859" fill-opacity="1"/></g><g><path d="M11.139269046325683,17.83333211166498Q11.356929046325684,17.83333211166498,11.511799046325685,17.988203061767578Q11.666669046325683,18.143073061767577,11.666669046325683,18.36072906176758L11.666669046325683,20.972602061767578Q11.666669046325683,21.190262061767577,11.511799046325685,21.34513206176758Q11.356929046325684,21.500002061767578,11.139269046325683,21.500002061767578L8.527396046325684,21.500002061767578Q8.309740046325684,21.500002061767578,8.154870046325684,21.34513206176758Q7.999999086243584,21.190262061767577,7.999999046325684,20.972602061767578L7.999999046325684,18.36072906176758Q7.999999046325684,18.143073061767577,8.154870046325684,17.988203061767578Q8.309740046325684,17.833332071747048,8.527396046325684,17.833332061767578L11.139269046325683,17.83333211166498Z" fill="#565859" fill-opacity="1"/></g><g><path d="M21.495636507720945,9.333331525325775Q21.703726507720948,9.333331525325775,21.85186650772095,9.464703525325776Q21.999936507720946,9.596065525325775,21.999996507720947,9.780707525325775L21.999996507720947,10.885991525325775Q21.999996507720947,11.070611525325775,21.85186650772095,11.201991525325775Q21.703806507720948,11.333361525325776,21.495636507720945,11.333331525325775L13.670860507720947,11.333331525325775Q13.462764507720948,11.333331525325775,13.314671507720947,11.201991525325775Q13.166603078320946,11.070631525325775,13.166666535688448,10.885991525325775L13.166666535688448,9.780704525325776Q13.166666535688448,9.596088525325776,13.314671507720947,9.464704525325775Q13.462739507720947,9.333342971825775,13.670860507720947,9.333331525325775L21.495636507720945,9.333331525325775Z" fill="#565859" fill-opacity="1"/></g><g><path d="M21.495636507720945,13.999999046325684Q21.703726507720948,13.999999046325684,21.85186650772095,14.131366046325684Q21.999936507720946,14.262728046325684,21.999996507720947,14.447377046325684L21.999996507720947,15.552659046325683Q21.999996507720947,15.737279046325684,21.85186650772095,15.868659046325684Q21.703806507720948,16.000019046325683,21.495636507720945,15.999999046325684L13.670860507720947,15.999999046325684Q13.462764507720948,15.999999046325684,13.314671507720947,15.868659046325684Q13.166603078320946,15.737299046325683,13.166666535688448,15.552659046325683L13.166666535688448,14.447372046325684Q13.166666535688448,14.262756046325684,13.314671507720947,14.131372046325684Q13.462739507720947,14.000010492825684,13.670860507720947,13.999999046325684L21.495636507720945,13.999999046325684Z" fill="#565859" fill-opacity="1"/></g><g><path d="M21.495636507720945,18.666665077209473Q21.703726507720948,18.666665077209473,21.85186650772095,18.79803707720947Q21.999936507720946,18.929399077209474,21.999996507720947,19.11404107720947L21.999996507720947,20.219325077209472Q21.999996507720947,20.40394507720947,21.85186650772095,20.53532507720947Q21.703806507720948,20.66669507720947,21.495636507720945,20.666665077209473L13.670860507720947,20.666665077209473Q13.462764507720948,20.666665077209473,13.314671507720947,20.53532507720947Q13.166603078320946,20.403965077209474,13.166666535688448,20.219325077209472L13.166666535688448,19.11403807720947Q13.166666535688448,18.929422077209473,13.314671507720947,18.798038077209473Q13.462739507720947,18.666676523709473,13.670860507720947,18.666665077209473L21.495636507720945,18.666665077209473Z" fill="#565859" fill-opacity="1"/></g></g></g></svg>