<svg xmlns="http://www.w3.org/2000/svg" xmlns:xlink="http://www.w3.org/1999/xlink" fill="none" version="1.1" width="18" height="18" viewBox="0 0 18 18"><g><g><g><path d="M9.15814,10.078621060119628C8.62064,9.99890756011963,7.98531,9.958085060119629,7.24697,9.958085060119629C3.980069,9.958085060119629,3,10.605447060119628,3,11.77821506011963C3,12.95098506011963,4.41085,14.142825060119629,7.28571,14.142825060119629C8.02938,14.142825060119629,8.694880000000001,14.04314506011963,9.26522,13.873065060119629Q9.05873,13.680875060119629,8.8965,13.455005060119628Q8.73428,13.22914506011963,8.62255,12.978265060119629Q8.510819999999999,12.727385060119628,8.45387,12.461095060119629Q8.39691,12.194815060119629,8.39691,11.923325060119629Q8.39691,11.670085060119629,8.44653,11.421075060119628Q8.49615,11.172055060119629,8.59373,10.935580060119628Q8.691320000000001,10.699104060119629,8.83361,10.48306106011963Q8.97589,10.26701906011963,9.15814,10.078621060119628Z" fill-rule="evenodd" fill="#C4C8CB" fill-opacity="1"/></g><g><ellipse cx="7.252918601036072" cy="6.145857334136963" rx="2.972878932952881" ry="2.760530471801758" fill="#C4C8CB" fill-opacity="1"/></g><g><path d="M12.027122134094238,14.61467219406128Q12.173172134094239,14.61467219406128,12.318512134094238,14.60138219406128Q12.463862134094239,14.588092194061279,12.607102134094237,14.561632194061279Q12.750342134094238,14.535172194061278,12.890102134094239,14.49580219406128Q13.029862134094238,14.456442194061278,13.164792134094238,14.404542194061278Q13.299722134094239,14.352642194061279,13.428522134094237,14.28871219406128Q13.557332134094239,14.22478219406128,13.678762134094239,14.14944219406128Q13.800202134094238,14.07409219406128,13.913092134094239,13.988062194061278Q14.025992134094238,13.90202219406128,14.129262134094239,13.806132194061279Q14.232532134094239,13.71024219406128,14.325192134094237,13.60540219406128Q14.417842134094238,13.500572194061279,14.498982134094238,13.38781219406128Q14.580122134094239,13.27505219406128,14.648962134094237,13.15544219406128Q14.717812134094238,13.03584219406128,14.773702134094238,12.91055219406128Q14.829592134094238,12.785262194061279,14.871992134094238,12.655482194061278Q14.91438213409424,12.52570219406128,14.942872134094237,12.39269219406128Q14.971372134094239,12.259682194061279,14.985682134094239,12.12472219406128Q15.000002134094238,11.98976219406128,15.000002134094238,11.854142194061279Q15.000002134094238,11.71852219406128,14.985682134094239,11.58356219406128Q14.971372134094239,11.44860219406128,14.942872134094237,11.31559219406128Q14.91438213409424,11.182582194061279,14.871992134094238,11.052802194061279Q14.829592134094238,10.923022194061279,14.773702134094238,10.797732194061279Q14.717812134094238,10.67244219406128,14.648962134094237,10.552842194061279Q14.580122134094239,10.43323219406128,14.498982134094238,10.32047219406128Q14.417842134094238,10.20771219406128,14.325192134094237,10.10288219406128Q14.232532134094239,9.99804819406128,14.129262134094239,9.90215319406128Q14.025992134094238,9.806258194061279,13.913092134094239,9.720224194061279Q13.800202134094238,9.63419019406128,13.678762134094239,9.558845194061279Q13.557332134094239,9.48350119406128,13.428522134094237,9.41957219406128Q13.299722134094239,9.35564319406128,13.164792134094238,9.30374519406128Q13.029862134094238,9.251847194061279,12.890102134094239,9.21248019406128Q12.750342134094238,9.17311239406128,12.607102134094237,9.14665499406128Q12.463862134094239,9.12019759406128,12.318512134094238,9.106904894061278Q12.173172134094239,9.09361219406128,12.027122134094238,9.09361219406128Q11.88107213409424,9.09361219406128,11.735732134094238,9.106904894061278Q11.590382134094238,9.12019759406128,11.44714213409424,9.14665499406128Q11.303902134094239,9.17311239406128,11.164142134094238,9.21248019406128Q11.024382134094239,9.251847194061279,10.889452134094238,9.30374519406128Q10.754522134094238,9.35564319406128,10.625712134094238,9.41957219406128Q10.496912134094238,9.48350119406128,10.375482134094238,9.558845194061279Q10.254042134094238,9.63419019406128,10.141142134094238,9.720224194061279Q10.028250134094238,9.806258194061279,9.92497813409424,9.90215319406128Q9.821706134094239,9.99804819406128,9.729054134094238,10.10288219406128Q9.636402134094238,10.20771219406128,9.555262134094239,10.32047219406128Q9.474122134094237,10.43323219406128,9.405276134094239,10.552842194061279Q9.336429134094239,10.67244219406128,9.280539134094239,10.797732194061279Q9.22464913409424,10.923022194061279,9.182253134094239,11.052802194061279Q9.139857734094239,11.182582194061279,9.111365134094239,11.31559219406128Q9.08287253409424,11.44860219406128,9.068557334094239,11.58356219406128Q9.054242134094238,11.71852219406128,9.054242134094238,11.854142194061279Q9.054242134094238,11.98976219406128,9.068557334094239,12.12472219406128Q9.08287253409424,12.259682194061279,9.111365134094239,12.39269219406128Q9.139857734094239,12.52570219406128,9.182253134094239,12.655482194061278Q9.22464913409424,12.785262194061279,9.280539134094239,12.91055219406128Q9.336429134094239,13.03584219406128,9.405276134094239,13.15544219406128Q9.474122134094237,13.27505219406128,9.555262134094239,13.38781219406128Q9.636402134094238,13.500572194061279,9.729054134094238,13.60540219406128Q9.821706134094239,13.71024219406128,9.92497813409424,13.806132194061279Q10.028250134094238,13.90202219406128,10.141142134094238,13.988062194061278Q10.254042134094238,14.07409219406128,10.375482134094238,14.14944219406128Q10.496912134094238,14.22478219406128,10.625712134094238,14.28871219406128Q10.754522134094238,14.352642194061279,10.889452134094238,14.404542194061278Q11.024382134094239,14.456442194061278,11.164142134094238,14.49580219406128Q11.303902134094239,14.535172194061278,11.44714213409424,14.561632194061279Q11.590382134094238,14.588092194061279,11.735732134094238,14.60138219406128Q11.88107213409424,14.61467219406128,12.027122134094238,14.61467219406128ZM10.783932134094238,11.44609219406128Q10.743042134094239,11.44609219406128,10.702942134094238,11.45406219406128Q10.662842134094237,11.46204219406128,10.625062134094238,11.47769219406128Q10.587292134094238,11.49334219406128,10.553292134094239,11.51605219406128Q10.519292134094238,11.538772194061279,10.490382134094238,11.56768219406128Q10.461472134094238,11.59659219406128,10.438752134094239,11.630592194061279Q10.416032134094237,11.66459219406128,10.400392134094238,11.70237219406128Q10.384742134094239,11.74014219406128,10.376762134094239,11.78024219406128Q10.36878213409424,11.820352194061279,10.36878213409424,11.86124219406128Q10.36878213409424,11.90212219406128,10.376762134094239,11.94223219406128Q10.384742134094239,11.982332194061279,10.400392134094238,12.02011219406128Q10.416032134094237,12.057882194061278,10.438752134094239,12.091882194061279Q10.461472134094238,12.12588219406128,10.490382134094238,12.15479219406128Q10.519292134094238,12.18370219406128,10.553292134094239,12.206422194061279Q10.587292134094238,12.229132194061279,10.625062134094238,12.24478219406128Q10.662842134094237,12.260432194061279,10.702942134094238,12.268412194061279Q10.743042134094239,12.276382194061279,10.783932134094238,12.276382194061279L13.240232134094239,12.276382194061279Q13.281112134094238,12.276382194061279,13.321222134094238,12.268412194061279Q13.361322134094237,12.260432194061279,13.39909213409424,12.24478219406128Q13.436872134094237,12.229132194061279,13.470872134094238,12.206422194061279Q13.504872134094239,12.18370219406128,13.533782134094238,12.15479219406128Q13.562692134094238,12.12588219406128,13.585412134094238,12.091882194061279Q13.608122134094238,12.057882194061278,13.623772134094239,12.02011219406128Q13.63942213409424,11.982332194061279,13.64740213409424,11.94223219406128Q13.65537213409424,11.90212219406128,13.65537213409424,11.86124219406128Q13.65537213409424,11.820352194061279,13.64740213409424,11.78024219406128Q13.63942213409424,11.74014219406128,13.623772134094239,11.70237219406128Q13.608122134094238,11.66459219406128,13.585412134094238,11.630592194061279Q13.562692134094238,11.59659219406128,13.533782134094238,11.56768219406128Q13.504872134094239,11.538772194061279,13.470872134094238,11.51605219406128Q13.436872134094237,11.49334219406128,13.39909213409424,11.47769219406128Q13.361322134094237,11.46204219406128,13.321222134094238,11.45406219406128Q13.281112134094238,11.44609219406128,13.240232134094239,11.44609219406128L10.783932134094238,11.44609219406128Z" fill-rule="evenodd" fill="#C4C8CB" fill-opacity="1"/></g></g></g></svg>