<svg xmlns="http://www.w3.org/2000/svg" xmlns:xlink="http://www.w3.org/1999/xlink" fill="none" version="1.1" width="30" height="30" viewBox="0 0 30 30"><g style="mix-blend-mode:passthrough"><rect x="0" y="0" width="30" height="30.000001907348633" rx="6" fill="#3B4050" fill-opacity="0.5"/><g><path d="M18.70409,16.041889046325686C20.162599999999998,16.579789046325683,21.125,17.573049046325686,21.125,19.07549904632568L21.125,20.639799046325685C21.125,21.391399046325684,20.491799999999998,21.999999046325684,19.7117,21.999999046325684L10.28834,21.999999046325684C9.507775,21.999999046325684,8.875,21.390999046325682,8.875,20.639799046325685L8.875,19.074699046325684C8.875,17.571579046325684,9.837391,16.579049046325686,11.29591,16.04115904632568C11.54422,15.949419046325684,11.82544,16.008819046325684,12.011,16.192209046325683C12.09905,16.27915904632568,12.17484,16.34915904632568,12.23916,16.402209046325684C13.00709,17.038129046325686,13.98692,17.387249046325685,15,17.385899046325683C16.04529,17.387409046325683,17.05404,17.015929046325684,17.83128,16.343259046325684C17.87722,16.303469046325684,17.93081,16.253369046325684,17.992060000000002,16.192949046325683C18.176650000000002,16.010069046325683,18.45672,15.950659046325683,18.70409,16.041889046325686ZM15,7.999999046325684C16.95142,7.999999383625684,18.533360000000002,9.522469046325684,18.533360000000002,11.400529046325683L18.533360000000002,12.966319046325683C18.533360000000002,14.844369046325683,16.95142,16.366839046325683,15,16.366839046325683C13.048580000000001,16.366839046325683,11.46664,14.844369046325683,11.46664,12.966319046325683L11.46664,11.400529046325683C11.46664,9.522469046325684,13.048580000000001,7.999999046325684,15,7.999999046325684Z" fill="#FFFFFF" fill-opacity="1"/></g></g></svg>