<svg xmlns="http://www.w3.org/2000/svg" xmlns:xlink="http://www.w3.org/1999/xlink" fill="none" version="1.1" width="20" height="20" viewBox="0 0 20 20"><defs><linearGradient x1="0.543885350227356" y1="1" x2="0.5390270352363586" y2="0" id="master_svg0_306_37192"><stop offset="0%" stop-color="#387FF7" stop-opacity="1"/><stop offset="100.00003576278687%" stop-color="#1890FF" stop-opacity="1"/></linearGradient><filter id="master_svg1_537_38159" filterUnits="objectBoundingBox" color-interpolation-filters="sRGB" x="0" y="0" width="7.452054977416992" height="7.452054977416992"><feFlood flood-opacity="0" result="BackgroundImageFix"/><feBlend mode="normal" in="SourceGraphic" in2="BackgroundImageFix" result="shape"/><feGaussianBlur in="BackgroundImage" stdDeviation="5"/><feComposite in2="SourceAlpha" operator="in" result="effect1_foregroundBlur"/><feBlend mode="normal" in="SourceGraphic" in2="effect1_foregroundBlur" result="shape"/></filter><linearGradient x1="0.11156995594501495" y1="0.053475771099328995" x2="1" y2="0.935828685760498" id="master_svg2_306_37181"><stop offset="0%" stop-color="#DFECFF" stop-opacity="0.10000000149011612"/><stop offset="100%" stop-color="#F0F6FF" stop-opacity="1"/></linearGradient></defs><g style="mix-blend-mode:passthrough"><g style="mix-blend-mode:passthrough"><g><path d="M13.777,5.417982088012695L8.79998,2.5452420880126954C8.423770000000001,2.3296685880126953,7.96143,2.3296685880126953,7.58523,2.5452420880126954L2.607375,5.417982088012695C2.232375,5.635962088012695,2.00118255,6.036422088012696,2,6.470062088012695L2,12.215532088012695C2,12.647362088012695,2.232786,13.051262088012695,2.607375,13.267662088012695L7.58441,16.140362088012694C7.96084,16.355362088012697,8.42301,16.355062088012694,8.79916,16.139562088012696L13.7762,13.266762088012696C14.1508,13.050462088012695,14.3836,12.647362088012695,14.3836,12.214712088012694L14.3836,6.470062088012695C14.3832,6.036412088012695,14.1522,5.635682088012695,13.777,5.417982088012695ZM12.7557,7.215692088012696L8.60325,9.561572088012696L8.60325,14.399162088012694C8.603259999999999,14.625462088012695,8.41977,14.808862088012695,8.19342,14.808862088012695C7.96708,14.808862088012695,7.78359,14.625462088012695,7.78359,14.399162088012694L7.78359,9.551732088012695L3.6475400000000002,7.215692088012696C3.45047,7.104102088012695,3.38118,6.8539720880126955,3.49274,6.656952088012695C3.6043000000000003,6.4599220880126955,3.85449,6.390562088012695,4.051629999999999,6.5020120880126955L8.20244,8.846252088012696L12.3524,6.5020120880126955C12.5497,6.391232088012695,12.7994,6.460412088012696,12.9114,6.656882088012695C13.0221,6.854262088012695,12.9525,7.103952088012695,12.7557,7.215692088012696Z" fill="url(#master_svg0_306_37192)" fill-opacity="1"/></g><g style="mix-blend-mode:passthrough" filter="url(#master_svg1_537_38159)"><path d="M10.547945976257324,15.616433888244629C10.547945976257324,16.721003888244628,12.547945976257324,17.61643388824463,12.547945976257324,17.61643388824463L15.999995976257324,17.61643388824463C17.104435976257324,17.61643388824463,19.104565976257327,16.72114388824463,17.999995976257324,15.616433888244629L17.999995976257324,12.164383888244629C17.999995976257324,11.05981488824463,15.999995976257324,10.164383888244629,15.999995976257324,10.164383888244629L12.547945976257324,10.164383888244629C12.547945976257324,10.164383888244629,10.547945976257324,11.05981488824463,10.547945976257324,12.164383888244629L10.547945976257324,15.616433888244629Z" fill="url(#master_svg2_306_37181)" fill-opacity="1"/><path d="M10.547945976257324,15.616433888244629C10.547945976257324,16.721003888244628,12.547945976257324,17.61643388824463,12.547945976257324,17.61643388824463L15.999995976257324,17.61643388824463C17.104435976257324,17.61643388824463,19.104565976257327,16.72114388824463,17.999995976257324,15.616433888244629L17.999995976257324,12.164383888244629C17.999995976257324,11.05981488824463,15.999995976257324,10.164383888244629,15.999995976257324,10.164383888244629L12.547945976257324,10.164383888244629C12.547945976257324,10.164383888244629,10.547945976257324,11.05981488824463,10.547945976257324,12.164383888244629L10.547945976257324,15.616433888244629Z" fill="#FE9025" fill-opacity="1"/></g><g><path d="M12.410959288007914,12.311792109436036C12.410959288007914,12.216088109436035,12.487517143774413,12.138515109436035,12.582075243774414,12.138515109436035L13.783689243774415,12.138515109436035C13.878199243774414,12.138515109436035,13.954799243774413,12.216043109436034,13.954799243774413,12.311792109436036L13.954799243774413,13.528548109436034C13.954799243774413,13.624248109436035,13.878249243774414,13.701818109436035,13.783689243774415,13.701818109436035L12.582075243774414,13.701818109436035C12.487566943774414,13.701818109436035,12.410959288007914,13.624298109436035,12.410959288007914,13.528548109436034L12.410959288007914,12.311792109436036ZM14.995189243774414,12.078164909436035C15.062009243774414,12.010498809436035,15.170309243774414,12.010452909436035,15.237179243774413,12.078164909436035L16.086869243774416,12.938542109436035C16.153679243774413,13.006208109436034,16.153709243774415,13.115888109436035,16.086869243774416,13.183588109436036L15.237179243774413,14.043958109436035C15.170359243774413,14.111658109436036,15.062059243774414,14.111688109436034,14.995189243774414,14.043958109436035L14.145509243774415,13.183588109436036C14.078689243774415,13.115928109436036,14.078639243774415,13.006245109436035,14.145509243774415,12.938547109436035L14.995189243774414,12.078164909436035ZM14.375199243774414,14.363388109436034C14.375199243774414,14.267708109436036,14.451739243774414,14.190138109436035,14.546319243774414,14.190138109436035L15.747909243774414,14.190138109436035C15.842419243774414,14.190138109436035,15.919029243774414,14.267648109436035,15.919029243774414,14.363398109436035L15.919029243774414,15.580158109436034C15.919029243774414,15.675848109436036,15.842479243774413,15.753428109436035,15.747909243774414,15.753428109436035L14.546319243774414,15.753428109436035C14.451799243774413,15.753428109436035,14.375199243774414,15.675898109436035,14.375199243774414,15.580158109436034L14.375199243774414,14.363388109436034ZM12.410959243774414,14.363388109436034C12.410959243774414,14.267708109436036,12.487517043774414,14.190138109436035,12.582075243774414,14.190138109436035L13.783689243774415,14.190138109436035C13.878199243774414,14.190138109436035,13.954799243774413,14.267648109436035,13.954799243774413,14.363398109436035L13.954799243774413,15.580158109436034C13.954799243774413,15.675848109436036,13.878249243774414,15.753428109436035,13.783689243774415,15.753428109436035L12.582075243774414,15.753428109436035C12.487566943774414,15.753428109436035,12.410959288007914,15.675898109436035,12.410959288007914,15.580158109436034L12.410959243774414,14.363388109436034Z" fill="#FFFFFF" fill-opacity="1"/></g></g></g></svg>