<svg xmlns="http://www.w3.org/2000/svg" xmlns:xlink="http://www.w3.org/1999/xlink" fill="none" version="1.1" width="20" height="20" viewBox="0 0 20 20"><g><g><g><path d="M17.5,14.700897006225587L17.5,6.583487006225586Q17.5,6.204967006225585,17.3534,5.858387006225586Q17.212,5.524057006225586,16.9545,5.266577006225586Q16.697,5.009097006225586,16.3627,4.867697006225586Q16.0161,4.721097006225586,15.6376,4.721097006225586L10.73941,4.721097006225586L9.45501,3.436697042972686L5.3623899999999995,3.436697006225586Q4.98387,3.436696822490586,4.6372800000000005,3.583290006225586Q4.302961,3.724696006225586,4.0454799999999995,3.982177006225586Q3.787999,4.239657006225586,3.646593,4.5739770062255865Q3.5,4.9205670062255855,3.5,5.2990870062255855L3.5,14.700897006225587Q3.5,15.079397006225586,3.646593,15.425997006225586Q3.788,15.760297006225587,4.045479,16.017797006225585Q4.30296,16.275297006225586,4.6372800000000005,16.416697006225586Q4.98387,16.563297006225586,5.36238,16.563297006225586L15.6376,16.563297006225586Q16.0161,16.563297006225586,16.3627,16.416697006225586Q16.697,16.275297006225586,16.9545,16.017797006225585Q17.212,15.760297006225587,17.3534,15.425997006225586Q17.5,15.079397006225586,17.5,14.700897006225587Z" fill-rule="evenodd" fill="#1890FF" fill-opacity="1"/></g><g><path d="M8.355047720108033,7.559744077003586C9.242047720108033,7.559310755225586,9.961337720108032,8.278245881225587,9.961337720108032,9.165243881225585C9.961337720108032,10.052253881225585,9.242047720108033,10.771183881225586,8.355047720108033,10.770753881225586C7.468657720108032,10.770323881225586,6.750327720108032,10.051633881225586,6.750327720108032,9.165243881225585C6.750327720108032,8.278857881225585,7.468657720108032,7.560176223225586,8.355047720108033,7.559744077003586ZM11.244957720108033,13.981763881225586L5.465137720108032,13.981763881225586L5.465137720108032,13.339563881225587C5.465138308061032,12.275523881225585,6.327708720108032,11.412953881225587,7.391747720108032,11.412953881225587L9.318347720108033,11.412953881225587C10.382387720108031,11.412953881225587,11.244957720108033,12.275523881225585,11.244957720108033,13.339563881225587L11.244957720108033,13.981763881225586ZM13.736697720108031,11.412953881225587L12.452297720108032,11.412953881225587C12.097617720108033,11.412953881225587,11.810087720108033,11.125433881225586,11.810087720108033,10.770753881225586C11.810087720108033,10.416073881225586,12.097617720108033,10.128553881225585,12.452297720108032,10.128553881225585L13.736697720108031,10.128553881225585C14.091377720108031,10.128553881225585,14.378897720108032,10.416073881225586,14.378897720108032,10.770753881225586C14.378897720108032,11.125433881225586,14.091377720108031,11.412953881225587,13.736697720108031,11.412953881225587ZM15.021097720108033,9.486353881225586L12.452297720108032,9.486353881225586C12.097617720108033,9.486353881225586,11.810087720108033,9.198823881225586,11.810087720108033,8.844143881225586C11.810087720108033,8.489469881225586,12.097617720108033,8.201945881225585,12.452297720108032,8.201945881225585L15.021097720108033,8.201945881225585C15.375777720108033,8.201945881225585,15.663337720108032,8.489469881225586,15.663337720108032,8.844143881225586C15.663337720108032,9.198823881225586,15.375777720108033,9.486353881225586,15.021097720108033,9.486353881225586Z" fill="#FFFFFF" fill-opacity="1"/></g></g></g></svg>