<svg xmlns="http://www.w3.org/2000/svg" xmlns:xlink="http://www.w3.org/1999/xlink" fill="none" version="1.1" width="16" height="16" viewBox="0 0 16 16"><g><g></g><g><g><path d="" fill="#8B8F92" fill-opacity="1"/><path d="M3.71429,2.665L7.14286,2.665Q7.20835,2.665,7.27259,2.652222Q7.33683,2.639444,7.39734,2.61438Q7.45785,2.589315,7.51231,2.552927Q7.56677,2.516539,7.61308,2.470226Q7.6594,2.4239129999999998,7.69578,2.369454Q7.73217,2.314996,7.75724,2.254484Q7.7823,2.193973,7.79508,2.129735Q7.80786,2.0654968,7.80786,2Q7.80786,1.9345032,7.79508,1.870265Q7.7823,1.806027,7.75724,1.745516Q7.73217,1.685004,7.69578,1.630546Q7.6594,1.576087,7.61308,1.529774Q7.56677,1.4834610000000001,7.51231,1.447073Q7.45785,1.410685,7.39734,1.3856199999999999Q7.33683,1.3605559999999999,7.27259,1.347778Q7.20835,1.335,7.14286,1.335L3.71429,1.335Q2.728753,1.335,2.0318767,2.0318767Q1.335,2.728753,1.335,3.71429L1.335,12.2857Q1.335,13.2712,2.0318766,13.9681Q2.728753,14.665,3.71429,14.665L12.2857,14.665Q13.2712,14.665,13.9681,13.9681Q14.665,13.2712,14.665,12.2857L14.665,8.857140000000001Q14.665,8.79165,14.6522,8.727409999999999Q14.6394,8.663170000000001,14.6144,8.60266Q14.5893,8.54215,14.5529,8.48769Q14.5165,8.43323,14.4702,8.38692Q14.4239,8.3406,14.3695,8.304210000000001Q14.315,8.26783,14.2545,8.24276Q14.194,8.2177,14.1297,8.204920000000001Q14.0655,8.19214,14,8.19214Q13.9345,8.19214,13.8703,8.204920000000001Q13.806,8.2177,13.7455,8.24276Q13.685,8.26783,13.6305,8.30422Q13.5761,8.3406,13.5298,8.38692Q13.4835,8.43323,13.4471,8.48769Q13.4107,8.54215,13.3856,8.60266Q13.3606,8.663170000000001,13.3478,8.727409999999999Q13.335,8.79165,13.335,8.857140000000001L13.335,12.2857Q13.335,12.7203,13.0277,13.0277Q12.7203,13.335,12.2857,13.335L3.71429,13.335Q3.27966,13.335,2.972329,13.0277Q2.665,12.7203,2.665,12.2857L2.665,3.71429Q2.665,3.27966,2.972329,2.972329Q3.27966,2.665,3.71429,2.665Z" fill-rule="evenodd" fill="#4F555B" fill-opacity="1"/></g><g><path d="" fill="#8B8F92" fill-opacity="1"/><path d="M14.469948125,2.47022600000013Q14.563478125,2.37669200000013,14.614098125,2.25448500000013Q14.664718125,2.1322770000001303,14.664718125,2.00000000000013Q14.664718125,1.93450320000013,14.651938125000001,1.8702650000001302Q14.639168125000001,1.8060270000001302,14.614098125,1.7455160000001302Q14.589038125,1.68500400000013,14.552648125000001,1.6305460000001302Q14.516258125,1.5760870000001301,14.469948125,1.52977400000013Q14.423628125,1.4834610000001303,14.369178125000001,1.4470730000001302Q14.314718124999999,1.41068500000013,14.254208125,1.38562000000013Q14.193698125000001,1.36055600000013,14.129458125,1.34777800000013Q14.065218125000001,1.33500000000013,13.999718125000001,1.33500000000013Q13.867448125,1.33500000000013,13.745238125,1.38562000000013Q13.623028125000001,1.43624000000013,13.529498125,1.52977400000013L13.529208125,1.53006000000013L6.672638125,8.38663000000013L6.672352125,8.38692000000013Q6.578818125,8.48045000000013,6.528198125,8.60266000000013Q6.477578125,8.72487000000013,6.477578125,8.85714000000013Q6.477578125,8.922640000000131,6.490356125,8.98688000000013Q6.503134125,9.05112000000013,6.528198125,9.11163000000013Q6.553263125,9.17214000000013,6.589651125,9.226600000000131Q6.626039125,9.28105000000013,6.672352125,9.32737000000013Q6.718665125,9.37368000000013,6.773124125,9.41007000000013Q6.827582125,9.44646000000013,6.888094125,9.47152000000013Q6.948605125,9.49659000000013,7.012843125,9.50936000000013Q7.077081325,9.52214000000013,7.142578125,9.52214000000013Q7.274855125,9.52214000000013,7.397063125,9.47152000000013Q7.519270125,9.42090000000013,7.612804125,9.32737000000013L7.613090125,9.32708000000013L14.469658124999999,2.47051200000013L14.469948125,2.47022600000013L14.469948125,2.47022600000013Z" fill-rule="evenodd" fill="#4F555B" fill-opacity="1"/></g></g></g></svg>