<svg xmlns="http://www.w3.org/2000/svg" xmlns:xlink="http://www.w3.org/1999/xlink" fill="none" version="1.1" width="20" height="20" viewBox="0 0 20 20"><g><g><path d="M12.021259817047119,5.6025100000000005Q11.867349817047119,5.6025100000000005,11.76240981704712,5.49757Q11.657469817047119,5.3926300000000005,11.587509817047119,5.25271Q11.517549817047119,5.11279,11.48256981704712,4.96588Q11.44758981704712,4.81896,11.44758981704712,4.72102L11.44758981704712,3L11.47556981704712,3Q11.601499817047118,3,11.713439817047119,3.027984Q11.82537981704712,3.055968,11.98627981704712,3.160908Q12.147189817047119,3.265848,12.378059817047118,3.45474Q12.60892981704712,3.643632,12.95872981704712,3.951456Q13.33650981704712,4.28726,13.560379817047119,4.51813Q13.784289817047119,4.7490000000000006,13.903189817047119,4.90991Q14.022089817047119,5.070819999999999,14.05008981704712,5.18275Q14.078089817047118,5.29469,14.078089817047118,5.37864L14.078089817047118,5.6025100000000005L12.021259817047119,5.6025100000000005ZM16.37278981704712,12.19275Q16.41478981704712,12.30468,16.428789817047118,12.47259Q16.442689817047118,12.64049,16.288789817047117,12.7944Q16.21888981704712,12.86437,16.16288981704712,12.92733Q16.10688981704712,12.99029,16.06498981704712,13.0323Q16.00898981704712,13.0882,15.96698981704712,13.1162L14.777689817047118,11.94089Q14.861589817047118,11.87093,14.966589817047119,11.77299Q15.07148981704712,11.67504,15.14148981704712,11.61908Q15.30938981704712,11.46516,15.50528981704712,11.48615Q15.70118981704712,11.50714,15.827089817047119,11.5771Q15.96698981704712,11.64706,16.12788981704712,11.82196Q16.288789817047117,11.99686,16.37278981704712,12.19275ZM11.433599817047119,13.494Q11.741419817047118,13.494,11.951299817047119,13.3261L9.23684981704712,16.1525L5.375059817047119,16.1525Q5.10920981704712,16.1525,4.794389817047119,15.9986Q4.479569817047119,15.8447,4.206725817047119,15.5928Q3.9338818170471193,15.341,3.751985817047119,15.0121Q3.570089817047119,14.6833,3.570089817047119,14.3335L3.570089817047119,4.80497Q3.570089817047119,4.51114,3.703013817047119,4.18932Q3.8359378170471192,3.867505,4.066805817047119,3.608653Q4.297673817047119,3.349801,4.591509817047119,3.174901Q4.885339817047119,3.000000935935,5.207149817047119,3.00000110307L10.56608981704712,3.00000110307L10.56608981704712,4.7490000000000006Q10.56608981704712,5.01485,10.650049817047119,5.3226700000000005Q10.733999817047119,5.6305,10.908899817047118,5.88935Q11.083799817047119,6.1482,11.363639817047119,6.3231Q11.643479817047119,6.498,12.035249817047118,6.498L14.078089817047118,6.498L14.078089817047118,11.12936L12.161179817047119,13.1162Q12.315089817047118,12.89235,12.315089817047118,12.6265Q12.315089817047118,12.26271,12.05623981704712,12.00386Q11.797389817047119,11.74501,11.433599817047119,11.74501L6.186599817047119,11.74501Q5.82279981704712,11.74501,5.570949817047119,12.00386Q5.31908981704712,12.26271,5.31908981704712,12.6265Q5.31908981704712,12.99029,5.570949817047119,13.2422Q5.82279981704712,13.494,6.186599817047119,13.494L11.433599817047119,13.494ZM6.186589817047119,8.247Q5.82279981704712,8.247,5.570949817047119,8.505849999999999Q5.31908981704712,8.764710000000001,5.31908981704712,9.128499999999999Q5.31908981704712,9.49229,5.570949817047119,9.744150000000001Q5.82279981704712,9.996,6.186589817047119,9.996L11.433599817047119,9.996Q11.797389817047119,9.996,12.05623981704712,9.744150000000001Q12.315089817047118,9.49229,12.315089817047118,9.128499999999999Q12.315089817047118,8.764710000000001,12.05623981704712,8.505849999999999Q11.797389817047119,8.247,11.433599817047119,8.247L6.186589817047119,8.247ZM11.46157981704712,15.257L11.643479817047119,15.0751L11.993279817047119,14.7253Q12.20315981704712,14.5154,12.455009817047118,14.2566Q12.706869817047119,13.9977,12.958719817047118,13.7459Q13.560379817047119,13.1442,14.31598981704712,12.40263L15.49128981704712,13.578L14.13408981704712,14.9352L13.630389817047119,15.4389L13.16860981704712,15.9006Q12.97271981704712,16.0965,12.83978981704712,16.2364Q12.706869817047119,16.3764,12.69287981704712,16.3903Q12.62291981704712,16.4463,12.53896981704712,16.5093Q12.455009817047118,16.572200000000002,12.371059817047119,16.6142Q12.287109817047119,16.6562,12.11220981704712,16.7192Q11.937309817047119,16.7821,11.75540981704712,16.8381Q11.573519817047119,16.8941,11.405609817047118,16.936Q11.237709817047119,16.978,11.153759817047119,16.992Q10.985849817047118,17.02,10.929889817047119,16.95Q10.873919817047119,16.8801,10.90189981704712,16.7122Q10.91588981704712,16.6282,10.957869817047118,16.4603Q10.999849817047119,16.2924,11.05580981704712,16.1175Q11.111779817047118,15.9426,11.160749817047119,15.7887Q11.20972981704712,15.6348,11.237709817047119,15.5788Q11.32165981704712,15.3969,11.46157981704712,15.257Z" fill="#1890FF" fill-opacity="1"/></g></g></svg>