<svg xmlns="http://www.w3.org/2000/svg" xmlns:xlink="http://www.w3.org/1999/xlink" fill="none" version="1.1" width="26" height="26" viewBox="0 0 26 26"><g><g><ellipse cx="13" cy="13" rx="13" ry="13" fill="#1890FF" fill-opacity="1"/></g><g><path d="M16.82909,14.04189C18.287599999999998,14.57979,19.25,15.57305,19.25,17.075499999999998L19.25,18.6398C19.25,19.3914,18.616799999999998,20,17.8367,20L8.41334,20C7.632775,20,7,19.391,7,18.6398L7,17.0747C7,15.57158,7.962391,14.57905,9.42091,14.04116C9.66922,13.94942,9.95044,14.00882,10.136,14.19221C10.22405,14.27916,10.29984,14.34916,10.36416,14.40221C11.13209,15.03813,12.11192,15.38725,13.125,15.3859C14.17029,15.38741,15.17904,15.01593,15.95628,14.34326C16.00222,14.30347,16.05581,14.25337,16.117060000000002,14.19295C16.301650000000002,14.01007,16.58172,13.95066,16.82909,14.04189ZM13.125,6C15.07642,6.0000003373,16.658360000000002,7.52247,16.658360000000002,9.40053L16.658360000000002,10.96632C16.658360000000002,12.84437,15.07642,14.36684,13.125,14.36684C11.173580000000001,14.36684,9.59164,12.84437,9.59164,10.96632L9.59164,9.40053C9.59164,7.52247,11.173580000000001,6,13.125,6Z" fill="#FFFFFF" fill-opacity="1"/></g></g></svg>