<svg xmlns="http://www.w3.org/2000/svg" xmlns:xlink="http://www.w3.org/1999/xlink" fill="none" version="1.1" width="20" height="20" viewBox="0 0 20 20"><g><g><g><path d="M12.8404515625,10.44183931942749L12.8782315625,10.42774831942749Q13.303321562499999,10.26920786502749,13.7429315625,10.26920786502749Q14.2433415625,10.26920786502749,14.7000615625,10.46252131942749Q15.1415515625,10.64939131942749,15.482471562499999,10.99031331942749Q15.823401562499999,11.331241319427491,16.0102615625,11.772731319427491Q16.2035815625,12.22944131942749,16.2035815625,12.72985131942749Q16.2035815625,13.113241319427491,16.0946115625,13.45928131942749L16.0210415625,13.69293131942749L17.0027315625,14.67462131942749Q17.2718615625,14.943751319427491,17.2718615625,15.320411319427489Q17.2718615625,15.69707131942749,17.0027315625,15.96620131942749Q16.7375215625,16.23141131942749,16.3569415625,16.23141131942749Q15.976371562499999,16.23141131942749,15.7111515625,15.96620131942749L14.7347715625,14.98982131942749L14.4993415625,15.066411319427491Q14.1179315625,15.19049131942749,13.7272815625,15.19049131942749Q13.2268715625,15.19049131942749,12.7701615625,14.99718131942749Q12.3286715625,14.810311319427491,11.9877445625,14.46939131942749Q11.6468225625,14.12847131942749,11.4599525625,13.68697131942749Q11.266638875,13.230261319427491,11.266638875,12.72985131942749Q11.2666391432,12.16233131942749,11.5228215625,11.63972131942749Q11.5245755625,11.63624131942749,11.5285195625,11.63089131942749L11.5328225625,11.62505131942749L11.5369125625,11.61907131942749Q11.5407635625,11.613431319427491,11.5456535625,11.60833131942749Q11.5856415625,11.56847131942749,11.6399095625,11.62048131942749L13.1246115625,13.10531131942749L14.2298615625,12.000061319427491L12.7920315625,10.58140931942749L12.7815815625,10.57241431942749Q12.7784215625,10.56970231942749,12.7757415625,10.56655431942749L12.7712815625,10.56133631942749L12.7666515625,10.55627331942749Q12.7243715625,10.51005031942749,12.7744115625,10.45783931942749Q12.7810815625,10.45129531942749,12.8006315625,10.44818131942749L12.8404515625,10.44183931942749Z" fill-rule="evenodd" fill="#1890FF" fill-opacity="1"/></g><g><path d="M3.728139877319336,5.2L3.728139877319336,14.8C3.728139877319336,16.015,4.713113877319336,17,5.928139877319336,17L12.887309877319336,17Q12.739699877319335,16.944200000000002,12.596729877319335,16.8774Q12.453759877319335,16.8107,12.316239877319337,16.7333Q12.178709877319337,16.655900000000003,12.047429877319336,16.5684Q11.916139877319337,16.480800000000002,11.791849877319336,16.3836Q11.667549877319335,16.2864,11.550939877319337,16.1801Q11.434339877319335,16.073700000000002,11.326099877319336,15.9589Q11.217859877319336,15.8441,11.118599877319337,15.7214Q11.019339877319336,15.5988,10.929619877319336,15.469Q10.839909877319336,15.3391,10.760259877319335,15.2029Q10.680599877319336,15.0667,10.611459877319337,14.9249Q10.542319877319336,14.783,10.484089877319336,14.6364Q10.425859877319336,14.4897,10.378869877319335,14.3391Q10.331879877319336,14.1884,10.296409877319336,14.0347Q10.260929877319336,13.8809,10.237159877319336,13.7249Q10.213399877319336,13.5689,10.201479877319336,13.4116Q10.189569877319336,13.2542,10.189569877319336,13.0964Q10.189569877319336,12.99397,10.194589877319336,12.89165Q10.199619877319336,12.78933,10.209659877319336,12.68738Q10.219699877319336,12.58543,10.234729877319335,12.4841Q10.249759877319336,12.38276,10.269749877319336,12.28229Q10.289739877319336,12.18181,10.314629877319337,12.08244Q10.339519877319336,11.98307,10.369259877319337,11.88504Q10.398989877319336,11.787,10.433509877319336,11.69055Q10.468019877319335,11.59409,10.507219877319336,11.49945Q10.546419877319336,11.4048,10.590219877319335,11.3122Q10.634029877319335,11.21959,10.682319877319337,11.12924Q10.730609877319335,11.03889,10.783269877319336,10.95103Q10.835939877319337,10.86316,10.892859877319335,10.77798Q10.949769877319337,10.6928,11.010799877319336,10.610520000000001Q11.071819877319335,10.52823,11.136809877319337,10.44904Q11.201799877319335,10.36985,11.270599877319336,10.293949999999999Q11.339389877319336,10.21804,11.411829877319336,10.14561Q11.484269877319335,10.073170000000001,11.560179877319335,10.00437Q11.636079877319336,9.93557,11.715269877319336,9.87058Q11.794459877319335,9.805589999999999,11.876739877319336,9.74457Q11.959029877319336,9.68354,12.044199877319336,9.626629999999999Q12.129379877319336,9.56972,12.217249877319336,9.517050000000001Q12.305119877319337,9.46438,12.395469877319336,9.41609Q12.485809877319335,9.367799999999999,12.578419877319336,9.324Q12.671029877319336,9.2802,12.765669877319336,9.241Q12.860319877319336,9.201789999999999,12.956769877319337,9.16728Q13.053229877319335,9.13277,13.151259877319337,9.10303Q13.249289877319336,9.07329,13.348669877319336,9.0484Q13.448039877319337,9.02351,13.548509877319336,9.00352Q13.648989877319336,8.98354,13.750339877319336,8.96851Q13.851639877319336,8.953479999999999,13.953639877319336,8.94343Q14.055539877319337,8.93339,14.157839877319336,8.928370000000001Q14.260239877319336,8.92334,14.362639877319335,8.92334Q14.815939877319336,8.92334,15.258639877319336,9.02065Q15.701239877319336,9.11797,16.112739877319335,9.308060000000001L16.112739877319335,5.2C16.112739877319335,3.9849740000000002,15.127739877319335,3,13.912739877319336,3L5.928139877319336,3C4.713113877319336,3,3.728139877319336,3.9849740000000002,3.728139877319336,5.2ZM7.0935998773193365,5.6923200000000005Q7.027309877319336,5.6923200000000005,6.962289877319336,5.7052499999999995Q6.897269877319336,5.71819,6.836019877319336,5.74356Q6.774779877319336,5.76893,6.7196598773193355,5.805759999999999Q6.664539877319336,5.8425899999999995,6.617659877319336,5.88946Q6.570789877319336,5.9363399999999995,6.533959877319337,5.99146Q6.497129877319336,6.0465800000000005,6.471759877319336,6.10782Q6.446389877319335,6.16907,6.433459877319336,6.23409Q6.420519877319336,6.299110000000001,6.420519877319336,6.3654Q6.420519877319336,6.43169,6.433459877319336,6.49671Q6.446389877319335,6.56173,6.471759877319336,6.6229700000000005Q6.497129877319336,6.68422,6.533959877319337,6.73934Q6.570789877319336,6.79446,6.617659877319336,6.841340000000001Q6.664539877319336,6.88821,6.7196598773193355,6.92504Q6.774779877319336,6.961869999999999,6.836019877319336,6.98724Q6.897269877319336,7.01261,6.962289877319336,7.02554Q7.027309877319336,7.03848,7.0935998773193365,7.03848L13.016679877319335,7.03848Q13.082969877319336,7.03848,13.147989877319336,7.02554Q13.213009877319337,7.01261,13.274249877319336,6.98724Q13.335499877319336,6.961869999999999,13.390619877319336,6.92504Q13.445739877319335,6.88821,13.492609877319335,6.841340000000001Q13.539489877319335,6.79446,13.576319877319335,6.73934Q13.613149877319335,6.68422,13.638519877319336,6.6229700000000005Q13.663889877319336,6.56173,13.676819877319335,6.49671Q13.689749877319336,6.43169,13.689749877319336,6.3654Q13.689749877319336,6.299110000000001,13.676819877319335,6.23409Q13.663889877319336,6.16907,13.638519877319336,6.10782Q13.613149877319335,6.0465800000000005,13.576319877319335,5.99146Q13.539489877319335,5.9363399999999995,13.492609877319335,5.88946Q13.445739877319335,5.8425899999999995,13.390619877319336,5.805759999999999Q13.335499877319336,5.76893,13.274249877319336,5.74356Q13.213009877319337,5.71819,13.147989877319336,5.7052499999999995Q13.082969877319336,5.6923200000000005,13.016679877319335,5.6923200000000005L7.0935998773193365,5.6923200000000005ZM6.420519877319336,8.78831Q6.420519877319336,8.72202,6.433459877319336,8.657Q6.446389877319335,8.59198,6.471759877319336,8.53074Q6.497129877319336,8.46949,6.533959877319337,8.41437Q6.570789877319336,8.35925,6.617659877319336,8.31237Q6.664539877319336,8.2655,6.7196598773193355,8.228670000000001Q6.774779877319336,8.19184,6.836019877319336,8.16647Q6.897269877319336,8.1411,6.962289877319336,8.12817Q7.027309877319336,8.11523,7.0935998773193365,8.11523L9.516679877319337,8.11523Q9.582969877319336,8.11523,9.647989877319336,8.12817Q9.712999877319337,8.1411,9.774249877319335,8.16647Q9.835499877319336,8.19184,9.890619877319336,8.228670000000001Q9.945739877319337,8.2655,9.992609877319335,8.31237Q10.039489877319337,8.35925,10.076319877319335,8.41437Q10.113149877319337,8.46949,10.138519877319336,8.53074Q10.163889877319335,8.59198,10.176819877319335,8.657Q10.189749877319336,8.72202,10.189749877319336,8.78831Q10.189749877319336,8.8546,10.176819877319335,8.91962Q10.163889877319335,8.984639999999999,10.138519877319336,9.04589Q10.113149877319337,9.10713,10.076319877319335,9.16225Q10.039489877319337,9.217369999999999,9.992609877319335,9.26425Q9.945739877319337,9.311119999999999,9.890619877319336,9.34795Q9.835499877319336,9.38478,9.774249877319335,9.41015Q9.712999877319337,9.43552,9.647989877319336,9.448450000000001Q9.582969877319336,9.46139,9.516679877319337,9.46139L7.0935998773193365,9.46139Q7.027309877319336,9.46139,6.962289877319336,9.448450000000001Q6.897269877319336,9.43552,6.836019877319336,9.41015Q6.774779877319336,9.38478,6.7196598773193355,9.34795Q6.664539877319336,9.311119999999999,6.617659877319336,9.26425Q6.570789877319336,9.217369999999999,6.533959877319337,9.16225Q6.497129877319336,9.10713,6.471759877319336,9.04589Q6.446389877319335,8.984639999999999,6.433459877319336,8.91962Q6.420519877319336,8.8546,6.420519877319336,8.78831ZM7.0935998773193365,10.53857Q7.027309877319336,10.53857,6.962289877319336,10.55151Q6.897269877319336,10.564440000000001,6.836019877319336,10.58981Q6.774779877319336,10.615179999999999,6.7196598773193355,10.65201Q6.664539877319336,10.688839999999999,6.617659877319336,10.735710000000001Q6.570789877319336,10.782589999999999,6.533959877319337,10.837710000000001Q6.497129877319336,10.89283,6.471759877319336,10.95407Q6.446389877319335,11.01532,6.433459877319336,11.08034Q6.420519877319336,11.14536,6.420519877319336,11.21165Q6.420519877319336,11.27794,6.433459877319336,11.34296Q6.446389877319335,11.40798,6.471759877319336,11.46922Q6.497129877319336,11.53047,6.533959877319337,11.58559Q6.570789877319336,11.64071,6.617659877319336,11.68759Q6.664539877319336,11.73446,6.7196598773193355,11.77129Q6.774779877319336,11.80812,6.836019877319336,11.83349Q6.897269877319336,11.85886,6.962289877319336,11.87179Q7.027309877319336,11.88473,7.0935998773193365,11.88473L9.516679877319337,11.88473Q9.582969877319336,11.88473,9.647989877319336,11.87179Q9.712999877319337,11.85886,9.774249877319335,11.83349Q9.835499877319336,11.80812,9.890619877319336,11.77129Q9.945739877319337,11.73446,9.992609877319335,11.68759Q10.039489877319337,11.64071,10.076319877319335,11.58559Q10.113149877319337,11.53047,10.138519877319336,11.46922Q10.163889877319335,11.40798,10.176819877319335,11.34296Q10.189749877319336,11.27794,10.189749877319336,11.21165Q10.189749877319336,11.14536,10.176819877319335,11.08034Q10.163889877319335,11.01532,10.138519877319336,10.95407Q10.113149877319337,10.89283,10.076319877319335,10.837710000000001Q10.039489877319337,10.782589999999999,9.992609877319335,10.735710000000001Q9.945739877319337,10.688839999999999,9.890619877319336,10.65201Q9.835499877319336,10.615179999999999,9.774249877319335,10.58981Q9.712999877319337,10.564440000000001,9.647989877319336,10.55151Q9.582969877319336,10.53857,9.516679877319337,10.53857L7.0935998773193365,10.53857ZM16.112739877319335,17L15.837939877319336,17Q15.977439877319336,16.9473,16.112739877319335,16.8848L16.112739877319335,17Z" fill-rule="evenodd" fill="#1890FF" fill-opacity="1"/></g></g></g></svg>