<svg xmlns="http://www.w3.org/2000/svg" xmlns:xlink="http://www.w3.org/1999/xlink" fill="none" version="1.1" width="20" height="20" viewBox="0 0 20 20"><g style="mix-blend-mode:passthrough"><g style="mix-blend-mode:passthrough"></g><g style="mix-blend-mode:passthrough"><g style="mix-blend-mode:passthrough"><rect x="7.5" y="3.5" width="5" height="4" rx="0.5" fill-opacity="0" stroke-opacity="1" stroke="#8B8F92" fill="none" stroke-width="1"/></g><g style="mix-blend-mode:passthrough"><rect x="2.5" y="13.5" width="3" height="3" rx="0.5" fill-opacity="0" stroke-opacity="1" stroke="#8B8F92" fill="none" stroke-width="1"/></g><g style="mix-blend-mode:passthrough"><rect x="8.5" y="13.5" width="3" height="3" rx="0.5" fill-opacity="0" stroke-opacity="1" stroke="#8B8F92" fill="none" stroke-width="1"/></g><g style="mix-blend-mode:passthrough"><rect x="14.5" y="13.5" width="3" height="3" rx="0.5" fill-opacity="0" stroke-opacity="1" stroke="#8B8F92" fill="none" stroke-width="1"/></g><g style="mix-blend-mode:passthrough"><path d="M9.5,11.5L9.5,8L10.5,8L10.5,11.5L9.5,11.5Z" fill="#8B8F92" fill-opacity="1"/></g><g style="mix-blend-mode:passthrough"><path d="M3.5,13L3.5,11Q3.5,10.37868,3.9393398,9.9393398Q4.37868,9.5,5,9.5L15,9.5Q15.6213,9.5,16.0607,9.9393399Q16.5,10.378679,16.5,11L16.5,13L15.5,13L15.5,11Q15.5,10.792894,15.3536,10.646447Q15.2071,10.5,15,10.5L5,10.5Q4.792893,10.5,4.646447,10.646447Q4.5,10.792893,4.5,11L4.5,13L3.5,13Z" fill="#8B8F92" fill-opacity="1"/></g><g style="mix-blend-mode:passthrough"><path d="M9.5,13.5L9.5,11L10.5,11L10.5,13.5L9.5,13.5Z" fill="#8B8F92" fill-opacity="1"/></g></g></g></svg>