<svg xmlns="http://www.w3.org/2000/svg" xmlns:xlink="http://www.w3.org/1999/xlink" fill="none" version="1.1" width="20" height="20" viewBox="0 0 20 20"><g><g><path d="M15.259582712554932,4.536199523162842L15.259582712554932,5.958739523162842Q15.259582712554932,6.219569523162842,15.075082712554932,6.403999523162842Q14.890682712554932,6.588429523162842,14.629882712554931,6.588429523162842Q14.368982712554931,6.588429523162842,14.184582712554931,6.403999523162842Q14.000182712554931,6.219559523162841,14.000182712554931,5.958729523162842L14.000182712554931,4.536199523162842Q14.000182712554931,4.418929523162841,13.915682712554931,4.335379523162842Q13.830582712554932,4.251129523162842,13.710182712554932,4.251129523162842L4.561592712554932,4.251129523162842Q4.441182712554932,4.251129523162842,4.356022712554932,4.335379523162842Q4.271572712554931,4.418929523162841,4.271572712554931,4.536189523162841L4.271572712554931,15.465499523162842Q4.271572712554931,15.582699523162843,4.356022712554932,15.666299523162841Q4.441182712554932,15.750499523162842,4.561592712554932,15.750499523162842L6.099262712554932,15.750499523162842Q6.358042712554932,15.750499523162842,6.541022712554932,15.933499523162842Q6.724002712554931,16.116499523162844,6.724002712554931,16.37529952316284Q6.724002712554931,16.633999523162842,6.541022712554932,16.816999523162842Q6.358042712554932,16.999999523162842,6.099262712554932,16.999999523162842L4.561592712554932,16.999999523162842Q3.9212757125549316,16.999999523162842,3.466900712554932,16.549699523162843Q3.0121827125549316,16.098999523162842,3.0121827125549316,15.463799523162843L3.0121827125549316,4.536189523162841Q3.0121827125549316,3.900022523162842,3.4669397125549315,3.449675523162842Q3.9210197125549318,2.999999523162842,4.561592712554932,2.999999523162842L13.710182712554932,2.999999523162842Q14.350682712554931,2.999999523162842,14.804782712554932,3.4496795231628417Q15.259582712554932,3.900030523162842,15.259582712554932,4.536199523162842ZM5.200172712554932,6.691909523162842Q5.200172712554932,6.448139523162842,5.372542712554932,6.275769523162841Q5.544912712554932,6.103389523162842,5.788692712554932,6.103389523162842L7.5637527125549315,6.103389523162842Q7.807522712554932,6.103389523162842,7.9799027125549316,6.275769523162841Q8.152272712554932,6.448139523162842,8.152272712554932,6.691909523162842Q8.152272712554932,6.935679523162841,7.9799027125549316,7.108059523162842Q7.807522712554932,7.280429523162842,7.5637527125549315,7.280429523162842L5.788692712554932,7.280429523162842Q5.544912712554932,7.280429523162842,5.372542712554932,7.108059523162842Q5.200172712554932,6.935679523162841,5.200172712554932,6.691909523162842ZM16.68828271255493,13.976599523162841L16.688382712554933,13.976899523162842Q16.86358271255493,14.358099523162842,16.960882712554934,14.760599523162842Q17.066882712554932,15.199499523162842,16.755782712554932,15.537599523162841Q16.45768271255493,15.861499523162841,15.998882712554932,15.861499523162841L15.90278271255493,15.861499523162841L15.90278271255493,15.858199523162842L8.488132712554933,15.858199523162842L8.488132712554933,15.861499523162841L8.387182712554932,15.861499523162841Q7.9297927125549315,15.861499523162841,7.633282712554932,15.546899523162843Q7.322242712554932,15.216799523162841,7.424962712554931,14.780799523162841L7.424962712554931,14.676199523162841L7.449462712554932,14.676199523162841Q7.541852712554932,14.323699523162842,7.700982712554931,13.974999523162841Q8.076812712554933,13.157299523162841,8.757562712554932,12.527329523162841Q9.617172712554932,11.735449523162842,10.747582712554932,11.412349523162842Q10.349052712554933,11.114859523162842,10.098892712554932,10.674909523162842Q9.785682712554932,10.12408952316284,9.785682712554932,9.486649523162843Q9.785682712554932,8.99674952316284,9.974852712554931,8.549179523162842Q10.157592712554932,8.116829523162842,10.490792712554931,7.783469523162842Q10.824072712554932,7.450009523162842,11.256422712554931,7.267119523162842Q11.704192712554931,7.077699523162842,12.194612712554932,7.077699523162842Q12.685032712554932,7.077699523162842,13.132782712554931,7.267119523162842Q13.565182712554932,7.450009523162842,13.898482712554932,7.783469523162842Q14.231682712554932,8.116829523162842,14.414382712554932,8.549179523162842Q14.603582712554932,8.99674952316284,14.603582712554932,9.486649523162843Q14.603582712554932,10.124079523162841,14.290382712554932,10.674909523162842Q14.040182712554932,11.114859523162842,13.641682712554932,11.412349523162842Q14.772082712554932,11.735449523162842,15.631782712554932,12.527359523162842Q16.31558271255493,13.157799523162842,16.68828271255493,13.976599523162841ZM5.200172712554932,10.370729523162842Q5.200172712554932,10.126959523162842,5.372542712554932,9.954589523162841Q5.544912712554932,9.78221952316284,5.788692712554932,9.78221952316284L7.5637527125549315,9.78221952316284Q7.807522712554932,9.78221952316284,7.9799027125549316,9.954589523162841Q8.152272712554932,10.126959523162842,8.152272712554932,10.370729523162842Q8.152272712554932,10.614509523162841,7.9799027125549316,10.786879523162842Q7.807522712554932,10.959249523162843,7.5637527125549315,10.959249523162843L5.788692712554932,10.959249523162843Q5.544912712554932,10.959249523162843,5.372542712554932,10.786879523162842Q5.200172712554932,10.614509523162841,5.200172712554932,10.370729523162842Z" fill-rule="evenodd" fill="#1890FF" fill-opacity="1"/></g></g></svg>