<svg xmlns="http://www.w3.org/2000/svg" xmlns:xlink="http://www.w3.org/1999/xlink" fill="none" version="1.1" width="332" height="132" viewBox="0 0 332 132"><defs><clipPath id="master_svg0_2779_097378"><rect x="0" y="0" width="332" height="132" rx="8"/></clipPath><linearGradient x1="0.26800668239593506" y1="0.320206880569458" x2="0.8255823254585266" y2="0.8650802969932556" id="master_svg1_84_40218"><stop offset="0%" stop-color="#FFFFFF" stop-opacity="0.30000001192092896"/><stop offset="80.94673156738281%" stop-color="#FFFFFF" stop-opacity="0"/></linearGradient><linearGradient x1="0.16166284680366516" y1="0.9309004545211792" x2="0.9308539628982544" y2="0.21275737881660461" id="master_svg2_84_32130"><stop offset="0%" stop-color="#FFFFFF" stop-opacity="1"/><stop offset="100%" stop-color="#FFFFFF" stop-opacity="0.20000000298023224"/></linearGradient><linearGradient x1="0.8745774626731873" y1="0.06145757809281349" x2="0.6862834692001343" y2="0.28233930468559265" id="master_svg3_84_001574"><stop offset="0%" stop-color="#EA835A" stop-opacity="1"/><stop offset="100%" stop-color="#BE562D" stop-opacity="1"/></linearGradient><linearGradient x1="0.05216223746538162" y1="0.06070341169834137" x2="0.929478108882904" y2="0.9114990234375" id="master_svg4_84_97576"><stop offset="0%" stop-color="#FFBDA2" stop-opacity="1"/><stop offset="100%" stop-color="#FF8E61" stop-opacity="1"/></linearGradient><linearGradient x1="0.5" y1="-3.0616171314629196e-17" x2="0.5" y2="0.8270935416221619" id="master_svg5_140_64376"><stop offset="0%" stop-color="#FCD2C2" stop-opacity="1"/><stop offset="100%" stop-color="#F6A787" stop-opacity="1"/></linearGradient><linearGradient x1="0.6625572443008423" y1="0.8915576338768005" x2="0" y2="0.2696954607963562" id="master_svg6_84_98608"><stop offset="0%" stop-color="#FFBDA2" stop-opacity="1"/><stop offset="100.00026226043701%" stop-color="#FF8E61" stop-opacity="1"/></linearGradient><linearGradient x1="1" y1="0.5" x2="0.08712295442819595" y2="0.38995927572250366" id="master_svg7_84_000479"><stop offset="0%" stop-color="#77AAFF" stop-opacity="1"/><stop offset="100%" stop-color="#B1CEFF" stop-opacity="1"/></linearGradient><linearGradient x1="0.5" y1="0.761406660079956" x2="0.3949771821498871" y2="0.23370277881622314" id="master_svg8_84_000481"><stop offset="0%" stop-color="#FF8A5A" stop-opacity="1"/><stop offset="100%" stop-color="#FF9368" stop-opacity="1"/></linearGradient><linearGradient x1="0.15305277705192566" y1="0.15381279587745667" x2="0.8640130758285522" y2="0.8336416482925415" id="master_svg9_84_91418"><stop offset="0%" stop-color="#E77C51" stop-opacity="1"/><stop offset="100%" stop-color="#F98F64" stop-opacity="1"/></linearGradient><radialGradient cx="0" cy="0" r="1" gradientUnits="userSpaceOnUse" id="master_svga_84_99611" gradientTransform="translate(309.3097252994776 114.10541784763336) rotate(156.9796239929753) scale(12.511762543384416 12.511762543384416)"><stop offset="0%" stop-color="#FFBDA2" stop-opacity="1"/><stop offset="100.00001192092896%" stop-color="#FF8E61" stop-opacity="1"/></radialGradient><radialGradient cx="0" cy="0" r="1" gradientUnits="userSpaceOnUse" id="master_svgb_84_99547" gradientTransform="translate(213.2701416038633 24.758056468333848) rotate(157.01141880116265) scale(21.681478977138642 21.714951459248006)"><stop offset="0%" stop-color="#FFBDA2" stop-opacity="1"/><stop offset="100.00001192092896%" stop-color="#FF8E61" stop-opacity="1"/></radialGradient></defs><g style="mix-blend-mode:passthrough" clip-path="url(#master_svg0_2779_097378)"><rect x="0" y="0" width="332" height="132" rx="8" fill="#ED865C" fill-opacity="1"/><g style="mix-blend-mode:passthrough"><ellipse cx="35.5" cy="26.5" rx="70.5" ry="70.5" fill="url(#master_svg1_84_40218)" fill-opacity="1"/></g><g style="mix-blend-mode:passthrough"><path d="M197.00012578125,71C164.00023578125,71,153.00012578125,117.5,171.00023578125,137.5L335.49992578125,137.5L335.49992578125,-1.5L305.49992578125,-4.5Q265.49992578125,1.5,259.50022578125,35C253.50022578124998,68.5,230.00002578125,71,197.00012578125,71Z" fill="url(#master_svg2_84_32130)" fill-opacity="0.20000000298023224"/></g><g><g><path d="M292.64490703125,103.06062695922851L259.16064703125,116.03132695922852L251.26220703125,112.57312695922852L251.26220703125,43.566226959228516L297.62290703125,54.872926959228515L292.64490703125,103.06062695922851Z" fill-rule="evenodd" fill="#C15A31" fill-opacity="1"/></g><g><path d="M251.26244140625,112.57312695922852L218.55784140625,101.88362695922851L214.06494140625,54.195926959228515L251.26244140625,43.566226959228516L251.26244140625,112.57312695922852Z" fill-rule="evenodd" fill="url(#master_svg3_84_001574)" fill-opacity="1"/></g><g><path d="M214.06494140625,54.195899963378906L214.06494140625,103.38879996337891C214.06494140625,104.2475999633789,214.61318140625,105.0104999633789,215.42712140625,105.28439996337892L259.16084140625003,119.99999996337891L259.16094140625,67.66139996337891L214.06494140625,54.195899963378906Z" fill-rule="evenodd" fill="url(#master_svg4_84_97576)" fill-opacity="1"/></g><g><g><path d="M224.755859375,85.76051034912109C224.755859375,86.3782803491211,225.148325375,86.92782034912109,225.732675375,87.1282703491211L240.188559375,92.0870103491211C241.133759375,92.41125034912109,242.117359375,91.7088503491211,242.117359375,90.7095403491211C242.117359375,90.08666034912109,241.721159375,89.53275034912109,241.131759375,89.3314403491211L226.669189375,84.3921213491211C225.730949375,84.07168834912109,224.755859375,84.76906034912109,224.755859375,85.76051034912109" fill="#FFFAF4" fill-opacity="0.30000001192092896"/></g></g><g><g><path d="M296.9579,32.2712C296.42560000000003,33.9721,295.4848,35.5178,294.217,36.774100000000004C293.8449,37.1496,293.4448,37.4964,293.0201,37.8116C292.741,38.0285,292.44759999999997,38.226600000000005,292.142,38.4045C291.8374,38.5907,291.523,38.7603,291.2,38.9127C290.7185,39.1496,290.2188,39.347899999999996,289.7057,39.5056C288.6413,39.833,287.5336,39.9995,286.41949999999997,39.9996L284.3657,39.9996L284.3658,77.297L227,77.297L227,27.84597C227.00933122,25.23758,228.05321,22.73867,229.90398,20.89426C231.75476,19.04983,234.26227,18.00953276,236.87966,18L286.3913,18C287.7704,17.99494429,289.1379,18.251233,290.421,18.755426C290.7769,18.892954,291.1245,19.05084,291.4621,19.2283C291.632,19.313,291.795,19.40475,291.9578,19.50356C292.0917,19.576810000000002,292.22180000000003,19.65691,292.3473,19.74353C293.0165,20.16528,293.6366,20.66003,294.1958,21.21862C294.9467,21.968519999999998,295.5859,22.82179,296.0939,23.7524C296.4372,24.379559999999998,296.7171,25.039189999999998,296.9295,25.72154L297.0783,26.25089C297.1698,26.6045,297.2431,26.96259,297.2978,27.32368C297.3931,27.87639,297.4452,28.4356,297.4536,28.9964C297.4536,30.1066,297.2864,31.2105,296.9579,32.2712Z" fill="url(#master_svg5_140_64376)" fill-opacity="1"/></g><g><path d="M297.2501484375,29.076738050460815C297.2501484375,30.189538050460815,297.0810484375,31.296038050460815,296.7488484375,32.35933805046081C296.5291484375,33.04163805046082,296.2462484375,33.70243805046081,295.9036484375,34.333238050460814C295.3850484375,35.264738050460814,294.7364484375,36.11973805046081,293.9770584375,36.87303805046082C293.6007484375,37.24943805046081,293.1960984375,37.59703805046081,292.7666684375,37.91303805046081C292.4801784375,38.12533805046081,292.1865684375,38.316338050460814,291.8785984375,38.50733805046082C291.5705584375,38.693938050460815,291.2525884375,38.86393805046082,290.9260484375,39.016738050460816C290.4377584375,39.25113805046082,289.9326484375,39.44983805046081,289.4148484375,39.61103805046082C288.3383884375,39.939238050460816,287.2182084375,40.10623805046082,286.0916484375,40.10623805046082L284.0146484375,40.10623805046082L284.0146484375,27.923538050460813C284.0192220075,25.975328050460817,284.6053284375,24.071718050460817,285.6996384375,22.450918050460814C286.7939384375,20.830108050460815,288.3478184375,19.564074050460814,290.1668684375,18.811238050460815C290.5249684375,18.952733050460814,290.8830784375,19.108379050460815,291.2196884375,19.285248050460815C291.3915784375,19.370145050460817,291.5563084375,19.462116050460814,291.7210384375,19.561163050460816C291.8564484375,19.634587050460816,291.9879384375,19.714873050460817,292.1149484375,19.801701050460814C292.7916984375,20.224458050460814,293.4187284375,20.720398050460815,293.9842484375,21.280328050460817C294.7435484375,22.032018050460817,295.3899484375,22.887328050460816,295.9036484375,23.820168050460815C296.2479484375,24.450238050460815,296.5309484375,25.111148050460816,296.7488484375,25.794028050460817L296.8992484375,26.324628050460817C296.9924484375,26.678948050460814,297.0665484375,27.037908050460814,297.1212484375,27.399988050460813C297.2079484375,27.954778050460817,297.2510484375,28.515338050460816,297.2501484375,29.076738050460815Z" fill="url(#master_svg6_84_98608)" fill-opacity="1"/></g><g><path d="M272.9334302215576,51.46356964111328L249.48386022155762,51.46356964111328C248.87445322155762,51.46356964111328,248.38043022155762,52.135139641113284,248.38043022155762,52.96356964111328C248.38043022155762,53.79198964111328,248.87445322155762,54.46356964111328,249.48386022155762,54.46356964111328L272.9334302215576,54.46356964111328C273.54293022155764,54.46356964111328,274.0369302215576,53.79198964111328,274.0369302215576,52.96356964111328C274.0369302215576,52.135139641113284,273.54293022155764,51.46356964111328,272.9334302215576,51.46356964111328Z" fill="#FFFFFF" fill-opacity="0.800000011920929"/></g><g><path d="M257.11754793548585,40.10623741149902L236.18177693548583,40.10623741149902C235.72159793548585,40.10623741149902,235.34854793548584,40.62350041149902,235.34854793548584,41.261577411499026L235.34854793548584,41.95089741149902C235.34854793548584,42.58896741149903,235.72159793548585,43.10623741149902,236.18177693548583,43.10623741149902L257.11754793548585,43.10623741149902C257.57764793548586,43.10623741149902,257.9507479354858,42.58896741149903,257.9507479354858,41.95089741149902L257.9507479354858,41.261577411499026C257.9507479354858,40.62350041149902,257.57764793548586,40.10623741149902,257.11754793548585,40.10623741149902Z" fill="#FFFFFF" fill-opacity="0.800000011920929"/></g><g><path d="M243.86681793548584,51.46356964111328L236.40060793548585,51.46356964111328C235.81957093548584,51.46356964111328,235.34854793548584,52.135139641113284,235.34854793548584,52.96356964111328C235.34854793548584,53.79198964111328,235.81957093548584,54.46356964111328,236.40060793548585,54.46356964111328L243.86681793548584,54.46356964111328C244.44781793548583,54.46356964111328,244.91883793548584,53.79198964111328,244.91883793548584,52.96356964111328C244.91883793548584,52.135139641113284,244.44781793548583,51.46356964111328,243.86681793548584,51.46356964111328Z" fill="#FFFFFF" fill-opacity="0.800000011920929"/></g></g><g><g><path d="M224.755859375,96.69319989746094C224.755859375,97.31579989746093,225.153627375,97.86878989746094,225.743899375,98.06678989746094L237.171159375,101.90007989746094C238.180959375,102.23882989746093,239.225459375,101.48747989746094,239.225459375,100.42236989746094C239.225459375,99.74210989746094,238.784259375,99.14041989746093,238.135559375,98.93586989746093L226.640339375,95.31144589746094C225.706676375,95.01706189746093,224.755859375,95.71422889746094,224.755859375,96.69319989746094" fill="#FFFAF4" fill-opacity="0.30000001192092896"/></g></g><g><path d="M259.16064453125,67.66134769287109L259.16064453125,120.00004769287109L296.29204453125,106.81704769287109C297.08984453125,106.53374769287109,297.62294453125,105.7788476928711,297.62294453125,104.9322476928711L297.62284453125,54.872947692871094L259.16064453125,67.66134769287109Z" fill-rule="evenodd" fill="#E57548" fill-opacity="1"/></g><g><path d="M259.16064453125,67.66134769287109L264.43801453125,88.7543476928711C264.73416453125,89.9380476928711,266.01206453125,90.5829476928711,267.14020453125,90.1180476928711L297.62294453125,77.5566476928711L297.62284453125,54.872947692871094L259.16064453125,67.66134769287109Z" fill-rule="evenodd" fill="#D56F46" fill-opacity="1"/></g><g><path d="M259.16064453125,67.66134769287109L267.73179453125,84.96054769287109C268.19867453125,85.9029476928711,269.31554453125,86.3226476928711,270.28754453125,85.9211476928711L304.86914453125,71.6351476928711C305.99384453125,71.1705476928711,306.44644453125,69.81764769287109,305.82774453125,68.7698476928711L297.62284453125,54.872947692871094L259.16064453125,67.66134769287109Z" fill-rule="evenodd" fill="url(#master_svg7_84_000479)" fill-opacity="1"/><path d="M259.16064453125,67.66134769287109L267.73179453125,84.96054769287109C268.19867453125,85.9029476928711,269.31554453125,86.3226476928711,270.28754453125,85.9211476928711L304.86914453125,71.6351476928711C305.99384453125,71.1705476928711,306.44644453125,69.81764769287109,305.82774453125,68.7698476928711L297.62284453125,54.872947692871094L259.16064453125,67.66134769287109Z" fill-rule="evenodd" fill="url(#master_svg8_84_000481)" fill-opacity="1"/></g><g><path d="M214.06494491616,54.195899963378906L214.06494140625,75.7573999633789L259.15834140625,91.24089996337891L259.15834140625,67.66139996337891L214.06494491616,54.195899963378906Z" fill-rule="evenodd" fill="#D56F46" fill-opacity="1"/></g><g><path d="M214.06484,54.195899963378906L206.35695,66.6627999633789C205.669631,67.7744999633789,206.21586,69.2358999633789,207.46384,69.62419996337891L253.2533,83.87239996337891C254.3663,84.2187999633789,255.5385,83.54369996337891,255.7975,82.4071999633789L259.1582,67.66139996337891L214.06484,54.195899963378906Z" fill-rule="evenodd" fill="url(#master_svg9_84_91418)" fill-opacity="1"/></g></g><g><path d="M322,112L321.8805,113.27707L321.5629,114.4483L321.0439,115.5341L320.3473,116.5141L319.5141,117.3473L318.5341,118.04390000000001L317.44829,118.5629L316.27707,118.8805L315,119L313.72293,118.8805L312.55171,118.5629L311.46586,118.04390000000001L310.48586,117.3473L309.65269,116.5141L308.956093,115.5341L308.437083,114.4483L308.119504,113.27707L308,112L308.119504,110.72293L308.437083,109.5517L308.956093,108.46585L309.65269,107.48585L310.48586,106.65268L311.46586,105.956093L312.55171,105.437073L313.72293,105.119514L315,105L316.27707,105.119514L317.44829,105.437073L318.5341,105.956093L319.5141,106.65268L320.3473,107.48585L321.0439,108.46585L321.5629,109.5517L321.8805,110.72293L322,112Z" fill="url(#master_svga_84_99611)" fill-opacity="1"/></g><g><path d="M235.2661,21.1144L235.2002,22.3737L235.01749999999998,23.5731L234.7209,24.724800000000002L234.3135,25.8285L233.7952,26.8964L233.193,27.8924L232.498,28.8167L231.7131,29.6812L230.8473,30.4649L229.9216,31.1588L228.924,31.7601L227.8545,32.2775L226.749,32.6843L225.5956,32.9805L224.3943,33.1629L223.1331,33.2287L221.8718,33.1629L220.67052,32.9805L219.51711,32.6843L218.41166,32.2775L217.34215,31.7601L216.34455,31.1588L215.41883,30.4649L214.55304,29.6812L213.76813,28.8167L213.0731,27.8924L212.47094,26.8964L211.952669,25.8285L211.545242,24.724800000000002L211.248658,23.5731L211.0658993,22.3737L211,21.1144L211.0658993,19.8551L211.248658,18.6556L211.545242,17.50399L211.952669,16.40023L212.47094,15.33238L213.0731,14.3363L213.76813,13.41202L214.55304,12.54756L215.41883,11.76387L216.34455,11.06992L217.34215,10.468679999999999L218.41166,9.9512L219.51711,9.544401L220.67052,9.248266L221.8718,9.0658068L223.1331,9L224.3913,9.0658068L225.5956,9.248266L226.749,9.544401L227.8545,9.9512L228.924,10.468679999999999L229.9216,11.06992L230.8473,11.76387L231.7131,12.54756L232.498,13.41202L233.193,14.3363L233.7952,15.33238L234.3135,16.40023L234.7209,17.50399L235.01749999999998,18.6556L235.2002,19.8551L235.2661,21.1144Z" fill="url(#master_svgb_84_99547)" fill-opacity="1"/></g></g></svg>