<svg xmlns="http://www.w3.org/2000/svg" xmlns:xlink="http://www.w3.org/1999/xlink" fill="none" version="1.1" width="332" height="132" viewBox="0 0 332 132"><defs><clipPath id="master_svg0_2779_097335"><rect x="0" y="0" width="332" height="132" rx="8"/></clipPath><linearGradient x1="0.26800668239593506" y1="0.320206880569458" x2="0.8255823254585266" y2="0.8650802969932556" id="master_svg1_84_40212"><stop offset="0%" stop-color="#FFFFFF" stop-opacity="0.4000000059604645"/><stop offset="80.94673156738281%" stop-color="#FFFFFF" stop-opacity="0"/></linearGradient><linearGradient x1="0.16166284680366516" y1="0.9309004545211792" x2="0.9308539628982544" y2="0.21275737881660461" id="master_svg2_84_32130"><stop offset="0%" stop-color="#FFFFFF" stop-opacity="1"/><stop offset="100%" stop-color="#FFFFFF" stop-opacity="0.20000000298023224"/></linearGradient><linearGradient x1="0.885746955871582" y1="0.08083511888980865" x2="0.23795346915721893" y2="1" id="master_svg3_84_72929"><stop offset="0%" stop-color="#37B1FA" stop-opacity="1"/><stop offset="100%" stop-color="#1095E5" stop-opacity="1"/></linearGradient><linearGradient x1="0.6515586972236633" y1="0.0392729751765728" x2="0.09801412373781204" y2="0.8769298791885376" id="master_svg4_84_73280"><stop offset="0%" stop-color="#DDF2FF" stop-opacity="1"/><stop offset="17.85714477300644%" stop-color="#9DD6FD" stop-opacity="1"/><stop offset="100%" stop-color="#25A9F9" stop-opacity="1"/></linearGradient><linearGradient x1="0.6634441614151001" y1="0.2440260946750641" x2="0.32070791721343994" y2="0.9221392869949341" id="master_svg5_140_61380"><stop offset="0%" stop-color="#C4E9FF" stop-opacity="1"/><stop offset="100%" stop-color="#56BEFD" stop-opacity="1"/></linearGradient><linearGradient x1="0.2801654040813446" y1="0.4431920349597931" x2="0.6619532108306885" y2="0.5595053434371948" id="master_svg6_84_70441"><stop offset="0%" stop-color="#9DD6FD" stop-opacity="1"/><stop offset="99.99997615814209%" stop-color="#1D99E4" stop-opacity="1"/></linearGradient><linearGradient x1="0.3767091929912567" y1="0.5254109501838684" x2="0.6129693984985352" y2="0.6384101510047913" id="master_svg7_140_61720"><stop offset="0%" stop-color="#9FC3FF" stop-opacity="1"/><stop offset="100%" stop-color="#498EFF" stop-opacity="1"/></linearGradient><linearGradient x1="0.2580457925796509" y1="0.4211210608482361" x2="0.6722409129142761" y2="0.6070584058761597" id="master_svg8_140_61722"><stop offset="0%" stop-color="#C4E9FF" stop-opacity="1"/><stop offset="99.99988079071045%" stop-color="#56BEFD" stop-opacity="1"/></linearGradient><linearGradient x1="0.6634441614151001" y1="0.2440260946750641" x2="0.32070791721343994" y2="0.9221392869949341" id="master_svg9_140_61597"><stop offset="0%" stop-color="#C4E9FF" stop-opacity="1"/><stop offset="100%" stop-color="#56BEFD" stop-opacity="1"/></linearGradient><linearGradient x1="0.5" y1="0" x2="0.5" y2="1" id="master_svga_84_64964"><stop offset="0%" stop-color="#F2F5FE" stop-opacity="1"/><stop offset="100%" stop-color="#E5EFFF" stop-opacity="1"/></linearGradient><radialGradient cx="0" cy="0" r="1" gradientUnits="userSpaceOnUse" id="master_svgb_84_72200" gradientTransform="translate(274.6494141790181 36.220839268477334) rotate(10.808366928382043) scale(14.54365052971221 14.56610342984296)"><stop offset="0%" stop-color="#DDF2FF" stop-opacity="1"/><stop offset="0%" stop-color="#DDF2FF" stop-opacity="1"/><stop offset="99.99992251396179%" stop-color="#56BEFD" stop-opacity="1"/></radialGradient><radialGradient cx="0" cy="0" r="1" gradientUnits="userSpaceOnUse" id="master_svgc_84_73313" gradientTransform="translate(312.83628314733505 109.5279027223587) rotate(10.824659253671044) scale(8.391204275860796 8.391204275860796)"><stop offset="0%" stop-color="#DDF2FF" stop-opacity="1"/><stop offset="0%" stop-color="#DDF2FF" stop-opacity="1"/><stop offset="99.99992251396179%" stop-color="#56BEFD" stop-opacity="1"/></radialGradient></defs><g style="mix-blend-mode:passthrough" clip-path="url(#master_svg0_2779_097335)"><rect x="0" y="0" width="332" height="132" rx="8" fill="#51BCFD" fill-opacity="1"/><g style="mix-blend-mode:passthrough"><ellipse cx="40.5" cy="26.5" rx="70.5" ry="70.5" fill="url(#master_svg1_84_40212)" fill-opacity="1"/></g><g style="mix-blend-mode:passthrough"><path d="M197.00012578125,71C164.00023578125,71,153.00012578125,117.5,171.00023578125,137.5L335.49992578125,137.5L335.49992578125,-1.5L305.49992578125,-4.5Q265.49992578125,1.5,259.50022578125,35C253.50022578124998,68.5,230.00002578125,71,197.00012578125,71Z" fill="url(#master_svg2_84_32130)" fill-opacity="0.20000000298023224"/></g><g><g style="mix-blend-mode:passthrough"><g><g><path d="M288.68531640625,61.630624771118164L290.21311640625,62.70148477111817L291.46241640625,63.763354771118166L292.46601640625,64.81626477111817L293.25391640625,65.86318477111817L293.84711640625,66.91010477111817L294.26651640625,67.96300477111816L294.52111640625003,69.03086477111816L294.62001640625,70.12863477111816L294.55411640625,71.26529477111816L294.32041640625,72.45282477111816L293.90401640625,73.70912477111817L293.28091640625,75.04022477111816L292.42701640625,76.46102477111816L291.31261640625,77.98352477111817L289.89861640624997,79.61972477111817L287.42701640625,82.41052477111816L284.93751640625,85.46452477111816L282.52891640625,88.62922477111816L280.18311640625,91.88962477111816L277.92431640625,95.18892477111817L275.80621640625,98.41042477111816L273.78111640625,101.60202477111817L271.97161640625,104.54542477111816L268.84691640625,109.80092477111816L266.60309640625,113.69852477111817L265.97097640625,114.65562477111817L265.35983640625,115.34062477111817L264.75767640625,115.80432477111816L264.16151640625,116.08542477111817L263.55634640625,116.20812477111816L262.92423640625,116.17822477111817L262.24417640625,115.98672477111816L261.49822640625,115.60092477111817L260.66537640625,114.97872477111817L259.72770640625,114.06342477111816L258.67316640625,112.78912477111817L257.48681640625,111.08122477111817L279.68881640625,63.829164771118165L288.68531640625,61.630624771118164Z" fill-rule="evenodd" fill="url(#master_svg3_84_72929)" fill-opacity="1"/></g><g><path d="M270.9622578125,56.75496864318848L279.3415578125,58.771038643188476L284.4733578125,60.15296864318848L287.3223578125,61.05930864318847L288.6854578125,61.63062864318847L287.9754578125,61.89384864318848L287.2325578125,62.24082864318848L286.1210578125,62.87197864318848L284.9556578125,63.67660864318847L283.5446578125,64.85513864318848L282.6369578125,65.74053864318847L281.6752578125,66.82036864318847L280.6596578125,68.12456864318848L279.7399578125,69.48556864318847L278.8142578125,71.08876864318847L277.8885578125,72.96726864318848L277.0916578125,74.89066864318848L276.3427578125,77.11306864318848L275.6506578125,79.66756864318847L274.6770578125,83.58006864318847L273.5565578125,87.66306864318848L272.3163578125,91.72806864318848L270.9502578125,95.70036864318848L269.9496578125,98.30876864318847L268.9100578125,100.75556864318847L267.8285578125,103.04676864318847L266.6362578125,105.28426864318848L265.4229578125,107.25246864318848L264.1946578125,108.96936864318847L263.1580578125,110.19876864318849L262.1215578125,111.22176864318848L261.0849578125,112.06226864318847L260.0454578125,112.73236864318848L259.1407578125,113.17206864318848L258.2329578125,113.47716864318848L257.3072578125,113.64766864318847L256.3605878125,113.69246864318848L255.3809678125,113.60576864318847L254.2125978125,113.33656864318849L253.1341078125,112.95066864318848L252.1424878125,112.44816864318847L251.2227678125,111.82896864318847L250.3689478125,111.08416864318848L249.6259978125,110.25556864318847L248.9609278125,109.31636864318847L248.3767378125,108.25446864318847L247.8734468125,107.05806864318848L247.4600228125,105.71496864318848L247.1814138125,104.40186864318848L247.0016533125,102.96906864318848L246.9267578125,101.40466864318847L246.9657049125,99.69066864318847L247.1334698125,97.82116864318849L247.4809958125,95.61066864318848L248.0382178125,93.20576864318848L248.8261178125,90.58546864318848L249.8686578125,87.72886864318848L251.0220378125,85.03376864318848L252.4360778125,82.15326864318848L254.1376978125,79.06936864318848L256.1508978125,75.77006864318848L258.7422578125,71.86056864318847L261.2857578125,68.26806864318847L263.7752578125,64.98077864318847L266.2198578125,61.97461864318848L268.6134578125,59.237658643188475L270.9622578125,56.75496864318848Z" fill-rule="evenodd" fill="url(#master_svg4_84_73280)" fill-opacity="1"/></g><g><path d="M239.0933828125,19.52798635144043L239.29638281249998,19.62517335144043L242.8554828125,21.28828335144043L248.14308281249998,23.66030335144043L254.6229828125,26.41819335144043L258.1281828125,27.833033351440427L261.7740828125,29.23591335144043L265.4468828125,30.57001335144043L269.0598828125,31.787413351440428L272.6398828125,32.87621335144043L275.9502828125,33.74661335144043L278.1551828125,34.23121335144043L280.1383828125,34.57221335144043L281.92098281250003,34.79061335144043L283.7213828125,34.88031335144043L285.21038281250003,34.80251335144043L286.4386828125,34.59011335144043L286.90898281249997,34.52731335144043L287.1755828125,34.59611335144043L287.3163828125,34.75771335144043L287.3613828125,35.035813351440424L287.2594828125,35.523413351440425L286.9059828125,36.34001335144043L286.1929828125,37.59031335144043L284.9676828125,39.41791335144043L282.9065828125,42.20571335144043L279.9496828125,45.97171335144043L276.6542828125,50.00681335144043L272.5829828125,54.88551335144043L263.2539828125,65.86621335144042L261.17188281250003,68.41471335144044L259.2575828125,70.94821335144043L257.5109828125,73.47281335144044L255.9231828125,75.98541335144043L254.41628281250001,78.59671335144043L253.0831828125,81.14221335144043L251.9087828125,83.62791335144043L250.8902828125,86.05381335144043L249.9644828125,88.57241335144043L249.20658281250002,90.96831335144043L248.6043828125,93.25661335144044L248.1490828125,95.43721335144043L247.80748281249998,97.69551335144043L247.6247828125,99.78341335144043L247.58588281250002,101.70971335144043L247.68168281250001,103.49251335144044L247.93338281249999,105.31111335144043L248.3227828125,106.91741335144043L248.8410828125,108.33521335144043L249.47618281249999,109.58561335144043L250.1172828125,110.53081335144043L250.83928281250002,111.34441335144042L251.6421828125,112.03541335144043L252.5349828125,112.60971335144043L253.5265828125,113.07631335144043L252.2652828125,112.72931335144042L248.9039828125,111.80501335144044L244.0567828125,110.47991335144043L238.3556828125,108.93051335144042L232.4149828125,107.33321335144043L226.8667828125,105.86451335144044L222.3250828125,104.69791335144043L218.1578828125,103.69591335144042L215.9169828125,103.11561335144043L213.6012828125,102.43061335144043L211.3184828125,101.62601335144043L209.1075228125,100.66581335144043L207.6875128125,99.92101335144044L206.3603628125,99.08641335144043L205.1141028125,98.15921335144043L203.9726928125,97.12121335144043L202.9601128125,95.96061335144043L202.0733428125,94.67141335144044L201.5191228125,93.64551335144043L201.0607588125,92.52371335144043L200.6922698125,91.30041335144043L200.4226478125,89.96031335144043L200.2818441125,88.63521335144043L200.2548828125,87.17551335144043L200.3627278125,85.56321335144042L200.6113858125,83.78351335144043L201.1716028125,81.06741335144042L201.8906028125,78.22881335144044L202.7743728125,75.25851335144043L203.7659828125,72.32121335144043L204.8714428125,69.34791335144044L206.1027228125,66.32981335144044L208.0949428125,61.86991335144043L210.2459328125,57.51171335144043L212.5347828125,53.27021335144043L214.8564828125,49.321813351440426L216.4772828125,46.75841335144043L218.0530828125,44.41331335144043L219.5868828125,42.27751335144043L221.1986828125,40.18671335144043L222.6965828125,38.40091335144043L224.0865828125,36.89041335144043L229.6977828125,31.072513351440428L232.0015828125,28.568863351440427L233.8020828125,26.46605335144043L234.8985828125,25.06317335144043L235.7972828125,23.77696335144043L236.5222828125,22.59843335144043L237.1573828125,21.369053351440428L237.6426828125,20.17257335144043C237.8250828125,19.55725935144043,238.5144828125,19.25092735144043,239.0933828125,19.52798635144043" fill-rule="evenodd" fill="url(#master_svg5_140_61380)" fill-opacity="1"/></g><g style="opacity:0.6000000238418579;"><path d="M235.10802653125,32.953969955444336L271.01291953125,44.93676995544433L270.29991953125,47.05446995544433L234.39501953125,35.07472995544433L235.10802653125,32.953969955444336Z" fill="#FFFFFF" fill-opacity="0.699999988079071"/></g><g style="opacity:0.4000000059604645;"><path d="M227.9363856875,49.480363845825195L258.9611296875,60.3443638458252L258.2181296875,62.453163845825195L227.1904296875,51.58617384582519L227.9363856875,49.480363845825195Z" fill="#FFFFFF" fill-opacity="0.699999988079071"/></g><g style="opacity:0.4000000059604645;"><path d="M223.96993434375,60.33843421936035L252.41220234375,69.58722421936035L251.71720234375,71.71093421936035L223.27490234375,62.46218421936035L223.96993434375,60.33843421936035Z" fill="#FFFFFF" fill-opacity="0.699999988079071"/></g><g style="opacity:0.4000000059604645;"><path d="M218.69715023693848,71.75285530090332L246.44442723693848,79.90687530090332L245.8093272369385,82.05155530090332L218.06502723693848,73.89455530090332L218.69715023693848,71.75285530090332Z" fill="#FFFFFF" fill-opacity="0.699999988079071"/></g><g style="opacity:0.4000000059604645;"><path d="M213.27782875,85.44659233093262L243.39781875,94.39626233093261L242.75671875,96.53799233093261L212.63671875,87.58828233093261L213.27782875,85.44659233093262Z" fill="#FFFFFF" fill-opacity="0.699999988079071"/></g></g><g><g><path d="M234.5926453125,79.58086385498046L232.6483453125,80.95676385498047L230.6980453125,82.17716385498048L228.7417453125,83.25406385498047L226.7705453125,84.19026385498047L224.7303453125,85.01586385498047L222.7231453125,85.69486385498047L220.74894531249998,86.23026385498048L218.8016453125,86.62806385498047L216.8094453125,86.90326385498047L214.8891453125,87.03196385498046L213.0406453125,87.02296385498047L211.2551453125,86.88236385498047L209.4666453125,86.59516385498047L207.7860453125,86.17346385498047L206.20122531250001,85.61706385498047L204.7063153125,84.92906385498047L203.2833053125,84.09156385498048L201.9861153125,83.11946385498047L200.8057653125,82.00966385498046L199.7302653125,80.75336385498048L198.8165353125,79.37446385498046L198.0735753125,77.93266385498046L197.4953753125,76.42216385498047L197.0819603125,74.82486385498046L196.8303033125,73.20056385498046L196.7314453125,71.52856385498046L196.7883666125,69.79666385498047L197.0070643125,68.00186385498047L197.3635593125,66.24906385498048L197.8638653125,64.47226385498047L198.5169553125,62.66556385498047L199.3288253125,60.82896385498047L200.2485353125,59.070163854980464L201.3090553125,57.32326385498047L202.5163753125,55.58246385498047L203.8764753125,53.85346385498047L205.3174653125,52.22026385498047L206.8932453125,50.63796385498047L208.6068453125,49.103473854980464L210.4672453125,47.61685385498047L212.4115453125,46.24089385498047L214.3588453125,45.02048385498047L216.3181453125,43.94365385498047L218.2863453125,43.00740385498047L220.3295453125,42.18183385498047L222.3337453125,41.502833854980466L224.3109453125,40.96740385498047L226.2582453125,40.56956885498047L228.2504453125,40.29438385498047L230.16774531250002,40.16576385498047L232.0162453125,40.17473709498047L233.80474531250002,40.31532385498047L235.59324531250002,40.602476854980466L237.2738453125,41.02423785498047L238.85864531250002,41.58059385498047L240.3535453125,42.26857385498047L241.7735453125,43.10611385498047L243.0707453125,44.07825385498047L244.2541453125,45.187983854980466L245.3266453125,46.44429385498047L246.2433453125,47.82323385498047L246.9863453125,49.26499385498047L247.5645453125,50.77556385498047L247.9779453125,52.372863854980466L248.2266453125,53.99706385498047L248.3254453125,55.66916385498047L248.2715453125,57.401063854980464L248.05284531249998,59.19576385498047L247.6963453125,60.94866385498047L247.1960453125,62.72536385498047L246.5429453125,64.53206385498046L245.7280453125,66.36866385498047L244.8083453125,68.12756385498047L243.7478453125,69.87436385498047L242.5435453125,71.61526385498047L241.1834453125,73.34416385498048L239.7394453125,74.97736385498047L238.1636453125,76.55976385498047L236.4500453125,78.09416385498048L234.5926453125,79.58086385498046Z" fill="#1D93DA" fill-opacity="1"/></g></g><g><path d="M206.4800323754883,79.58980270935058L206.7826023754883,79.17701970935059L207.13012237548827,78.84200670935058L207.5285723754883,78.57579370935059L208.19364237548828,78.31854600935058L208.90065237548828,78.23479270935059L209.37699237548827,78.27965890935059L209.8413423754883,78.41127270935058L210.29970237548827,78.63261870935058L210.86592237548828,79.08129870935059L211.27932237548828,79.63169270935059L211.5459223754883,80.26582270935059L211.65082237548827,80.94182270935059L211.5879223754883,81.62382270935059L211.3482223754883,82.29983270935058L211.25542237548828,82.46734270935059L205.84791237548828,91.50679270935059L205.54534237548827,91.91959270935058L205.19782237548827,92.25459270935059L204.79937237548828,92.52079270935059L204.13730237548828,92.78099270935058L203.43028237548828,92.86479270935058L202.95395237548829,92.81689270935058L202.4896023754883,92.68529270935059L202.02824237548828,92.46389270935059L201.46203637548828,92.01529270935059L201.0486113754883,91.46489270935058L200.7849783754883,90.83379270935059L200.68012237548828,90.15469270935058L200.74004247548828,89.47269270935058L200.98270337548828,88.79669270935058L201.0755723754883,88.63219270935059L206.4800323754883,79.58980270935058Z" fill="url(#master_svg6_84_70441)" fill-opacity="1"/></g><g><path d="M197.6124,89.1377201019287L198.2206,88.3151401019287L198.9216,87.6481001019287L199.7215,87.12164610192872L200.6022,86.74176710192872L201.513,86.51742690192872L202.4656,86.45162010192871L203.4183,86.54734080192871L204.344,86.8165471019287L205.2637,87.26522710192872L206.0606,87.8574901019287L206.7107,88.5364901019287L207.22899999999998,89.31121010192871L207.6154,90.16369010192871L207.8491,91.04910010192872L207.939,91.9763601019287L207.8731,92.90664010192872L207.6484,93.8189501019287L207.256,94.72230010192871L207.12709999999998,94.94365010192871L195.32659999999998,114.42532010192872L194.71544,115.24792010192871L194.01442,115.91492010192871L193.21454,116.43842010192871L192.33676,116.8213201019287L191.42604,117.04262010192872L190.47037,117.11142010192872L189.52069,117.0127201019287L188.59199,116.74652010192871L187.67527,116.2978201019287L186.87838,115.70562010192872L186.22529,115.02362010192871L185.707018,114.24882010192871L185.323554,113.39942010192871L185.0898801,112.5139201019287L185,111.58372010192872L185.0659084,110.65642010192872L185.290595,109.74412010192871L185.683047,108.84072010192871L185.811865,108.61942010192871L197.6124,89.1377201019287Z" fill="url(#master_svg7_140_61720)" fill-opacity="1"/><path d="M197.6124,89.1377201019287L198.2206,88.3151401019287L198.9216,87.6481001019287L199.7215,87.12164610192872L200.6022,86.74176710192872L201.513,86.51742690192872L202.4656,86.45162010192871L203.4183,86.54734080192871L204.344,86.8165471019287L205.2637,87.26522710192872L206.0606,87.8574901019287L206.7107,88.5364901019287L207.22899999999998,89.31121010192871L207.6154,90.16369010192871L207.8491,91.04910010192872L207.939,91.9763601019287L207.8731,92.90664010192872L207.6484,93.8189501019287L207.256,94.72230010192871L207.12709999999998,94.94365010192871L195.32659999999998,114.42532010192872L194.71544,115.24792010192871L194.01442,115.91492010192871L193.21454,116.43842010192871L192.33676,116.8213201019287L191.42604,117.04262010192872L190.47037,117.11142010192872L189.52069,117.0127201019287L188.59199,116.74652010192871L187.67527,116.2978201019287L186.87838,115.70562010192872L186.22529,115.02362010192871L185.707018,114.24882010192871L185.323554,113.39942010192871L185.0898801,112.5139201019287L185,111.58372010192872L185.0659084,110.65642010192872L185.290595,109.74412010192871L185.683047,108.84072010192871L185.811865,108.61942010192871L197.6124,89.1377201019287Z" fill="url(#master_svg8_140_61722)" fill-opacity="1"/></g><g><path d="M231.25231328125,76.22772016296386L229.30801328125,77.60362016296386L227.35771328125,78.82402016296388L225.39841328125,79.90092016296387L223.43021328125,80.83712016296387L221.39001328125,81.66272016296386L219.38281328125,82.34172016296387L217.40861328124998,82.87712016296388L215.45831328125,83.27492016296387L213.46611328125,83.55012016296386L211.54881328125,83.67882016296386L209.70031328125,83.66982016296387L207.91181328125,83.52922016296387L206.12631328125,83.24202016296387L204.44571328125,82.82032016296387L202.86089328125001,82.26392016296387L201.36598328125,81.57602016296386L199.94297328125,80.73842016296388L198.64578328125,79.76632016296386L197.46243328125001,78.65652016296386L196.38992328125,77.40022016296388L195.47620328125,76.02132016296386L194.73024328125,74.57952016296386L194.15504428125,73.06902016296387L193.73862928125,71.47172016296386L193.48997128125,69.84742016296386L193.39111328125,68.17542016296386L193.44803458125,66.44352016296386L193.66373428125,64.64872016296387L194.02023728125,62.89592016296387L194.52353328125,61.11912016296387L195.17662328125,59.31242016296387L195.98848328125,57.47582016296387L196.90820328125,55.71702016296386L197.96872328125,53.967120162963866L199.17604328125,52.229320162963866L200.53314328125,50.49742016296386L201.97713328125,48.86722016296387L203.55291328125,47.28482016296387L205.26651328125,45.75033016296386L207.12691328125,44.260720162963864L209.06821328125,42.88775016296387L211.01851328125,41.66734016296387L212.97781328125,40.59051016296387L214.94601328125,39.654260162963865L216.98921328125,38.82870016296387L218.99341328125,38.149690162963864L220.97061328125,37.614269162963865L222.91791328125,37.216434162963864L224.91011328125,36.941249162963864L226.82741328125002,36.81262016296387L228.67591328125,36.82159340296387L230.46441328125002,36.96218016296387L232.25291328125002,37.24934216296387L233.93351328125,37.67110316296387L235.51531328125,38.227460162963865L237.01321328125,38.915430162963865L238.43331328125,39.752980162963865L239.73051328125,40.72212016296387L240.91381328125,41.83485016296387L241.98631328125,43.09116016296387L242.90301328125,44.47010016296387L243.64601328125,45.908870162963865L244.22421328125,47.42242016296387L244.63761328125,49.019720162963864L244.88631328125,50.643920162963866L244.98511328125,52.316020162963866L244.92821328125,54.04792016296386L244.71251328124998,55.84262016296387L244.35601328125,57.595520162963865L243.85271328125,59.37232016296387L243.19961328125,61.17892016296386L242.38771328125,63.01552016296387L241.46801328125,64.77442016296386L240.40751328125,66.52122016296387L239.20321328125,68.26212016296387L237.84311328125,69.99102016296388L236.39911328125,71.62422016296387L234.82331328125,73.20662016296387L233.10971328125,74.74112016296387L231.25231328125,76.22772016296386Z" fill="url(#master_svg9_140_61597)" fill-opacity="1"/></g><g style="opacity:0.20000000298023224;"><path d="M227.78326185913085,71.92634945678711L225.60236185913087,73.4518494567871L223.42436185913087,74.76794945678711L221.24646185913087,75.88374945678711L218.99656185913085,76.84684945678711L216.80966185913087,77.60064945678711L214.68556185913087,78.1540494567871L213.04986185913086,78.45914945678712L211.48906185913086,78.6445494567871L209.99716185913087,78.71934945678711L208.56516185913085,78.68944945678712L207.12113185913086,78.54284945678711L205.77601185913085,78.28564945678711L204.52376185913087,77.9207494567871L203.35239185913085,77.4510494567871L202.23495185913086,76.85584945678711L201.22836185913087,76.14994945678711L200.32362185913087,75.33334945678712L199.51475185913085,74.40004945678712L198.83769185913087,73.36514945678711L198.30143985913085,72.27334945678712L197.90000085913087,71.11274945678711L197.63337785913086,69.87434945678712L197.50455020913085,68.6210494567871L197.49856185913086,67.31984945678711L197.62139185913085,65.95594945678711L197.87902785913087,64.52914945678711L198.24451785913087,63.147149456787105L198.72685185913085,61.735349456787105L199.33800185913086,60.287549456787104L200.08096185913087,58.80394945678711L201.20140185913087,56.916449456787106L202.52854185913085,55.02904945678711L204.07439185913086,53.13264945678711L205.75204185913086,51.34984945678711L207.61846185913086,49.62393945678711L209.68856185913086,47.94886945678711L211.86946185913087,46.42334945678711L214.04746185913086,45.10722945678711L216.22546185913086,43.98851945678711L218.47526185913085,43.02833945678711L220.66226185913087,42.27455945678711L222.78626185913086,41.72118145678711L224.42196185913087,41.41608245678711L225.98286185913085,41.23062955678711L227.47476185913087,41.15584945678711L228.90676185913085,41.18576325678711L230.35076185913087,41.33232945678711L231.69586185913084,41.58956845678711L232.94806185913086,41.95449545678711L234.11946185913087,42.42411945678711L235.23686185913087,43.01935945678711L236.24346185913086,43.72229945678711L237.14826185913086,44.53889945678711L237.95706185913087,45.47514945678711L238.63416185913087,46.51009945678711L239.17036185913085,47.601889456787106L239.57186185913088,48.76247945678711L239.83846185913086,50.000839456787105L239.96726185913087,51.25414945678711L239.97326185913084,52.55534945678711L239.85046185913086,53.91634945678711L239.59286185913086,55.34614945678711L239.22736185913087,56.72804945678711L238.74496185913085,58.13984945678711L238.13386185913086,59.587649456787105L237.39086185913087,61.071249456787115L236.27046185913088,62.95874945678711L234.94336185913085,64.84614945678712L233.39746185913086,66.74254945678712L231.71986185913084,68.52534945678711L229.85346185913085,70.25124945678711L227.78326185913085,71.92634945678711Z" fill="url(#master_svga_84_64964)" fill-opacity="1"/></g><g><path d="M209.68853326568603,47.88605789550781L211.86053326568603,46.36053789550781L214.02653326568603,45.04440789550781L216.19243326568602,43.928687895507814L218.43333326568603,42.968517895507816L220.60833326568604,42.22071789550781L222.72633326568604,41.67033589550781L224.35313326568604,41.368221895507816L225.90793326568604,41.185762995507815L227.39683326568604,41.11396789550781L228.82283326568603,41.14687589550781L230.26383326568603,41.299420895507815L231.60293326568603,41.55966289550781L232.85523326568602,41.930569895507816L234.02363326568604,42.40317789550781L235.13803326568603,43.00440789550781L236.14463326568602,43.71332789550781L237.04643326568603,44.53590789550781L237.85523326568602,45.47514789550781L238.46043326568605,46.38446789550781L238.95473326568603,47.341657895507815L239.34413326568603,48.34968789550781L239.62883326568604,49.41754789550781L238.50233326568605,48.61291789550781L237.26503326568604,47.94587789550781L235.90193326568604,47.41643789550781L234.40103326568604,47.02757789550781L232.88523326568603,46.79724789550781L231.28243326568605,46.70152789550781L229.58383326568602,46.74938789550781L227.77433326568604,46.94382789550781L226.01273326568602,47.269867895507815L224.20633326568603,47.73349789550781L222.34293326568604,48.346697895507816L220.42253326568604,49.11244789550781L218.58013326568604,49.98587789550781L216.73473326568603,50.99690789550781L214.88633326568603,52.157467895507814L213.02893326568602,53.473667895507816L210.91083326568602,55.20256789550781L209.00553326568604,56.98526789550781L207.30388326568604,58.82786789550781L205.74006326568605,60.78706789550782L204.40992326568605,62.740367895507816L203.29847326568603,64.69066789550781L202.57048326568602,66.2250678955078L201.98030326568605,67.7147678955078L201.52794326568605,69.16846789550782L201.19840326568604,70.58926789550782L200.98570326568603,72.05196789550781L200.91979326568602,73.44286789550782L200.98570326568603,74.77096789550781L201.18341326568603,76.04226789550782L200.35358326568604,75.27346789550782L199.61361326568604,74.40006789550782L198.93655326568603,73.36216789550781L198.40030726568602,72.26136789550782L197.99886826568604,71.09776789550781L197.72923726568604,69.8534678955078L197.59742950568602,68.59716789550781L197.58843326568604,67.28996789550781L197.70827326568605,65.92296789550781L197.95992126568603,64.49316789550781L198.32241326568604,63.10526789550781L198.80174326568604,61.69046789550781L199.40391326568604,60.23966789550781L200.14087326568603,58.75306789550781L201.25232326568604,56.86266789550781L202.57048326568602,54.96926789550781L204.10734326568604,53.07276789550781L205.77301326568605,51.28706789550781L207.63043326568604,49.55813789550781L209.68853326568603,47.88605789550781Z" fill-rule="evenodd" fill="#B0E1FF" fill-opacity="1"/></g><g><path d="M237.85523326568602,45.47514789550781L237.99003326568604,45.65760789550781L236.84563326568605,44.94270789550781L235.59643326568604,44.356427895507814L234.23633326568603,43.89877789550781L232.74143326568603,43.57572789550781L231.24643326568605,43.396257895507816L229.66763326568605,43.348397895507816L228.00203326568604,43.43214789550781L226.23443326568605,43.65948789550781L224.51783326568602,44.00346789550781L222.75933326568602,44.48206789550781L220.94983326568604,45.095257895507814L219.08643326568603,45.858017895507814L217.29793326568603,46.71948789550781L215.50643326568604,47.70957789550781L213.71493326568603,48.84323789550781L211.91443326568603,50.120487895507814L209.97313326568604,51.693867895507815L208.20863326568605,53.31506789550781L206.61484326568603,54.99016789550781L205.13191326568602,56.76396789550781L203.84670326568605,58.54076789550781L202.73825326568604,60.32046789550781L201.77060326568605,62.17506789550781L201.00666326568603,63.98166789550781L200.43147326568604,65.74656789550781L200.10792326568603,67.11046789550781L199.90420326568602,68.42066789550782L199.81133326568605,69.68296789550782L199.82931326568604,70.90336789550781L199.96112326568604,72.12676789550781L200.21577326568604,73.28436789550781L200.58425326568604,74.38216789550782L201.06958326568605,75.42906789550781L201.18341326568603,76.04226789550782L200.35358326568604,75.27346789550782L199.61361326568604,74.40006789550782L198.93655326568603,73.36216789550781L198.40030726568602,72.26136789550782L197.99886826568604,71.09776789550781L197.72923726568604,69.8534678955078L197.59742950568602,68.59716789550781L197.58843326568604,67.28996789550781L197.70827326568605,65.92296789550781L197.95992126568603,64.49316789550781L198.32241326568604,63.10526789550781L198.80174326568604,61.69046789550781L199.40391326568604,60.23966789550781L200.14087326568603,58.75306789550781L201.25232326568604,56.86266789550781L202.57048326568602,54.96926789550781L204.10734326568604,53.07276789550781L205.77301326568605,51.28706789550781L207.63043326568604,49.55813789550781L209.68853326568603,47.88605789550781L211.86053326568603,46.36053789550781L214.02653326568603,45.04440789550781L216.19243326568602,43.928687895507814L218.43333326568603,42.968517895507816L220.60833326568604,42.22071789550781L222.72633326568604,41.67033589550781L224.35313326568604,41.368221895507816L225.90793326568604,41.185762995507815L227.39683326568604,41.11396789550781L228.82283326568603,41.14687589550781L230.26383326568603,41.299420895507815L231.60293326568603,41.55966289550781L232.85523326568602,41.930569895507816L234.02363326568604,42.40317789550781L235.13803326568603,43.00440789550781L236.14463326568602,43.71332789550781L237.04643326568603,44.53590789550781L237.85523326568602,45.47514789550781Z" fill-rule="evenodd" fill="#51BCFD" fill-opacity="1"/></g></g><g><path d="M292.2661,35.11441335144043L292.2002,36.37371335144043L292.0175,37.573113351440426L291.72090000000003,38.72481335144043L291.3135,39.82851335144043L290.7952,40.89641335144043L290.193,41.892413351440425L289.498,42.81671335144043L288.7131,43.681213351440434L287.8473,44.46491335144043L286.9216,45.15881335144043L285.924,45.76011335144043L284.85450000000003,46.27751335144043L283.749,46.68431335144043L282.5956,46.98051335144043L281.3943,47.16291335144043L280.1331,47.22871335144043L278.8718,47.16291335144043L277.67052,46.98051335144043L276.51711,46.68431335144043L275.41166,46.27751335144043L274.34215,45.76011335144043L273.34455,45.15881335144043L272.41883,44.46491335144043L271.55304,43.681213351440434L270.76813,42.81671335144043L270.0731,41.892413351440425L269.47094,40.89641335144043L268.952669,39.82851335144043L268.545242,38.72481335144043L268.248658,37.573113351440426L268.0658993,36.37371335144043L268,35.11441335144043L268.0658993,33.85511335144043L268.248658,32.65561335144043L268.545242,31.50400335144043L268.952669,30.40024335144043L269.47094,29.33239335144043L270.0731,28.33631335144043L270.76813,27.412033351440428L271.55304,26.54757335144043L272.41883,25.76388335144043L273.34455,25.06993335144043L274.34215,24.46869335144043L275.41166,23.95121335144043L276.51711,23.54441435144043L277.67052,23.24827935144043L278.8718,23.06582015144043L280.1331,23.00001335144043L281.3913,23.06582015144043L282.5956,23.24827935144043L283.749,23.54441435144043L284.85450000000003,23.95121335144043L285.924,24.46869335144043L286.9216,25.06993335144043L287.8473,25.76388335144043L288.7131,26.54757335144043L289.498,27.412033351440428L290.193,28.33631335144043L290.7952,29.33239335144043L291.3135,30.40024335144043L291.72090000000003,31.50400335144043L292.0175,32.65561335144043L292.2002,33.85511335144043L292.2661,35.11441335144043Z" fill="url(#master_svgb_84_72200)" fill-opacity="1"/></g><g><path d="M323,108.88856315612793L322.8805,110.16563315612792L322.5629,111.33686315612793L322.0439,112.42266315612792L321.3473,113.40266315612793L320.5141,114.23586315612793L319.5341,114.93246315612794L318.44829,115.45146315612793L317.27707,115.76906315612793L316,115.88856315612793L314.72293,115.76906315612793L313.55171,115.45146315612793L312.46586,114.93246315612794L311.48586,114.23586315612793L310.65269,113.40266315612793L309.956093,112.42266315612792L309.437083,111.33686315612793L309.119504,110.16563315612792L309,108.88856315612793L309.119504,107.61149315612793L309.437083,106.44026315612793L309.956093,105.35441315612793L310.65269,104.37441315612793L311.48586,103.54124315612793L312.46586,102.84465615612793L313.55171,102.32563615612793L314.72293,102.00807715612792L316,101.88856315612793L317.27707,102.00807715612792L318.44829,102.32563615612793L319.5341,102.84465615612793L320.5141,103.54124315612793L321.3473,104.37441315612793L322.0439,105.35441315612793L322.5629,106.44026315612793L322.8805,107.61149315612793L323,108.88856315612793Z" fill="url(#master_svgc_84_73313)" fill-opacity="1"/></g></g></g></svg>