<svg xmlns="http://www.w3.org/2000/svg" xmlns:xlink="http://www.w3.org/1999/xlink" fill="none" version="1.1" width="20" height="20" viewBox="0 0 20 20"><g><g><path d="M16.588476953125,4.53125L16.588476953125,15.4688Q16.588476953125,16.102,16.139476953124998,16.551000000000002Q15.690476953125,17,15.057176953125,17L5.942626953125,17Q5.309339953125,17,4.860357953125,16.551000000000002Q4.411376953125,16.102,4.411376953125,15.4688L4.411376953125,4.53125Q4.411376953125,3.897961,4.860357953125,3.448981Q5.309338953125,3,5.942626953125,3L15.057176953125,3Q15.690476953125,3,16.139476953124998,3.448981Q16.588476953125,3.897962,16.588476953125,4.53125ZM7.911376953125,4.19995L6.699706953125,4.19995L6.699706953125,5.29995C6.699706953125,5.96269,7.236966953125,6.49995,7.8997069531249995,6.49995L13.099706953125,6.49995C13.762446953125,6.49995,14.299706953125,5.96269,14.299706953125,5.29995L14.299706953125,4.19995L13.111376953125,4.19995L13.111376953125,5.3999500000000005L7.911376953125,5.3999500000000005L7.911376953125,4.19995ZM13.854086953125,9.63542Q13.854086953125,9.892140000000001,13.672556953125,10.07368Q13.491016953125,10.25521,13.234296953125,10.25521L7.765546953125,10.25521Q7.508816953125001,10.25521,7.327286953125,10.07368Q7.145756953125,9.892140000000001,7.145756953125,9.63542Q7.145756953125,9.378689999999999,7.327286953125,9.19716Q7.508816953125001,9.01562,7.765546953125,9.01562L13.234296953125,9.01562Q13.491016953125,9.01562,13.672556953125,9.19716Q13.854086953125,9.378689999999999,13.854086953125,9.63542ZM13.854086953125,12.36979Q13.854086953125,12.62652,13.672556953125,12.80805Q13.491016953125,12.98958,13.234296953125,12.98958L7.765546953125,12.98958Q7.508816953125001,12.98958,7.327286953125,12.80805Q7.145756953125,12.62652,7.145756953125,12.36979Q7.145756953125,12.11307,7.327286953125,11.93153Q7.508816953125001,11.75,7.765546953125,11.75L13.234296953125,11.75Q13.491016953125,11.75,13.672556953125,11.93153Q13.854086953125,12.11307,13.854086953125,12.36979Z" fill-rule="evenodd" fill="#1890FF" fill-opacity="1"/></g></g></svg>