<svg xmlns="http://www.w3.org/2000/svg" xmlns:xlink="http://www.w3.org/1999/xlink" fill="none" version="1.1" width="332" height="132" viewBox="0 0 332 132"><defs><clipPath id="master_svg0_2779_097412"><rect x="0" y="0" width="332" height="132" rx="8"/></clipPath><linearGradient x1="0.26800668239593506" y1="0.320206880569458" x2="0.8255823254585266" y2="0.8650802969932556" id="master_svg1_84_40218"><stop offset="0%" stop-color="#FFFFFF" stop-opacity="0.30000001192092896"/><stop offset="80.94673156738281%" stop-color="#FFFFFF" stop-opacity="0"/></linearGradient><linearGradient x1="0.16166284680366516" y1="0.9309004545211792" x2="0.9308539628982544" y2="0.21275737881660461" id="master_svg2_84_32130"><stop offset="0%" stop-color="#FFFFFF" stop-opacity="1"/><stop offset="100%" stop-color="#FFFFFF" stop-opacity="0.20000000298023224"/></linearGradient><radialGradient cx="0" cy="0" r="1" gradientUnits="userSpaceOnUse" id="master_svg3_84_83083" gradientTransform="translate(311.83628314733505 112.63933956623077) rotate(10.824659253671044) scale(8.391204275860796 8.391204275860796)"><stop offset="0%" stop-color="#DDF2FF" stop-opacity="1"/><stop offset="0%" stop-color="#DDF2FF" stop-opacity="1"/><stop offset="99.99992251396179%" stop-color="#56BEFD" stop-opacity="1"/></radialGradient><radialGradient cx="0" cy="0" r="1" gradientUnits="userSpaceOnUse" id="master_svg4_84_83085" gradientTransform="translate(310.00835809111595 113.19924974441528) rotate(174.28900213732652) scale(12.051459480925303 12.051459480925303)"><stop offset="0%" stop-color="#81F09F" stop-opacity="1"/><stop offset="100%" stop-color="#15B23F" stop-opacity="1"/></radialGradient><linearGradient x1="0.4584970474243164" y1="-0.04366307333111763" x2="0.4769970774650574" y2="1.00223708152771" id="master_svg5_84_84531"><stop offset="0%" stop-color="#8FDFA4" stop-opacity="1"/><stop offset="100%" stop-color="#2EB251" stop-opacity="1"/></linearGradient><filter id="master_svg6_2779_097431" filterUnits="objectBoundingBox" color-interpolation-filters="sRGB" x="-3.6808643341064453" y="-3.6808643341064453" width="83.68809127807617" height="46.954612731933594"><feFlood flood-opacity="0" result="BackgroundImageFix"/><feBlend mode="normal" in="SourceGraphic" in2="BackgroundImageFix" result="shape"/><feGaussianBlur stdDeviation="0.9202160835266113" result="effect1_foregroundBlur"/></filter><linearGradient x1="0.32499998807907104" y1="0.025747891515493393" x2="0.6426611542701721" y2="0.901508092880249" id="master_svg7_140_63222"><stop offset="0%" stop-color="#A6EEB9" stop-opacity="1"/><stop offset="100%" stop-color="#B9EEC7" stop-opacity="1"/></linearGradient><linearGradient x1="0.5" y1="0.2678382396697998" x2="0.5" y2="1" id="master_svg8_84_85398"><stop offset="0%" stop-color="#38B659" stop-opacity="1"/><stop offset="100%" stop-color="#127B2E" stop-opacity="1"/></linearGradient><filter id="master_svg9_2779_097437" filterUnits="objectBoundingBox" color-interpolation-filters="sRGB" x="0" y="0" width="45.54453659057617" height="45.45454788208008"><feFlood flood-opacity="0" result="BackgroundImageFix"/><feBlend mode="normal" in="SourceGraphic" in2="BackgroundImageFix" result="shape"/><feGaussianBlur in="BackgroundImage" stdDeviation="1.8217822313308716"/><feComposite in2="SourceAlpha" operator="in" result="effect1_foregroundBlur"/><feBlend mode="normal" in="SourceGraphic" in2="effect1_foregroundBlur" result="shape"/></filter><linearGradient x1="0.32499998807907104" y1="0.025747891515493393" x2="0.6426611542701721" y2="0.901508092880249" id="master_svga_84_86306"><stop offset="0%" stop-color="#D3F4DC" stop-opacity="1"/><stop offset="100%" stop-color="#FFFFFF" stop-opacity="1"/></linearGradient><linearGradient x1="0.4584970474243164" y1="-0.04366307333111763" x2="0.4769970774650574" y2="1.00223708152771" id="master_svgb_84_86310"><stop offset="0%" stop-color="#8FDFA4" stop-opacity="1"/><stop offset="100%" stop-color="#2EB251" stop-opacity="1"/></linearGradient><filter id="master_svgc_2779_097438" filterUnits="objectBoundingBox" color-interpolation-filters="sRGB" x="-18.217823028564453" y="-14.57425856590271" width="60.118804931640625" height="55.35978126525879"><feFlood flood-opacity="0" result="BackgroundImageFix"/><feColorMatrix in="SourceAlpha" type="matrix" values="0 0 0 0 0 0 0 0 0 0 0 0 0 0 0 0 0 0 127 0"/><feOffset dy="3.643564462661743" dx="0"/><feGaussianBlur stdDeviation="4.554455757141113"/><feColorMatrix type="matrix" values="0 0 0 0 0.0313725508749485 0 0 0 0 0.5058823823928833 0 0 0 0 0.15294118225574493 0 0 0 0.4000000059604645 0"/><feBlend mode="normal" in2="BackgroundImageFix" result="effect1_dropShadow"/><feBlend mode="normal" in="SourceGraphic" in2="effect1_dropShadow" result="shape"/></filter><linearGradient x1="0.32499998807907104" y1="0.025747891515493393" x2="0.6426611542701721" y2="0.901508092880249" id="master_svgd_84_86125"><stop offset="0%" stop-color="#D3F4DC" stop-opacity="1"/><stop offset="100%" stop-color="#FFFFFF" stop-opacity="1"/></linearGradient><radialGradient cx="0" cy="0" r="1" gradientUnits="userSpaceOnUse" id="master_svge_84_82946" gradientTransform="translate(281.48107901704 28.189820020621028) rotate(174.2977472882588) scale(20.88842773626904 20.920675883382632)"><stop offset="0%" stop-color="#81F09F" stop-opacity="1"/><stop offset="100%" stop-color="#15B23F" stop-opacity="1"/></radialGradient></defs><g style="mix-blend-mode:passthrough" clip-path="url(#master_svg0_2779_097412)"><rect x="0" y="0" width="332" height="132" rx="8" fill="#57C875" fill-opacity="1"/><g style="mix-blend-mode:passthrough"><ellipse cx="40.5" cy="26.5" rx="70.5" ry="70.5" fill="url(#master_svg1_84_40218)" fill-opacity="1"/></g><g style="mix-blend-mode:passthrough"><path d="M197.00012578125,71C164.00023578125,71,153.00012578125,117.5,171.00023578125,137.5L335.49992578125,137.5L335.49992578125,-1.5L305.49992578125,-4.5Q265.49992578125,1.5,259.50022578125,35C253.50022578124998,68.5,230.00002578125,71,197.00012578125,71Z" fill="url(#master_svg2_84_32130)" fill-opacity="0.20000000298023224"/></g><g><path d="M322,112L321.8805,113.27707L321.5629,114.4483L321.0439,115.5341L320.3473,116.5141L319.5141,117.3473L318.5341,118.04390000000001L317.44829,118.5629L316.27707,118.8805L315,119L313.72293,118.8805L312.55171,118.5629L311.46586,118.04390000000001L310.48586,117.3473L309.65269,116.5141L308.956093,115.5341L308.437083,114.4483L308.119504,113.27707L308,112L308.119504,110.72293L308.437083,109.5517L308.956093,108.46585L309.65269,107.48585L310.48586,106.65268L311.46586,105.956093L312.55171,105.437073L313.72293,105.119514L315,105L316.27707,105.119514L317.44829,105.437073L318.5341,105.956093L319.5141,106.65268L320.3473,107.48585L321.0439,108.46585L321.5629,109.5517L321.8805,110.72293L322,112Z" fill="url(#master_svg3_84_83083)" fill-opacity="1"/><path d="M322,112L321.8805,113.27707L321.5629,114.4483L321.0439,115.5341L320.3473,116.5141L319.5141,117.3473L318.5341,118.04390000000001L317.44829,118.5629L316.27707,118.8805L315,119L313.72293,118.8805L312.55171,118.5629L311.46586,118.04390000000001L310.48586,117.3473L309.65269,116.5141L308.956093,115.5341L308.437083,114.4483L308.119504,113.27707L308,112L308.119504,110.72293L308.437083,109.5517L308.956093,108.46585L309.65269,107.48585L310.48586,106.65268L311.46586,105.956093L312.55171,105.437073L313.72293,105.119514L315,105L316.27707,105.119514L317.44829,105.437073L318.5341,105.956093L319.5141,106.65268L320.3473,107.48585L321.0439,108.46585L321.5629,109.5517L321.8805,110.72293L322,112Z" fill="url(#master_svg4_84_83085)" fill-opacity="1"/></g><g transform="matrix(-1,0,0,1,584,0)"><g><g><path d="M295.7692,24.490578651428223L363.61490000000003,24.490578651428223C365.6964,24.490578651428223,367.384,26.180218651428223,367.384,28.26416865142822L367.384,112.22647865142822C367.384,114.31037865142822,365.6964,115.99997865142822,363.61490000000003,115.99997865142822L295.7692,115.99997865142822C293.68767,115.99997865142822,292,114.31037865142822,292,112.22647865142822L292,28.26416865142822C292,26.180218651428223,293.68767,24.490578651428223,295.7692,24.490578651428223Z" fill="url(#master_svg5_84_84531)" fill-opacity="1"/></g><g><path d="M296.71144914627075,30.150957107543945L360.67254914627074,30.150957107543945C361.77704914627077,30.150957107543945,362.67254914627074,31.046388107543944,362.67254914627074,32.150957107543945L362.67254914627074,107.60695710754395C362.67254914627074,109.11615710754394,361.44904914627074,110.33965710754394,359.9398491462708,110.33965710754394L299.44411914627074,110.33965710754394C297.93490914627074,110.33965710754394,296.71144914627075,109.11615710754394,296.71144914627075,107.60695710754395L296.71144914627075,30.150957107543945Z" fill="#09872A" fill-opacity="0.6000000238418579"/></g><g><path d="M296.71144914627075,30.150957107543945L360.67254914627074,30.150957107543945C361.77704914627077,30.150957107543945,362.67254914627074,31.046388107543944,362.67254914627074,32.150957107543945L362.67254914627074,104.41395710754395Q346.13244914627074,110.19245710754394,301.81452914627073,105.85045710754395C300.49199914627076,105.72085710754395,299.46833914627075,104.63555710754395,299.38300914627075,103.30935710754395Q298.00929914627073,81.96145710754394,296.71144914627075,30.150957107543945Z" fill="#6DD889" fill-opacity="0.5"/></g><g filter="url(#master_svg6_2779_097431)"><path d="M297.65375423431396,63.64152526855469L363.614754234314,63.64152526855469Q364.557154234314,88.95842526855469,373.980154234314,98.59872526855469C357.01865423431394,103.41892526855469,323.09585423431395,105.15092526855469,304.24985423431394,100.5261252685547Q301.422954234314,84.1383252685547,297.65375423431396,63.64152526855469Z" fill="#8C96A4" fill-opacity="0.4000000059604645"/></g><g><path d="M298.80345914627077,30.150957107543945L360.63894914627076,30.150957107543945C361.75654914627074,30.150957107543945,362.6565491462708,31.088078107543947,362.6418491462708,32.205577107543945Q361.91974914627076,86.97125710754395,372.09554914627074,98.59875710754395C355.83374914627075,103.22015710754394,324.41414914627074,105.43635710754394,304.82575914627074,101.11985710754395C303.31142914627077,100.78615710754394,302.1809091462708,99.54475710754394,301.93643914627074,98.01355710754395Q298.97783914627075,79.48195710754395,296.80679844627076,32.247707107543945C296.75446234627077,31.109055107543945,297.66360514627075,30.150957107543945,298.80345914627077,30.150957107543945" fill="url(#master_svg7_140_63222)" fill-opacity="1"/></g><g><path d="M329.69196189575194,16C332.81516189575194,16,335.34576189575193,18.53354,335.34576189575193,21.66038L342.88416189575196,21.66038C343.92586189575195,21.66038,344.76876189575194,22.50612,344.76876189575194,23.54717L344.76876189575194,29.2076L314.61516189575195,29.2076L314.61516189575195,23.54717C314.61516189575195,22.50612,315.45992489575195,21.66038,316.49977189575196,21.66038L324.03817189575193,21.66038C324.03817189575193,18.53354,326.56876189575195,16,329.69196189575194,16ZM329.69196189575194,24.490569999999998C331.25266189575194,24.490569999999998,332.51886189575197,23.22288,332.51886189575197,21.66038C332.51886189575197,20.09788,331.25266189575194,18.83019,329.69196189575194,18.83019C328.13126189575195,18.83019,326.865061895752,20.09788,326.865061895752,21.66038C326.865061895752,23.22288,328.13126189575195,24.490569999999998,329.69196189575194,24.490569999999998Z" fill-rule="evenodd" fill="url(#master_svg8_84_85398)" fill-opacity="1"/></g><g transform="matrix(-1,0,0,1,705.9998779296875,0)" style="opacity:0.699999988079071;"><path d="M398.2303389648438,41.00001525878906L352.99993896484375,41.00001525878906L352.99993896484375,43.830205258789064L398.2303389648438,43.830205258789064L398.2303389648438,41.00001525878906ZM386.92273896484375,48.547185258789064L352.99993896484375,48.547185258789064L352.99993896484375,51.377415258789064L386.92273896484375,51.377415258789064L386.92273896484375,48.547185258789064Z" fill-rule="evenodd" fill="#FFFFFF" fill-opacity="1"/></g><g transform="matrix(-1,0,0,1,705.9998779296875,0)" style="opacity:0.699999988079071;"><path d="M398.2303389648438,63.00001525878906L352.99993896484375,63.00001525878906L352.99993896484375,65.83020525878906L398.2303389648438,65.83020525878906L398.2303389648438,63.00001525878906ZM386.92273896484375,70.54718525878906L352.99993896484375,70.54718525878906L352.99993896484375,73.37741525878906L386.92273896484375,73.37741525878906L386.92273896484375,70.54718525878906Z" fill-rule="evenodd" fill="#FFFFFF" fill-opacity="1"/></g></g><g style="mix-blend-mode:passthrough" transform="matrix(-1,0,0,1,772,0)"><g style="mix-blend-mode:passthrough" filter="url(#master_svg9_2779_097437)"><ellipse cx="408.7722682952881" cy="87.72727394104004" rx="22.772268295288086" ry="22.72727394104004" fill="url(#master_svga_84_86306)" fill-opacity="1"/><ellipse cx="408.7722682952881" cy="87.72727394104004" rx="22.772268295288086" ry="22.72727394104004" fill="url(#master_svgb_84_86310)" fill-opacity="1"/><ellipse cx="408.7722682952881" cy="87.72727394104004" rx="21.40593159198761" ry="21.360937237739563" fill-opacity="0" stroke-opacity="0.4000000059604645" stroke="#FFFFFF" fill="none" stroke-width="2.732673406600952"/></g><g style="mix-blend-mode:passthrough" filter="url(#master_svgc_2779_097438)"><path d="M419.9023888580322,83.0487139831543C420.3598888580322,82.5630739831543,420.6138888580322,81.9270339831543,420.6138888580322,81.26685398315429C420.6138888580322,79.8140739831543,419.40888885803224,78.6363639831543,417.9225888580322,78.6363639831543C417.1702888580322,78.6363639831543,416.45238885803224,78.9441029831543,415.9427888580322,79.48498998315429L415.9422888580322,79.4855879831543L405.82369885803223,90.2258639831543L401.3929588580322,86.44110398315429C400.9025288580322,86.0221739831543,400.27328885803223,85.7912939831543,399.6219588580322,85.7912939831543C398.13560885803224,85.7912939831543,396.9306888580322,86.9690039831543,396.9306888580322,88.4217839831543C396.9306888580322,89.1808639831543,397.2661798580322,89.9029639831543,397.8509508580322,90.40246398315429L406.2306488580322,97.56046398315429L419.9017888580322,83.04931398315429L419.9023888580322,83.0487139831543Z" fill-rule="evenodd" fill="url(#master_svgd_84_86125)" fill-opacity="1"/><path d="M419.9023888580322,83.0487139831543C420.3598888580322,82.5630739831543,420.6138888580322,81.9270339831543,420.6138888580322,81.26685398315429C420.6138888580322,79.8140739831543,419.40888885803224,78.6363639831543,417.9225888580322,78.6363639831543C417.1702888580322,78.6363639831543,416.45238885803224,78.9441029831543,415.9427888580322,79.48498998315429L415.9422888580322,79.4855879831543L405.82369885803223,90.2258639831543L401.3929588580322,86.44110398315429C400.9025288580322,86.0221739831543,400.27328885803223,85.7912939831543,399.6219588580322,85.7912939831543C398.13560885803224,85.7912939831543,396.9306888580322,86.9690039831543,396.9306888580322,88.4217839831543C396.9306888580322,89.1808639831543,397.2661798580322,89.9029639831543,397.8509508580322,90.40246398315429L406.2306488580322,97.56046398315429L419.9017888580322,83.04931398315429L419.9023888580322,83.0487139831543Z" fill-rule="evenodd" fill="#FFFFFF" fill-opacity="1"/></g></g></g><g><path d="M302.2661,26.1144L302.2002,27.3737L302.0175,28.5731L301.72090000000003,29.724800000000002L301.3135,30.8285L300.7952,31.8964L300.193,32.892399999999995L299.498,33.8167L298.7131,34.681200000000004L297.8473,35.4649L296.9216,36.1588L295.924,36.7601L294.85450000000003,37.2775L293.749,37.6843L292.5956,37.9805L291.3943,38.1629L290.1331,38.2287L288.8718,38.1629L287.67052,37.9805L286.51711,37.6843L285.41166,37.2775L284.34215,36.7601L283.34455,36.1588L282.41883,35.4649L281.55304,34.681200000000004L280.76813,33.8167L280.0731,32.892399999999995L279.47094,31.8964L278.952669,30.8285L278.545242,29.724800000000002L278.248658,28.5731L278.0658993,27.3737L278,26.1144L278.0658993,24.8551L278.248658,23.6556L278.545242,22.50399L278.952669,21.40023L279.47094,20.33238L280.0731,19.3363L280.76813,18.41202L281.55304,17.54756L282.41883,16.76387L283.34455,16.06992L284.34215,15.468679999999999L285.41166,14.9512L286.51711,14.544401L287.67052,14.248266L288.8718,14.0658068L290.1331,14L291.3913,14.0658068L292.5956,14.248266L293.749,14.544401L294.85450000000003,14.9512L295.924,15.468679999999999L296.9216,16.06992L297.8473,16.76387L298.7131,17.54756L299.498,18.41202L300.193,19.3363L300.7952,20.33238L301.3135,21.40023L301.72090000000003,22.50399L302.0175,23.6556L302.2002,24.8551L302.2661,26.1144Z" fill="url(#master_svge_84_82946)" fill-opacity="1"/></g></g></svg>