<svg xmlns="http://www.w3.org/2000/svg" xmlns:xlink="http://www.w3.org/1999/xlink" fill="none" version="1.1" width="20" height="20" viewBox="0 0 20 20"><g><g><path d="M14.2887,10.030773636169434L14.2876,10.031923636169434Q13.9073,10.426073636169434,13.3511,10.426073636169434Q12.79415,10.426073636169434,12.41349,10.030773636169434L10.07722,7.6600436361694335Q9.69361,7.269053636169434,9.69361,6.716813636169434Q9.69361,6.164563636169434,10.07697,5.773833636169433L12.41481,3.4014846361694335Q12.7992,3.0097036361694336,13.3468,3.0097036361694336Q13.8944,3.0097036361694336,14.2791,3.4017416361694335L16.6164,5.773573636169433Q17,6.164563636169434,17,6.716813636169434Q17,7.269053636169434,16.6166,7.659783636169434L14.2887,10.030773636169434ZM9.17641,8.398833636169433Q9.17641,8.951753636169434,8.791260000000001,9.346833636169434Q8.40345,9.744633636169434,7.85649,9.744633636169434L4.31992,9.744633636169434Q3.772645,9.744633636169434,3.385728,9.351733636169435Q3,8.960043636169434,3,8.407463636169433L3,4.810513636169434Q3,4.257933636169433,3.385728,3.866239636169434Q3.772645,3.4733396361694338,4.31992,3.4733396361694338L7.85649,3.4733396361694338Q8.40377,3.4733396361694338,8.79068,3.866239636169434Q9.17641,4.257933636169433,9.17641,4.810513636169434L9.17641,8.398833636169433ZM15.7711,6.625803636169433L13.4437,4.255353636169433Q13.4032,4.218353636169434,13.3483,4.215533636169433Q13.2973,4.2165136361694335,13.2601,4.253703636169433L10.92337,6.624943636169434Q10.88647,6.661843636169434,10.88647,6.716813636169434Q10.88647,6.771773636169433,10.922519999999999,6.8078236361694335L13.261,9.180763636169434Q13.2962,9.215963636169434,13.3468,9.215963636169434Q13.3975,9.215963636169434,13.4335,9.179913636169434L15.7702,6.808673636169434Q15.8071,6.771773636169433,15.8071,6.716813636169434Q15.8071,6.661853636169433,15.7711,6.625803636169433ZM7.85649,4.681293636169434L4.31992,4.681293636169434Q4.26496,4.681293636169434,4.22783,4.718423636169433Q4.1907,4.7555536361694335,4.1907,4.810513636169434L4.1907,8.398833636169433Q4.1907,8.528053636169433,4.31992,8.528053636169433L7.85649,8.528053636169433Q7.90465,8.528053636169433,7.93984,8.492123636169435Q7.97708,8.454113636169435,7.97708,8.398833636169433L7.97708,4.810513636169434Q7.97708,4.755233636169434,7.93984,4.717223636169433Q7.90465,4.681293636169434,7.85649,4.681293636169434ZM9.17641,15.653103636169433Q9.17641,16.20570363616943,8.79068,16.59740363616943Q8.40377,16.990303636169436,7.85649,16.990303636169436L4.31992,16.990303636169436Q3.772645,16.990303636169436,3.385728,16.59740363616943Q3,16.20570363616943,3,15.653103636169433L3,12.064793636169433Q3,11.512223636169434,3.385728,11.120523636169434Q3.772644,10.727623636169433,4.31992,10.727633636169433L7.85649,10.727633636169433Q8.40377,10.727633636169433,8.79068,11.120523636169434Q9.17641,11.512223636169434,9.17641,12.064793636169433L9.17641,15.653103636169433ZM16.4393,15.653103636169433Q16.4393,16.20570363616943,16.0536,16.59740363616943Q15.6667,16.990303636169436,15.1194,16.990303636169436L11.58283,16.990303636169436Q11.03556,16.990303636169436,10.64864,16.59740363616943Q10.262920000000001,16.20570363616943,10.26291,15.653103636169433L10.26291,12.064793636169433Q10.262920000000001,11.512223636169434,10.64864,11.120523636169434Q11.03556,10.727623636169433,11.58283,10.727633636169433L15.1194,10.727633636169433Q15.6667,10.727623636169433,16.0536,11.120523636169434Q16.4393,11.512223636169434,16.4393,12.064793636169433L16.4393,15.653103636169433ZM7.85649,11.935583636169433L4.31992,11.935583636169433Q4.26496,11.935583636169433,4.22783,11.972713636169434Q4.1907,12.009843636169434,4.1907,12.064793636169433L4.1907,15.653103636169433Q4.1907,15.782303636169434,4.31992,15.782303636169434L7.85649,15.782303636169434Q7.90465,15.782303636169434,7.93984,15.746403636169434Q7.97708,15.708403636169434,7.97708,15.653103636169433L7.97708,12.064793636169433Q7.97708,12.009523636169433,7.93984,11.971503636169434Q7.90465,11.935583636169433,7.85649,11.935583636169433ZM15.1194,11.935583636169433L11.58283,11.935583636169433Q11.45362,11.935583636169433,11.45362,12.064793636169433L11.45362,15.653103636169433Q11.45362,15.782303636169434,11.58283,15.782303636169434L15.1194,15.782303636169434Q15.1676,15.782303636169434,15.2028,15.746403636169434Q15.24,15.708403636169434,15.24,15.653103636169433L15.24,12.064793636169433Q15.24,12.009523636169433,15.2028,11.971503636169434Q15.1676,11.935583636169433,15.1194,11.935583636169433Z" fill-rule="evenodd" fill="#8B8F92" fill-opacity="1"/></g></g></svg>