<svg xmlns="http://www.w3.org/2000/svg" xmlns:xlink="http://www.w3.org/1999/xlink" fill="none" version="1.1" width="20" height="20" viewBox="0 0 20 20"><defs><linearGradient x1="0.543885350227356" y1="1" x2="0.5390270352363586" y2="0" id="master_svg0_56_37277"><stop offset="0%" stop-color="#FE9025" stop-opacity="1"/><stop offset="100%" stop-color="#FFA34A" stop-opacity="1"/></linearGradient></defs><g style="mix-blend-mode:passthrough"><g style="mix-blend-mode:passthrough"><g style="mix-blend-mode:passthrough"><path d="M1,5.972501945495606L19,5.972501945495606L19,2.5225019454956055C19,1.6940749454956054,18.3284,1.0225019454956055,17.5,1.0225019454956055L2.5,1.0225019454956055C1.671573,1.0225019454956055,1,1.6940749454956054,1,2.5225019454956055L1,5.972501945495606Z" fill="#FE9025" fill-opacity="1"/><path d="M1,5.972501945495606L19,5.972501945495606L19,2.5225019454956055C19,1.6940749454956054,18.3284,1.0225019454956055,17.5,1.0225019454956055L2.5,1.0225019454956055C1.671573,1.0225019454956055,1,1.6940749454956054,1,2.5225019454956055L1,5.972501945495606Z" fill="#FFC48B" fill-opacity="1"/></g><g style="mix-blend-mode:passthrough"><path d="M1,17.477501010894777C1,18.305901010894775,1.671573,18.977501010894777,2.5,18.977501010894777L17.5,18.977501010894777C18.3284,18.977501010894777,19,18.305901010894775,19,17.477501010894777L19,7.502501010894775L1,7.502501010894775L1,17.477501010894777Z" fill="url(#master_svg0_56_37277)" fill-opacity="1"/></g><g><path d="M7.782460038146972,16.027340648498537C7.655300038146972,16.027340648498537,7.528290038146973,15.978800648498535,7.431210038146973,15.881730648498536L5.105037038146973,13.551990648498535C4.9116544381469724,13.358290648498535,4.9116544381469724,13.044420648498535,5.105037038146973,12.850720648498536L7.424230038146973,10.528118648498536C7.6179200381469725,10.334116248498535,7.9321100381469725,10.333961248498536,8.125960038146973,10.527653648498536C8.319960038146974,10.721346648498535,8.320120038146973,11.035534648498535,8.126580038146972,11.229381648498535L6.157550038146972,13.201350648498535L8.133560038146973,15.180460648498535C8.327250038146973,15.374460648498534,8.326940038146972,15.688650648498534,8.132940038146973,15.882190648498536C8.036170038146972,15.978960648498536,7.909310038146973,16.027340648498537,7.782460038146972,16.027340648498537ZM12.217690038146973,16.027340648498537C12.090840038146972,16.027340648498537,11.963990038146973,15.978960648498536,11.867060038146974,15.882190648498536C11.673060038146971,15.688500648498536,11.672900038146974,15.374310648498536,11.866600038146974,15.180460648498535L13.842600038146973,13.201350648498535L11.873730038146974,11.229381648498535C11.680040038146974,11.035379648498536,11.680350038146972,10.721190648498535,11.874200038146974,10.527653648498536C12.068040038146972,10.333961248498536,12.382390038146973,10.334271348498536,12.575920038146972,10.528118648498536L14.894960038146973,12.850720648498536C15.088300038146972,13.044420648498535,15.088300038146972,13.358290648498535,14.894960038146973,13.551990648498535L12.568790038146972,15.881730648498536C12.472020038146972,15.978800648498535,12.344860038146972,16.027340648498537,12.217690038146973,16.027340648498537ZM9.209180038146972,16.058510648498533C9.154280038146972,16.058510648498533,9.098610038146973,16.049360648498535,9.043870038146974,16.029980648498537C8.785500038146973,15.938640648498534,8.649970038146973,15.655160648498535,8.741310038146972,15.396800648498536L10.385140038146972,10.744452648498536C10.476480038146972,10.486092648498536,10.759960038146971,10.350554548498534,11.018320038146973,10.441895548498534C11.276680038146973,10.533236648498535,11.412220038146973,10.816719648498536,11.320880038146973,11.075079648498535L9.677050038146973,15.727420648498535C9.605090038146972,15.931190648498536,9.413570038146972,16.058510648498533,9.209180038146972,16.058510648498533Z" fill="#FFFFFF" fill-opacity="1"/></g><g style="mix-blend-mode:passthrough"><ellipse cx="3.879999816417694" cy="3.5425015687942505" rx="0.7199999690055847" ry="0.7199999094009399" fill="#FFFFFF" fill-opacity="1"/></g><g style="mix-blend-mode:passthrough"><ellipse cx="6.0399996638298035" cy="3.5425015687942505" rx="0.7199999690055847" ry="0.7199999094009399" fill="#FFFFFF" fill-opacity="1"/></g><g style="mix-blend-mode:passthrough"><ellipse cx="8.199999511241913" cy="3.5425015687942505" rx="0.7199999690055847" ry="0.7199999094009399" fill="#FFFFFF" fill-opacity="1"/></g></g></g></svg>