<svg xmlns="http://www.w3.org/2000/svg" xmlns:xlink="http://www.w3.org/1999/xlink" fill="none" version="1.1" width="20" height="20" viewBox="0 0 20 20"><defs><linearGradient x1="0.543885350227356" y1="1" x2="0.5390270352363586" y2="0" id="master_svg0_306_37192"><stop offset="0%" stop-color="#387FF7" stop-opacity="1"/><stop offset="100.00003576278687%" stop-color="#1890FF" stop-opacity="1"/></linearGradient><filter id="master_svg1_537_38116" filterUnits="objectBoundingBox" color-interpolation-filters="sRGB" x="0" y="0" width="7.022623062133789" height="7.022623062133789"><feFlood flood-opacity="0" result="BackgroundImageFix"/><feBlend mode="normal" in="SourceGraphic" in2="BackgroundImageFix" result="shape"/><feGaussianBlur in="BackgroundImage" stdDeviation="5"/><feComposite in2="SourceAlpha" operator="in" result="effect1_foregroundBlur"/><feBlend mode="normal" in="SourceGraphic" in2="effect1_foregroundBlur" result="shape"/></filter><linearGradient x1="0.11156995594501495" y1="0.053475771099328995" x2="1" y2="0.935828685760498" id="master_svg2_306_37181"><stop offset="0%" stop-color="#DFECFF" stop-opacity="0.10000000149011612"/><stop offset="100%" stop-color="#F0F6FF" stop-opacity="1"/></linearGradient></defs><g style="mix-blend-mode:passthrough"><g style="mix-blend-mode:passthrough"><g><path d="M12.148378234863282,5.872567595062256C12.148378234863282,7.756687595062256,10.61893823486328,9.284137595062255,8.734818234863281,9.284137595062255C6.850698234863281,9.284137595062255,5.321238234863282,7.7546775950622555,5.321238234863282,5.872567595062256C5.321238234863282,3.988457595062256,6.848678234863281,2.461007595062256,8.732798234863282,2.461007595062256C10.616918234863281,2.461007595062256,12.148378234863282,3.988457595062256,12.148378234863282,5.872567595062256ZM14.54377823486328,15.607507595062255L2.939694234863281,15.607507595062255C2.3208462348632812,15.607507595062255,1.4139572348632812,14.820607595062256,2.032890334863281,14.454207595062256C2.781201234863281,12.066937595062257,4.510818234863281,10.198807595062256,6.679188234863282,9.461497595062255L8.732568234863281,11.805057595062255L10.787968234863282,9.461497595062255C13.151678234863281,10.310507595062255,14.735478234863281,12.326987595062256,15.44377823486328,14.447707595062257C16.06787823486328,14.783207595062256,15.167778234863281,15.607507595062255,14.54377823486328,15.607507595062255ZM4.234808234863282,12.943307595062256Q4.234808234863282,12.907707595062256,4.241758234863282,12.872807595062255Q4.248698234863282,12.837907595062255,4.262328234863281,12.805007595062255Q4.275948234863281,12.772107595062256,4.295728234863281,12.742507595062255Q4.315508234863281,12.712907595062255,4.340678234863281,12.687707595062255Q4.365848234863281,12.662507595062255,4.395448234863281,12.642807595062257Q4.425058234863281,12.623007595062257,4.457948234863281,12.609407595062256Q4.490838234863281,12.595707595062256,4.525748234863281,12.588807595062256Q4.560668234863281,12.581807595062255,4.596268234863281,12.581807595062255L6.145378234863281,12.581807595062255Q6.180978234863281,12.581807595062255,6.215888234863281,12.588807595062256Q6.250808234863281,12.595707595062256,6.283698234863281,12.609407595062256Q6.316588234863281,12.623007595062257,6.346188234863281,12.642807595062257Q6.375788234863281,12.662507595062255,6.4009682348632815,12.687707595062255Q6.426138234863282,12.712907595062255,6.4459182348632815,12.742507595062255Q6.465698234863281,12.772107595062256,6.479318234863281,12.805007595062255Q6.492948234863281,12.837907595062255,6.499888234863281,12.872807595062255Q6.506838234863281,12.907707595062256,6.506838234863281,12.943307595062256Q6.506838234863281,12.978907595062255,6.499888234863281,13.013807595062255Q6.492948234863281,13.048707595062256,6.479318234863281,13.081607595062255Q6.465698234863281,13.114507595062255,6.4459182348632815,13.144107595062255Q6.426138234863282,13.173707595062256,6.4009682348632815,13.198907595062256Q6.375788234863281,13.224107595062256,6.346188234863281,13.243807595062256Q6.316588234863281,13.263607595062256,6.283698234863281,13.277307595062256Q6.250808234863281,13.290907595062256,6.215888234863281,13.297807595062256Q6.180978234863281,13.304807595062256,6.145378234863281,13.304807595062256L4.596268234863281,13.304807595062256Q4.560668234863281,13.304807595062256,4.525748234863281,13.297807595062256Q4.490838234863281,13.290907595062256,4.457948234863281,13.277307595062256Q4.425058234863281,13.263607595062256,4.395448234863281,13.243807595062256Q4.365848234863281,13.224107595062256,4.340678234863281,13.198907595062256Q4.315508234863281,13.173707595062256,4.295728234863281,13.144107595062255Q4.275948234863281,13.114507595062255,4.262328234863281,13.081607595062255Q4.248698234863282,13.048707595062256,4.241758234863282,13.013807595062255Q4.234808234863282,12.978907595062255,4.234808234863282,12.943307595062256Z" fill-rule="evenodd" fill="url(#master_svg0_306_37192)" fill-opacity="1"/></g><g style="mix-blend-mode:passthrough" filter="url(#master_svg1_537_38116)"><rect x="10.984997749328613" y="10.516369342803955" width="7.022623062133789" height="7.022623062133789" rx="2" fill="url(#master_svg2_306_37181)" fill-opacity="1"/><rect x="10.984997749328613" y="10.516369342803955" width="7.022623062133789" height="7.022623062133789" rx="2" fill="#FE9025" fill-opacity="1"/></g><g style="mix-blend-mode:passthrough"><g><path d="M16.355243038024902,13.105592976898194C16.355243038024902,12.769352976898194,16.0856530380249,12.497014976898193,15.752803038024902,12.497014976898193C15.611613038024903,12.497014976898193,15.482093038024903,12.546080976898192,15.379303038024903,12.627858976898194C15.141343038024903,12.468487476898193,14.855183038024903,12.375298976898193,14.547943038024902,12.375298976898193C14.240703038024902,12.375298976898193,13.954553038024903,12.468487476898193,13.716591038024902,12.627858976898194C13.613801038024903,12.546080976898192,13.484279038024903,12.497014976898193,13.343084038024902,12.497014976898193C13.010241038024903,12.497014976898193,12.740653038024902,12.769352976898194,12.740653038024902,13.105592976898194C12.740653038024902,13.339514976898194,12.870929038024903,13.542248976898193,13.062577038024902,13.644188976898194C13.049022038024903,13.726338976898193,13.041868038024901,13.810778976898193,13.041868038024901,13.896748976898193C13.041868038024901,14.525478976898194,13.419141038024902,15.064838976898194,13.957563038024903,15.296858976898193C14.013663038024902,15.574518976898194,14.256523038024902,15.783338976898193,14.547943038024902,15.783338976898193C14.839373038024902,15.783338976898193,15.082223038024903,15.574518976898194,15.138333038024902,15.296858976898193C15.676753038024902,15.064838976898194,16.0540230380249,14.525478976898194,16.0540230380249,13.896748976898193C16.0540230380249,13.810778976898193,16.046873038024902,13.726338976898193,16.033313038024904,13.644188976898194C16.224963038024903,13.542248976898193,16.355243038024902,13.339514976898194,16.355243038024902,13.105592976898194ZM13.103241038024903,13.105592976898194C13.103241038024903,12.972085976898192,13.210926038024903,12.863302976898193,13.343084038024902,12.863302976898193C13.373205038024903,12.863302976898193,13.401821038024902,12.869007976898194,13.428177038024902,12.879277976898193C13.518542038024902,12.914270976898193,13.582927038024902,13.002514976898194,13.582927038024902,13.105592976898194C13.582927038024902,13.239099976898194,13.475242038024902,13.347882976898193,13.343084038024902,13.347882976898193C13.276440038024901,13.347882976898193,13.216197038024902,13.320116976898193,13.172521038024902,13.275994976898193C13.129597038024903,13.231872976898194,13.103241038024903,13.171775976898193,13.103241038024903,13.105592976898194ZM14.787793038024903,15.174758976898193C14.787793038024903,15.308268976898194,14.680103038024903,15.417048976898194,14.547943038024902,15.417048976898194C14.415783038024902,15.417048976898194,14.308103038024903,15.308268976898194,14.308103038024903,15.174758976898193C14.308103038024903,15.123408976898194,14.324293038024901,15.075488976898193,14.351403038024902,15.036308976898194C14.394703038024902,14.973548976898194,14.466613038024903,14.932468976898193,14.547943038024902,14.932468976898193C14.629273038024902,14.932468976898193,14.701193038024902,14.973548976898194,14.744493038024903,15.036308976898194C14.771603038024903,15.075488976898193,14.787793038024903,15.123408976898194,14.787793038024903,15.174758976898193ZM15.602573038024902,14.346708976898194C15.544973038024903,14.484398976898193,15.462513038024902,14.608018976898194,15.357463038024903,14.714518976898194C15.278393038024902,14.794398976898194,15.189533038024901,14.861338976898192,15.092773038024902,14.914208976898193C14.996003038024902,14.708438976898194,14.788543038024903,14.566178976898193,14.547943038024902,14.566178976898193C14.307353038024903,14.566178976898193,14.099883038024903,14.708438976898194,14.003503038024903,14.914208976898193C13.906353038024902,14.861338976898192,13.817503038024903,14.794018976898194,13.738429038024902,14.714518976898194C13.633380038024903,14.608398976898194,13.550546038024903,14.484398976898193,13.492939038024902,14.346708976898194C13.433449038024902,14.204458976898193,13.403327038024901,14.053068976898194,13.403327038024901,13.896748976898193C13.403327038024901,13.833608976898194,13.408222038024903,13.770848976898193,13.418011038024902,13.709608976898194C13.715462038024903,13.672328976898193,13.945513038024902,13.415968976898194,13.945513038024902,13.105592976898194C13.945513038024902,13.044354976898193,13.936483038024903,12.985398976898193,13.919913038024902,12.929484976898193C13.977523038024902,12.891448976898193,14.038513038024902,12.858357976898194,14.102523038024902,12.830971976898194C14.243343038024902,12.770874976898194,14.393193038024902,12.740445976898194,14.547943038024902,12.740445976898194C14.702693038024902,12.740445976898194,14.852553038024903,12.770874976898194,14.993373038024902,12.831351976898194C15.057373038024902,12.858737976898194,15.118373038024902,12.891829976898194,15.175983038024903,12.929865976898194C15.159413038024901,12.985398976898193,15.150373038024902,13.044734976898193,15.150373038024902,13.105972976898194C15.150373038024902,13.416348976898194,15.380433038024902,13.672708976898193,15.677883038024902,13.709988976898194C15.687673038024903,13.771608976898193,15.692563038024902,13.833988976898194,15.692563038024902,13.897128976898193C15.692563038024902,14.053068976898194,15.662443038024902,14.204458976898193,15.602573038024902,14.346708976898194ZM15.752803038024902,13.347882976898193C15.620653038024901,13.347882976898193,15.512963038024903,13.239099976898194,15.512963038024903,13.105592976898194C15.512963038024903,13.002514976898194,15.577353038024903,12.913890976898193,15.667713038024903,12.879277976898193C15.694873038024902,12.868725976898194,15.723713038024902,12.863310976898193,15.752803038024902,12.863302976898193C15.884963038024903,12.863302976898193,15.992653038024901,12.972085976898192,15.992653038024901,13.105592976898194C15.992653038024901,13.171775976898193,15.966293038024903,13.231872976898194,15.923373038024902,13.275994976898193C15.879693038024902,13.320496976898193,15.819453038024903,13.347882976898193,15.752803038024902,13.347882976898193Z" fill="#FFFFFF" fill-opacity="1"/></g></g></g></g></svg>