<svg xmlns="http://www.w3.org/2000/svg" xmlns:xlink="http://www.w3.org/1999/xlink" fill="none" version="1.1" width="20" height="20" viewBox="0 0 20 20"><defs><linearGradient x1="0.543885350227356" y1="1" x2="0.5390270352363586" y2="0" id="master_svg0_306_37246"><stop offset="0%" stop-color="#387FF7" stop-opacity="1"/><stop offset="100.00003576278687%" stop-color="#1890FF" stop-opacity="1"/></linearGradient><filter id="master_svg1_537_38142" filterUnits="objectBoundingBox" color-interpolation-filters="sRGB" x="0" y="0" width="7.019354820251465" height="7.019354820251465"><feFlood flood-opacity="0" result="BackgroundImageFix"/><feBlend mode="normal" in="SourceGraphic" in2="BackgroundImageFix" result="shape"/><feGaussianBlur in="BackgroundImage" stdDeviation="5"/><feComposite in2="SourceAlpha" operator="in" result="effect1_foregroundBlur"/><feBlend mode="normal" in="SourceGraphic" in2="effect1_foregroundBlur" result="shape"/></filter><linearGradient x1="0.11156995594501495" y1="0.053475771099328995" x2="1" y2="0.935828685760498" id="master_svg2_306_37181"><stop offset="0%" stop-color="#DFECFF" stop-opacity="0.10000000149011612"/><stop offset="100%" stop-color="#F0F6FF" stop-opacity="1"/></linearGradient></defs><g style="mix-blend-mode:passthrough"><g style="mix-blend-mode:passthrough"><g><path d="M14.4197,2.8258058219875L2.689973,2.8258058219875C2.310493,2.8258058219875,2,3.1362986640625,2,3.5157786640625L2,5.9307356640624995L15.1097,5.9307356640624995L15.1097,3.5157786640625C15.1097,3.1362986640625,14.7992,2.8258056640625,14.4197,2.8258058219875ZM5.27741,4.8957556640625L3.89745,4.8957556640625C3.6214500000000003,4.8957556640625,3.37996,4.6542556640625,3.37996,4.3782656640625C3.37996,4.1022856640625,3.6214500000000003,3.8607856640625,3.89745,3.8607856640625L5.27741,3.8607856640625C5.5534099999999995,3.8607856640625,5.7949,4.1022656640625,5.7949,4.3782656640625C5.7949,4.6542656640625,5.5534099999999995,4.8957556640625,5.27741,4.8957556640625ZM13.2122,4.8957556640625L7.69236,4.8957556640625C7.41636,4.8957556640625,7.17488,4.6542556640625,7.17488,4.3782656640625C7.17488,4.1022856640625,7.41636,3.8607856640625,7.69236,3.8607856640625L13.2122,3.8607856640625C13.4882,3.8607856640625,13.7297,4.1022656640625,13.7297,4.3782656640625C13.7297,4.6542656640625,13.4882,4.8957556640625,13.2122,4.8957556640625ZM2.000000631699,15.2455056640625C2.000000631699,15.6250056640625,2.310493,15.9355056640625,2.689973,15.9355056640625L14.4197,15.9355056640625C14.7992,15.9355056640625,15.1097,15.6250056640625,15.1097,15.2455056640625L15.1097,6.9657056640625L2.000000157925,6.9657056640625L2.000000631699,15.2455056640625Z" fill="#000000" fill-opacity="1"/><path d="M14.4197,2.8258058219875L2.689973,2.8258058219875C2.310493,2.8258058219875,2,3.1362986640625,2,3.5157786640625L2,5.9307356640624995L15.1097,5.9307356640624995L15.1097,3.5157786640625C15.1097,3.1362986640625,14.7992,2.8258056640625,14.4197,2.8258058219875ZM5.27741,4.8957556640625L3.89745,4.8957556640625C3.6214500000000003,4.8957556640625,3.37996,4.6542556640625,3.37996,4.3782656640625C3.37996,4.1022856640625,3.6214500000000003,3.8607856640625,3.89745,3.8607856640625L5.27741,3.8607856640625C5.5534099999999995,3.8607856640625,5.7949,4.1022656640625,5.7949,4.3782656640625C5.7949,4.6542656640625,5.5534099999999995,4.8957556640625,5.27741,4.8957556640625ZM13.2122,4.8957556640625L7.69236,4.8957556640625C7.41636,4.8957556640625,7.17488,4.6542556640625,7.17488,4.3782656640625C7.17488,4.1022856640625,7.41636,3.8607856640625,7.69236,3.8607856640625L13.2122,3.8607856640625C13.4882,3.8607856640625,13.7297,4.1022656640625,13.7297,4.3782656640625C13.7297,4.6542656640625,13.4882,4.8957556640625,13.2122,4.8957556640625ZM2.000000631699,15.2455056640625C2.000000631699,15.6250056640625,2.310493,15.9355056640625,2.689973,15.9355056640625L14.4197,15.9355056640625C14.7992,15.9355056640625,15.1097,15.6250056640625,15.1097,15.2455056640625L15.1097,6.9657056640625L2.000000157925,6.9657056640625L2.000000631699,15.2455056640625Z" fill="url(#master_svg0_306_37246)" fill-opacity="1"/></g><g style="mix-blend-mode:passthrough" filter="url(#master_svg1_537_38142)"><rect x="10.980645179748535" y="10.154837608337402" width="7.019354820251465" height="7.019354820251465" rx="2" fill="url(#master_svg2_306_37181)" fill-opacity="1"/><rect x="10.980645179748535" y="10.154837608337402" width="7.019354820251465" height="7.019354820251465" rx="2" fill="#FE9025" fill-opacity="1"/></g><g><path d="M14.48243,13.779945282592774C15.053519999999999,13.779945282592774,15.5171,13.320095282592774,15.5171,12.752875282592774C15.5171,12.185651282592774,15.05291,11.725805282592773,14.481819999999999,11.725805282592773C13.910730000000001,11.725805282592773,13.447754,12.185651282592774,13.447754,12.752875282592774C13.447754,13.319495282592774,13.91134,13.779945282592774,14.48243,13.779945282592774ZM16.00664,15.683535282592773L12.959804,15.683535282592773C12.650116,15.683535282592773,12.221849,15.290605282592773,12.5315426,15.117255282592772C12.78862,14.504265282592772,13.270727,14.032105282592774,13.85959,13.833225282592773L14.48198,14.538765282592774L15.10498,13.833225282592773C15.73572,14.058245282592774,16.183230000000002,14.555665282592773,16.42778,15.107085282592774C16.74006,15.270655282592774,16.31893,15.683535282592773,16.00664,15.683535282592773" fill="#FFFFFF" fill-opacity="1"/></g></g></g></svg>