<svg xmlns="http://www.w3.org/2000/svg" xmlns:xlink="http://www.w3.org/1999/xlink" fill="none" version="1.1" width="20" height="20" viewBox="0 0 20 20"><defs><linearGradient x1="0.543885350227356" y1="1" x2="0.5390270352363586" y2="0" id="master_svg0_306_37246"><stop offset="0%" stop-color="#387FF7" stop-opacity="1"/><stop offset="100.00003576278687%" stop-color="#1890FF" stop-opacity="1"/></linearGradient><filter id="master_svg1_537_38178" filterUnits="objectBoundingBox" color-interpolation-filters="sRGB" x="0" y="0" width="7.827338218688965" height="7.827338218688965"><feFlood flood-opacity="0" result="BackgroundImageFix"/><feBlend mode="normal" in="SourceGraphic" in2="BackgroundImageFix" result="shape"/><feGaussianBlur in="BackgroundImage" stdDeviation="5"/><feComposite in2="SourceAlpha" operator="in" result="effect1_foregroundBlur"/><feBlend mode="normal" in="SourceGraphic" in2="effect1_foregroundBlur" result="shape"/></filter><linearGradient x1="0.11156995594501495" y1="0.053475771099328995" x2="1" y2="0.935828685760498" id="master_svg2_306_37181"><stop offset="0%" stop-color="#DFECFF" stop-opacity="0.10000000149011612"/><stop offset="100%" stop-color="#F0F6FF" stop-opacity="1"/></linearGradient></defs><g style="mix-blend-mode:passthrough"><g style="mix-blend-mode:passthrough"><g><path d="M4,2.0000034296971583L12.5467,2.0000010367971583C13.6512,2.0000007275401583,15.6513,3.046880476837158,14.5468,4.010070476837158C14.5467,6.986440476837158,14.5468,9.962800476837158,14.5468,12.939200476837158Q14.5468,13.353500476837159,14.2006,13.685000476837159L11.44766,16.336900476837158Q11.23336,16.51930047683716,11.085,16.56900047683716Q10.93664,16.61870047683716,10.70585,16.61870047683716L4,16.61870047683716C4,16.61870047683716,1.999999836285,15.749800476837159,1.99999973381,14.645200476837159C1.999999403774,11.087960476837159,1.999999820379,7.5307504768371585,1.9999999584559,3.9735304768371584C0.89543,2.6863644768371584,2.895592,2.000003738947158,4,2.0000034296971583M8.942,12.392200476837159Q9.1563,12.392200476837159,9.30466,12.243000476837159Q9.45302,12.093900476837158,9.45303,11.878400476837157Q9.45303,11.646360476837158,9.30466,11.505470476837159Q9.1563,11.364590476837158,8.942,11.364590476837158L4.58808,11.364590476837158Q4.37378,11.364590476837158,4.22542,11.505470476837159Q4.0770599999999995,11.646360476837158,4.0770599999999995,11.878400476837157Q4.0770599999999995,12.093900476837158,4.22542,12.243000476837159Q4.37378,12.392200476837159,4.58808,12.392200476837159L8.942,12.392200476837159ZM11.00257,9.276200476837158Q11.21687,9.276200476837158,11.36523,9.12703047683716Q11.51359,8.977860476837158,11.51359,8.762390476837158Q11.5136,8.546930476837158,11.36523,8.397760476837158Q11.21687,8.248590476837158,11.00257,8.248580476837159L4.58808,8.248580476837159Q4.37378,8.248580476837159,4.22542,8.397760476837158Q4.0770599999999995,8.546930476837158,4.0770599999999995,8.762390476837158Q4.0770599999999995,8.977860476837158,4.22542,9.12703047683716Q4.37378,9.276200476837158,4.58808,9.276200476837158L11.00257,9.276200476837158ZM12.0246,6.1767704768371585Q12.2389,6.1767704768371585,12.3873,6.027600476837158Q12.5356,5.878430476837158,12.5356,5.6463904768371584Q12.5356,5.430920476837159,12.3873,5.281750476837159Q12.2389,5.132580476837158,12.0246,5.132580476837158L4.58808,5.132580476837158Q4.37378,5.132580476837158,4.22542,5.281750476837159Q4.0770599999999995,5.430920476837159,4.0770599999999995,5.6463904768371584Q4.0770599999999995,5.878430476837158,4.22542,6.027600476837158Q4.37378,6.1767704768371585,4.58808,6.1767704768371585L12.0246,6.1767704768371585Z" fill="#000000" fill-opacity="1"/><path d="M4,2.0000034296971583L12.5467,2.0000010367971583C13.6512,2.0000007275401583,15.6513,3.046880476837158,14.5468,4.010070476837158C14.5467,6.986440476837158,14.5468,9.962800476837158,14.5468,12.939200476837158Q14.5468,13.353500476837159,14.2006,13.685000476837159L11.44766,16.336900476837158Q11.23336,16.51930047683716,11.085,16.56900047683716Q10.93664,16.61870047683716,10.70585,16.61870047683716L4,16.61870047683716C4,16.61870047683716,1.999999836285,15.749800476837159,1.99999973381,14.645200476837159C1.999999403774,11.087960476837159,1.999999820379,7.5307504768371585,1.9999999584559,3.9735304768371584C0.89543,2.6863644768371584,2.895592,2.000003738947158,4,2.0000034296971583M8.942,12.392200476837159Q9.1563,12.392200476837159,9.30466,12.243000476837159Q9.45302,12.093900476837158,9.45303,11.878400476837157Q9.45303,11.646360476837158,9.30466,11.505470476837159Q9.1563,11.364590476837158,8.942,11.364590476837158L4.58808,11.364590476837158Q4.37378,11.364590476837158,4.22542,11.505470476837159Q4.0770599999999995,11.646360476837158,4.0770599999999995,11.878400476837157Q4.0770599999999995,12.093900476837158,4.22542,12.243000476837159Q4.37378,12.392200476837159,4.58808,12.392200476837159L8.942,12.392200476837159ZM11.00257,9.276200476837158Q11.21687,9.276200476837158,11.36523,9.12703047683716Q11.51359,8.977860476837158,11.51359,8.762390476837158Q11.5136,8.546930476837158,11.36523,8.397760476837158Q11.21687,8.248590476837158,11.00257,8.248580476837159L4.58808,8.248580476837159Q4.37378,8.248580476837159,4.22542,8.397760476837158Q4.0770599999999995,8.546930476837158,4.0770599999999995,8.762390476837158Q4.0770599999999995,8.977860476837158,4.22542,9.12703047683716Q4.37378,9.276200476837158,4.58808,9.276200476837158L11.00257,9.276200476837158ZM12.0246,6.1767704768371585Q12.2389,6.1767704768371585,12.3873,6.027600476837158Q12.5356,5.878430476837158,12.5356,5.6463904768371584Q12.5356,5.430920476837159,12.3873,5.281750476837159Q12.2389,5.132580476837158,12.0246,5.132580476837158L4.58808,5.132580476837158Q4.37378,5.132580476837158,4.22542,5.281750476837159Q4.0770599999999995,5.430920476837159,4.0770599999999995,5.6463904768371584Q4.0770599999999995,5.878430476837158,4.22542,6.027600476837158Q4.37378,6.1767704768371585,4.58808,6.1767704768371585L12.0246,6.1767704768371585Z" fill="url(#master_svg0_306_37246)" fill-opacity="1"/></g><g style="mix-blend-mode:passthrough" filter="url(#master_svg1_537_38178)"><rect x="10.172662734985352" y="10.17266321182251" width="7.827338218688965" height="7.827338218688965" rx="2" fill="url(#master_svg2_306_37181)" fill-opacity="1"/><rect x="10.172662734985352" y="10.17266321182251" width="7.827338218688965" height="7.827338218688965" rx="2" fill="#FE9025" fill-opacity="1"/></g><g><path d="M15.847486574401856,13.74100856124878L15.260436574401854,13.74100856124878L15.260436574401854,13.05035856124878C15.260436574401854,12.47625956124878,14.736976574401854,12.01438856124878,14.086326574401856,12.01438856124878C13.435686574401856,12.01438856124878,12.912230574401855,12.47625956124878,12.912230574401855,13.05035856124878L12.912230574401855,13.74100856124878L12.325179574401856,13.74100856124878C12.217554174401856,13.74100856124878,12.129496574401855,13.81870856124878,12.129496574401855,13.91366856124878L12.129496574401855,15.98560856124878C12.129496574401855,16.080578561248778,12.217554174401856,16.15827856124878,12.325179574401856,16.15827856124878L15.847486574401856,16.15827856124878C15.955106574401857,16.15827856124878,16.043166574401855,16.080578561248778,16.043166574401855,15.98560856124878L16.043166574401855,13.91366856124878C16.043166574401855,13.81870856124878,15.955106574401857,13.74100856124878,15.847486574401856,13.74100856124878ZM14.086326574401856,15.29496856124878C13.871076574401854,15.29496856124878,13.694966574401855,15.13956856124878,13.694966574401855,14.94963856124878C13.694966574401855,14.759708561248779,13.871076574401854,14.604318561248778,14.086326574401856,14.604318561248778C14.301586574401856,14.604318561248778,14.477696574401856,14.759708561248779,14.477696574401856,14.94963856124878C14.477696574401856,15.13956856124878,14.301586574401856,15.29496856124878,14.086326574401856,15.29496856124878ZM14.869066574401856,13.74100856124878L13.303596574401855,13.74100856124878L13.303596574401855,13.05035856124878C13.303596574401855,12.670503561248779,13.655826574401855,12.359712561248779,14.086326574401856,12.359712561248779C14.516836574401855,12.359712561248779,14.869066574401856,12.670503561248779,14.869066574401856,13.05035856124878L14.869066574401856,13.74100856124878Z" fill="#FFFFFF" fill-opacity="1"/></g></g></g></svg>