<svg xmlns="http://www.w3.org/2000/svg" xmlns:xlink="http://www.w3.org/1999/xlink" fill="none" version="1.1" width="20" height="20" viewBox="0 0 20 20"><defs><clipPath id="master_svg0_13286_087078/13286_061239"><rect x="0" y="0" width="20" height="20" rx="0"/></clipPath></defs><g clip-path="url(#master_svg0_13286_087078/13286_061239)"><g><path d="M3,15.30384296875L3,4.69631296875Q3,4.13100496875,3.399731,3.73127396875Q3.7994630000000003,3.33154296875,4.36477,3.33154296875L8.34258,3.33154296875C8.55086,3.33154296875,8.748380000000001,3.42405626875,8.88172,3.5840609687500002L10.328710000000001,5.32045296875L15.6352,5.32045296875Q16.200499999999998,5.32045296875,16.6003,5.72017296875Q17,6.11990296875,17,6.68521296875L17,15.30384296875Q17,15.86914296875,16.6003,16.26884296875Q16.200499999999998,16.66854296875,15.6352,16.66854296875L4.36477,16.66854296875Q3.799462,16.66854296875,3.399733,16.26884296875Q3,15.86914296875,3,15.30384296875ZM7.35012,10.99447296875L6.18909,12.15550296875C6.05734,12.28726296875,5.9834,12.46576296875,5.9834,12.65189296875C5.9834,12.83802296875,6.05734,13.01653296875,6.18895,13.14814296875C6.32056,13.27975296875,6.49907,13.35374296875,6.6852,13.35374296875C6.87133,13.35374296875,7.04983,13.27975296875,7.18159,13.14800296875L8.83887,11.49072296875C9.11294,11.216652968750001,9.11294,10.772292968750001,8.83887,10.49822296875L7.18145,8.840802968750001C7.04983,8.70919296875,6.87133,8.635252968749999,6.6852,8.635252968749999C6.49907,8.635252968749999,6.32056,8.70919296875,6.18895,8.840802968750001C6.05734,8.97242296875,5.9834,9.150922968749999,5.9834,9.337052968750001C5.9834,9.52318296875,6.05734,9.70168296875,6.18895,9.83330296875L7.35012,10.99447296875ZM10.66274,13.35364296875L13.3146,13.35364296875C13.7022,13.35364296875,14.0164,13.03946296875,14.0164,12.65187296875C14.0164,12.26428296875,13.7022,11.95007296875,13.3146,11.95007296875L10.66274,11.95007296875C10.27514,11.95007296875,9.96094,12.26428296875,9.96094,12.65187296875C9.96094,13.03946296875,10.27514,13.35364296875,10.66274,13.35364296875Z" fill-rule="evenodd" fill="#1890FF" fill-opacity="1"/></g></g></svg>