<svg xmlns="http://www.w3.org/2000/svg" xmlns:xlink="http://www.w3.org/1999/xlink" fill="none" version="1.1" width="20" height="20" viewBox="0 0 20 20"><g><g><path d="M10.577372846984863,6.266674781951904C11.464042846984864,6.266674781951904,12.210702846984864,5.566674781951905,12.210702846984864,4.633344781951904C12.210702846984864,3.7466807819519046,11.464042846984864,3.0000147819519043,10.577372846984863,3.0000147819519043C9.690712846984862,3.0000147819519043,8.944042846984864,3.7000147819519045,8.944042846984864,4.633344781951904C8.990712846984863,5.520014781951904,9.690712846984862,6.266674781951904,10.577372846984863,6.266674781951904ZM8.244042846984863,6.080004781951905C8.570712846984863,5.893334781951904,8.710712846984864,5.520004781951904,8.524042846984862,5.193334781951904C8.337382846984863,4.866664781951904,7.964042846984864,4.7266647819519045,7.637382846984863,4.913334781951904C6.610712846984864,5.426664781951905,5.724052846984863,6.266664781951905,5.117382846984864,7.246664781951904C4.4173828469848635,8.366664781951904,4.090715846984863,9.673334781951905,4.137382846984863,11.026664781951904C4.137382846984863,11.399994781951904,4.464049846984864,11.633334781951904,4.790715846984863,11.633334781951904L4.837382846984863,11.633334781951904C5.210712846984864,11.633334781951904,5.490712846984863,11.306664781951904,5.444052846984864,10.933334781951904C5.350712846984863,8.879994781951904,6.424042846984863,7.0133347819519045,8.244042846984863,6.080004781951905ZM16.037422846984864,7.246664781951904C15.430722846984864,6.266664781951905,14.544022846984863,5.4733347819519045,13.517402846984863,4.913334781951904C13.190732846984863,4.7266647819519045,12.770732846984863,4.866664781951904,12.630742846984864,5.193334781951904C12.537402846984863,5.333334781951905,12.537402846984863,5.520004781951904,12.584072846984864,5.706664781951904C12.630742846984864,5.893334781951904,12.770732846984863,6.033334781951904,12.910742846984864,6.080004781951905L12.957402846984863,6.080004781951905C14.730722846984863,7.0133347819519045,15.804022846984862,8.926664781951905,15.664022846984864,10.933334781951904C15.664022846984864,11.119994781951904,15.710722846984863,11.259994781951905,15.850722846984864,11.399994781951904C15.990722846984863,11.539994781951904,16.130722846984863,11.633334781951904,16.364022846984863,11.633334781951904C16.737422846984863,11.633334781951904,17.017422846984864,11.353334781951904,17.017422846984864,11.026664781951904C17.064022846984862,9.673334781951905,16.737422846984863,8.366664781951904,16.037422846984864,7.246664781951904ZM16.037122846984865,11.866724781951904C15.243822846984862,11.400054781951905,14.263822846984864,11.680054781951904,13.843832846984863,12.473384781951903C13.377162846984863,13.266714781951904,13.657162846984864,14.246714781951905,14.450522846984864,14.666714781951905C15.243822846984862,15.133414781951904,16.223822846984863,14.853414781951905,16.64382284698486,14.060014781951905C17.063822846984863,13.313414781951904,16.78382284698486,12.286724781951904,16.037122846984865,11.866724781951904ZM6.983932846984864,12.613294781951904C6.517262846984863,11.819964781951905,5.537262846984863,11.586624781951905,4.790600846984863,12.006624781951905C3.997267546984863,12.426624781951904,3.7639348469848635,13.453314781951905,4.183933846984863,14.199914781951904C4.650600846984863,14.993314781951904,5.630602846984863,15.226614781951904,6.377262846984863,14.806614781951904C7.170602846984863,14.386614781951904,7.403932846984864,13.406614781951903,6.983932846984864,12.613294781951904ZM13.283852846984864,14.900014781951905C12.490522846984863,15.413314781951904,11.557182846984864,15.693314781951905,10.577192846984863,15.693314781951905C9.597192846984864,15.693314781951905,8.663852846984863,15.413314781951904,7.823852846984863,14.900014781951905C7.497192846984863,14.713314781951905,7.123852846984864,14.806614781951904,6.890522846984863,15.086614781951905C6.703852846984864,15.413314781951904,6.7971928469848635,15.786614781951904,7.077192846984863,16.020014781951904C8.103852846984864,16.673314781951902,9.317192846984863,17.000014781951904,10.530522846984862,17.000014781951904C11.743852846984863,17.000014781951904,12.910522846984863,16.673314781951902,13.937182846984863,16.020014781951904C14.077222846984863,15.926614781951905,14.170522846984863,15.786614781951904,14.217222846984864,15.600014781951904C14.263822846984864,15.413314781951904,14.217222846984864,15.226614781951904,14.123822846984863,15.086614781951905C13.983822846984863,14.806614781951904,13.563852846984863,14.713314781951905,13.283852846984864,14.900014781951905Z" fill-rule="evenodd" fill="#1890FF" fill-opacity="1"/></g></g></svg>