<svg xmlns="http://www.w3.org/2000/svg" xmlns:xlink="http://www.w3.org/1999/xlink" fill="none" version="1.1" width="20" height="20" viewBox="0 0 20 20"><g><g><path d="M12.19903,8.504850000000001L11.12864,8.504850000000001L11.12864,9.37136L13.8981,9.37136Q14.3342,9.37136,14.6428,9.68001Q14.9515,9.98866,14.9515,10.42476L14.9515,11.49515L16.4466,11.49515Q16.8827,11.49514,17.1914,11.80379Q17.5,12.11244,17.5,12.54854L17.5,15.9466Q17.5,16.3827,17.1914,16.6914Q16.8827,17,16.4466,17L13.04854,17Q12.61244,17,12.30379,16.6914Q11.99515,16.3827,11.99515,15.9466L11.99515,12.54854Q11.99514,12.11244,12.30379,11.80379Q12.61244,11.49515,13.04854,11.49515L13.6942,11.49515L13.6942,10.62864L7.30583,10.62864L7.30583,11.49515L7.95146,11.49515Q8.38756,11.49514,8.69621,11.80379Q9.004850000000001,12.11244,9.004850000000001,12.54854L9.004850000000001,15.9466Q9.004850000000001,16.3827,8.69621,16.6914Q8.38756,17,7.95146,17L4.5534,17Q4.117296,17,3.808648,16.6914Q3.5,16.3827,3.5,15.9466L3.5,12.54854Q3.5,12.11244,3.808648,11.80379Q4.117296,11.49515,4.5534,11.49515L6.04854,11.49515L6.04854,10.42476Q6.04854,9.98866,6.35719,9.68001Q6.66584,9.37136,7.10194,9.37136L9.87136,9.37136L9.87136,8.504850000000001L8.80097,8.504850000000001Q8.36487,8.504850000000001,8.05622,8.19621Q7.74757,7.88756,7.74757,7.45146L7.74757,4.0534Q7.74757,3.6172969999999998,8.05622,3.308648Q8.36487,3,8.80097,3L12.19903,3Q12.63513,3,12.94378,3.308648Q13.25243,3.617296,13.25243,4.0534L13.25243,7.45146Q13.25243,7.88756,12.94378,8.19621Q12.63513,8.504850000000001,12.19903,8.504850000000001Z" fill-rule="evenodd" fill="#1890FF" fill-opacity="1"/></g></g></svg>