<svg xmlns="http://www.w3.org/2000/svg" xmlns:xlink="http://www.w3.org/1999/xlink" fill="none" version="1.1" width="20" height="20" viewBox="0 0 20 20"><g><g><path d="M14.7887,10.030773636169434L14.7876,10.031923636169434Q14.4073,10.426073636169434,13.8511,10.426073636169434Q13.29415,10.426073636169434,12.91349,10.030773636169434L10.57722,7.6600436361694335Q10.19361,7.269053636169434,10.19361,6.716813636169434Q10.19361,6.164563636169434,10.57697,5.773833636169433L12.91481,3.4014846361694335Q13.2992,3.0097036361694336,13.8468,3.0097036361694336Q14.3944,3.0097036361694336,14.7791,3.4017416361694335L17.1164,5.773573636169433Q17.5,6.164563636169434,17.5,6.716813636169434Q17.5,7.269053636169434,17.1166,7.659783636169434L14.7887,10.030773636169434ZM9.67641,8.398833636169433Q9.67641,8.951753636169434,9.291260000000001,9.346833636169434Q8.90345,9.744633636169434,8.35649,9.744633636169434L4.81992,9.744633636169434Q4.272645,9.744633636169434,3.885728,9.351733636169435Q3.5,8.960043636169434,3.5,8.407463636169433L3.5,4.810513636169434Q3.5,4.257933636169433,3.885728,3.866239636169434Q4.272645,3.4733396361694338,4.81992,3.4733396361694338L8.35649,3.4733396361694338Q8.90377,3.4733396361694338,9.29068,3.866239636169434Q9.67641,4.257933636169433,9.67641,4.810513636169434L9.67641,8.398833636169433ZM9.67641,15.653103636169433Q9.67641,16.20570363616943,9.29068,16.59740363616943Q8.90377,16.990303636169436,8.35649,16.990303636169436L4.81992,16.990303636169436Q4.272645,16.990303636169436,3.885728,16.59740363616943Q3.5,16.20570363616943,3.5,15.653103636169433L3.5,12.064793636169433Q3.5,11.512223636169434,3.885728,11.120523636169434Q4.272644,10.727623636169433,4.81992,10.727633636169433L8.35649,10.727633636169433Q8.90377,10.727633636169433,9.29068,11.120523636169434Q9.67641,11.512223636169434,9.67641,12.064793636169433L9.67641,15.653103636169433ZM16.9393,15.653103636169433Q16.9393,16.20570363616943,16.5536,16.59740363616943Q16.1667,16.990303636169436,15.6194,16.990303636169436L12.08283,16.990303636169436Q11.53556,16.990303636169436,11.14864,16.59740363616943Q10.762920000000001,16.20570363616943,10.76291,15.653103636169433L10.76291,12.064793636169433Q10.762920000000001,11.512223636169434,11.14864,11.120523636169434Q11.53556,10.727623636169433,12.08283,10.727633636169433L15.6194,10.727633636169433Q16.1667,10.727623636169433,16.5536,11.120523636169434Q16.9393,11.512223636169434,16.9393,12.064793636169433L16.9393,15.653103636169433Z" fill-rule="evenodd" fill="#1890FF" fill-opacity="1"/></g></g></svg>