<?xml version="1.0" standalone="no"?><!DOCTYPE svg PUBLIC "-//W3C//DTD SVG 1.1//EN" "http://www.w3.org/Graphics/SVG/1.1/DTD/svg11.dtd"><svg t="1614068131849" class="icon" viewBox="0 0 1024 1024" version="1.1" xmlns="http://www.w3.org/2000/svg" p-id="73164" xmlns:xlink="http://www.w3.org/1999/xlink" width="200" height="200"><defs><style type="text/css"></style></defs><path d="M512 81.92c248.832 0 450.56 201.728 450.56 450.56s-201.728 450.56-450.56 450.56S61.44 781.312 61.44 532.48 263.168 81.92 512 81.92z m0 81.92a368.64 368.64 0 1 0 0 737.28 368.64 368.64 0 0 0 0-737.28z m0 204.8a40.96 40.96 0 0 1 40.67328 36.16768L552.96 409.6v81.92h81.92a40.96 40.96 0 0 1 4.79232 81.63328L634.88 573.44h-81.92v81.92a40.96 40.96 0 0 1-81.63328 4.79232L471.04 655.36v-81.92H389.12a40.96 40.96 0 0 1-4.79232-81.63328L389.12 491.52h81.92v-81.92a40.96 40.96 0 0 1 40.96-40.96z" fill="#5864FF" p-id="73165"></path></svg>