<svg xmlns="http://www.w3.org/2000/svg" xmlns:xlink="http://www.w3.org/1999/xlink" fill="none" version="1.1" width="200" height="200" viewBox="0 0 200 200"><defs><clipPath id="master_svg0_92_19247"><rect x="0" y="0" width="200" height="200" rx="0"/></clipPath></defs><g clip-path="url(#master_svg0_92_19247)"><g><path d="M154.99966412353515,16.66666603088379C170.04266412353516,16.66601562488379,182.46466412353516,28.42136603088379,183.29166412353516,43.44166603088379L183.33366412353516,44.99996603088379L183.33366412353516,114.99996603088378C183.33366412353516,130.0426660308838,171.57866412353516,142.4646660308838,156.55866412353515,143.2916660308838L154.99966412353515,143.3336660308838L144.99966412353515,143.3336660308838C144.42466412353514,143.3336660308838,143.86666412353514,143.2746660308838,143.33366412353516,143.1666660308838L143.33366412353516,154.9996660308838C143.33366412353516,170.64766603088378,130.64766412353515,183.3336660308838,114.99996412353515,183.3336660308838L44.99996412353516,183.3336660308838C29.351964123535154,183.3336660308838,16.666664123535156,170.64766603088378,16.666666030885157,154.9996660308838L16.666666030885157,84.99996603088378C16.666662216185156,69.35196603088379,29.351964123535154,56.66666603088379,44.99996412353516,56.66666603088379L56.833364123535155,56.66666603088379C56.787564123535155,56.437766030883786,56.751364123535154,56.20696603088379,56.72496412353516,55.97496603088379L56.666664123535156,54.99996603088379L56.666664123535156,44.99996603088379C56.66606412353516,29.95696603088379,68.42136412353516,17.53570703088379,83.44166412353516,16.70833393088379L84.99996412353515,16.66666603088379L154.99966412353515,16.66666603088379ZM114.99996412353515,73.33336603088378L44.99996412353516,73.33336603088378C38.55666412353516,73.33336603088378,33.333364123535155,78.55666603088379,33.333364123535155,84.99996603088378L33.333364123535155,154.9996660308838C33.333364123535155,161.44366603088378,38.55666412353516,166.6666660308838,44.99996412353516,166.6666660308838L114.99996412353515,166.6666660308838C121.44366412353516,166.6666660308838,126.66666412353516,161.44366603088378,126.66666412353516,154.9996660308838L126.66666412353516,84.99996603088378C126.66666412353516,78.55666603088379,121.44366412353516,73.33336603088378,114.99996412353515,73.33336603088378ZM154.99966412353515,33.33336603088379L84.99996412353515,33.33336603088379C78.99076412353516,33.33106603088379,73.96276412353515,37.89376603088379,73.38336412353516,43.87496603088379L73.33336412353515,44.99996603088379L73.33336412353515,54.99996603088379C73.33336412353515,55.56666603088379,73.27496412353516,56.12496603088379,73.16666412353516,56.66666603088379L114.99996412353515,56.66666603088379C130.64766412353515,56.66666603088379,143.33366412353516,69.35196603088379,143.33366412353516,84.99996603088378L143.33366412353516,126.83366603088379C143.56266412353517,126.78766603088378,143.79266412353516,126.75166603088378,144.02466412353516,126.7246660308838L144.99966412353515,126.66666603088379L154.99966412353515,126.66666603088379C161.00966412353515,126.66866603088378,166.03766412353517,122.10666603088379,166.61666412353514,116.12496603088378L166.66666412353516,114.99996603088378L166.66666412353516,44.99996603088379C166.66866412353517,38.99076603088379,162.10666412353515,33.962766030883785,156.12466412353515,33.38336603088379L154.99966412353515,33.33336603088379Z" fill="#1890FF" fill-opacity="1"/></g></g></svg>