<svg xmlns="http://www.w3.org/2000/svg" xmlns:xlink="http://www.w3.org/1999/xlink" fill="none" version="1.1" width="20" height="20" viewBox="0 0 20 20"><g><g><path d="M4.897369454345704,14.737888555908203Q4.864149454345704,14.697088555908204,4.8740294543457034,14.643988555908203Q5.045619454345703,13.718888555908203,5.523869454345704,12.913748555908203Q5.989079454345703,12.130568555908203,6.692359454345703,11.546568555908204Q7.395659454345703,10.962538555908203,8.251829454345703,10.648468555908202Q9.132039454345703,10.325578555908203,10.074579454345702,10.325588555908203Q10.650559454345704,10.325588555908203,11.208769454345703,10.447108555908203Q11.374309454345703,10.483158555908204,11.519759454345703,10.398148555908204Q11.668239454345704,10.311378555908203,11.713229454345703,10.146708555908203L11.779789454345703,9.903108555908204Q12.651579454345702,9.444428555908203,13.178829454345703,8.605878555908202Q13.738209454345704,7.716318555908203,13.738209454345704,6.662788555908203Q13.738209454345704,5.918978555908203,13.449759454345703,5.2383685559082025Q13.171329454345702,4.581308555908203,12.664079454345703,4.0740685559082035Q12.156839454345704,3.566827555908203,11.499789454345702,3.288399555908203Q10.819179454345704,2.999988555908203,10.075369454345704,2.999988555908203Q9.331549454345703,2.999988555908203,8.650939454345703,3.288399555908203Q7.9938894543457035,3.566827555908203,7.486649454345703,4.0740685559082035Q6.979409454345703,4.581308555908203,6.700979454345703,5.2383685559082025Q6.412569454345704,5.918978555908203,6.412569454345704,6.662788555908203Q6.412569454345704,7.582438555908203,6.8456894543457025,8.389158555908203Q7.201729454345703,9.052308555908203,7.7823894543457035,9.517048555908204Q6.270299454345703,10.081578555908203,5.189149454345703,11.304378555908203Q3.998306454345703,12.651238555908202,3.669476854345703,14.421188555908204Q3.554608854345703,15.038388555908202,3.955814454345703,15.521488555908203Q4.353571454345703,15.999688555908204,4.976279454345703,15.999688555908204L9.513799454345703,15.999688555908204Q9.686049454345703,15.999688555908204,9.807849454345703,15.877888555908203Q9.929639454345704,15.756088555908203,9.929639454345704,15.583788555908203L9.929639454345704,15.190488555908203Q9.929639454345704,15.018288555908203,9.807849454345703,14.896488555908203Q9.686049454345703,14.774688555908202,9.513799454345703,14.774688555908202L4.975489454345703,14.774688555908202Q4.927839454345703,14.774688555908202,4.897369454345704,14.737888555908203ZM10.385119454345702,13.514288555908204C10.385119454345702,11.592648555908204,11.948969454345702,10.028798555908203,13.870609454345702,10.028798555908203C15.793009454345704,10.028798555908203,17.356109454345702,11.592648555908204,17.356109454345702,13.514288555908204C17.356109454345702,15.435888555908203,15.792209454345704,16.999788555908204,13.870609454345702,16.999788555908204C11.948969454345702,16.999788555908204,10.385119454345702,15.435888555908203,10.385119454345702,13.514288555908204ZM15.431109454345703,13.147188555908203C15.516409454345704,13.068488555908203,15.564909454345702,12.957668555908203,15.564909454345702,12.841608555908204C15.564909454345702,12.611948555908203,15.378709454345703,12.425768555908203,15.149009454345704,12.425768555908203C15.044509454345704,12.425768555908203,14.943809454345702,12.465138555908203,14.867009454345704,12.536048555908204L13.386459454345703,13.902688555908203L12.973449454345703,13.407088555908203C12.894439454345703,13.312288555908204,12.777399454345703,13.257488555908203,12.653989454345703,13.257488555908203C12.424329454345703,13.257488555908203,12.238149454345702,13.443588555908203,12.238149454345702,13.673288555908202C12.238149454345702,13.770588555908203,12.272249454345703,13.864788555908204,12.334609454345703,13.939588555908204L13.307659454345703,15.107288555908204L15.431109454345703,13.147188555908203Z" fill-rule="evenodd" fill="#1890FF" fill-opacity="1"/></g></g></svg>