<svg xmlns="http://www.w3.org/2000/svg" xmlns:xlink="http://www.w3.org/1999/xlink" fill="none" version="1.1" width="20" height="20" viewBox="0 0 20 20"><g><g><path d="M4.042997,15.812624589538574Q3.500861119,15.268824589538575,3.5,14.499124589538575L3.5,5.499494589538575Q3.500860875,4.731184589538574,4.042988,4.187345589538574Q4.58672,3.6418962235385743,5.3578600000000005,3.6410282575185744L8.83576,3.6410329036185742Q9.610669999999999,3.6388964295385744,10.15424,4.1871265895385745L11.11487,5.150804589538574L15.6421,5.150804589538574L15.6435,5.150804589538574Q16.4133,5.151674589538574,16.957,5.697124589538574L16.9573,5.697454589538575Q17.4991,6.2411945895385745,17.5,7.009274589538574L17.5,7.010644589538574L17.5,14.500524589538575Q17.4991,15.268824589538575,16.957,15.812624589538574Q16.4133,16.358124589538576,15.6421,16.359024589538574L5.3564799999999995,16.358924589538574Q4.58673,16.358124589538576,4.042997,15.812624589538574ZM13.19232,10.153844589538574L8.064119999999999,10.153844589538574C7.72425,10.153844589538574,7.448729999999999,10.429354589538574,7.448729999999999,10.769224589538574C7.448729999999999,11.109094589538575,7.72425,11.384614589538575,8.064119999999999,11.384614589538575L13.19232,11.384614589538575C13.5322,11.384614589538575,13.8077,11.109094589538575,13.8077,10.769224589538574C13.8077,10.429354589538574,13.5322,10.153844589538574,13.19232,10.153844589538574Z" fill-rule="evenodd" fill="#1890FF" fill-opacity="1"/></g></g></svg>