<svg xmlns="http://www.w3.org/2000/svg" xmlns:xlink="http://www.w3.org/1999/xlink" fill="none" version="1.1" width="20" height="20" viewBox="0 0 20 20"><g><g><g><path d="M12.797871245422364,13.8042C12.424951245422363,13.5243,12.192561245422363,13.1029,12.160451245422363,12.64786C12.134571245422363,12.28409,12.238501245422363,11.92364,12.449481245422364,11.62527L9.111361245422362,11.62527C8.199321245422365,11.62527,7.457391245422364,10.88333,7.457391245422364,9.97129C7.457391245422364,9.059249999999999,8.199321245422365,8.317319999999999,9.111361245422362,8.317319999999999L12.540951245422363,8.317319999999999C12.187891245422364,7.6871,12.278791245422363,6.87374,12.813441245422363,6.3385C13.233281245422363,5.91908,13.823581245422364,5.77408,14.362681245422364,5.90039L14.362681245422364,4.99555L14.359581245422364,4.99555C14.327481245422364,3.888296,13.421881245422364,3,12.306811245422363,3L5.076661245422363,3C3.9411862454223634,3,3.0205812454223633,3.920604,3.0205812454223633,5.05608L3.0205812454223633,14.9441C3.0205812454223633,16.0796,3.9409912454223632,17,5.076471245422363,17L12.306621245422363,17C13.442081245422363,17,14.362481245422364,16.0796,14.362481245422364,14.9441L14.362481245422364,14.065C14.192381245422363,14.1163,14.015481245422363,14.143,13.837981245422363,14.143C13.469881245422362,14.1434,13.101681245422363,14.0319,12.797871245422364,13.8042Z" fill="#1890FF" fill-opacity="1"/></g><g><path d="M14.373208213500977,7.118195677658081C14.157948213500976,6.902934177658081,13.808778213500975,6.902934177658081,13.593518213500976,7.118195677658081C13.378258213500978,7.333457677658081,13.378258213500978,7.682625677658081,13.593518213500976,7.8978876776580815L15.093348213500978,9.397709677658082L15.116698213500976,9.420099677658081L9.111168213500976,9.420099677658081C8.806765213500977,9.420099677658081,8.559778213500977,9.66688967765808,8.559778213500977,9.97148967765808C8.559778213500977,10.275889677658082,8.806570213500976,10.52287967765808,9.111168213500976,10.52287967765808L15.078358213500977,10.52287967765808L13.407258213500977,12.193979677658081C13.190638213500977,12.41059967765808,13.213988213500976,12.738169677658082,13.459028213500977,12.921899677658082C13.704068213500976,13.105629677658081,14.081658213500976,13.07876967765808,14.298278213500977,12.862149677658081L16.817968213500976,10.34264967765808C17.033228213500976,10.127389677658082,17.033228213500976,9.77821967765808,16.817968213500976,9.562959677658082L14.373208213500977,7.118195677658081Z" fill="#1890FF" fill-opacity="1"/></g></g></g></svg>