<svg xmlns="http://www.w3.org/2000/svg" xmlns:xlink="http://www.w3.org/1999/xlink" fill="none" version="1.1" width="20" height="20" viewBox="0 0 20 20"><g><g><path d="M13.661268745422364,5.1828L15.542968745422364,5.1828C16.596768745422363,5.1828,17.424768745422362,6.0860199999999995,17.424768745422362,7.13979L17.424768745422362,8.949950000000001L17.39926874542236,8.949950000000001C17.399968745422363,8.97906,17.400268745422363,9.00824,17.400268745422363,9.0375L3.5752687454223633,9.0375C3.5752687454223633,9.00824,3.575595158422363,8.97906,3.5762445424223634,8.949950000000001L3.5752687454223633,8.949950000000001L3.5752687454223633,7.13979C3.5752687454223633,6.0860199999999995,4.403225745422363,5.1828,5.456988745422363,5.1828L7.338708745422363,5.1828L7.338708745422363,4.0537600000000005C7.338708745422363,3.451613,7.790318745422363,3,8.392468745422363,3L12.607528745422364,3C13.209678745422364,3,13.661268745422364,3.451613,13.661268745422364,4.0537600000000005L13.661268745422364,5.1828ZM12.456988745422363,4.2043L8.618278745422362,4.2043L8.618278745422362,5.1828L12.456988745422363,5.1828L12.456988745422363,4.2043ZM3.5752687454223633,9.99995L3.5752687454223633,15.1183C3.5752687454223633,16.172,4.403225745422363,17,5.456988745422363,17L15.542968745422364,17C16.596768745422363,17,17.424768745422362,16.172,17.424768745422362,15.1183L17.424768745422362,9.99995L3.5752687454223633,9.99995ZM9.013378745422363,12.93542Q8.952218745422364,12.93542,8.892228745422363,12.94736Q8.832248745422364,12.95929,8.775738745422363,12.98269Q8.719238745422363,13.0061,8.668378745422363,13.0401Q8.617528745422362,13.0741,8.574288745422363,13.1173Q8.531038745422364,13.1605,8.497058745422363,13.2114Q8.463078745422363,13.2623,8.439678745422363,13.3188Q8.416268745422364,13.3753,8.404338745422363,13.4352Q8.392408745422363,13.4952,8.392408745422363,13.5564Q8.392408745422363,13.6176,8.404338745422363,13.6775Q8.416268745422364,13.7375,8.439678745422363,13.794Q8.463078745422363,13.8505,8.497058745422363,13.9014Q8.531038745422364,13.9522,8.574288745422363,13.9955Q8.617528745422362,14.0387,8.668378745422363,14.0727Q8.719238745422363,14.1067,8.775738745422363,14.1301Q8.832248745422364,14.1535,8.892228745422363,14.1654Q8.952218745422364,14.1774,9.013378745422363,14.1774L11.828428745422363,14.1774Q11.889588745422364,14.1774,11.949568745422363,14.1654Q12.009558745422364,14.1535,12.066058745422364,14.1301Q12.122568745422363,14.1067,12.173418745422364,14.0727Q12.224268745422362,14.0387,12.267518745422363,13.9955Q12.310768745422363,13.9522,12.344748745422363,13.9014Q12.378718745422363,13.8505,12.402128745422363,13.794Q12.425528745422364,13.7375,12.437468745422363,13.6775Q12.449398745422362,13.6176,12.449398745422362,13.5564Q12.449398745422362,13.4952,12.437468745422363,13.4352Q12.425528745422364,13.3753,12.402128745422363,13.3188Q12.378718745422363,13.2623,12.344748745422363,13.2114Q12.310768745422363,13.1605,12.267518745422363,13.1173Q12.224268745422362,13.0741,12.173418745422364,13.0401Q12.122568745422363,13.0061,12.066058745422364,12.98269Q12.009558745422364,12.95929,11.949568745422363,12.94736Q11.889588745422364,12.93542,11.828428745422363,12.93542L9.013378745422363,12.93542Z" fill-rule="evenodd" fill="#1890FF" fill-opacity="1"/></g></g></svg>