<svg xmlns="http://www.w3.org/2000/svg" xmlns:xlink="http://www.w3.org/1999/xlink" fill="none" version="1.1" width="20" height="20" viewBox="0 0 20 20"><g><g><path d="M16.129899618530274,3.7698097229003906L6.086909618530274,3.7698097229003906Q4.973989618530274,3.7698097229003906,4.186992618530273,4.556803722900391Q3.3999996185302734,5.343799722900391,3.3999996185302734,6.456719722900391Q3.3999996185302734,7.56964972290039,4.186992618530273,8.35663972290039Q4.973989618530274,9.14363972290039,6.086909618530274,9.14363972290039L16.129899618530274,9.14363972290039Q16.388299618530276,9.14363972290039,16.544999618530273,8.96924972290039Q16.684499618530275,8.81391972290039,16.686399618530274,8.59183972290039Q16.688299618530273,8.36974972290039,16.551499618530272,8.21204972290039Q16.39779961853027,8.034999722900391,16.139699618530273,8.030569722900392L16.067899618530273,8.02914972290039Q15.438299618530273,8.007669722900392,14.997699618530273,7.55069972290039Q14.556099618530274,7.092569722900391,14.556099618530274,6.456719722900391Q14.556099618530274,5.80481972290039,15.016999618530274,5.34385972290039Q15.477999618530273,4.88289972290039,16.129899618530274,4.88289972290039Q16.390399618530274,4.88289972290039,16.546999618530272,4.706658722900391Q16.686399618530274,4.549840722900391,16.686399618530274,4.32635272290039Q16.686399618530274,4.1028647229003905,16.546999618530272,3.9460467229003906Q16.390399618530274,3.7698097229003906,16.129899618530274,3.7698097229003906ZM8.942289618530275,6.820669722900391Q9.088079618530273,6.65232972290039,9.077309618530274,6.4299097229003905Q9.066529618530273,6.207489722900391,8.905299618530274,6.053829722900391Q8.744039618530273,5.9001397229003905,8.521349618530273,5.900179722900391L6.084059618530274,5.900179722900391L6.035779618530274,5.902349722900391L6.033199618530274,5.902599722900391Q5.811609618530273,5.924079722900391,5.6658796185302736,6.092609722900391Q5.520159618530274,6.261129722900391,5.530859618530274,6.48349972290039Q5.541559618530274,6.705879722900391,5.702569618530273,6.859499722900391Q5.863629618530274,7.01315972290039,6.086259618530273,7.01326972290039L8.524139618530274,7.01326972290039L8.572919618530275,7.010559722900391L8.574959618530272,7.0103597229003904Q8.796619618530274,6.98886972290039,8.942289618530275,6.820669722900391ZM14.912899618530274,10.856499722900391L4.875539618530274,10.856499722900391L4.814679618530273,10.85878972290039L4.812309618530273,10.85898972290039Q4.3175796185302735,10.90119972290039,4.313348618530274,11.408289722900392Q4.309118618530274,11.915349722900391,4.8030096185302735,11.96593972290039L4.805419618530273,11.96618972290039L4.8661896185302735,11.96945972290039L4.931829618530274,11.970669722900391Q5.561349618530274,11.99213972290039,6.001949618530274,12.44923972290039Q6.443649618530273,12.907469722900391,6.443649618530273,13.543349722900391Q6.443699618530273,14.17680972290039,6.0048696185302735,14.63370972290039Q5.566029618530274,15.09060972290039,4.935249618530273,15.11600972290039L4.8701096185302735,15.117209722900391Q4.609639618530274,15.117209722900391,4.452999618530273,15.29340972290039Q4.313611618530273,15.450209722900391,4.313611618530273,15.67370972290039Q4.313611618530273,15.89720972290039,4.452999618530273,16.05400972290039Q4.609639618530274,16.23020972290039,4.8701096185302735,16.23020972290039L14.913199618530273,16.23020972290039Q16.026099618530274,16.23020972290039,16.812999618530274,15.443209722900392Q17.599999618530273,14.65630972290039,17.599999618530273,13.543349722900391Q17.599999618530273,12.43041972290039,16.812999618530274,11.64345972290039Q16.026099618530274,10.856499722900391,14.912899618530274,10.856499722900391ZM15.333299618530273,13.90730972290039Q15.478899618530274,13.738869722900391,15.468199618530273,13.51644972290039Q15.457399618530273,13.29401972290039,15.296199618530274,13.140429722900391Q15.134899618530273,12.98683972290039,14.912199618530273,12.98686972290039L12.475139618530273,12.98686972290039L12.426489618530274,12.98923972290039L12.424089618530273,12.98946972290039Q12.202499618530274,13.01094972290039,12.056869618530273,13.17934972290039Q11.911239618530274,13.347739722900391,11.921939618530274,13.57011972290039Q11.932639618530274,13.792509722900391,12.093759618530273,13.94610972290039Q12.254879618530273,14.09980972290039,12.477519618530273,14.09990972290039L14.914699618530273,14.09990972290039L14.963599618530273,14.09750972290039L14.965999618530274,14.097309722900391Q15.187699618530273,14.07580972290039,15.333299618530273,13.90730972290039Z" fill-rule="evenodd" fill="#1890FF" fill-opacity="1"/></g></g></svg>